<svg width="295" height="228" viewBox="0 0 295 228" fill="none" xmlns="http://www.w3.org/2000/svg">
<path d="M75.7641 89.8586C76.4314 90.2426 76.4482 90.8491 75.785 91.2327L56.6883 102.288C56.0388 102.664 54.9743 102.664 54.3069 102.28L35.0989 91.2327C34.4316 90.8486 34.4412 90.2421 35.0913 89.8662L54.1879 78.8112C54.8512 78.4272 55.8888 78.4272 56.5566 78.8112L75.7641 89.8586Z" fill="#F2F2F2"/>
<path d="M73.3277 88.5093L73.3237 89.967C73.3232 90.1762 73.1843 90.3845 72.9041 90.5466L72.9081 89.0889C73.1884 88.9263 73.3272 88.718 73.3277 88.5093Z" fill="#CC0007"/>
<path d="M37.5422 89.9562L37.5463 88.4985C37.5458 88.7108 37.6867 88.9236 37.9736 89.0888L37.9695 90.5465C37.6831 90.3813 37.5417 90.1685 37.5422 89.9562Z" fill="#CC0007"/>
<path d="M54.4666 98.5742L54.4625 100.032L37.97 90.5466L37.974 89.0889L54.4666 98.5742Z" fill="#CC0007"/>
<path d="M72.908 89.0884L72.904 90.5461L56.5076 100.038L56.5116 98.5808L72.908 89.0884Z" fill="#CC0007"/>
<path d="M56.5116 98.5808L56.5076 100.038C55.9496 100.361 55.0356 100.361 54.4624 100.032L54.4665 98.5742C55.0397 98.9036 55.9532 98.9036 56.5116 98.5808Z" fill="#CC0007"/>
<path d="M72.8899 87.9088C73.4631 88.2381 73.4774 88.759 72.9082 89.0888L56.5113 98.5807C55.9534 98.904 55.0394 98.904 54.4667 98.5742L37.9741 89.0888C37.4009 88.7595 37.4096 88.2387 37.9675 87.9154L54.3644 78.4235C54.9336 78.0942 55.8247 78.0942 56.3979 78.4235L72.8899 87.9088Z" fill="#FF3D44"/>
<path d="M66.5377 86.3852H66.5478L61.2933 65.0697L49.5787 65.0398L44.3359 86.2732H44.3415C43.7245 88.2892 44.7712 90.4466 47.4908 92.0102C51.9067 94.5501 59.0442 94.5628 63.4325 92.0391C66.1028 90.5039 67.1302 88.3829 66.5377 86.3852Z" fill="#E60008"/>
<path d="M66.5478 86.3853L66.2366 85.1237C65.7269 86.1198 64.7977 87.0592 63.4325 87.844C59.0442 90.3677 51.9067 90.3551 47.4908 87.8152C46.1018 87.0161 45.1552 86.0616 44.638 85.0508L44.3359 86.2734H44.3415C43.7245 88.2894 44.7712 90.4468 47.4908 92.0104C51.9067 94.5503 59.0442 94.5629 63.4325 92.0392C66.1028 90.5035 67.1302 88.3826 66.5377 86.3848L66.5478 86.3853Z" fill="#F2F2F2"/>
<path d="M59.6031 67.7222C57.3158 69.038 53.5953 69.0314 51.2933 67.7075C48.9912 66.3836 48.9795 64.2439 51.2673 62.9281C53.5546 61.6123 57.2751 61.6189 59.5772 62.9428C61.8787 64.2672 61.8904 66.4069 59.6031 67.7222Z" fill="#FF999D"/>
<path d="M57.6135 66.5782C56.4183 67.2657 54.4738 67.2622 53.2709 66.5706C52.068 65.879 52.0619 64.7602 53.2572 64.0732C54.4525 63.3857 56.3969 63.3892 57.5998 64.0808C58.8027 64.7724 58.8088 65.8906 57.6135 66.5782Z" fill="#262626"/>
<path d="M53.2566 65.3237C54.4519 64.6361 56.3963 64.6397 57.5992 65.3318C57.9207 65.5167 58.15 65.733 58.3006 65.9631C58.7177 65.3328 58.4862 64.591 57.5992 64.0808C56.3963 63.3892 54.4519 63.3857 53.2566 64.0732C52.3808 64.5768 52.1565 65.3105 52.5684 65.9398C52.717 65.7148 52.9428 65.504 53.2566 65.3237Z" fill="#E60008"/>
<path d="M62.7917 71.1331C62.7642 72.2011 62.0491 73.2423 60.6606 74.0504C57.7869 75.7077 53.1254 75.6941 50.2517 74.0368C48.8352 73.2286 48.1068 72.1601 48.0793 71.0915L48.7258 68.4756C48.6983 68.7218 48.7258 68.9686 48.7807 69.2148C48.8357 69.4342 48.9181 69.6531 49.0422 69.8588C49.3448 70.4339 49.9083 70.9821 50.6921 71.434C53.3324 72.9408 57.5946 72.9545 60.2074 71.4477C60.7028 71.1599 61.1011 70.8448 61.4037 70.5164C61.7612 70.1192 61.981 69.6946 62.0913 69.27C62.16 69.0096 62.1737 68.7497 62.1325 68.4893L62.7917 71.1331Z" fill="#F2F2F2"/>
<path d="M65.0069 80.1188C64.8283 81.3789 63.9067 82.5979 62.243 83.5571C58.5026 85.7079 52.4251 85.6942 48.6715 83.5297C46.9803 82.5569 46.045 81.3242 45.8665 80.0504L46.6777 76.7769C46.6914 76.941 46.7189 77.1057 46.7601 77.2562C46.8562 77.6944 47.0627 78.1327 47.3791 78.5573C47.8053 79.1323 48.4238 79.6669 49.2493 80.1325C52.6871 82.105 58.2422 82.1186 61.6657 80.1599C62.6011 79.6122 63.2882 78.9819 63.7007 78.311C63.9067 77.9822 64.0446 77.6534 64.1132 77.3109C64.1544 77.1467 64.1819 76.9821 64.1956 76.8316L65.0069 80.1188Z" fill="#F2F2F2"/>
<path d="M170.916 202.642C171.583 203.026 171.6 203.632 170.937 204.016L151.84 215.071C151.19 215.447 150.126 215.448 149.459 215.064L130.25 204.016C129.583 203.632 129.593 203.026 130.243 202.65L149.34 191.595C150.003 191.211 151.04 191.211 151.708 191.595L170.916 202.642Z" fill="#F2F2F2"/>
<path d="M168.479 201.293L168.475 202.75C168.475 202.96 168.336 203.168 168.056 203.33L168.06 201.872C168.34 201.71 168.479 201.501 168.479 201.293Z" fill="#CC0007"/>
<path d="M132.694 202.74L132.698 201.282C132.698 201.495 132.839 201.707 133.126 201.872L133.122 203.33C132.835 203.165 132.694 202.952 132.694 202.74Z" fill="#CC0007"/>
<path d="M149.618 211.358L149.614 212.816L133.122 203.33L133.126 201.873L149.618 211.358Z" fill="#CC0007"/>
<path d="M168.06 201.872L168.056 203.33L151.659 212.822L151.663 211.364L168.06 201.872Z" fill="#CC0007"/>
<path d="M151.663 211.364L151.659 212.822C151.101 213.145 150.187 213.145 149.614 212.815L149.618 211.358C150.191 211.687 151.105 211.687 151.663 211.364Z" fill="#CC0007"/>
<path d="M168.042 200.692C168.615 201.022 168.629 201.543 168.06 201.872L151.663 211.364C151.105 211.688 150.191 211.688 149.618 211.358L133.126 201.872C132.553 201.543 132.561 201.022 133.119 200.699L149.516 191.207C150.085 190.877 150.976 190.877 151.55 191.207L168.042 200.692Z" fill="#FF3D44"/>
<path d="M161.689 199.169H161.699L156.445 177.854L144.731 177.824L139.488 199.057H139.494C138.877 201.073 139.923 203.231 142.643 204.794C147.059 207.334 154.196 207.347 158.585 204.823C161.254 203.288 162.282 201.167 161.689 199.169Z" fill="#E60008"/>
<path d="M161.699 199.169L161.388 197.908C160.879 198.904 159.949 199.843 158.584 200.628C154.196 203.152 147.058 203.139 142.642 200.599C141.253 199.8 140.307 198.846 139.79 197.835L139.487 199.057H139.493C138.876 201.073 139.923 203.231 142.642 204.794C147.058 207.334 154.196 207.347 158.584 204.823C161.254 203.287 162.282 201.167 161.689 199.169L161.699 199.169Z" fill="#F2F2F2"/>
<path d="M154.755 180.506C152.467 181.821 148.747 181.814 146.445 180.491C144.143 179.167 144.131 177.027 146.419 175.712C148.706 174.396 152.427 174.403 154.729 175.726C157.03 177.051 157.042 179.19 154.755 180.506Z" fill="#FF999D"/>
<path d="M152.765 179.362C151.57 180.049 149.625 180.046 148.422 179.354C147.22 178.662 147.213 177.544 148.409 176.857C149.605 176.169 151.549 176.173 152.752 176.864C153.954 177.556 153.96 178.674 152.765 179.362Z" fill="#262626"/>
<path d="M148.408 178.107C149.603 177.42 151.548 177.423 152.751 178.115C153.072 178.3 153.302 178.516 153.452 178.746C153.869 178.116 153.638 177.374 152.751 176.864C151.548 176.172 149.603 176.169 148.408 176.856C147.532 177.36 147.308 178.093 147.72 178.723C147.869 178.498 148.094 178.287 148.408 178.107Z" fill="#E60008"/>
<path d="M157.943 183.917C157.916 184.985 157.201 186.026 155.812 186.834C152.938 188.491 148.277 188.478 145.403 186.82C143.987 186.012 143.258 184.944 143.231 183.875L143.877 181.259C143.85 181.505 143.877 181.752 143.932 181.998C143.987 182.218 144.07 182.437 144.194 182.642C144.496 183.217 145.06 183.766 145.844 184.217C148.484 185.724 152.746 185.738 155.359 184.231C155.854 183.943 156.253 183.629 156.555 183.3C156.913 182.903 157.133 182.478 157.243 182.053C157.312 181.793 157.325 181.533 157.284 181.273L157.943 183.917Z" fill="#F2F2F2"/>
<path d="M160.158 192.902C159.98 194.162 159.058 195.381 157.395 196.341C153.654 198.491 147.577 198.477 143.823 196.313C142.132 195.34 141.197 194.108 141.018 192.834L141.829 189.56C141.843 189.724 141.871 189.889 141.912 190.039C142.008 190.477 142.214 190.916 142.531 191.34C142.957 191.915 143.576 192.45 144.401 192.915C147.839 194.888 153.394 194.902 156.817 192.943C157.753 192.395 158.44 191.765 158.852 191.094C159.059 190.765 159.196 190.436 159.265 190.094C159.306 189.93 159.333 189.765 159.347 189.615L160.158 192.902Z" fill="#F2F2F2"/>
<path d="M217.548 116.119C217.666 94.286 186.987 76.4213 149.023 76.2171C111.06 76.0128 80.1889 93.5465 80.0705 115.379C79.9521 137.212 110.632 155.077 148.595 155.281C186.558 155.486 217.429 137.952 217.548 116.119Z" fill="#27218A"/>
<path d="M100.054 102.244C126.813 86.8534 170.335 86.932 197.263 102.419C207.55 108.335 213.912 115.644 216.374 123.276C220.401 110.866 214.026 97.5274 197.263 87.887C170.335 72.4003 126.813 72.3217 100.054 87.7122C83.5159 97.2234 77.2644 110.416 81.2469 122.763C83.6888 115.238 89.9519 108.054 100.054 102.244Z" fill="#6D64FF"/>
<path d="M154.054 131.136L159.293 129.253L156.066 150.262L150.828 152.145L154.054 131.136Z" fill="#9D9D9D"/>
<path d="M158.443 102.564L163.682 100.68L160.455 121.689L155.216 123.572L158.443 102.564Z" fill="#9D9D9D"/>
<path d="M156.068 150.258L163.353 154.445C160.91 154.745 158.439 154.962 155.959 155.099L150.826 152.147L156.068 150.258Z" fill="#F2F2F2"/>
<path d="M162.833 73.9819L168.072 72.0986L164.843 93.1157L159.605 94.999L162.833 73.9819Z" fill="#9D9D9D"/>
<path d="M155.216 123.572L160.455 121.689L195.537 141.866L190.298 143.749L155.216 123.572Z" fill="#F2F2F2"/>
<path d="M160.723 44.2645L165.962 42.3812L172.094 45.9081L166.856 47.7914L160.723 44.2645Z" fill="#F2F2F2"/>
<path d="M166.856 47.7914L172.094 45.9081L169.232 64.5428L163.993 66.4261L166.856 47.7914Z" fill="#9D9D9D"/>
<path d="M159.605 94.999L164.843 93.1157L199.926 113.293L194.687 115.176L159.605 94.999Z" fill="#F2F2F2"/>
<path d="M163.993 66.426L169.232 64.5427L204.314 84.7197L199.076 86.603L163.993 66.426Z" fill="#F2F2F2"/>
<path d="M201.938 67.9685L207.176 66.0852L213.316 69.6162L208.077 71.4994L201.938 67.9685Z" fill="#F2F2F2"/>
<path d="M201.937 67.9719L199.768 82.1038L199.075 86.5995L163.991 66.4276L166.854 47.7903L160.727 44.2665L155.786 76.4454L143.696 155.162C147.781 155.344 151.884 155.326 155.959 155.099L150.826 152.147L154.054 131.14L158.603 133.755L185.609 149.286C189.612 147.842 193.404 146.135 196.915 144.164L204.774 92.9941L208.074 71.4963L201.937 67.9719ZM162.833 73.984L167.383 76.5999L170.282 78.2709L197.917 94.1559L195.382 110.677L194.69 115.172L159.606 95.0005L162.359 77.0448L162.833 73.984ZM155.22 123.573L158.439 102.566L162.988 105.182L193.522 122.738L190.988 139.25L190.295 143.745L155.22 123.573Z" fill="#E6E6E6"/>
<path d="M213.316 69.6155L209.113 96.9805L202.393 140.712C200.898 141.774 199.284 142.801 197.57 143.791C197.351 143.918 197.133 144.036 196.913 144.163L204.773 92.9936L208.073 71.4957L213.316 69.6155Z" fill="#9D9D9D"/>
<path d="M137.559 154.716C127.912 153.767 118.542 151.63 110.153 148.305C109.984 135.735 110.444 118.723 110.444 118.456C110.453 117.834 110.402 117.203 110.19 116.614C110.064 116.259 109.857 115.936 109.599 115.637C108.599 114.444 106.815 113.607 105.75 112.69C104.623 111.717 103.642 110.595 102.722 109.426C102.332 108.921 101.947 108.411 101.572 107.897C100.896 106.976 100.178 105.905 99.3655 104.942C99.3136 104.881 99.2668 104.82 99.2104 104.764C98.422 103.847 97.5345 103.043 96.4969 102.566C96.0605 101.869 95.8677 100.724 96.3702 100.069C96.5579 99.8113 96.8539 99.6664 97.1306 99.5124C97.8396 99.1056 98.4683 98.5867 99.0318 97.9975C99.1305 97.8992 99.2241 97.8009 99.3136 97.698C99.7312 97.2349 100.107 96.744 100.464 96.2343C101.083 95.3506 101.628 94.4057 102.083 93.4238C102.106 93.3817 102.125 93.3397 102.144 93.2976C102.266 93.0357 102.379 92.7692 102.487 92.5027C103.045 91.1185 103.435 89.6734 103.628 88.2097C103.656 87.9807 103.68 87.7466 103.698 87.5176C103.717 87.321 103.726 87.1295 103.736 86.9374C103.754 86.5352 103.759 86.1379 103.745 85.7402C103.707 84.5054 103.515 83.2758 103.144 82.0836C102.914 81.3398 102.623 80.6198 102.308 79.909C102.083 79.3896 101.843 78.8754 101.609 78.3611C101.562 78.2674 101.52 78.1696 101.478 78.0758C101.417 77.9451 101.351 77.8093 101.286 77.6735C101.197 77.4866 101.102 77.2946 101.018 77.0985C100.868 76.7854 100.741 76.4626 100.656 76.1444C100.483 75.4711 100.441 74.9193 99.9336 74.3721C100.164 74.1385 100.464 73.9936 100.784 73.8903C100.929 73.8437 101.079 73.8016 101.23 73.7687C101.558 73.6891 101.887 73.6192 102.22 73.563C103.478 73.3385 104.75 73.2635 106.027 73.2965C107.168 73.3198 108.318 73.4322 109.459 73.6005C111.21 73.8578 112.951 74.246 114.655 74.671C115.862 74.9609 116.908 75.3773 118.007 75.9478C118.632 76.2797 119.274 76.6121 119.81 77.0843C120.528 77.711 121.021 78.5197 121.401 79.3942C121.828 80.3619 122.115 81.4143 122.429 82.3825C122.433 82.3916 122.433 82.4058 122.439 82.4154C123.044 84.2719 123.631 86.1379 124.203 88.0035C125.335 91.651 126.363 95.2706 127.546 98.9039C128.752 102.593 129.883 106.311 130.897 110.057C131.306 111.581 131.808 114.247 132.348 117.553C134.47 130.343 137.211 152.616 137.535 154.542C137.545 154.604 137.554 154.66 137.559 154.716Z" fill="#FFC7A6"/>
<path d="M108.815 27.7178L110.032 114.633C110.039 115.163 109.697 115.698 109.004 116.115C107.609 116.952 105.322 116.989 103.891 116.196C103.171 115.797 102.806 115.265 102.799 114.728L101.582 27.813C101.589 28.3501 101.954 28.8826 102.674 29.2813C104.105 30.0738 106.392 30.0373 107.787 29.1998C108.48 28.7838 108.822 28.2483 108.815 27.7178Z" fill="#D9D9D9"/>
<path d="M107.723 26.25C109.154 27.0424 109.182 28.3618 107.787 29.1998C106.392 30.0373 104.105 30.0738 102.675 29.2814C101.244 28.4884 101.215 27.1691 102.61 26.3315C104.005 25.4935 106.292 25.457 107.723 26.25Z" fill="#F2F2F2"/>
<path d="M127.818 44.5153L78.5857 17.2379C78.013 16.9202 77.4953 16.8979 77.125 17.1203L76.124 17.7212C76.4943 17.4988 77.0121 17.5216 77.5848 17.8388L126.817 45.1162C127.953 45.746 128.89 47.305 128.908 48.6036L129.375 83.903C129.384 84.5495 129.162 85.0071 128.798 85.2259L129.799 84.625C130.163 84.4062 130.384 83.9486 130.376 83.3021L129.909 48.0022C129.892 46.7036 128.954 45.1446 127.818 44.5153Z" fill="#FFAA00"/>
<path d="M126.818 45.1161C127.954 45.7454 128.891 47.3044 128.908 48.6035L129.376 83.903C129.393 85.2021 128.483 85.7376 127.347 85.1083L78.1148 57.8309C76.9786 57.2011 76.0325 55.6371 76.0152 54.3385L75.5483 19.0385C75.531 17.7394 76.4501 17.2089 77.5859 17.8382L126.818 45.1161Z" fill="#FFC800"/>
<path d="M91.5638 42.9674V30.4771L91.5359 30.4629L81.396 39.2591V39.287L89.1087 43.7249V48.3219L91.5638 49.734V45.137L93.7372 46.3854V44.2204L91.5638 42.9674ZM89.1087 41.5548L85.0855 39.2449L89.1087 35.6304V41.5548Z" fill="#262626"/>
<path d="M109.079 46.582C108.957 45.9882 108.797 45.4035 108.609 44.8239C108.018 43.0186 107.196 41.4287 106.144 40.0495C105.088 38.6744 103.877 37.5897 102.511 36.8043C102.234 36.6452 101.966 36.5003 101.703 36.3787C99.9098 35.5139 98.4688 35.4855 97.389 36.3038C96.1495 37.2391 95.53 39.2779 95.53 42.4157C95.53 44.3846 95.8255 46.2689 96.4171 48.0741C97.0086 49.8794 97.83 51.4739 98.8818 52.8581C99.7974 54.0599 100.825 55.0372 101.971 55.7856C102.149 55.9026 102.327 56.0146 102.51 56.1175C103.876 56.9215 105.088 57.2397 106.144 57.0761C107.195 56.9124 108.017 56.2669 108.609 55.1401C108.848 54.6866 109.036 54.1531 109.177 53.5547C109.388 52.6757 109.491 51.6375 109.491 50.4448C109.492 49.126 109.355 47.8355 109.079 46.582ZM105.788 53.4048C105.018 54.2327 103.92 54.2372 102.488 53.4144C102.296 53.307 102.113 53.1854 101.934 53.0592C100.784 52.2546 99.8777 51.1136 99.2252 49.6453C98.4648 47.948 98.0797 46.0211 98.0609 43.8749C98.0797 41.7611 98.4648 40.2973 99.2252 39.4836C99.8401 38.8148 100.68 38.6932 101.741 39.1142C101.976 39.208 102.225 39.3296 102.487 39.479C103.919 40.3069 105.018 41.5599 105.787 43.2436C106.552 44.9272 106.947 46.8257 106.961 48.9344C106.948 51.0807 106.553 52.5723 105.788 53.4048Z" fill="#262626"/>
<path d="M120.899 59.8395V47.3491L120.876 47.335L110.731 56.1312V56.1591L118.444 60.597V65.1939L120.899 66.606V62.009L123.072 63.2575V61.0925L120.899 59.8395ZM118.443 58.4269L114.425 56.117L118.443 52.5025V58.4269Z" fill="#262626"/>
<path d="M92.395 60.232C92.071 60.045 91.78 59.7972 91.5262 59.4836C91.273 59.1705 91.071 58.8244 90.921 58.4455L95.0098 59.1563C94.8409 58.2539 94.5312 57.4494 94.0805 56.7385C93.6299 56.0276 93.0663 55.4759 92.3955 55.0923C91.8696 54.7883 91.3864 54.6525 90.9495 54.6809C90.508 54.7042 90.1606 54.8866 89.9073 55.219C89.654 55.5554 89.5269 56.0094 89.5269 56.589C89.5269 57.1874 89.6443 57.7908 89.8788 58.3988C90.1087 59.0068 90.4373 59.5677 90.8645 60.0871C91.2963 60.6013 91.7938 61.0269 92.367 61.3542C92.6676 61.527 92.9773 61.644 93.2962 61.7094C93.6157 61.7748 93.9112 61.7844 94.1884 61.7327L93.6533 60.4422C93.2449 60.5501 92.8222 60.4797 92.395 60.232ZM90.6865 57.5102C90.6768 57.4306 90.6723 57.3186 90.6723 57.1783C90.6723 56.589 90.8274 56.1918 91.1371 55.9907C91.4423 55.7895 91.8319 55.8224 92.306 56.0935C92.6437 56.2901 92.93 56.5515 93.1604 56.8839C93.3858 57.2158 93.5643 57.576 93.6864 57.9737L90.6865 57.5102Z" fill="#262626"/>
<path d="M98.92 59.058C98.6433 59.0347 98.385 59.0722 98.1408 59.1796C97.8967 59.287 97.7044 59.4603 97.5727 59.708L97.4883 58.263L96.4507 57.6692V63.5612L97.6103 64.23V61.5366C97.6103 61.1576 97.6948 60.849 97.8687 60.6109C98.0376 60.3723 98.2726 60.2415 98.5777 60.2274C98.8783 60.2132 99.2161 60.3211 99.5914 60.5547L99.6433 59.2591C99.4317 59.1517 99.1921 59.0813 98.92 59.058Z" fill="#262626"/>
<path d="M103.6 61.7521C103.328 61.7288 103.07 61.7663 102.826 61.8737C102.577 61.9811 102.389 62.1544 102.258 62.4021L102.169 60.9571L102.046 60.8867L101.135 60.3628V66.2548L102.126 66.8253L102.295 66.9236V64.2302C102.295 63.8512 102.379 63.5426 102.548 63.3045C102.717 63.0659 102.956 62.9351 103.257 62.921C103.562 62.9068 103.9 63.0147 104.276 63.2483L104.323 61.9527C104.117 61.8453 103.877 61.7754 103.6 61.7521Z" fill="#262626"/>
<path d="M110.473 67.0263C110.233 66.4138 109.9 65.8478 109.473 65.329C109.431 65.2773 109.388 65.2261 109.342 65.1745C108.947 64.7256 108.501 64.3562 108.013 64.0755C107.464 63.7573 106.971 63.6124 106.535 63.6357C106.098 63.6636 105.76 63.8414 105.516 64.1829C105.267 64.5193 105.145 64.9779 105.145 65.558C105.145 66.1848 105.267 66.8064 105.516 67.419C105.76 68.0361 106.098 68.5975 106.529 69.1072C106.961 69.6169 107.445 70.0283 107.985 70.3369C108.52 70.6455 108.999 70.7949 109.416 70.7767H109.468C109.9 70.7488 110.233 70.5664 110.473 70.2204C110.708 69.8789 110.825 69.4112 110.825 68.827C110.825 68.2378 110.707 67.6394 110.473 67.0263ZM109.393 69.1214C109.332 69.2101 109.257 69.2805 109.168 69.3413C108.853 69.547 108.454 69.5095 107.975 69.2339C107.666 69.056 107.384 68.8083 107.135 68.481C106.882 68.1537 106.68 67.7934 106.535 67.3962C106.389 66.999 106.318 66.6154 106.318 66.2456C106.318 65.8762 106.389 65.5768 106.535 65.3477C106.68 65.1142 106.877 64.9829 107.126 64.9409C107.375 64.8988 107.657 64.9642 107.976 65.1512C108.455 65.4273 108.854 65.8524 109.168 66.428C109.243 66.5637 109.309 66.6945 109.366 66.8303C109.553 67.2746 109.643 67.7139 109.643 68.1582C109.642 68.5742 109.562 68.8969 109.393 69.1214Z" fill="#262626"/>
<path d="M114.848 68.2191C114.576 68.1958 114.318 68.2378 114.073 68.3407C113.825 68.4481 113.637 68.6259 113.505 68.8691L113.416 67.4241L112.383 66.8303V72.7269L113.543 73.3912V70.7023C113.543 70.3187 113.627 70.0102 113.796 69.7715C113.965 69.5329 114.205 69.4067 114.505 69.388C114.81 69.3738 115.148 69.4817 115.524 69.7153L115.571 68.4197C115.364 68.3128 115.125 68.2424 114.848 68.2191Z" fill="#262626"/>
<path d="M93.9142 99.3867C93.897 100.276 94.1538 101.173 94.6726 101.899C95.4823 103.031 96.7793 103.664 98.0417 104.167C98.6754 104.419 99.179 104.819 99.8371 105.034C100.558 105.27 101.311 105.393 102.065 105.459C103.37 105.573 104.743 105.507 105.892 104.881C107.403 104.059 108.311 102.256 108.069 100.558C108.04 100.353 107.997 100.14 108.067 99.9455C108.139 99.7444 108.317 99.6045 108.478 99.4632C110.012 98.1149 110.384 95.6343 109.314 93.8979C109.212 93.7317 109.094 93.5585 109.099 93.3634C109.103 93.1891 109.204 93.0346 109.288 92.8816C109.848 91.8591 109.64 90.4774 108.804 89.6632C109.463 89.341 109.845 88.6124 109.938 87.8874C110.03 87.1618 109.876 86.4302 109.71 85.7183C108.893 82.2188 107.665 78.6599 105.121 76.1129C104.092 75.0819 102.823 74.2261 101.387 73.9631C100.265 73.7579 99.0294 73.9616 98.091 74.6274C97.0819 75.3433 96.4853 76.3865 96.4726 77.6537C96.464 78.5287 96.6496 79.309 96.8775 80.15C96.8907 80.1982 96.9024 80.2499 96.8851 80.2965C96.8541 80.3791 96.7513 80.4039 96.6644 80.4191C95.3277 80.6532 94.1019 81.4593 93.3614 82.5922C92.4403 84.0007 92.2404 85.9975 93.0943 87.4764C93.5206 88.2141 94.1197 88.8384 94.7621 89.3998C94.8343 89.4631 94.9142 89.5624 94.8623 89.643C94.8415 89.6754 94.8043 89.6926 94.7697 89.7098C93.7261 90.2114 93.1371 91.5556 93.0272 92.6465C92.9453 93.4622 93.0781 94.3088 93.4743 95.0278C93.8705 95.7463 94.5404 96.3264 95.3328 96.5478C94.9091 96.7403 94.605 97.1269 94.3868 97.5363C94.0821 98.1038 93.9265 98.7432 93.9142 99.3867Z" fill="#FFF2E6"/>
<path d="M93.914 99.3867C93.8967 100.276 94.1536 101.173 94.6724 101.899C95.5838 103.173 97.0105 104.135 98.4748 104.655C99.6121 105.059 100.864 105.354 102.065 105.459C103.369 105.573 104.742 105.506 105.891 104.881C107.402 104.058 108.31 102.256 108.068 100.557C108.039 100.353 107.996 100.139 108.066 99.945C108.138 99.7439 108.317 99.604 108.477 99.4627C110.011 98.1144 110.384 95.6338 109.314 93.8974C109.211 93.7313 109.093 93.558 109.098 93.3629C109.102 93.1886 109.204 93.0341 109.288 92.8811C109.847 91.8586 109.639 90.4769 108.803 89.6627C109.462 89.3405 109.845 88.6119 109.937 87.8869C110.029 87.1613 109.876 86.4297 109.709 85.7178C108.892 82.2183 107.664 78.6594 105.12 76.1124C104.091 75.0814 102.822 74.2256 101.386 73.9626C100.264 73.7574 99.0287 73.9611 98.0903 74.6269C97.0812 75.3428 96.4846 76.386 96.4719 77.6532C96.4632 78.5282 96.6489 79.3085 96.8767 80.1496C96.89 80.1977 96.9017 80.2494 96.8844 80.296C96.8533 80.3786 96.7506 80.4034 96.6636 80.4186C95.327 80.6527 94.1012 81.4588 93.3606 82.5917C92.4395 84.0002 92.2396 85.997 93.0936 87.4759C93.5198 88.2137 94.119 88.8379 94.7614 89.3993C94.8336 89.4626 94.9135 89.5619 94.8616 89.6425C94.8407 89.6749 94.8036 89.6921 94.769 89.7093C93.7253 90.2109 93.1363 91.5551 93.0265 92.646C92.9446 93.4617 93.0773 94.3084 93.4736 95.0273C93.8698 95.7458 94.5396 96.3259 95.3321 96.5473C94.9084 96.7398 94.6042 97.1264 94.386 97.5358C94.0819 98.1038 93.9262 98.7432 93.914 99.3867Z" fill="#FFE5CC"/>
<path d="M108.126 99.8286C108.102 99.8671 108.079 99.9056 108.064 99.9441C108.04 100.014 108.033 100.075 108.025 100.145C106.996 100.191 105.959 100.16 104.93 100.099C103.599 100.029 102.431 99.5129 101.224 98.9657C99.9856 98.4028 98.7477 97.8404 97.4634 97.3935C96.8291 97.1701 96.1791 96.9776 95.5215 96.8306C95.3592 96.7921 95.1888 96.7688 95.0108 96.7384C95.1115 96.6614 95.2122 96.5996 95.3282 96.5459C95.0495 96.4689 94.7789 96.3377 94.5388 96.176C95.9935 96.3995 97.4247 96.7156 98.709 97.3941C99.9312 98.0335 101.138 98.5503 102.493 98.8274C104.357 99.212 106.238 99.5514 108.126 99.8286Z" fill="#FFB78C"/>
<path d="M109.309 92.0598C108.404 92.5761 107.491 93.1 106.508 93.447C105.966 93.6396 105.402 93.7784 104.837 93.8635C104.473 93.9253 104.094 93.9557 103.73 93.9096C103.428 93.8635 103.134 93.7784 102.848 93.6862C101.146 93.1314 99.4749 92.453 97.9195 91.5511C97.1846 91.1194 96.4801 90.6725 95.7375 90.2561C95.4202 90.0787 95.1033 89.8938 94.8017 89.6937C94.8251 89.678 94.848 89.6628 94.8637 89.6394C94.91 89.5624 94.8327 89.4621 94.763 89.4003C94.7086 89.3542 94.6623 89.3076 94.6084 89.2615C94.6242 89.2691 94.6471 89.2767 94.6623 89.2848C95.0026 89.4388 95.3434 89.6009 95.6684 89.7859C96.001 89.9941 100.589 92.607 101.015 92.8147C101.727 93.1537 102.462 93.4465 103.228 93.6472C103.661 93.7627 104.118 93.8478 104.567 93.8169C105.155 93.7784 105.712 93.5474 106.253 93.3239C107.274 92.8999 108.288 92.4834 109.309 92.0598Z" fill="#FFB78C"/>
<path d="M109.255 89.7014C109.139 89.6781 109.031 89.6477 108.923 89.5935C108.691 89.5012 108.466 89.3624 108.242 89.2312C107.391 88.7377 106.485 88.2523 105.526 88.0517C104.489 87.8358 103.444 87.4351 102.462 87.05C102.052 86.8879 101.657 86.6801 101.27 86.4643C100.303 85.9247 99.5757 85.3157 98.9567 84.5607C98.5544 84.0672 98.1907 83.5125 97.8423 82.8806C97.4013 82.0867 97.0143 81.2618 96.6816 80.4218C96.7666 80.3985 96.852 80.3676 96.8831 80.2987C96.8831 80.2911 96.8831 80.2911 96.8831 80.283C97.2233 80.9072 97.587 81.5162 97.9273 82.1561C98.2909 82.8421 98.7553 83.4815 99.2273 84.0906C99.591 84.5531 99.9546 85.0152 100.411 85.3856C100.999 85.8786 101.719 86.2023 102.438 86.4724C103.235 86.7729 104.218 87.1741 105.069 87.1969C105.873 87.2202 106.314 87.4361 106.941 87.9676C107.606 88.5224 108.303 89.0544 109.015 89.5398C109.092 89.5935 109.178 89.6472 109.255 89.7014Z" fill="#FFB78C"/>
<path d="M90.9733 85.9835C92.0388 86.6847 93.3323 86.9386 94.5967 87.1169C95.9471 87.3074 97.3677 87.4204 98.6356 86.9203C98.9403 86.8002 99.2536 86.6422 99.5781 86.6878C99.7673 86.7141 99.9397 86.8084 100.108 86.898C100.987 87.3637 101.909 87.7492 102.858 88.0477C103.336 88.1981 103.875 88.3223 104.322 88.0938C104.835 88.8598 105.481 89.5383 106.221 90.0911C105.988 92.8392 106.825 95.7845 108.051 98.2357C108.319 98.7713 108.625 99.3073 109.093 99.6822C109.564 100.06 110.16 100.244 110.749 100.382C112.089 100.698 113.519 100.82 114.829 100.394C116.582 99.8231 117.915 98.3153 118.627 96.62C119.688 94.0917 119.501 91.1931 118.757 88.5548C118.448 87.4579 118.03 86.3589 117.269 85.5093C116.645 84.8131 115.828 84.3242 115.023 83.8464C112.942 82.6101 110.861 81.3738 108.78 80.1376C105.997 78.4843 102.949 76.7703 99.7297 77.1376C99.424 77.1726 99.1132 77.2288 98.8467 77.3818C98.5283 77.5642 98.302 77.8667 98.0589 78.1413C96.6179 79.7677 94.4268 80.5353 92.2769 80.8809C91.1065 81.0688 89.4861 81.6368 89.2836 83.0398C89.1199 84.1803 90.073 85.3912 90.9733 85.9835Z" fill="#FFD7BF"/>
<path d="M89.4404 83.6695C89.5843 84.0971 89.92 84.4569 90.3381 84.6307C90.6591 84.7644 91.0146 84.7898 91.3625 84.7898C91.8645 84.7898 92.3721 84.7381 92.8446 84.5688C93.49 84.3378 94.0521 83.8838 94.4137 83.3037C94.7753 82.7231 94.933 82.0198 94.8542 81.3409C94.8379 81.198 94.8058 81.0465 94.7031 80.9452C94.5754 80.82 94.3776 80.8079 94.1985 80.8084C92.7302 80.8129 88.6414 81.2943 89.4404 83.6695Z" fill="#E60008"/>
<path d="M100.055 86.8726C99.9006 86.7956 99.746 86.7186 99.5756 86.6877C99.4749 86.6725 99.3747 86.6801 99.274 86.7034C99.3513 86.4718 99.4286 86.2332 99.4286 85.9327C99.4134 85.3009 99.2506 84.6762 99.0807 84.0672C99.0263 83.8438 98.9572 83.6203 98.8564 83.4197C99.4907 84.4599 99.6763 85.7164 100.055 86.8726Z" fill="#FFB78C"/>
<path d="M101.928 77.1918C101.642 78.4483 101.216 79.7119 100.319 80.6295C100.156 80.7917 99.9784 80.9457 99.7617 81.0303C100.381 80.3215 100.845 79.4657 101.116 78.5638C101.255 78.0937 101.386 77.5617 101.208 77.1072C101.448 77.1229 101.688 77.1457 101.928 77.1918Z" fill="#FFB78C"/>
<path d="M98.477 80.9916C98.1134 80.3598 98.0208 79.5968 98.152 78.8798C98.2451 78.3945 98.4384 77.9319 98.6937 77.5154C98.7013 77.5002 98.7095 77.4845 98.7247 77.4693C98.7634 77.4384 98.802 77.4075 98.8483 77.3847C99.0106 77.292 99.1967 77.2306 99.39 77.1921C98.74 78.3712 98.3687 79.6196 98.477 80.9916Z" fill="#FFB78C"/>
<path d="M96.2934 90.7461C96.0772 91.6196 96.2089 92.5108 96.1047 93.396C95.9968 94.3151 95.6983 95.2225 95.1418 95.9719C95.3575 95.0715 95.4791 94.1534 95.6205 93.2394C95.6906 92.7829 95.7664 92.3279 95.8605 91.8754C95.9434 91.4752 96.186 91.1383 96.2934 90.7461Z" fill="#FFB78C"/>
<path d="M95.5352 99.0381C95.2789 99.6517 95.2387 100.344 95.3679 100.996C95.6217 99.9876 95.9421 98.9596 96.6165 98.1661C96.8312 97.9133 97.087 97.6878 97.4054 97.5779C96.9878 97.6726 96.6664 97.6924 96.321 97.9746C95.9767 98.2558 95.7066 98.6282 95.5352 99.0381Z" fill="#FFB78C"/>
<path d="M103.907 93.4553C103.822 92.6112 103.91 91.7362 104.437 91.0416C104.931 90.3915 105.297 89.4881 106.009 89.021C105.536 89.3316 105.061 89.6437 104.639 90.0206C103.636 90.9174 103.112 92.2784 103.911 93.4989C103.91 93.4837 103.908 93.4695 103.907 93.4553Z" fill="#FFB78C"/>
<path d="M100.431 211.592L22.899 166.915C21.7195 166.236 21.8675 165.051 23.2296 164.268L30.2364 160.238C31.5985 159.455 33.6589 159.369 34.8389 160.048L112.37 204.725C113.55 205.403 113.402 206.588 112.04 207.372L105.033 211.402C103.671 212.185 101.611 212.27 100.431 211.592Z" fill="#F2F2F2"/>
<path d="M107.906 204.147V205.239C107.903 206.211 107.261 207.182 105.98 207.924C103.399 209.418 99.2022 209.418 96.5986 207.921C95.2914 207.169 94.6383 206.182 94.6409 205.197V204.106C94.6378 205.091 95.2909 206.078 96.5986 206.83C99.2017 208.327 103.399 208.327 105.98 206.833C107.261 206.09 107.903 205.12 107.906 204.147Z" fill="#404040"/>
<path d="M105.944 201.419C108.547 202.917 108.561 205.339 105.98 206.833C103.398 208.327 99.2018 208.327 96.5982 206.83C94.0001 205.335 93.9864 202.914 96.5676 201.419C99.1494 199.925 103.346 199.925 105.944 201.419Z" fill="#737373"/>
<path d="M103.2 202.989C104.274 203.607 104.279 204.606 103.215 205.222C102.15 205.838 100.419 205.838 99.3458 205.22C98.2741 204.604 98.2685 203.606 99.3331 202.989C100.398 202.373 102.128 202.373 103.2 202.989Z" fill="#262626"/>
<path d="M107.905 204.15V205.241C107.905 206.211 107.26 207.181 105.977 207.922C104.681 208.676 102.977 209.049 101.273 209.043V207.952C102.977 207.958 104.681 207.585 105.977 206.831C107.26 206.09 107.905 205.121 107.905 204.15Z" fill="#262626"/>
<path d="M103.714 152.11V204.016C103.713 204.374 103.477 204.731 103.005 205.004C102.056 205.554 100.511 205.554 99.5537 205.003C99.0726 204.726 98.8325 204.363 98.8335 204.001V152.095C98.8325 152.457 99.0726 152.82 99.5537 153.097C100.511 153.648 102.056 153.648 103.005 153.098C103.477 152.825 103.713 152.468 103.714 152.11Z" fill="#404040"/>
<path d="M103.712 152.111V204.015C103.712 204.374 103.479 204.732 103.003 205.003C102.526 205.279 101.9 205.417 101.273 205.417V153.508C101.9 153.514 102.526 153.376 103.003 153.1C103.479 152.823 103.712 152.47 103.712 152.111Z" fill="#262626"/>
<path d="M102.992 151.107C103.95 151.658 103.955 152.549 103.005 153.098C102.056 153.648 100.512 153.648 99.5538 153.097C98.5981 152.548 98.593 151.657 99.5426 151.107C100.492 150.557 102.036 150.557 102.992 151.107Z" fill="#737373"/>
<path d="M103.057 149.112V151.771C103.056 152.033 102.884 152.294 102.539 152.493C101.846 152.895 100.717 152.895 100.017 152.493C99.6657 152.291 99.4902 152.026 99.4907 151.761V149.101C99.4902 149.366 99.6657 149.631 100.017 149.833C100.717 150.235 101.846 150.235 102.539 149.834C102.884 149.634 103.056 149.373 103.057 149.112Z" fill="#404040"/>
<path d="M102.529 148.378C103.229 148.781 103.233 149.432 102.539 149.834C101.845 150.235 100.716 150.235 100.017 149.833C99.3183 149.431 99.3147 148.78 100.008 148.378C100.703 147.977 101.831 147.977 102.529 148.378Z" fill="#737373"/>
<path d="M103.058 149.112V151.774C103.058 152.033 102.886 152.293 102.537 152.492C102.187 152.696 101.733 152.795 101.273 152.795V150.133C101.733 150.133 102.188 150.034 102.537 149.835C102.886 149.636 103.058 149.371 103.058 149.112Z" fill="#262626"/>
<path d="M39.8054 164.947V166.038C39.8028 167.01 39.161 167.981 37.8792 168.724C35.298 170.218 31.1009 170.218 28.4977 168.72C27.1906 167.969 26.5375 166.982 26.54 165.997V164.905C26.537 165.891 27.1901 166.877 28.4977 167.629C31.1009 169.126 35.298 169.126 37.8792 167.632C39.1605 166.89 39.8023 165.92 39.8054 164.947Z" fill="#404040"/>
<path d="M37.8432 162.219C40.4463 163.716 40.4601 166.138 37.8788 167.632C35.2976 169.126 31.1004 169.126 28.4973 167.629C25.8993 166.135 25.8856 163.713 28.4668 162.219C31.0481 160.725 35.2452 160.725 37.8432 162.219Z" fill="#737373"/>
<path d="M35.0988 163.789C36.1725 164.407 36.1781 165.405 35.1135 166.022C34.049 166.638 32.3182 166.638 31.2445 166.021C30.1728 165.404 30.1672 164.406 31.2317 163.789C32.2968 163.173 34.0276 163.173 35.0988 163.789Z" fill="#262626"/>
<path d="M39.8035 164.95V166.041C39.8035 167.011 39.1586 167.981 37.8759 168.722C36.5799 169.475 34.8755 169.849 33.1716 169.842V168.751C34.8755 168.758 36.5799 168.385 37.8759 167.631C39.1591 166.89 39.8035 165.92 39.8035 164.95Z" fill="#262626"/>
<path d="M35.6129 112.91V164.816C35.6119 165.174 35.3759 165.531 34.9044 165.804C33.9548 166.354 32.4106 166.354 31.4529 165.803C30.9717 165.527 30.7317 165.163 30.7327 164.801V112.895C30.7317 113.257 30.9717 113.62 31.4529 113.897C32.4106 114.447 33.9548 114.447 34.9044 113.898C35.3759 113.625 35.6119 113.268 35.6129 112.91Z" fill="#404040"/>
<path d="M35.6115 112.911V164.815C35.6115 165.173 35.3785 165.533 34.9019 165.803C34.4254 166.079 33.7987 166.218 33.1721 166.218V114.308C33.7987 114.314 34.4254 114.175 34.9019 113.899C35.3785 113.623 35.6115 113.269 35.6115 112.911Z" fill="#262626"/>
<path d="M34.8913 111.906C35.849 112.457 35.8541 113.348 34.9045 113.898C33.9549 114.448 32.4107 114.448 31.453 113.897C30.4973 113.347 30.4922 112.456 31.4418 111.906C32.3909 111.357 33.9356 111.357 34.8913 111.906Z" fill="#737373"/>
<path d="M34.9559 109.911V112.571C34.9553 112.832 34.7824 113.093 34.4381 113.293C33.7443 113.695 32.6157 113.695 31.9158 113.292C31.5644 113.09 31.3889 112.824 31.3894 112.56V109.9C31.3889 110.165 31.5644 110.43 31.9158 110.632C32.6157 111.035 33.7443 111.035 34.4381 110.633C34.7824 110.434 34.9553 110.173 34.9559 109.911Z" fill="#404040"/>
<path d="M34.4285 109.178C35.1284 109.58 35.132 110.231 34.4382 110.633C33.7444 111.035 32.6158 111.035 31.916 110.632C31.2176 110.23 31.2135 109.579 31.9078 109.178C32.6016 108.776 33.7302 108.776 34.4285 109.178Z" fill="#737373"/>
<path d="M34.9569 109.911V112.573C34.9569 112.833 34.785 113.093 34.4356 113.291C34.0861 113.496 33.6314 113.595 33.1716 113.595V110.933C33.6319 110.933 34.0866 110.834 34.4356 110.635C34.785 110.436 34.9569 110.171 34.9569 109.911Z" fill="#262626"/>
<path d="M105.66 163.231L105.622 176.8C105.619 177.397 105.408 177.816 105.068 178.013L108.065 176.278C108.406 176.081 108.617 175.662 108.619 175.065L108.657 161.496L105.66 163.231Z" fill="#D9D9D9"/>
<path d="M106.76 158.22L27.8134 112.816C27.2845 112.512 26.8049 112.483 26.4585 112.684L23.4612 114.419C23.8076 114.219 24.2872 114.247 24.8161 114.551L103.762 159.955C104.814 160.56 105.664 162.028 105.66 163.231L108.658 161.496C108.661 160.292 107.811 158.825 106.76 158.22Z" fill="#F2F2F2"/>
<path d="M103.762 159.955C104.813 160.56 105.664 162.028 105.66 163.231L105.622 176.8C105.618 178.003 104.762 178.485 103.711 177.88L24.7647 132.476C23.7133 131.871 22.8629 130.408 22.866 129.205L22.9046 115.636C22.9082 114.432 23.7642 113.946 24.8155 114.551L103.762 159.955Z" fill="#E6E6E6"/>
<path d="M36.6877 121.379L22.866 128.756L22.8904 120.501L29.2512 117.106L36.6877 121.379Z" fill="#FF3D44"/>
<path d="M50.1331 129.114L33.9417 137.756L26.5173 133.483L42.7088 124.841L50.1331 129.114Z" fill="#FF3D44"/>
<path d="M63.584 136.848L47.3926 145.49L39.9683 141.218L56.1597 132.575L63.584 136.848Z" fill="#FF3D44"/>
<path d="M77.0357 144.583L60.8443 153.232L53.4138 148.953L69.6052 140.31L77.0357 144.583Z" fill="#FF3D44"/>
<path d="M90.4871 152.318L74.2957 160.966L66.8652 156.687L83.0567 148.044L90.4871 152.318Z" fill="#FF3D44"/>
<path d="M103.926 160.059L87.7466 168.701L80.3162 164.429L96.5076 155.786L103.762 159.956C103.816 159.986 103.871 160.022 103.926 160.059Z" fill="#FF3D44"/>
<path d="M105.651 165.82L105.627 174.063L101.192 176.436L93.7737 172.163L105.651 165.82Z" fill="#FF3D44"/>
<path d="M39.7197 119.66L36.7 121.385L29.2512 117.106L32.2587 115.375L39.7197 119.66Z" fill="#FF999D"/>
<path d="M53.1645 127.394L50.1514 129.12L42.6965 124.835L45.704 123.104L53.1645 127.394Z" fill="#FF999D"/>
<path d="M66.61 135.129L63.5964 136.854L56.1421 132.569L59.1491 130.838L66.61 135.129Z" fill="#FF999D"/>
<path d="M80.0553 142.864L77.0418 144.589L69.5869 140.304L72.6005 138.573L80.0553 142.864Z" fill="#FF999D"/>
<path d="M93.5001 150.593L90.481 152.318L83.0322 148.033L86.0397 146.302L93.5001 150.593Z" fill="#FF999D"/>
<path d="M106.939 158.333L103.92 160.058C103.865 160.022 103.816 159.986 103.762 159.955L96.4832 155.767L99.4906 154.036L106.757 158.218C106.818 158.255 106.879 158.291 106.939 158.333Z" fill="#FF999D"/>
<path d="M108.653 164.107L108.622 172.375L105.627 174.093L105.652 165.832L108.653 164.107Z" fill="#CC0007"/>
<path d="M87.0407 168.302L51.3081 147.754L60.3961 135.029L78.0493 145.179L87.0407 168.302Z" fill="#E6C1C2"/>
<path d="M81.0597 143.45L78.0522 145.181L66.8127 138.717L69.8197 136.986L81.0597 143.45Z" fill="#E6C1C2"/>
<path d="M83.0869 169.24L79.5149 171.308C79.8485 171.115 79.962 170.561 79.6939 169.873L83.266 167.804C83.534 168.493 83.4206 169.046 83.0869 169.24Z" fill="#FFAA00"/>
<path d="M60.5073 123.744L64.0794 121.676C64.295 121.551 64.5814 121.592 64.8672 121.757L61.2952 123.824C61.0093 123.66 60.723 123.619 60.5073 123.744Z" fill="#FFAA00"/>
<path d="M62.2529 125.011L65.825 122.943L83.2656 167.804L79.6935 169.872L62.2529 125.011Z" fill="#FFAA00"/>
<path d="M61.2957 123.824L64.8677 121.757C65.2415 121.971 65.6138 122.398 65.8249 122.944L62.2529 125.012C62.0418 124.466 61.669 124.039 61.2957 123.824Z" fill="#FFAA00"/>
<path d="M61.2957 123.824C61.669 124.039 62.0418 124.466 62.2529 125.011L79.6935 169.872C80.1197 170.966 79.5831 171.719 78.7292 171.228L43.6501 151.053C42.7926 150.56 42.2656 149.195 42.6929 148.592L60.3313 123.906C60.547 123.606 60.9218 123.609 61.2957 123.824Z" fill="#FFEA00"/>
<path d="M61.286 126.026C61.6247 126.221 61.9629 126.608 62.1542 127.103L77.9743 167.796C78.3609 168.788 77.8741 169.471 77.1 169.026L45.2802 150.725C44.5025 150.278 44.0244 149.039 44.412 148.492L60.4116 126.1C60.607 125.828 60.9467 125.831 61.286 126.026Z" fill="#FF3D44"/>
<path d="M61.2785 127.778C61.5897 127.956 61.9 128.312 62.076 128.767L76.6073 166.144C76.9623 167.055 76.5152 167.683 75.8042 167.274L46.5763 150.465C45.8617 150.054 45.4227 148.916 45.7788 148.414L60.4748 127.846C60.6549 127.596 60.9672 127.599 61.2785 127.778Z" fill="#FFEA00"/>
<path d="M61.4884 150.998L60.3496 150.343C59.989 150.135 59.6965 149.579 59.6965 149.1V134.072C59.6965 133.593 59.989 133.373 60.3496 133.58L61.4884 134.235C61.849 134.442 62.1415 134.999 62.1415 135.478V150.506C62.1415 150.985 61.849 151.205 61.4884 150.998Z" fill="black"/>
<path d="M62.3779 155.361C62.3779 156.282 61.7249 156.654 60.9187 156.19C60.1125 155.726 59.4595 154.604 59.4595 153.683C59.4595 152.762 60.1125 152.391 60.9187 152.854C61.7244 153.318 62.3779 154.44 62.3779 155.361Z" fill="black"/>
<path d="M170.248 175.369L185.335 166.71C185.84 166.42 186.602 166.388 187.039 166.639L193.028 170.07L245.102 140.197L238.612 136.479C238.175 136.228 238.23 135.79 238.734 135.5L253.821 126.841C254.325 126.551 255.088 126.519 255.524 126.77L272.981 136.77C273.418 137.022 273.363 137.46 272.859 137.75L257.772 146.409C257.268 146.699 256.505 146.73 256.069 146.479L253.466 144.988L201.392 174.861L204.496 176.639C204.932 176.891 204.878 177.329 204.373 177.619L189.287 186.278C188.783 186.568 188.02 186.6 187.583 186.349L170.127 176.348C169.689 176.097 169.744 175.658 170.248 175.369Z" fill="#F2F2F2"/>
<path d="M252.633 128.18C252.757 128.109 252.891 128.042 253.033 127.981L260.738 124.673L260.752 129.718L253.047 133.027C252.905 133.088 252.772 133.154 252.648 133.226C251.962 133.619 251.57 134.156 251.572 134.784L251.558 129.738C251.556 129.11 251.949 128.574 252.633 128.18Z" fill="#808080"/>
<path d="M253.545 139.141C257.75 139.141 260.774 138.191 262.931 136.951C266.99 134.617 267.926 131.422 267.976 131.254L267.99 136.3C267.941 136.468 267.004 139.662 262.946 141.996C260.789 143.236 257.764 144.186 253.559 144.186C251.722 144.186 249.965 144.63 248.661 145.38L248.647 140.334C249.95 139.585 251.708 139.141 253.545 139.141Z" fill="#808080"/>
<path d="M203.98 166.024L203.994 171.07L248.662 145.38L248.647 140.335L203.98 166.024Z" fill="#808080"/>
<path d="M182.903 168.284C183.658 167.85 184.713 167.622 185.795 167.67C188.303 167.784 190.52 168.339 192.258 169.253C193.051 169.669 193.476 170.247 193.477 170.835L193.491 175.88C193.49 175.293 193.065 174.715 192.272 174.299C190.534 173.384 188.317 172.83 185.809 172.716C184.727 172.668 183.673 172.895 182.917 173.33C182.793 173.401 182.677 173.478 182.57 173.56L182.556 168.515C182.663 168.432 182.779 168.356 182.903 168.284Z" fill="#C7C7C7"/>
<path d="M176.798 172.949L176.812 177.995L182.571 173.56L182.557 168.514L176.798 172.949Z" fill="#808080"/>
<path d="M175.421 170.701C175.747 172.116 176.745 172.908 176.798 172.949L176.812 177.995C176.76 177.953 175.761 177.161 175.435 175.747C175.373 175.48 175.343 175.216 175.342 174.954L175.328 169.909C175.329 170.17 175.359 170.435 175.421 170.701Z" fill="#C7C7C7"/>
<path d="M192.258 169.253C193.504 169.908 193.842 170.963 193.052 171.826L188.18 177.147C188.472 177.119 194.01 176.589 198.069 174.255C200.226 173.015 201.882 171.272 201.896 168.846C201.902 167.786 202.677 166.773 203.98 166.024L248.648 140.334C249.951 139.585 251.708 139.141 253.545 139.141C257.75 139.141 260.775 138.191 262.932 136.951C266.99 134.616 267.927 131.422 267.976 131.254L258.739 134.048C257.24 134.501 255.41 134.304 254.279 133.583C252.703 132.576 251.749 131.294 251.572 129.938C251.477 129.224 251.877 128.615 252.634 128.18C252.757 128.109 252.891 128.042 253.033 127.981L260.738 124.673C260.666 124.643 259.293 124.066 256.847 123.871C253.425 123.601 250.167 124.322 247.874 125.641C246.228 126.588 245.078 127.844 244.723 129.262L243.715 133.306C243.497 134.184 242.79 134.996 241.7 135.623L195.837 162C194.747 162.627 193.337 163.032 191.816 163.155L184.802 163.725C182.344 163.925 180.165 164.584 178.518 165.531C176.227 166.849 174.966 168.726 175.422 170.702C175.748 172.116 176.746 172.908 176.799 172.95L182.558 168.515C182.665 168.433 182.78 168.356 182.904 168.285C183.66 167.85 184.714 167.623 185.796 167.671C188.303 167.784 190.52 168.339 192.258 169.253Z" fill="#DEDEDE"/>
<path d="M201.74 164.388L246.523 138.631L243.612 136.957L198.828 162.714L201.74 164.388Z" fill="#C7C7C7"/>
<path d="M243.612 137.684L199.46 163.078L198.828 162.714L243.612 136.957L246.523 138.631L245.891 138.994L243.612 137.684Z" fill="#808080"/>
<path d="M188.18 177.148L188.194 182.193C188.486 182.165 194.024 181.635 198.083 179.301C200.24 178.061 201.896 176.318 201.91 173.892C201.916 172.832 202.691 171.819 203.994 171.07L203.98 166.024C202.677 166.774 201.902 167.786 201.895 168.846C201.882 171.272 200.225 173.015 198.069 174.255C194.011 176.589 188.472 177.12 188.18 177.148Z" fill="#808080"/>
<path d="M250.693 116.262L219.148 98.1191C217.673 97.2715 217.858 95.7905 219.561 94.8111L233.917 86.5545C235.619 85.5756 238.194 85.4692 239.668 86.3168L271.214 104.46C272.688 105.308 272.503 106.789 270.801 107.768L256.445 116.024C254.743 117.004 252.168 117.11 250.693 116.262Z" fill="#F2F2F2"/>
<path d="M269.559 95.0958H261.194V98.4043L240.209 86.335C238.879 85.5705 236.556 85.6662 235.021 86.5494L233.901 87.1933V86.9167H220.803V95.8518H220.819C220.881 96.2753 221.169 96.6736 221.701 96.9796L250.154 113.344C251.483 114.108 253.806 114.013 255.341 113.13L268.289 105.683C269.104 105.214 269.529 104.618 269.553 104.048H269.559V95.0958H269.559Z" fill="#595959"/>
<path d="M269.557 95.0973V104.049H269.552C269.53 104.617 269.101 105.213 268.291 105.684L255.343 113.13C254.706 113.492 253.934 113.725 253.152 113.812V93.7815L261.192 98.4058V95.0973H269.557Z" fill="#333333"/>
<path d="M250.153 104.589L221.701 88.225C220.371 87.4604 220.538 86.1248 222.073 85.2417L235.021 77.7947C236.556 76.9116 238.879 76.8158 240.208 77.5804L268.661 93.9447C269.991 94.7093 269.824 96.0454 268.289 96.9285L255.341 104.375C253.805 105.258 251.483 105.354 250.153 104.589Z" fill="#333333"/>
<path d="M269.559 85.4525H261.194V88.7615L240.209 76.6917C238.879 75.9272 236.556 76.0229 235.021 76.906L233.901 77.55V77.2734H220.803V86.2084H220.819C220.881 86.632 221.169 87.0302 221.701 87.3363L250.154 103.701C251.483 104.465 253.806 104.369 255.341 103.486L268.289 96.0393C269.104 95.5706 269.529 94.9753 269.553 94.4043H269.559V85.4525H269.559Z" fill="#FFC800"/>
<path d="M269.557 85.454V94.4053H269.552C269.53 94.9737 269.101 95.5696 268.291 96.0408L255.343 103.487C254.706 103.85 253.934 104.082 253.152 104.169V84.1387L261.192 88.763V85.4545H269.557V85.454Z" fill="#FFAA00"/>
<path d="M250.153 94.9459L221.701 78.5816C220.371 77.817 220.538 76.481 222.073 75.5978L235.021 68.1514C236.556 67.2682 238.879 67.172 240.208 67.937L268.661 84.3014C269.991 85.0659 269.824 86.4015 268.289 87.2846L255.341 94.7316C253.805 95.6147 251.483 95.7105 250.153 94.9459Z" fill="#FFEA00"/>
<path d="M249.584 92.3168L224.389 77.8266C223.211 77.1497 223.359 75.9667 224.718 75.1849L236.183 68.5911C237.543 67.8088 239.6 67.7242 240.777 68.4011L265.972 82.8913C267.149 83.5682 267.002 84.7513 265.642 85.5331L254.177 92.1273C252.818 92.9091 250.761 92.9937 249.584 92.3168Z" fill="#FFF27A"/>
<path d="M231.082 92.2839L225.985 89.3224C225.895 89.2692 225.772 89.2763 225.634 89.3548C225.516 89.4227 225.408 89.5327 225.323 89.6608C225.212 89.8296 225.141 90.0302 225.141 90.2096C225.141 90.3656 225.195 90.4766 225.283 90.5288L230.381 93.4907L230.392 93.4715C230.466 93.4791 230.551 93.4588 230.641 93.4066C230.797 93.3169 230.936 93.1533 231.026 92.9709C231.094 92.8341 231.134 92.6867 231.134 92.5514C231.134 92.449 231.111 92.3659 231.07 92.3061L231.082 92.2839Z" fill="#FFFDE7"/>
<path d="M230.738 92.3203C230.466 92.4769 230.245 92.8599 230.245 93.175C230.245 93.4902 230.466 93.6189 230.738 93.4623C231.011 93.3058 231.232 92.9227 231.232 92.6071C231.232 92.2924 231.011 92.1632 230.738 92.3203Z" fill="#B0918F"/>
<path d="M246.778 101.32L241.681 98.3588C241.591 98.3056 241.468 98.3127 241.33 98.3912C241.212 98.4591 241.104 98.569 241.019 98.6977C240.908 98.8665 240.837 99.0671 240.837 99.2464C240.837 99.4025 240.891 99.513 240.979 99.5656L246.077 102.527L246.088 102.508C246.162 102.515 246.246 102.495 246.337 102.442C246.493 102.353 246.632 102.19 246.722 102.007C246.79 101.87 246.83 101.723 246.83 101.588C246.83 101.485 246.807 101.402 246.766 101.343L246.778 101.32Z" fill="#FFFDE7"/>
<path d="M246.435 101.357C246.162 101.513 245.941 101.896 245.941 102.211C245.941 102.527 246.162 102.655 246.435 102.499C246.707 102.342 246.928 101.959 246.928 101.644C246.928 101.329 246.707 101.2 246.435 101.357Z" fill="#B0918F"/>
<path d="M237.7 77.7299L240.471 76.1308V72.3374L237.7 73.9364V77.7299Z" fill="#333333"/>
<path d="M247.907 75.6566L245.401 74.2157L241.33 71.8744L238.822 70.4319L237.049 71.4391L235.878 72.1044V76.6821L237.7 77.7299V73.9365L239.557 72.8816L247.177 77.2643L249.035 80.4537V84.2487L250.857 85.2965V80.7192L247.907 75.6566Z" fill="#4D4D4D"/>
<path d="M250.856 85.2964L253.627 83.6974V79.1196L250.856 80.7192V85.2964Z" fill="#333333"/>
<path d="M250.673 74.0473L247.903 75.6467L250.849 80.7108L253.619 79.1113L250.673 74.0473Z" fill="#666666"/>
<path d="M238.822 70.4318L241.592 68.8328L250.677 74.0575L247.907 75.6566L238.822 70.4318Z" fill="#A3A3A3"/>
<path d="M235.878 72.1043L238.822 70.4318L241.593 68.8328L238.649 70.5053L235.878 72.1043Z" fill="#311811"/>
<path d="M243.44 182.81C244.334 183.324 244.687 184.075 244.363 184.777L242.098 189.716C241.776 190.419 240.829 190.967 239.612 191.155L231.06 192.479C229.844 192.668 228.542 192.466 227.649 191.952L221.362 188.337C220.469 187.823 220.117 187.073 220.439 186.37L222.704 181.431C223.026 180.728 223.973 180.18 225.191 179.992L233.743 178.668C234.96 178.48 236.26 178.681 237.153 179.195L243.44 182.81Z" fill="#F2F2F2"/>
<path d="M243.043 175.235L241.028 179.629C240.741 180.254 239.899 180.742 238.816 180.909L231.207 182.087L231.183 190.684L238.791 189.506C239.874 189.339 240.716 188.851 241.003 188.226L243.019 183.832C243.089 183.68 243.124 183.525 243.124 183.372L243.149 174.775C243.148 174.928 243.114 175.083 243.043 175.235Z" fill="#808080"/>
<path d="M228.173 181.619L222.58 178.402C221.978 178.056 221.653 177.59 221.654 177.113L221.63 185.71C221.628 186.187 221.954 186.653 222.556 186.999L228.148 190.216C228.943 190.673 230.101 190.852 231.183 190.684L231.207 182.087C230.126 182.255 228.968 182.076 228.173 181.619Z" fill="#999999"/>
<path d="M242.222 173.486C243.017 173.943 243.331 174.61 243.043 175.235L241.028 179.629C240.741 180.254 239.899 180.742 238.816 180.909L231.207 182.087C230.126 182.255 228.968 182.076 228.173 181.619L222.58 178.402C221.785 177.945 221.472 177.278 221.759 176.652L223.774 172.259C224.061 171.633 224.903 171.145 225.986 170.978L233.595 169.801C234.678 169.633 235.834 169.812 236.629 170.269L242.222 173.486Z" fill="#D9D9D9"/>
<path d="M237.727 178.9C234.924 180.512 230.364 180.504 227.543 178.882C224.722 177.259 224.708 174.637 227.511 173.025C230.314 171.412 234.874 171.421 237.695 173.043C240.516 174.665 240.53 177.288 237.727 178.9Z" fill="#A3A3A3"/>
<path d="M227.511 174.706C230.315 173.094 234.874 173.102 237.695 174.725C238.736 175.323 239.393 176.058 239.669 176.828C240.144 175.506 239.485 174.073 237.695 173.043C234.874 171.421 230.314 171.413 227.511 173.025C225.742 174.043 225.096 175.462 225.569 176.779C225.841 176.019 226.488 175.295 227.511 174.706Z" fill="#808080"/>
<path d="M239.43 177.335C239.255 177.626 239.023 177.908 238.733 178.172C238.443 177.901 238.098 177.649 237.695 177.417C234.873 175.797 230.314 175.787 227.51 177.399C227.121 177.624 226.786 177.869 226.504 178.128C226.214 177.86 225.982 177.575 225.81 177.282C226.152 176.711 226.718 176.175 227.51 175.719C230.314 174.107 234.873 174.114 237.695 175.737C238.505 176.202 239.083 176.75 239.43 177.335Z" fill="#808080"/>
<path d="M238.086 178.677C237.971 178.755 237.851 178.83 237.727 178.901C237.311 179.14 236.857 179.344 236.374 179.511C234.077 178.692 231.16 178.684 228.863 179.484C228.394 179.316 227.949 179.117 227.542 178.883C227.404 178.805 227.275 178.722 227.151 178.638C227.266 178.559 227.385 178.484 227.51 178.413C230.313 176.801 234.873 176.807 237.695 178.431C237.833 178.509 237.962 178.591 238.086 178.677Z" fill="#808080"/>
<path d="M262.769 170.751C263.351 171.085 263.58 171.574 263.37 172.031L261.895 175.245C261.686 175.702 261.07 176.059 260.277 176.182L254.712 177.043C253.921 177.166 253.073 177.035 252.492 176.701L248.401 174.348C247.819 174.013 247.59 173.525 247.8 173.068L249.274 169.853C249.484 169.396 250.1 169.039 250.892 168.917L256.458 168.055C257.25 167.933 258.096 168.063 258.678 168.398L262.769 170.751Z" fill="#F2F2F2"/>
<path d="M262.511 165.821L261.199 168.681C261.012 169.088 260.465 169.406 259.76 169.515L254.808 170.281L254.792 175.876L259.744 175.11C260.448 175.001 260.997 174.684 261.183 174.276L262.495 171.417C262.541 171.318 262.563 171.217 262.563 171.117L262.579 165.522C262.579 165.621 262.557 165.722 262.511 165.821Z" fill="#808080"/>
<path d="M252.834 169.976L249.194 167.882C248.803 167.657 248.591 167.354 248.592 167.043L248.576 172.638C248.575 172.949 248.787 173.252 249.178 173.477L252.818 175.571C253.335 175.868 254.089 175.985 254.793 175.875L254.809 170.28C254.105 170.39 253.351 170.273 252.834 169.976Z" fill="#999999"/>
<path d="M261.977 164.682C262.494 164.98 262.699 165.415 262.511 165.821L261.2 168.681C261.013 169.087 260.465 169.405 259.76 169.514L254.809 170.28C254.105 170.389 253.351 170.273 252.834 169.976L249.194 167.882C248.677 167.585 248.473 167.15 248.66 166.744L249.971 163.884C250.157 163.477 250.706 163.159 251.411 163.05L256.362 162.284C257.067 162.175 257.82 162.291 258.337 162.589L261.977 164.682Z" fill="#D9D9D9"/>
<path d="M259.051 168.206C257.227 169.256 254.259 169.25 252.424 168.195C250.588 167.139 250.578 165.432 252.403 164.383C254.227 163.334 257.195 163.339 259.03 164.395C260.866 165.451 260.875 167.157 259.051 168.206Z" fill="#A3A3A3"/>
<path d="M252.403 165.477C254.227 164.428 257.195 164.433 259.03 165.489C259.708 165.878 260.135 166.356 260.315 166.858C260.624 165.997 260.195 165.065 259.03 164.395C257.195 163.339 254.227 163.333 252.403 164.383C251.252 165.045 250.831 165.968 251.139 166.825C251.316 166.331 251.737 165.86 252.403 165.477Z" fill="#808080"/>
<path d="M260.16 167.187C260.046 167.377 259.895 167.56 259.706 167.732C259.517 167.556 259.293 167.391 259.031 167.241C257.194 166.186 254.227 166.18 252.403 167.229C252.15 167.376 251.931 167.535 251.748 167.704C251.56 167.529 251.409 167.344 251.296 167.153C251.519 166.781 251.888 166.432 252.403 166.135C254.227 165.086 257.195 165.091 259.031 166.147C259.558 166.451 259.934 166.807 260.16 167.187Z" fill="#808080"/>
<path d="M259.285 168.06C259.21 168.111 259.132 168.16 259.052 168.207C258.78 168.362 258.485 168.495 258.171 168.603C256.676 168.071 254.778 168.065 253.283 168.586C252.978 168.477 252.689 168.347 252.424 168.195C252.334 168.144 252.25 168.091 252.169 168.036C252.244 167.985 252.322 167.936 252.403 167.889C254.227 166.84 257.195 166.845 259.031 167.901C259.12 167.951 259.204 168.005 259.285 168.06Z" fill="#808080"/>
<path d="M189.154 49.8287L187.113 51.0103C187.853 51.066 188.45 50.9155 188.932 50.6369L190.973 49.4553C190.492 49.734 189.895 49.884 189.154 49.8287Z" fill="#6D64FF"/>
<path d="M194.632 53.1554L196.673 51.9738C197.389 51.5594 198.062 50.8652 198.641 49.7891L196.6 50.9706C196.021 52.0463 195.347 52.7409 194.632 53.1554Z" fill="#6D64FF"/>
<path d="M209.766 37.0521L191.829 26.7024C190.925 26.1825 190.105 26.1344 189.513 26.4774L187.472 27.659C188.064 27.3159 188.885 27.3641 189.789 27.8839L207.726 38.2336C209.524 39.2677 210.975 41.7717 210.969 43.8247L210.943 55.5266C210.94 56.5461 210.579 57.2635 209.995 57.6014L212.036 56.4199C212.619 56.0819 212.981 55.3645 212.983 54.3456L213.01 42.6436C213.015 40.5901 211.564 38.0862 209.766 37.0521Z" fill="#6D64FF"/>
<path d="M207.725 38.2336C209.523 39.2677 210.975 41.7717 210.969 43.8247L210.942 55.5266C210.936 57.5797 209.475 58.4091 207.677 57.375L196.6 50.9707C194.581 54.7226 191.416 53.8339 189.303 52.6189C188.012 51.8756 187.158 51.0533 187.113 51.0102C189.562 51.1941 190.443 49.1254 190.762 47.613L189.74 47.0253C187.947 45.9937 186.491 43.4872 186.497 41.4342L186.523 29.7322C186.529 27.6792 187.995 26.8529 189.788 27.8844L207.725 38.2336Z" fill="#27218A"/>
<path d="M204.281 47.272L202.802 46.6224C202.694 47.0475 202.527 47.4118 202.307 47.7087L203.24 49.5657L201.855 50.3606L200.687 48.64C200.318 48.6795 199.915 48.644 199.488 48.525L199.325 50.1184L197.361 49.0023L197.19 47.2203C196.762 46.852 196.359 46.4304 195.988 45.9694L194.826 46.3671L193.433 43.9939L194.359 43.1933C194.138 42.6466 193.969 42.0903 193.858 41.5411L192.378 40.509L192.373 38.269L193.853 38.9206C193.961 38.496 194.129 38.1317 194.348 37.8348L193.416 35.9784L194.802 35.1844L195.969 36.9066C196.336 36.8676 196.738 36.9031 197.162 37.0206L197.324 35.4266L199.288 36.5408L199.461 38.3248C199.888 38.6926 200.292 39.1131 200.663 39.5742L201.825 39.176L203.218 41.5487L202.293 42.3497C202.513 42.8964 202.683 43.4517 202.795 44.003L204.275 45.0335L204.281 47.272ZM198.334 45.0178C199.421 45.635 200.299 45.1293 200.296 43.8895C200.292 42.6487 199.408 41.1434 198.32 40.5262C197.233 39.9096 196.356 40.4148 196.359 41.6556C196.363 42.8954 197.247 44.4012 198.334 45.0178Z" fill="white"/>
</svg>
