<svg width="114" height="56" viewBox="0 0 114 56" fill="none" xmlns="http://www.w3.org/2000/svg">
<g filter="url(#filter0_i_823_5906)">
<path d="M1 14.0974C1 8.36374 5.39143 3.596 11.1106 3.18856C23.3605 2.31585 43.9175 1 56.5044 1C69.1696 1 90.3526 2.33226 102.868 3.20478C108.596 3.60417 113 8.37628 113 14.1188V41.9613C113 47.6706 108.637 52.4253 102.943 52.8452C91.1121 53.7176 71.2192 55 56.5044 55C41.8924 55 22.5996 53.7355 11.0331 52.8635C5.35082 52.4351 1 47.6856 1 41.9872V14.0974Z" fill="#354859"/>
</g>
<path d="M113.5 41.9613V14.1188C113.5 8.11659 108.896 3.12385 102.903 2.70599C90.3904 1.83368 69.19 0.5 56.5044 0.5C43.8968 0.5 23.3222 1.8173 11.075 2.68982C5.09118 3.11612 0.5 8.10443 0.5 14.0974V41.9872C0.5 47.9438 5.04903 52.9138 10.9956 53.3621C22.5627 54.2341 41.8719 55.5 56.5044 55.5C71.2394 55.5 91.1487 54.2163 102.98 53.3438C108.939 52.9045 113.5 47.929 113.5 41.9613Z" stroke="white"/>
<g filter="url(#filter1_d_823_5906)">
<path d="M36.5675 31.84C36.1942 31.4667 35.9075 31.0467 35.7075 30.58C35.5208 30.1 35.4275 29.6133 35.4275 29.12C35.4275 28.6 35.5342 28.0867 35.7475 27.58C35.9742 27.06 36.2875 26.6 36.6875 26.2L37.9875 24.9L37.1275 24.06L38.6075 22.6L42.2275 26.2C42.6275 26.6 42.9275 27.0533 43.1275 27.56C43.3408 28.0667 43.4475 28.5867 43.4475 29.12C43.4475 29.6267 43.3475 30.1133 43.1475 30.58C42.9608 31.0467 42.6808 31.4667 42.3075 31.84C41.9208 32.2267 41.4808 32.52 40.9875 32.72C40.4942 32.92 39.9808 33.02 39.4475 33.02C38.9142 33.02 38.4008 32.92 37.9075 32.72C37.4142 32.52 36.9675 32.2267 36.5675 31.84ZM38.1075 30.3C38.4942 30.6867 38.9408 30.88 39.4475 30.88C39.9542 30.88 40.4008 30.6867 40.7875 30.3C41.1342 29.9533 41.3075 29.5267 41.3075 29.02C41.3075 28.5 41.1208 28.0533 40.7475 27.68L39.4275 26.34L38.1275 27.66C37.7542 28.0333 37.5675 28.48 37.5675 29C37.5675 29.5067 37.7475 29.94 38.1075 30.3ZM42.2175 36.66C43.1908 36.1133 43.8842 35.68 44.2975 35.36C44.7242 35.0533 45.0308 34.68 45.2175 34.24C45.4175 33.8133 45.5175 33.2267 45.5175 32.48V26.18H47.5775V32.46C47.5775 33.5 47.4308 34.3533 47.1375 35.02C46.8442 35.6867 46.3775 36.2667 45.7375 36.76C45.1108 37.2533 44.1975 37.7933 42.9975 38.38L42.2175 36.66ZM53.2044 33C52.5644 33 51.9777 32.8467 51.4444 32.54C50.911 32.22 50.491 31.7933 50.1844 31.26C49.8777 30.7267 49.7244 30.14 49.7244 29.5V19.72H51.7844V29.38C51.7844 29.78 51.9244 30.12 52.2044 30.4C52.4844 30.68 52.8177 30.82 53.2044 30.82H54.1844C54.3177 30.82 54.3844 30.8867 54.3844 31.02V32.8C54.3844 32.9333 54.3177 33 54.1844 33H53.2044ZM54.1875 33C54.0542 33 53.9875 32.9333 53.9875 32.8V31.02C53.9875 30.8867 54.0542 30.82 54.1875 30.82H55.1675C55.5542 30.82 55.8875 30.68 56.1675 30.4C56.4475 30.12 56.5875 29.78 56.5875 29.38V25.58H58.6475V29.5C58.6475 30.14 58.4942 30.7267 58.1875 31.26C57.8808 31.7933 57.4608 32.22 56.9275 32.54C56.3942 32.8467 55.8075 33 55.1675 33H54.1875ZM54.1875 34.8H56.2275V36.84H54.1875V34.8ZM62.18 36.56C63.42 36.0267 64.3333 35.5933 64.92 35.26C65.52 34.94 65.94 34.6067 66.18 34.26C66.4333 33.9267 66.56 33.5067 66.56 33H64.72C63.9733 33 63.2867 32.8333 62.66 32.5C62.0467 32.1533 61.5533 31.68 61.18 31.08C60.82 30.48 60.64 29.8133 60.64 29.08C60.64 28.3467 60.82 27.6733 61.18 27.06C61.5533 26.4467 62.0467 25.96 62.66 25.6C63.2867 25.2267 63.9733 25.04 64.72 25.04C65.44 25.04 66.1 25.22 66.7 25.58C67.3 25.94 67.7667 26.4333 68.1 27.06C68.4467 27.6733 68.62 28.3467 68.62 29.08V32.18C68.62 33.2867 68.42 34.1867 68.02 34.88C67.6333 35.5733 67.0467 36.16 66.26 36.64C65.4867 37.1333 64.34 37.7133 62.82 38.38L62.18 36.56ZM66.56 29.08C66.56 28.56 66.38 28.12 66.02 27.76C65.66 27.3867 65.2267 27.2 64.72 27.2C64.1867 27.2 63.7333 27.3867 63.36 27.76C63 28.12 62.82 28.56 62.82 29.08C62.82 29.6133 63 30.06 63.36 30.42C63.7333 30.7667 64.1867 30.94 64.72 30.94H66.56V29.08ZM75.4772 30.82C75.8772 30.82 76.2105 30.6867 76.4772 30.42C76.7572 30.1533 76.8972 29.8267 76.8972 29.44C76.8972 29.1733 76.8305 28.94 76.6972 28.74C76.5639 28.5267 76.3439 28.3133 76.0372 28.1L72.1372 25.42L73.2972 23.74L77.5172 26.64C77.9839 26.9867 78.3439 27.3867 78.5972 27.84C78.8505 28.28 78.9772 28.7933 78.9772 29.38C78.9772 30.0467 78.8105 30.66 78.4772 31.22C78.1439 31.7667 77.6972 32.2 77.1372 32.52C76.5772 32.84 75.9639 33 75.2972 33H70.7572V30.82H75.4772Z" fill="#E6E8EA"/>
</g>
<path fill-rule="evenodd" clip-rule="evenodd" d="M5.18738 50.6035C6.81651 51.8779 8.82423 52.6974 11.0332 52.8639C22.5996 53.7359 41.8924 55.0004 56.5044 55.0004C71.2192 55.0004 91.1122 53.7181 102.943 52.8456C108.637 52.4258 113 47.671 113 41.9618V14.1192C113 11.7447 112.247 9.53614 110.959 7.73401C110.061 32.2847 91.2664 60.6408 5.18738 50.6035Z" fill="#283643"/>
<path d="M21.3186 8.02235C22.155 9.47281 16.7723 9.75489 12.8938 11.9496C9.01528 14.1443 7.31558 17.2477 6.47913 15.7972C5.64268 14.3467 8.10876 11.3917 11.9873 9.19699C15.8658 7.00226 20.4821 6.57188 21.3186 8.02235Z" fill="#536B80"/>
<defs>
<filter id="filter0_i_823_5906" x="0" y="0" width="114.5" height="56.5" filterUnits="userSpaceOnUse" color-interpolation-filters="sRGB">
<feFlood flood-opacity="0" result="BackgroundImageFix"/>
<feBlend mode="normal" in="SourceGraphic" in2="BackgroundImageFix" result="shape"/>
<feColorMatrix in="SourceAlpha" type="matrix" values="0 0 0 0 0 0 0 0 0 0 0 0 0 0 0 0 0 0 127 0" result="hardAlpha"/>
<feOffset dx="2" dy="2"/>
<feGaussianBlur stdDeviation="0.25"/>
<feComposite in2="hardAlpha" operator="arithmetic" k2="-1" k3="1"/>
<feColorMatrix type="matrix" values="0 0 0 0 0 0 0 0 0 0 0 0 0 0 0 0 0 0 0.25 0"/>
<feBlend mode="normal" in2="shape" result="effect1_innerShadow_823_5906"/>
</filter>
<filter id="filter1_d_823_5906" x="35.4275" y="19.72" width="45.5497" height="20.66" filterUnits="userSpaceOnUse" color-interpolation-filters="sRGB">
<feFlood flood-opacity="0" result="BackgroundImageFix"/>
<feColorMatrix in="SourceAlpha" type="matrix" values="0 0 0 0 0 0 0 0 0 0 0 0 0 0 0 0 0 0 127 0" result="hardAlpha"/>
<feOffset dx="2" dy="2"/>
<feComposite in2="hardAlpha" operator="out"/>
<feColorMatrix type="matrix" values="0 0 0 0 0 0 0 0 0 0 0 0 0 0 0 0 0 0 0.25 0"/>
<feBlend mode="normal" in2="BackgroundImageFix" result="effect1_dropShadow_823_5906"/>
<feBlend mode="normal" in="SourceGraphic" in2="effect1_dropShadow_823_5906" result="shape"/>
</filter>
</defs>
</svg>
