<svg width="228" height="65" viewBox="0 0 228 65" fill="none" xmlns="http://www.w3.org/2000/svg">
<g filter="url(#filter0_d_1209_12572)">
<path d="M161.523 9.92953C162.029 6.65474 165.095 4.41048 168.369 4.91682L216.045 12.2883C220.886 13.0369 222.838 18.9588 219.391 22.4398L210.231 31.689C208.459 33.4787 207.993 36.1849 209.065 38.4642L215.426 51.9915C217.471 56.3403 213.829 61.2087 209.08 60.4743L160.93 53.0295C157.656 52.5232 155.411 49.4579 155.918 46.1831L161.523 9.92953Z" fill="#354859"/>
<path d="M162.017 10.0059C162.481 7.00404 165.291 4.9468 168.293 5.41095L215.968 12.7824C220.406 13.4687 222.196 18.897 219.036 22.088L209.876 31.3371C207.956 33.276 207.451 36.2077 208.612 38.677L214.974 52.2043C216.848 56.1907 213.51 60.6533 209.156 59.9802L161.007 52.5354C158.005 52.0712 155.948 49.2614 156.412 46.2595L162.017 10.0059Z" stroke="#E6E8EA"/>
</g>
<g filter="url(#filter1_d_1209_12572)">
<path d="M66.1419 9.92953C65.6356 6.65474 62.5704 4.41048 59.2956 4.91682L11.6205 12.2883C6.77887 13.0369 4.82674 18.9588 8.27408 22.4398L17.4337 31.689C19.2061 33.4787 19.672 36.1849 18.6001 38.4642L12.2388 51.9915C10.1938 56.3403 13.836 61.2087 18.5853 60.4743L66.7347 53.0295C70.0095 52.5232 72.2538 49.4579 71.7474 46.1831L66.1419 9.92953Z" fill="#354859"/>
<path d="M65.6478 10.0059C65.1836 7.00404 62.3739 4.9468 59.372 5.41095L11.6969 12.7824C7.25874 13.4687 5.46929 18.897 8.62934 22.088L17.789 31.3371C19.7091 33.276 20.2138 36.2077 19.0526 38.677L12.6913 52.2043C10.8167 56.1907 14.1554 60.6533 18.5089 59.9802L66.6583 52.5354C69.6602 52.0712 71.7175 49.2614 71.2533 46.2595L65.6478 10.0059Z" stroke="#E6E8EA"/>
</g>
<g filter="url(#filter2_i_1209_12572)">
<path d="M31.0034 14.4096C31.0034 8.57 35.5456 3.75193 41.3778 3.45808C58.5305 2.59388 92.9232 1 113.267 1C133.71 1 169.124 2.60927 186.613 3.47052C192.452 3.75804 197 8.57896 197 14.4247V42.6319C197 48.4546 192.469 53.2643 186.655 53.57C170.1 54.4401 137.101 56 113.267 56C89.5624 56 57.5457 54.4569 41.3326 53.5841C35.5258 53.2715 31.0034 48.4654 31.0034 42.6502V14.4096Z" fill="#354859"/>
</g>
<path d="M41.3527 2.95872C35.252 3.26609 30.5034 8.30605 30.5034 14.4096V42.6502C30.5034 48.7291 35.2316 53.7564 41.3057 54.0834C57.5188 54.9562 89.5475 56.5 113.267 56.5C137.116 56.5 170.127 54.9394 186.681 54.0693C192.763 53.7496 197.5 48.7185 197.5 42.6319V14.4247C197.5 8.3149 192.745 3.27188 186.638 2.97112C169.151 2.11 133.724 0.5 113.267 0.5C92.9084 0.5 58.5028 2.09463 41.3527 2.95872Z" stroke="white"/>
<path fill-rule="evenodd" clip-rule="evenodd" d="M35.9673 50.8871C37.7434 52.4531 40.0368 53.4509 42.5769 53.5888C58.6672 54.4624 90.3161 56 113.76 56C137.328 56 169.943 54.446 186.374 53.5749C192.186 53.2668 196.718 48.458 196.718 42.6376V14.4195C196.718 11.3903 195.496 8.63614 193.507 6.64551C192.7 31.9638 165.532 61.7315 35.9673 50.8871Z" fill="#283643"/>
<path d="M51.5005 7.15283C52.3444 8.63016 46.9136 8.91746 43.0005 11.1528C39.0873 13.3882 37.3725 16.549 36.5285 15.0717C35.6846 13.5943 38.1727 10.5846 42.0859 8.34923C45.999 6.11386 50.6566 5.6755 51.5005 7.15283Z" fill="#536B80"/>
<circle cx="35.5005" cy="18.5" r="1.5" fill="#536B80"/>
<g filter="url(#filter3_d_1209_12572)">
<path d="M70.176 38.4C69.072 38.4 68.056 38.128 67.128 37.584C66.2 37.04 65.464 36.304 64.92 35.376C64.376 34.448 64.104 33.432 64.104 32.328V26.496H67.56V32.136C67.56 32.856 67.816 33.472 68.328 33.984C68.84 34.512 69.456 34.776 70.176 34.776H75.672C76.056 34.776 76.368 34.648 76.608 34.392C76.848 34.152 76.968 33.84 76.968 33.456C76.968 33.168 76.88 32.904 76.704 32.664C76.528 32.424 76.288 32.272 75.984 32.208L69.792 30.792V27.648C69.792 26.736 70.024 25.888 70.488 25.104C70.968 24.304 71.608 23.672 72.408 23.208C73.224 22.744 74.096 22.512 75.024 22.512H79.488V25.944H74.976C74.512 25.944 74.104 26.12 73.752 26.472C73.416 26.808 73.248 27.208 73.248 27.672V28.056C74.72 28.376 75.68 28.592 76.128 28.704L77.088 28.92C78.096 29.224 78.92 29.808 79.56 30.672C80.2 31.536 80.52 32.504 80.52 33.576C80.52 34.456 80.304 35.264 79.872 36C79.44 36.736 78.848 37.32 78.096 37.752C77.36 38.184 76.552 38.4 75.672 38.4H70.176ZM88.1664 29.376C88.5184 29.376 88.8144 29.28 89.0544 29.088C89.2944 28.88 89.4144 28.6 89.4144 28.248C89.4144 28.152 89.3664 27.944 89.2704 27.624L86.9904 21.432L90.2544 20.208L93.2064 28.392C93.4784 29.048 93.9104 29.376 94.5024 29.376H94.6464C94.8064 29.376 94.8864 29.456 94.8864 29.616V32.76C94.8864 32.92 94.8064 33 94.6464 33H94.3344C93.6784 33 93.0944 32.872 92.5824 32.616C92.0704 32.36 91.6864 32.04 91.4304 31.656C90.9184 32.168 90.4304 32.52 89.9664 32.712C89.5024 32.904 88.9024 33 88.1664 33H82.4544V29.376H88.1664ZM97.1366 18.912H100.209V21.984H97.1366V18.912ZM94.4006 29.616C94.4006 29.456 94.4806 29.376 94.6406 29.376H95.8406C96.1606 29.376 96.4246 29.272 96.6326 29.064C96.8406 28.84 96.9446 28.568 96.9446 28.248V24.048H100.401V28.248C100.401 28.568 100.505 28.84 100.713 29.064C100.921 29.272 101.185 29.376 101.505 29.376H102.705C102.865 29.376 102.945 29.456 102.945 29.616V32.76C102.945 32.92 102.865 33 102.705 33H101.505C100.321 33 99.3766 32.608 98.6726 31.824C97.9366 32.608 96.9926 33 95.8406 33H94.6406C94.4806 33 94.4006 32.92 94.4006 32.76V29.616ZM102.703 33C102.543 33 102.463 32.92 102.463 32.76V29.616C102.463 29.456 102.543 29.376 102.703 29.376H103.999C104.303 29.376 104.559 29.264 104.767 29.04C104.991 28.816 105.103 28.552 105.103 28.248V23.328H108.535V28.464C108.535 29.28 108.335 30.04 107.935 30.744C107.535 31.432 106.991 31.984 106.303 32.4C105.615 32.8 104.855 33 104.023 33H102.703ZM102.679 35.04H105.775V38.112H102.679V35.04ZM126.83 29.376C126.99 29.376 127.07 29.456 127.07 29.616V32.76C127.07 32.92 126.99 33 126.83 33H125.822C125.134 33 124.51 32.856 123.95 32.568C123.406 32.28 122.958 31.88 122.606 31.368C121.774 31.976 120.814 32.28 119.726 32.28C118.766 32.28 117.878 32.048 117.062 31.584C116.262 31.104 115.622 30.464 115.142 29.664C114.662 28.848 114.422 27.968 114.422 27.024C114.422 26.096 114.662 25.256 115.142 24.504C115.622 23.736 116.262 23.136 117.062 22.704C117.878 22.256 118.766 22.032 119.726 22.032H121.31V20.496H124.718V28.248C124.718 28.568 124.822 28.84 125.03 29.064C125.238 29.272 125.502 29.376 125.822 29.376H126.83ZM121.31 25.488H119.726C119.262 25.488 118.87 25.632 118.55 25.92C118.246 26.208 118.094 26.576 118.094 27.024C118.094 27.488 118.246 27.88 118.55 28.2C118.87 28.504 119.262 28.656 119.726 28.656C120.174 28.656 120.55 28.504 120.854 28.2C121.158 27.88 121.31 27.488 121.31 27.024V25.488ZM127.516 18.888H130.588V21.96H127.516V18.888ZM131.836 18.888H134.932V21.96H131.836V18.888ZM126.58 29.616C126.58 29.456 126.66 29.376 126.82 29.376H128.38C128.7 29.376 128.964 29.272 129.172 29.064C129.38 28.84 129.484 28.568 129.484 28.248V24.048H132.94V28.248C132.94 28.568 133.044 28.84 133.252 29.064C133.46 29.272 133.724 29.376 134.044 29.376H135.604C135.764 29.376 135.844 29.456 135.844 29.616V32.76C135.844 32.92 135.764 33 135.604 33H134.044C132.86 33 131.916 32.608 131.212 31.824C130.476 32.608 129.532 33 128.38 33H126.82C126.66 33 126.58 32.92 126.58 32.76V29.616ZM152.241 23.328V33H147.921C146.769 33 145.841 32.584 145.137 31.752C144.449 32.616 143.497 33.048 142.281 33.048C141.081 33.048 140.137 32.624 139.449 31.776C138.761 32.592 137.817 33 136.617 33H135.609C135.449 33 135.369 32.92 135.369 32.76V29.616C135.369 29.456 135.449 29.376 135.609 29.376H136.617C136.937 29.376 137.201 29.272 137.409 29.064C137.633 28.84 137.745 28.568 137.745 28.248V24.048H141.177V28.296C141.177 28.616 141.281 28.888 141.489 29.112C141.697 29.32 141.961 29.424 142.281 29.424C142.601 29.424 142.865 29.32 143.073 29.112C143.281 28.888 143.385 28.616 143.385 28.296V24.048H146.841V28.248C146.841 28.568 146.945 28.84 147.153 29.064C147.361 29.272 147.617 29.376 147.921 29.376H148.785V23.328H152.241ZM160.033 29.376C160.385 29.376 160.665 29.272 160.873 29.064C161.097 28.856 161.209 28.592 161.209 28.272C161.209 28.048 161.137 27.856 160.993 27.696C160.865 27.52 160.625 27.312 160.273 27.072L155.233 23.616L157.177 20.76L162.793 24.648C163.401 25.112 163.857 25.624 164.161 26.184C164.481 26.728 164.641 27.392 164.641 28.176C164.641 29.072 164.417 29.888 163.969 30.624C163.537 31.36 162.945 31.944 162.193 32.376C161.441 32.792 160.625 33 159.745 33H154.033V29.376H160.033Z" fill="#E6E8EA"/>
</g>
<defs>
<filter id="filter0_d_1209_12572" x="155.846" y="4.84546" width="67.2881" height="59.7029" filterUnits="userSpaceOnUse" color-interpolation-filters="sRGB">
<feFlood flood-opacity="0" result="BackgroundImageFix"/>
<feColorMatrix in="SourceAlpha" type="matrix" values="0 0 0 0 0 0 0 0 0 0 0 0 0 0 0 0 0 0 127 0" result="hardAlpha"/>
<feOffset dx="2" dy="4"/>
<feComposite in2="hardAlpha" operator="out"/>
<feColorMatrix type="matrix" values="0 0 0 0 0 0 0 0 0 0 0 0 0 0 0 0 0 0 0.25 0"/>
<feBlend mode="normal" in2="BackgroundImageFix" result="effect1_dropShadow_1209_12572"/>
<feBlend mode="normal" in="SourceGraphic" in2="effect1_dropShadow_1209_12572" result="shape"/>
</filter>
<filter id="filter1_d_1209_12572" x="6.53076" y="4.84546" width="67.2881" height="59.7029" filterUnits="userSpaceOnUse" color-interpolation-filters="sRGB">
<feFlood flood-opacity="0" result="BackgroundImageFix"/>
<feColorMatrix in="SourceAlpha" type="matrix" values="0 0 0 0 0 0 0 0 0 0 0 0 0 0 0 0 0 0 127 0" result="hardAlpha"/>
<feOffset dx="2" dy="4"/>
<feComposite in2="hardAlpha" operator="out"/>
<feColorMatrix type="matrix" values="0 0 0 0 0 0 0 0 0 0 0 0 0 0 0 0 0 0 0.25 0"/>
<feBlend mode="normal" in2="BackgroundImageFix" result="effect1_dropShadow_1209_12572"/>
<feBlend mode="normal" in="SourceGraphic" in2="effect1_dropShadow_1209_12572" result="shape"/>
</filter>
<filter id="filter2_i_1209_12572" x="30.0034" y="0" width="168.497" height="57.5" filterUnits="userSpaceOnUse" color-interpolation-filters="sRGB">
<feFlood flood-opacity="0" result="BackgroundImageFix"/>
<feBlend mode="normal" in="SourceGraphic" in2="BackgroundImageFix" result="shape"/>
<feColorMatrix in="SourceAlpha" type="matrix" values="0 0 0 0 0 0 0 0 0 0 0 0 0 0 0 0 0 0 127 0" result="hardAlpha"/>
<feOffset dx="2" dy="2"/>
<feGaussianBlur stdDeviation="0.25"/>
<feComposite in2="hardAlpha" operator="arithmetic" k2="-1" k3="1"/>
<feColorMatrix type="matrix" values="0 0 0 0 0 0 0 0 0 0 0 0 0 0 0 0 0 0 0.25 0"/>
<feBlend mode="normal" in2="shape" result="effect1_innerShadow_1209_12572"/>
</filter>
<filter id="filter3_d_1209_12572" x="64.104" y="18.8879" width="102.537" height="21.512" filterUnits="userSpaceOnUse" color-interpolation-filters="sRGB">
<feFlood flood-opacity="0" result="BackgroundImageFix"/>
<feColorMatrix in="SourceAlpha" type="matrix" values="0 0 0 0 0 0 0 0 0 0 0 0 0 0 0 0 0 0 127 0" result="hardAlpha"/>
<feOffset dx="2" dy="2"/>
<feComposite in2="hardAlpha" operator="out"/>
<feColorMatrix type="matrix" values="0 0 0 0 0 0 0 0 0 0 0 0 0 0 0 0 0 0 0.25 0"/>
<feBlend mode="normal" in2="BackgroundImageFix" result="effect1_dropShadow_1209_12572"/>
<feBlend mode="normal" in="SourceGraphic" in2="effect1_dropShadow_1209_12572" result="shape"/>
</filter>
</defs>
</svg>
