<svg width="276" height="75" viewBox="0 0 276 75" fill="none" xmlns="http://www.w3.org/2000/svg">
<path d="M249 1.5H27C12.9167 1.5 1.5 12.9167 1.5 27V47.5464C1.5 62.2185 13.851 73.8641 28.4978 73.0023L250.498 59.9401C263.976 59.147 274.5 47.9856 274.5 34.4841V27C274.5 12.9167 263.083 1.5 249 1.5Z" fill="#354859" stroke="#8B96A0" stroke-width="3"/>
<mask id="mask0_110_1430" style="mask-type:alpha" maskUnits="userSpaceOnUse" x="3" y="3" width="270" height="69">
<path d="M27 4.5H249C261.426 4.5 271.5 14.5736 271.5 27V34.4841C271.5 46.3972 262.214 56.2455 250.322 56.9453L28.3216 70.0075C15.3979 70.7679 4.5 60.4924 4.5 47.5464V27C4.5 14.5736 14.5736 4.5 27 4.5Z" fill="#354859" stroke="#566674" stroke-width="3"/>
</mask>
<g mask="url(#mask0_110_1430)">
<path d="M248.5 43.7092C146 68.0355 0.166668 25.3404 -34 1.01419L56 -56.5745C197.167 -41.5154 338.457 22.3597 248.5 43.7092Z" fill="#455B6F"/>
</g>
<path d="M94.176 46.3432C93.072 46.3432 92.056 46.0712 91.128 45.5272C90.2 44.9832 89.464 44.2472 88.92 43.3192C88.376 42.3912 88.104 41.3752 88.104 40.2712V34.4392H91.56V40.0792C91.56 40.7992 91.816 41.4152 92.328 41.9272C92.84 42.4552 93.456 42.7192 94.176 42.7192H99.672C100.056 42.7192 100.368 42.5912 100.608 42.3352C100.848 42.0952 100.968 41.7832 100.968 41.3992C100.968 41.1112 100.88 40.8472 100.704 40.6072C100.528 40.3672 100.288 40.2152 99.984 40.1512L93.792 38.7352V35.5912C93.792 34.6792 94.024 33.8312 94.488 33.0472C94.968 32.2472 95.608 31.6152 96.408 31.1512C97.224 30.6872 98.096 30.4552 99.024 30.4552H103.488V33.8872H98.976C98.512 33.8872 98.104 34.0632 97.752 34.4152C97.416 34.7512 97.248 35.1512 97.248 35.6152V35.9992C98.72 36.3192 99.68 36.5352 100.128 36.6472L101.088 36.8632C102.096 37.1672 102.92 37.7512 103.56 38.6152C104.2 39.4792 104.52 40.4472 104.52 41.5192C104.52 42.3992 104.304 43.2072 103.872 43.9432C103.44 44.6792 102.848 45.2632 102.096 45.6952C101.36 46.1272 100.552 46.3432 99.672 46.3432H94.176ZM112.166 37.3192C112.518 37.3192 112.814 37.2232 113.054 37.0312C113.294 36.8232 113.414 36.5432 113.414 36.1912C113.414 36.0952 113.366 35.8872 113.27 35.5672L110.99 29.3752L114.254 28.1512L117.206 36.3352C117.478 36.9912 117.91 37.3192 118.502 37.3192H118.646C118.806 37.3192 118.886 37.3992 118.886 37.5592V40.7032C118.886 40.8632 118.806 40.9432 118.646 40.9432H118.334C117.678 40.9432 117.094 40.8152 116.582 40.5592C116.07 40.3032 115.686 39.9832 115.43 39.5992C114.918 40.1112 114.43 40.4632 113.966 40.6552C113.502 40.8472 112.902 40.9432 112.166 40.9432H106.454V37.3192H112.166ZM121.137 26.8552H124.209V29.9272H121.137V26.8552ZM118.401 37.5592C118.401 37.3992 118.481 37.3192 118.641 37.3192H119.841C120.161 37.3192 120.425 37.2152 120.633 37.0072C120.841 36.7832 120.945 36.5112 120.945 36.1912V31.9912H124.401V36.1912C124.401 36.5112 124.505 36.7832 124.713 37.0072C124.921 37.2152 125.185 37.3192 125.505 37.3192H126.705C126.865 37.3192 126.945 37.3992 126.945 37.5592V40.7032C126.945 40.8632 126.865 40.9432 126.705 40.9432H125.505C124.321 40.9432 123.377 40.5512 122.673 39.7672C121.937 40.5512 120.993 40.9432 119.841 40.9432H118.641C118.481 40.9432 118.401 40.8632 118.401 40.7032V37.5592ZM126.703 40.9432C126.543 40.9432 126.463 40.8632 126.463 40.7032V37.5592C126.463 37.3992 126.543 37.3192 126.703 37.3192H127.999C128.303 37.3192 128.559 37.2072 128.767 36.9832C128.991 36.7592 129.103 36.4952 129.103 36.1912V31.2712H132.535V36.4072C132.535 37.2232 132.335 37.9832 131.935 38.6872C131.535 39.3752 130.991 39.9272 130.303 40.3432C129.615 40.7432 128.855 40.9432 128.023 40.9432H126.703ZM126.679 42.9832H129.775V46.0552H126.679V42.9832ZM150.83 37.3192C150.99 37.3192 151.07 37.3992 151.07 37.5592V40.7032C151.07 40.8632 150.99 40.9432 150.83 40.9432H149.822C149.134 40.9432 148.51 40.7992 147.95 40.5112C147.406 40.2232 146.958 39.8232 146.606 39.3112C145.774 39.9192 144.814 40.2232 143.726 40.2232C142.766 40.2232 141.878 39.9912 141.062 39.5272C140.262 39.0472 139.622 38.4072 139.142 37.6072C138.662 36.7912 138.422 35.9112 138.422 34.9672C138.422 34.0392 138.662 33.1992 139.142 32.4472C139.622 31.6792 140.262 31.0792 141.062 30.6472C141.878 30.1992 142.766 29.9752 143.726 29.9752H145.31V28.4392H148.718V36.1912C148.718 36.5112 148.822 36.7832 149.03 37.0072C149.238 37.2152 149.502 37.3192 149.822 37.3192H150.83ZM145.31 33.4312H143.726C143.262 33.4312 142.87 33.5752 142.55 33.8632C142.246 34.1512 142.094 34.5192 142.094 34.9672C142.094 35.4312 142.246 35.8232 142.55 36.1432C142.87 36.4472 143.262 36.5992 143.726 36.5992C144.174 36.5992 144.55 36.4472 144.854 36.1432C145.158 35.8232 145.31 35.4312 145.31 34.9672V33.4312ZM151.516 26.8312H154.588V29.9032H151.516V26.8312ZM155.836 26.8312H158.932V29.9032H155.836V26.8312ZM150.58 37.5592C150.58 37.3992 150.66 37.3192 150.82 37.3192H152.38C152.7 37.3192 152.964 37.2152 153.172 37.0072C153.38 36.7832 153.484 36.5112 153.484 36.1912V31.9912H156.94V36.1912C156.94 36.5112 157.044 36.7832 157.252 37.0072C157.46 37.2152 157.724 37.3192 158.044 37.3192H159.604C159.764 37.3192 159.844 37.3992 159.844 37.5592V40.7032C159.844 40.8632 159.764 40.9432 159.604 40.9432H158.044C156.86 40.9432 155.916 40.5512 155.212 39.7672C154.476 40.5512 153.532 40.9432 152.38 40.9432H150.82C150.66 40.9432 150.58 40.8632 150.58 40.7032V37.5592ZM176.241 31.2712V40.9432H171.921C170.769 40.9432 169.841 40.5272 169.137 39.6952C168.449 40.5592 167.497 40.9912 166.281 40.9912C165.081 40.9912 164.137 40.5672 163.449 39.7192C162.761 40.5352 161.817 40.9432 160.617 40.9432H159.609C159.449 40.9432 159.369 40.8632 159.369 40.7032V37.5592C159.369 37.3992 159.449 37.3192 159.609 37.3192H160.617C160.937 37.3192 161.201 37.2152 161.409 37.0072C161.633 36.7832 161.745 36.5112 161.745 36.1912V31.9912H165.177V36.2392C165.177 36.5592 165.281 36.8312 165.489 37.0552C165.697 37.2632 165.961 37.3672 166.281 37.3672C166.601 37.3672 166.865 37.2632 167.073 37.0552C167.281 36.8312 167.385 36.5592 167.385 36.2392V31.9912H170.841V36.1912C170.841 36.5112 170.945 36.7832 171.153 37.0072C171.361 37.2152 171.617 37.3192 171.921 37.3192H172.785V31.2712H176.241ZM184.033 37.3192C184.385 37.3192 184.665 37.2152 184.873 37.0072C185.097 36.7992 185.209 36.5352 185.209 36.2152C185.209 35.9912 185.137 35.7992 184.993 35.6392C184.865 35.4632 184.625 35.2552 184.273 35.0152L179.233 31.5592L181.177 28.7032L186.793 32.5912C187.401 33.0552 187.857 33.5672 188.161 34.1272C188.481 34.6712 188.641 35.3352 188.641 36.1192C188.641 37.0152 188.417 37.8312 187.969 38.5672C187.537 39.3032 186.945 39.8872 186.193 40.3192C185.441 40.7352 184.625 40.9432 183.745 40.9432H178.033V37.3192H184.033Z" fill="#566674"/>
<path d="M93.176 44.3574C92.072 44.3574 91.056 44.0854 90.128 43.5414C89.2 42.9974 88.464 42.2614 87.92 41.3334C87.376 40.4054 87.104 39.3894 87.104 38.2854V32.4534H90.56V38.0934C90.56 38.8134 90.816 39.4294 91.328 39.9414C91.84 40.4694 92.456 40.7334 93.176 40.7334H98.672C99.056 40.7334 99.368 40.6054 99.608 40.3494C99.848 40.1094 99.968 39.7974 99.968 39.4134C99.968 39.1254 99.88 38.8614 99.704 38.6214C99.528 38.3814 99.288 38.2294 98.984 38.1654L92.792 36.7494V33.6054C92.792 32.6934 93.024 31.8454 93.488 31.0614C93.968 30.2614 94.608 29.6294 95.408 29.1654C96.224 28.7014 97.096 28.4694 98.024 28.4694H102.488V31.9014H97.976C97.512 31.9014 97.104 32.0774 96.752 32.4294C96.416 32.7654 96.248 33.1654 96.248 33.6294V34.0134C97.72 34.3334 98.68 34.5494 99.128 34.6614L100.088 34.8774C101.096 35.1814 101.92 35.7654 102.56 36.6294C103.2 37.4934 103.52 38.4614 103.52 39.5334C103.52 40.4134 103.304 41.2214 102.872 41.9574C102.44 42.6934 101.848 43.2774 101.096 43.7094C100.36 44.1414 99.552 44.3574 98.672 44.3574H93.176ZM111.166 35.3334C111.518 35.3334 111.814 35.2374 112.054 35.0454C112.294 34.8374 112.414 34.5574 112.414 34.2054C112.414 34.1094 112.366 33.9014 112.27 33.5814L109.99 27.3894L113.254 26.1654L116.206 34.3494C116.478 35.0054 116.91 35.3334 117.502 35.3334H117.646C117.806 35.3334 117.886 35.4134 117.886 35.5734V38.7174C117.886 38.8774 117.806 38.9574 117.646 38.9574H117.334C116.678 38.9574 116.094 38.8294 115.582 38.5734C115.07 38.3174 114.686 37.9974 114.43 37.6134C113.918 38.1254 113.43 38.4774 112.966 38.6694C112.502 38.8614 111.902 38.9574 111.166 38.9574H105.454V35.3334H111.166ZM120.137 24.8694H123.209V27.9414H120.137V24.8694ZM117.401 35.5734C117.401 35.4134 117.481 35.3334 117.641 35.3334H118.841C119.161 35.3334 119.425 35.2294 119.633 35.0214C119.841 34.7974 119.945 34.5254 119.945 34.2054V30.0054H123.401V34.2054C123.401 34.5254 123.505 34.7974 123.713 35.0214C123.921 35.2294 124.185 35.3334 124.505 35.3334H125.705C125.865 35.3334 125.945 35.4134 125.945 35.5734V38.7174C125.945 38.8774 125.865 38.9574 125.705 38.9574H124.505C123.321 38.9574 122.377 38.5654 121.673 37.7814C120.937 38.5654 119.993 38.9574 118.841 38.9574H117.641C117.481 38.9574 117.401 38.8774 117.401 38.7174V35.5734ZM125.703 38.9574C125.543 38.9574 125.463 38.8774 125.463 38.7174V35.5734C125.463 35.4134 125.543 35.3334 125.703 35.3334H126.999C127.303 35.3334 127.559 35.2214 127.767 34.9974C127.991 34.7734 128.103 34.5094 128.103 34.2054V29.2854H131.535V34.4214C131.535 35.2374 131.335 35.9974 130.935 36.7014C130.535 37.3894 129.991 37.9414 129.303 38.3574C128.615 38.7574 127.855 38.9574 127.023 38.9574H125.703ZM125.679 40.9974H128.775V44.0694H125.679V40.9974ZM149.83 35.3334C149.99 35.3334 150.07 35.4134 150.07 35.5734V38.7174C150.07 38.8774 149.99 38.9574 149.83 38.9574H148.822C148.134 38.9574 147.51 38.8134 146.95 38.5254C146.406 38.2374 145.958 37.8374 145.606 37.3254C144.774 37.9334 143.814 38.2374 142.726 38.2374C141.766 38.2374 140.878 38.0054 140.062 37.5414C139.262 37.0614 138.622 36.4214 138.142 35.6214C137.662 34.8054 137.422 33.9254 137.422 32.9814C137.422 32.0534 137.662 31.2134 138.142 30.4614C138.622 29.6934 139.262 29.0934 140.062 28.6614C140.878 28.2134 141.766 27.9894 142.726 27.9894H144.31V26.4534H147.718V34.2054C147.718 34.5254 147.822 34.7974 148.03 35.0214C148.238 35.2294 148.502 35.3334 148.822 35.3334H149.83ZM144.31 31.4454H142.726C142.262 31.4454 141.87 31.5894 141.55 31.8774C141.246 32.1654 141.094 32.5334 141.094 32.9814C141.094 33.4454 141.246 33.8374 141.55 34.1574C141.87 34.4614 142.262 34.6134 142.726 34.6134C143.174 34.6134 143.55 34.4614 143.854 34.1574C144.158 33.8374 144.31 33.4454 144.31 32.9814V31.4454ZM150.516 24.8454H153.588V27.9174H150.516V24.8454ZM154.836 24.8454H157.932V27.9174H154.836V24.8454ZM149.58 35.5734C149.58 35.4134 149.66 35.3334 149.82 35.3334H151.38C151.7 35.3334 151.964 35.2294 152.172 35.0214C152.38 34.7974 152.484 34.5254 152.484 34.2054V30.0054H155.94V34.2054C155.94 34.5254 156.044 34.7974 156.252 35.0214C156.46 35.2294 156.724 35.3334 157.044 35.3334H158.604C158.764 35.3334 158.844 35.4134 158.844 35.5734V38.7174C158.844 38.8774 158.764 38.9574 158.604 38.9574H157.044C155.86 38.9574 154.916 38.5654 154.212 37.7814C153.476 38.5654 152.532 38.9574 151.38 38.9574H149.82C149.66 38.9574 149.58 38.8774 149.58 38.7174V35.5734ZM175.241 29.2854V38.9574H170.921C169.769 38.9574 168.841 38.5414 168.137 37.7094C167.449 38.5734 166.497 39.0054 165.281 39.0054C164.081 39.0054 163.137 38.5814 162.449 37.7334C161.761 38.5494 160.817 38.9574 159.617 38.9574H158.609C158.449 38.9574 158.369 38.8774 158.369 38.7174V35.5734C158.369 35.4134 158.449 35.3334 158.609 35.3334H159.617C159.937 35.3334 160.201 35.2294 160.409 35.0214C160.633 34.7974 160.745 34.5254 160.745 34.2054V30.0054H164.177V34.2534C164.177 34.5734 164.281 34.8454 164.489 35.0694C164.697 35.2774 164.961 35.3814 165.281 35.3814C165.601 35.3814 165.865 35.2774 166.073 35.0694C166.281 34.8454 166.385 34.5734 166.385 34.2534V30.0054H169.841V34.2054C169.841 34.5254 169.945 34.7974 170.153 35.0214C170.361 35.2294 170.617 35.3334 170.921 35.3334H171.785V29.2854H175.241ZM183.033 35.3334C183.385 35.3334 183.665 35.2294 183.873 35.0214C184.097 34.8134 184.209 34.5494 184.209 34.2294C184.209 34.0054 184.137 33.8134 183.993 33.6534C183.865 33.4774 183.625 33.2694 183.273 33.0294L178.233 29.5734L180.177 26.7174L185.793 30.6054C186.401 31.0694 186.857 31.5814 187.161 32.1414C187.481 32.6854 187.641 33.3494 187.641 34.1334C187.641 35.0294 187.417 35.8454 186.969 36.5814C186.537 37.3174 185.945 37.9014 185.193 38.3334C184.441 38.7494 183.625 38.9574 182.745 38.9574H177.033V35.3334H183.033Z" fill="#E6E8EA"/>
<path d="M23.4092 10.4501C23.1948 9.14807 24.1994 7.9646 25.5189 7.9646H36.8389C38.5847 7.9646 40 9.37988 40 11.1257V11.1257C40 13.0985 38.213 14.5893 36.2722 14.2356L25.1356 12.2062C24.2469 12.0443 23.5559 11.3414 23.4092 10.4501V10.4501Z" fill="#D9D9D9"/>
<ellipse cx="18.5" cy="15.4113" rx="3.5" ry="3.47518" fill="#D9D9D9"/>
</svg>
