<svg width="134" height="57" viewBox="0 0 134 57" fill="none" xmlns="http://www.w3.org/2000/svg">
<g filter="url(#filter0_i_449_3471)">
<path d="M1 14.263C1 8.48342 5.45991 3.69355 11.2282 3.33369C25.3959 2.44982 50.9867 1 66.4159 1C81.9319 1 108.295 2.46615 122.756 3.34853C128.532 3.701 133 8.49444 133 14.2817V42.7884C133 48.5468 128.56 53.3258 122.814 53.6982C109.136 54.5846 84.4693 56 66.4159 56C48.4708 56 24.5358 54.6015 11.1555 53.7142C5.41908 53.3338 1 48.56 1 42.811V14.263Z" fill="#354859"/>
</g>
<path d="M133.5 42.7884V14.2817C133.5 8.23274 128.829 3.21818 122.786 2.84946C108.328 1.96726 81.9498 0.5 66.4159 0.5C50.9685 0.5 25.3621 1.95095 11.1971 2.83466C5.16273 3.21112 0.5 8.22188 0.5 14.263V42.811C0.5 48.8203 5.12026 53.8151 11.1224 54.2131C24.503 55.1004 48.4527 56.5 66.4159 56.5C84.4872 56.5 109.169 55.0835 122.846 54.1972C128.858 53.8076 133.5 48.8079 133.5 42.7884Z" stroke="white"/>
<path fill-rule="evenodd" clip-rule="evenodd" d="M6.42419 51.4506C8.07968 52.7443 10.1245 53.5693 12.3723 53.7196C25.6448 54.6072 49.2956 55.9998 67.0369 55.9998C84.8863 55.9998 109.261 54.5902 122.829 53.7035C128.572 53.3281 133.005 48.5507 133.005 42.7952V14.275C133.005 11.7044 132.123 9.32974 130.637 7.45337C129.806 32.6075 108.071 61.9331 6.42419 51.4506Z" fill="#283643"/>
<path d="M21.5 7.15283C22.3439 8.63016 16.9131 8.91746 13 11.1528C9.08685 13.3882 7.37197 16.549 6.52805 15.0717C5.68413 13.5943 8.17223 10.5846 12.0854 8.34923C15.9985 6.11386 20.6561 5.6755 21.5 7.15283Z" fill="#536B80"/>
<defs>
<filter id="filter0_i_449_3471" x="0" y="0" width="134.5" height="57.5" filterUnits="userSpaceOnUse" color-interpolation-filters="sRGB">
<feFlood flood-opacity="0" result="BackgroundImageFix"/>
<feBlend mode="normal" in="SourceGraphic" in2="BackgroundImageFix" result="shape"/>
<feColorMatrix in="SourceAlpha" type="matrix" values="0 0 0 0 0 0 0 0 0 0 0 0 0 0 0 0 0 0 127 0" result="hardAlpha"/>
<feOffset dx="2" dy="2"/>
<feGaussianBlur stdDeviation="0.25"/>
<feComposite in2="hardAlpha" operator="arithmetic" k2="-1" k3="1"/>
<feColorMatrix type="matrix" values="0 0 0 0 0 0 0 0 0 0 0 0 0 0 0 0 0 0 0.25 0"/>
<feBlend mode="normal" in2="shape" result="effect1_innerShadow_449_3471"/>
</filter>
</defs>
</svg>
