<svg width="300" height="191" viewBox="0 0 300 191" fill="none" xmlns="http://www.w3.org/2000/svg">
<rect x="1" y="30" width="298" height="154" rx="15" fill="#031A30"/>
<rect x="1" y="30" width="298" height="154" rx="15" stroke="#B1B8BF" stroke-width="2"/>
<mask id="mask0_991_10858" style="mask-type:alpha" maskUnits="userSpaceOnUse" x="0" y="66" width="298" height="118">
<rect x="1.5" y="68.4889" width="294.959" height="113.255" rx="22.5" fill="#031A30"/>
<rect x="1.5" y="68.4889" width="294.959" height="113.255" rx="22.5" stroke="#B1B8BF" stroke-width="3"/>
</mask>
<g mask="url(#mask0_991_10858)">
<path d="M255.403 135.103C287.023 117.358 301.685 84.7106 305.063 70.6049H561.47C537.653 78.6803 535.525 221.154 512.823 223.042C490.122 224.929 21.6299 237.934 -64.8525 233.739L-53.1977 176.32C-17.3885 177.578 68.1143 179.34 123.652 176.32C193.075 172.544 215.878 157.285 255.403 135.103Z" fill="#021425"/>
</g>
<circle cx="9" cy="56" r="3" fill="#092B4B"/>
<circle cx="9" cy="56" r="3" fill="#1D3E5E"/>
<path d="M38.5146 35.6241C39.8861 38.025 30.5725 38.7705 23.7606 42.6618C16.9486 46.5531 13.8548 51.8652 12.4833 49.4643C11.1118 47.0635 15.5222 41.9627 22.3341 38.0714C29.146 34.1801 37.1431 33.2233 38.5146 35.6241Z" fill="#092B4B"/>
<path d="M38.5146 35.6241C39.8861 38.025 30.5725 38.7705 23.7606 42.6618C16.9486 46.5531 13.8548 51.8652 12.4833 49.4643C11.1118 47.0635 15.5222 41.9627 22.3341 38.0714C29.146 34.1801 37.1431 33.2233 38.5146 35.6241Z" fill="#1D3E5E"/>
<g filter="url(#filter0_i_991_10858)">
<path d="M84 14.263C84 8.48342 88.4599 3.69355 94.2282 3.33369C108.396 2.44982 133.987 1 149.416 1C164.932 1 191.295 2.46615 205.756 3.34853C211.532 3.701 216 8.49444 216 14.2817V42.7884C216 48.5468 211.56 53.3258 205.814 53.6982C192.136 54.5846 167.469 56 149.416 56C131.471 56 107.536 54.6015 94.1555 53.7142C88.4191 53.3338 84 48.56 84 42.811V14.263Z" fill="#1D3752"/>
</g>
<path d="M216.5 42.7884V14.2817C216.5 8.23274 211.829 3.21818 205.786 2.84946C191.328 1.96726 164.95 0.5 149.416 0.5C133.968 0.5 108.362 1.95095 94.1971 2.83466C88.1627 3.21112 83.5 8.22188 83.5 14.263V42.811C83.5 48.8203 88.1203 53.8151 94.1224 54.2131C107.503 55.1004 131.453 56.5 149.416 56.5C167.487 56.5 192.169 55.0835 205.846 54.1972C211.858 53.8076 216.5 48.8079 216.5 42.7884Z" stroke="white"/>
<path fill-rule="evenodd" clip-rule="evenodd" d="M89.4233 51.4505C91.0788 52.7443 93.1237 53.5693 95.3716 53.7196C108.644 54.6072 132.295 55.9998 150.036 55.9998C167.886 55.9998 192.26 54.5902 205.828 53.7035C211.571 53.3281 216.004 48.5507 216.004 42.7953V14.275C216.004 11.7048 215.123 9.33057 213.637 7.45435C212.805 32.6084 191.07 61.9332 89.4233 51.4505Z" fill="#12273C"/>
<path d="M104.5 7.15283C105.344 8.63016 99.9131 8.91746 96 11.1528C92.0869 13.3882 90.372 16.549 89.5281 15.0717C88.6841 13.5943 91.1722 10.5846 95.0854 8.34923C98.9985 6.11386 103.656 5.6755 104.5 7.15283Z" fill="#536B80"/>
<g filter="url(#filter1_d_991_10858)">
<path d="M110.12 33.76C109.72 33.36 109.42 32.9133 109.22 32.42C109.02 31.9267 108.92 31.4133 108.92 30.88C108.92 30.3067 109.033 29.7467 109.26 29.2C109.5 28.64 109.84 28.14 110.28 27.7L111.2 26.78L110.3 25.9L112.36 23.9L116.18 27.7C116.62 28.14 116.953 28.64 117.18 29.2C117.407 29.7467 117.52 30.3067 117.52 30.88C117.52 31.4133 117.42 31.9333 117.22 32.44C117.02 32.9333 116.72 33.3733 116.32 33.76C115.907 34.1733 115.433 34.4867 114.9 34.7C114.367 34.9133 113.807 35.02 113.22 35.02C112.647 35.02 112.093 34.9133 111.56 34.7C111.027 34.4867 110.547 34.1733 110.12 33.76ZM112.28 31.6C112.56 31.88 112.88 32.02 113.24 32.02C113.587 32.02 113.9 31.88 114.18 31.6C114.433 31.3467 114.56 31.0533 114.56 30.72C114.56 30.3467 114.42 30.02 114.14 29.74L113.22 28.8L112.3 29.7C112.02 29.98 111.88 30.3 111.88 30.66C111.88 31.02 112.013 31.3333 112.28 31.6ZM120.537 38.14C121.723 37.6333 122.603 37.22 123.177 36.9C123.763 36.58 124.163 36.28 124.377 36C124.59 35.72 124.697 35.3867 124.697 35H123.397C122.597 35 121.863 34.82 121.197 34.46C120.53 34.1 119.997 33.6067 119.597 32.98C119.21 32.34 119.017 31.6267 119.017 30.84C119.017 30.04 119.21 29.3067 119.597 28.64C119.997 27.9733 120.53 27.4467 121.197 27.06C121.863 26.66 122.597 26.46 123.397 26.46C124.17 26.46 124.877 26.66 125.517 27.06C126.157 27.4467 126.657 27.9733 127.017 28.64C127.377 29.3067 127.557 30.04 127.557 30.84V33.76C127.557 35 127.363 36 126.977 36.76C126.603 37.5333 125.99 38.2 125.137 38.76C124.297 39.3333 123.063 39.9733 121.437 40.68L120.537 38.14ZM124.697 30.82C124.697 30.4333 124.57 30.1133 124.317 29.86C124.077 29.6067 123.77 29.48 123.397 29.48C123.01 29.48 122.683 29.6067 122.417 29.86C122.163 30.1133 122.037 30.4333 122.037 30.82C122.037 31.2067 122.163 31.5267 122.417 31.78C122.683 32.0333 123.01 32.16 123.397 32.16H124.697V30.82ZM134.653 31.98C134.786 31.98 134.853 32.0467 134.853 32.18V34.8C134.853 34.9333 134.786 35 134.653 35H133.793C133.446 35 133.133 34.96 132.853 34.88C132.813 35.7867 132.679 36.5467 132.453 37.16C132.226 37.7867 131.873 38.36 131.393 38.88C130.913 39.4133 130.226 40.0133 129.333 40.68L127.732 38.58C128.439 38.02 128.946 37.54 129.253 37.14C129.573 36.74 129.779 36.3333 129.873 35.92C129.966 35.5067 130.013 34.9267 130.013 34.18V27.54H132.873V31.04C132.873 31.3067 132.959 31.5333 133.133 31.72C133.306 31.8933 133.526 31.98 133.793 31.98H134.653ZM134.96 22.62L138.48 18.9L139.86 20.3L136.34 24.02L134.96 22.62ZM134.66 35C134.527 35 134.46 34.9333 134.46 34.8V32.18C134.46 32.0467 134.527 31.98 134.66 31.98H141.02C141.38 31.98 141.687 31.86 141.94 31.62C142.193 31.38 142.32 31.06 142.32 30.66C142.32 30.18 142.093 29.8 141.64 29.52L137.1 26.54V24.36L141.1 20.12L143.06 21.98L140.1 25.08L143.42 27.26C143.98 27.62 144.413 28.1067 144.72 28.72C145.04 29.32 145.2 29.9867 145.2 30.72C145.2 31.4933 145.007 32.2067 144.62 32.86C144.247 33.5133 143.74 34.0333 143.1 34.42C142.46 34.8067 141.753 35 140.98 35H134.66ZM160.69 18.8H163.25V21.36H160.69V18.8ZM155.23 35C154.31 35 153.463 34.7733 152.69 34.32C151.917 33.8667 151.303 33.2533 150.85 32.48C150.397 31.7067 150.17 30.86 150.17 29.94V27.54H153.05V29.78C153.05 30.38 153.263 30.9 153.69 31.34C154.117 31.7667 154.63 31.98 155.23 31.98H162.01C162.277 31.98 162.49 31.8933 162.65 31.72C162.823 31.5467 162.91 31.3267 162.91 31.06V30.86H161.97C161.237 30.86 160.557 30.6933 159.93 30.36C159.317 30.0133 158.823 29.5467 158.45 28.96C158.09 28.3733 157.91 27.7267 157.91 27.02C157.91 26.2733 158.097 25.5867 158.47 24.96C158.843 24.3333 159.337 23.84 159.95 23.48C160.577 23.12 161.25 22.94 161.97 22.94C162.69 22.94 163.337 23.12 163.91 23.48C164.497 23.84 164.957 24.3333 165.29 24.96C165.623 25.5867 165.79 26.2733 165.79 27.02V31.22C165.79 31.9 165.623 32.5333 165.29 33.12C164.957 33.6933 164.503 34.1533 163.93 34.5C163.357 34.8333 162.723 35 162.03 35H155.23ZM163.09 26.92C163.09 26.5733 162.97 26.28 162.73 26.04C162.49 25.8 162.203 25.68 161.87 25.68C161.51 25.68 161.21 25.8 160.97 26.04C160.73 26.28 160.61 26.5733 160.61 26.92C160.61 27.28 160.73 27.5867 160.97 27.84C161.21 28.08 161.51 28.2 161.87 28.2H163.09V26.92ZM171.098 20.48H173.678V23.04H171.098V20.48ZM172.058 31.98C172.351 31.98 172.598 31.9 172.798 31.74C172.998 31.5667 173.098 31.3333 173.098 31.04C173.098 30.96 173.058 30.7867 172.978 30.52L171.078 25.36L173.798 24.34L176.258 31.16C176.458 31.7067 176.818 31.98 177.338 31.98H177.458C177.591 31.98 177.658 32.0467 177.658 32.18V34.8C177.658 34.9333 177.591 35 177.458 35H177.198C176.651 35 176.165 34.8933 175.738 34.68C175.311 34.4667 174.991 34.2 174.778 33.88C174.351 34.3067 173.945 34.6 173.558 34.76C173.171 34.92 172.671 35 172.058 35H167.298V31.98H172.058ZM177.453 35C177.32 35 177.253 34.9333 177.253 34.8V32.18C177.253 32.0467 177.32 31.98 177.453 31.98H181.613C182.653 31.98 183.52 31.66 184.213 31.02L186.153 29.26L183.373 27.92C183.106 27.8133 182.906 27.76 182.773 27.76C182.6 27.76 182.426 27.8 182.253 27.88C182.093 27.96 181.953 28.0667 181.833 28.2L179.993 30.24L177.993 28.48L179.833 26.24C180.22 25.8 180.666 25.4733 181.173 25.26C181.693 25.0333 182.22 24.92 182.753 24.92C183.126 24.92 183.44 24.9667 183.693 25.06C183.96 25.14 184.226 25.2467 184.493 25.38L188.793 27.38C188.873 27.42 188.98 27.44 189.113 27.44H191.253V30.24H189.033L185.793 33.26C185.18 33.8333 184.473 34.2667 183.673 34.56C182.873 34.8533 182.046 35 181.193 35H177.453Z" fill="#E6E8EA"/>
</g>
<defs>
<filter id="filter0_i_991_10858" x="83" y="0" width="134.5" height="57.5" filterUnits="userSpaceOnUse" color-interpolation-filters="sRGB">
<feFlood flood-opacity="0" result="BackgroundImageFix"/>
<feBlend mode="normal" in="SourceGraphic" in2="BackgroundImageFix" result="shape"/>
<feColorMatrix in="SourceAlpha" type="matrix" values="0 0 0 0 0 0 0 0 0 0 0 0 0 0 0 0 0 0 127 0" result="hardAlpha"/>
<feOffset dx="2" dy="2"/>
<feGaussianBlur stdDeviation="0.25"/>
<feComposite in2="hardAlpha" operator="arithmetic" k2="-1" k3="1"/>
<feColorMatrix type="matrix" values="0 0 0 0 0 0 0 0 0 0 0 0 0 0 0 0 0 0 0.25 0"/>
<feBlend mode="normal" in2="shape" result="effect1_innerShadow_991_10858"/>
</filter>
<filter id="filter1_d_991_10858" x="108.92" y="18.8" width="84.3333" height="23.88" filterUnits="userSpaceOnUse" color-interpolation-filters="sRGB">
<feFlood flood-opacity="0" result="BackgroundImageFix"/>
<feColorMatrix in="SourceAlpha" type="matrix" values="0 0 0 0 0 0 0 0 0 0 0 0 0 0 0 0 0 0 127 0" result="hardAlpha"/>
<feOffset dx="2" dy="2"/>
<feComposite in2="hardAlpha" operator="out"/>
<feColorMatrix type="matrix" values="0 0 0 0 0 0 0 0 0 0 0 0 0 0 0 0 0 0 0.25 0"/>
<feBlend mode="normal" in2="BackgroundImageFix" result="effect1_dropShadow_991_10858"/>
<feBlend mode="normal" in="SourceGraphic" in2="effect1_dropShadow_991_10858" result="shape"/>
</filter>
</defs>
</svg>
