<svg width="56" height="56" viewBox="0 0 56 56" fill="none" xmlns="http://www.w3.org/2000/svg">
<path d="M33.9034 22.0967L22.0967 33.9033C20.5801 32.3867 19.6467 30.31 19.6467 28C19.6467 23.38 23.3801 19.6467 28.0001 19.6467C30.3101 19.6467 32.3867 20.58 33.9034 22.0967Z" stroke="#E6E8EA" stroke-width="3" stroke-linecap="round" stroke-linejoin="round"/>
<path d="M41.58 13.4633C37.4967 10.3833 32.83 8.70333 28 8.70333C19.7633 8.70333 12.0867 13.5567 6.74333 21.9567C4.64333 25.2467 4.64333 30.7767 6.74333 34.0667C8.58667 36.96 10.7333 39.4567 13.0667 41.4633" stroke="#E6E8EA" stroke-width="3" stroke-linecap="round" stroke-linejoin="round"/>
<path d="M19.6467 45.57C22.3067 46.69 25.1301 47.2967 28.0001 47.2967C36.2367 47.2967 43.9134 42.4433 49.2567 34.0433C51.3567 30.7533 51.3567 25.2233 49.2567 21.9333C48.4867 20.72 47.6467 19.5767 46.7834 18.5033" stroke="#E6E8EA" stroke-width="3" stroke-linecap="round" stroke-linejoin="round"/>
<path d="M36.19 29.6333C35.5833 32.9233 32.9 35.6067 29.61 36.2133" stroke="#E6E8EA" stroke-width="3" stroke-linecap="round" stroke-linejoin="round"/>
<path d="M22.0966 33.9033L4.66663 51.3333" stroke="#E6E8EA" stroke-width="3" stroke-linecap="round" stroke-linejoin="round"/>
<path d="M51.3333 4.66667L33.9033 22.0967" stroke="#E6E8EA" stroke-width="3" stroke-linecap="round" stroke-linejoin="round"/>
</svg>
