<svg width="115" height="57" viewBox="0 0 115 57" fill="none" xmlns="http://www.w3.org/2000/svg">
<g filter="url(#filter0_i_313_2726)">
<path d="M1 14.1442C1 8.41378 5.386 3.64766 11.1016 3.23622C23.4489 2.34741 44.2667 1 57 1C69.8115 1 91.2617 2.364 103.876 3.25254C109.601 3.65583 114 8.42641 114 14.1658V42.915C114 48.6208 109.645 53.3737 103.955 53.7977C92.0302 54.6865 71.8881 56 57 56C42.2159 56 22.6827 54.7048 11.0243 53.8164C5.34585 53.3838 1 48.636 1 42.9411V14.1442Z" fill="#354859"/>
</g>
<path d="M114.5 42.915V14.1658C114.5 8.16685 109.901 3.17571 103.911 2.75377C91.2999 1.86545 69.8321 0.5 57 0.5C44.2458 0.5 23.4102 1.8489 11.0657 2.73751C5.08549 3.168 0.5 8.15466 0.5 14.1442V42.9411C0.5 48.894 5.04383 53.8622 10.9863 54.315C22.6454 55.2034 42.1952 56.5 57 56.5C71.9085 56.5 92.0672 55.1851 103.992 54.2964C109.946 53.8526 114.5 48.879 114.5 42.915Z" stroke="white"/>
<g filter="url(#filter1_d_313_2726)">
<path d="M36.26 29.18H34.84L34.38 19.14H36.7L36.26 29.18ZM35.56 33.22C35.2267 33.22 34.9267 33.0933 34.66 32.84C34.4067 32.5733 34.28 32.2667 34.28 31.92C34.28 31.5733 34.4 31.2733 34.64 31.02C34.8933 30.7667 35.2 30.64 35.56 30.64C35.9333 30.64 36.24 30.7667 36.48 31.02C36.72 31.2733 36.84 31.5733 36.84 31.92C36.84 32.28 36.7067 32.5867 36.44 32.84C36.1867 33.0933 35.8933 33.22 35.56 33.22ZM44.3172 24.78H46.3572V26.82H44.3172V24.78ZM45.3572 36.72C44.2772 36.72 43.2772 36.4467 42.3572 35.9C41.4372 35.3667 40.7039 34.64 40.1572 33.72C39.6239 32.8 39.3572 31.8 39.3572 30.72V26.98H41.4172V30.6C41.4172 31.32 41.5905 31.9867 41.9372 32.6C42.2972 33.2 42.7772 33.6733 43.3772 34.02C43.9905 34.38 44.6505 34.56 45.3572 34.56C46.0772 34.56 46.7372 34.38 47.3372 34.02C47.9505 33.6733 48.4305 33.2 48.7772 32.6C49.1372 31.9867 49.3172 31.32 49.3172 30.6V26.18H51.3772V30.72C51.3772 31.8 51.1039 32.8 50.5572 33.72C50.0239 34.64 49.2972 35.3667 48.3772 35.9C47.4572 36.4467 46.4505 36.72 45.3572 36.72ZM57.095 33C56.455 33 55.8683 32.8467 55.335 32.54C54.8017 32.22 54.3817 31.7933 54.075 31.26C53.7683 30.7267 53.615 30.14 53.615 29.5V19.72H55.675V29.38C55.675 29.78 55.815 30.12 56.095 30.4C56.375 30.68 56.7083 30.82 57.095 30.82H58.075C58.2083 30.82 58.275 30.8867 58.275 31.02V32.8C58.275 32.9333 58.2083 33 58.075 33H57.095ZM58.0781 33C57.9448 33 57.8781 32.9333 57.8781 32.8V31.02C57.8781 30.8867 57.9448 30.82 58.0781 30.82H59.7781C60.1781 30.82 60.5115 30.68 60.7781 30.4C61.0581 30.12 61.1981 29.78 61.1981 29.38V25.58H63.2581V29.5C63.2581 30.14 63.1048 30.7267 62.7981 31.26C62.4915 31.7933 62.0715 32.22 61.5381 32.54C61.0048 32.8467 60.4181 33 59.7781 33H58.0781ZM58.0981 34.84H60.1381V36.88H58.0981V34.84ZM61.1781 34.84H63.1981V36.88H61.1781V34.84ZM68.9114 33C68.2714 33 67.6847 32.8467 67.1514 32.54C66.6181 32.22 66.1981 31.7933 65.8914 31.26C65.5847 30.7267 65.4314 30.14 65.4314 29.5V19.72H67.4914V29.38C67.4914 29.78 67.6314 30.12 67.9114 30.4C68.1914 30.68 68.5247 30.82 68.9114 30.82H69.8914C70.0247 30.82 70.0914 30.8867 70.0914 31.02V32.8C70.0914 32.9333 70.0247 33 69.8914 33H68.9114ZM69.8945 33C69.7612 33 69.6945 32.9333 69.6945 32.8V31.02C69.6945 30.8867 69.7612 30.82 69.8945 30.82H71.5945C71.9945 30.82 72.3279 30.68 72.5945 30.4C72.8745 30.12 73.0145 29.78 73.0145 29.38V25.58H75.0745V29.5C75.0745 30.14 74.9212 30.7267 74.6145 31.26C74.3079 31.7933 73.8879 32.22 73.3545 32.54C72.8212 32.8467 72.2345 33 71.5945 33H69.8945ZM69.8945 34.8H71.9345V36.84H69.8945V34.8ZM72.9745 34.8H74.9945V36.84H72.9745V34.8ZM71.4545 37.88H73.4745V39.9H71.4545V37.88Z" fill="#E6E8EA"/>
</g>
<path fill-rule="evenodd" clip-rule="evenodd" d="M5.12891 51.5102C6.76622 52.8093 8.79248 53.6462 11.0247 53.8163C22.6831 54.7046 42.2163 55.9998 57.0004 55.9998C71.8885 55.9998 92.0306 54.6863 103.955 53.7976C109.645 53.3735 114 48.6206 114 42.9149V14.1656C114 11.7819 113.242 9.5653 111.944 7.75928C111.084 32.7964 92.1729 61.7795 5.12891 51.5102Z" fill="#283643"/>
<path d="M21.5 8.15283C22.3439 9.63016 16.9131 9.91746 13 12.1528C9.08685 14.3882 7.37197 17.549 6.52805 16.0717C5.68413 14.5943 8.17223 11.5846 12.0854 9.34923C15.9985 7.11386 20.6561 6.6755 21.5 8.15283Z" fill="#536B80"/>
<defs>
<filter id="filter0_i_313_2726" x="0" y="0" width="115.5" height="57.5" filterUnits="userSpaceOnUse" color-interpolation-filters="sRGB">
<feFlood flood-opacity="0" result="BackgroundImageFix"/>
<feBlend mode="normal" in="SourceGraphic" in2="BackgroundImageFix" result="shape"/>
<feColorMatrix in="SourceAlpha" type="matrix" values="0 0 0 0 0 0 0 0 0 0 0 0 0 0 0 0 0 0 127 0" result="hardAlpha"/>
<feOffset dx="2" dy="2"/>
<feGaussianBlur stdDeviation="0.25"/>
<feComposite in2="hardAlpha" operator="arithmetic" k2="-1" k3="1"/>
<feColorMatrix type="matrix" values="0 0 0 0 0 0 0 0 0 0 0 0 0 0 0 0 0 0 0.25 0"/>
<feBlend mode="normal" in2="shape" result="effect1_innerShadow_313_2726"/>
</filter>
<filter id="filter1_d_313_2726" x="34.2803" y="19.1399" width="42.7939" height="22.76" filterUnits="userSpaceOnUse" color-interpolation-filters="sRGB">
<feFlood flood-opacity="0" result="BackgroundImageFix"/>
<feColorMatrix in="SourceAlpha" type="matrix" values="0 0 0 0 0 0 0 0 0 0 0 0 0 0 0 0 0 0 127 0" result="hardAlpha"/>
<feOffset dx="2" dy="2"/>
<feComposite in2="hardAlpha" operator="out"/>
<feColorMatrix type="matrix" values="0 0 0 0 0 0 0 0 0 0 0 0 0 0 0 0 0 0 0.25 0"/>
<feBlend mode="normal" in2="BackgroundImageFix" result="effect1_dropShadow_313_2726"/>
<feBlend mode="normal" in="SourceGraphic" in2="effect1_dropShadow_313_2726" result="shape"/>
</filter>
</defs>
</svg>
