<svg width="320" height="320" viewBox="0 0 320 320" fill="none" xmlns="http://www.w3.org/2000/svg">
<path d="M160 303.954C243.767 303.954 311.673 266.21 311.673 219.65C311.673 173.09 243.767 135.345 160 135.345C76.2328 135.345 8.32617 173.09 8.32617 219.65C8.32617 266.21 76.2328 303.954 160 303.954Z" fill="#758CA2"/>
<path d="M268 248C290.644 248 309 237.479 309 224.5C309 211.521 290.644 201 268 201C245.356 201 227 211.521 227 224.5C227 237.479 245.356 248 268 248Z" fill="#506A83"/>
<path d="M115.728 228.513C90.3671 243.155 90.3671 266.895 115.729 281.538C141.091 296.18 182.211 296.18 207.571 281.538C232.933 266.896 232.933 243.156 207.57 228.513C182.21 213.87 141.09 213.87 115.728 228.513Z" fill="#506B83"/>
<path d="M52.1393 164.368C32.0465 175.968 32.0465 194.776 52.14 206.378C72.2334 217.978 104.811 217.978 124.903 206.378C144.996 194.777 144.996 175.969 124.902 164.368C104.809 152.767 72.2321 152.767 52.1393 164.368Z" fill="#506B83"/>
<path d="M106.165 205.513C94.6695 212.15 94.6695 222.911 106.166 229.549C117.662 236.185 136.301 236.185 147.796 229.549C159.292 222.911 159.292 212.151 147.795 205.513C136.3 198.876 117.661 198.876 106.165 205.513Z" fill="#E0E0E0"/>
<path d="M202.229 201.231C204.227 202.351 214.866 207.164 226.943 203.076C239.019 198.987 243.583 191.39 250.297 187.939C257.011 184.488 264.212 182.445 268.42 180.015C272.628 177.586 267.972 175.862 262.147 175.342C256.321 174.821 251.133 177.346 246.263 175.422C241.392 173.499 222.892 167.238 210.948 172.293C199.005 177.349 187.065 187.491 187.002 191.075C186.936 194.817 192.552 197.776 198.975 197.988C198.975 197.988 200.232 200.112 202.229 201.231Z" fill="#506B83"/>
<path d="M247.11 185.367C242.737 188.046 239.366 191.636 234.675 194.313C223.185 200.871 217.367 201.274 210.672 200.005L223.169 187.678C223.169 187.678 241.705 179.951 243.371 178.598C244.761 177.469 244.817 174.621 246.747 174.159C248.969 173.628 250.556 174.818 251.984 176.13C253.334 177.372 255.101 177.931 258.428 176.783C261.756 175.635 264.966 173.995 266.315 174.646C267.665 175.298 266.762 176.34 260.943 179.027C257.598 180.572 253.388 182.501 250.61 183.446C248.845 184.046 245.554 186.452 243.965 187.425" fill="#FFA8A7"/>
<path d="M267.972 175.106C268.619 174.239 266.577 171.963 262.918 171.549C260.037 171.224 258.008 171.718 256.14 172.364C254.272 173.009 251.785 173.086 250.216 172.358C247.366 171.034 246.417 171.324 246.57 173.16C246.57 173.16 246.187 175.211 248.598 176.073C251.011 176.936 262.552 176.739 267.972 175.106Z" fill="#37474F"/>
<path d="M244.659 178.255C245.877 180.344 248.698 179.725 251.081 179.274C253.314 178.852 261.47 176.667 262.547 178.267C264.769 177.411 266.956 176.185 267.973 175.106C267.973 175.106 267.386 172.856 262.773 173.964C259.755 174.689 254.231 175.068 252.53 174.858C250.297 174.58 247.262 172.557 244.942 173.489C243.941 174.875 244.351 176.231 244.659 178.255Z" fill="#0F3B62"/>
<path opacity="0.6" d="M244.659 178.255C245.877 180.344 248.698 179.725 251.081 179.274C253.314 178.852 261.47 176.667 262.547 178.267C264.769 177.411 266.956 176.185 267.973 175.106C267.973 175.106 267.386 172.856 262.773 173.964C259.755 174.689 254.231 175.068 252.53 174.858C250.297 174.58 247.262 172.557 244.942 173.489C243.941 174.875 244.351 176.231 244.659 178.255Z" fill="white"/>
<path d="M190.778 182.976C192.835 176.484 198.441 172.705 203.427 168.521C208.412 164.331 216.367 157.334 216.367 157.334L216.371 157.337C216.37 157.336 216.369 157.334 216.369 157.334L243.378 151.813C245.128 155.393 247.192 162.76 247.197 167.965C247.202 172.818 246.459 178.658 237.967 184.962C232.816 188.786 228.764 193.177 224.89 195.208C220.689 197.41 214.917 202.044 207.429 199.259C203.972 197.973 202.328 194.571 203.192 191.544C203.191 191.544 203.188 191.545 203.186 191.545C202.591 191.601 201.996 191.633 201.445 191.639C200.799 191.657 200.211 191.652 199.747 191.652C198.069 191.645 196.371 191.489 194.799 190.9C191.286 189.596 189.587 186.737 190.778 182.976Z" fill="#FFA8A7"/>
<path d="M201.445 191.638C201.996 191.632 202.592 191.601 203.187 191.544C206.318 184.861 222.625 171.953 223.527 171.183C223.552 171.158 223.57 171.138 223.57 171.138C223.539 171.095 223.501 171.071 223.463 171.028L222.8 170.084H222.793C221.735 167.871 220.532 166.261 220.532 166.261C220.87 167.839 221.559 169.558 222.054 170.697C219.943 172.589 210.082 180.941 207.715 183.19C205.228 185.558 202.648 188.294 201.445 191.638Z" fill="#F28F8F"/>
<path d="M220.474 196.925C223.849 196.581 232.069 192.591 234.729 188.151C237.596 183.367 232.786 186.857 232.786 186.857C232.786 186.857 224.003 195.133 220.474 196.925Z" fill="#F28F8F"/>
<path d="M245.111 155.716L214.584 158.772C214.584 158.772 199.52 170.054 194.294 176.577C194.294 176.577 199.728 176.724 203.477 179.38C207.226 182.038 208.165 184.927 208.165 184.927C208.165 184.927 211.655 183.742 217.146 186.654C222.638 189.566 224.273 194.298 224.273 194.298C224.273 194.298 226.949 192.613 230.382 190.612C234.803 188.036 240.58 184.503 244.594 178.793C248.894 172.676 247.857 160.193 245.111 155.716Z" fill="#440D5E"/>
<path d="M222.8 170.084H222.794C221.735 167.872 220.532 166.262 220.532 166.262C220.87 167.84 221.56 169.559 222.054 170.699C219.944 172.59 210.082 180.943 207.715 183.192C207.62 183.283 207.524 183.377 207.43 183.469C207.974 184.347 208.165 184.928 208.165 184.928L208.166 184.927C213.545 179.206 222.888 171.73 223.527 171.183C223.552 171.158 223.571 171.139 223.571 171.139C223.54 171.095 223.502 171.073 223.465 171.028L222.8 170.084Z" fill="#280338"/>
<path d="M231.77 127.495C231.822 127.471 231.874 127.446 231.926 127.422C241.713 122.811 245.645 111.947 245.165 101.648C245.014 98.3877 244.463 95.1135 243.165 92.1196C241.867 89.1256 239.782 86.4172 237 84.7116C234.868 83.4053 232.404 82.7468 229.921 82.5836C227.655 82.4344 224.719 82.4703 222.584 83.3458C221.655 83.7266 221.484 83.6421 220.484 83.4181C219.723 83.2472 218.935 83.196 218.159 83.2773C216.006 83.5032 214.173 84.7608 212.831 86.412C211.025 88.6348 210.28 92.1343 211.434 94.6476C212.03 95.9455 213.462 97.717 213.387 98.8978C213.28 100.619 212.029 101.962 210.651 103.473C209.327 104.926 207.744 106.079 207.08 108.269C206.51 110.151 206.406 114.137 210.615 115.666C204.49 123.771 210.533 128.163 213.875 129.329C215.98 130.064 218.628 130.455 220.839 130.172C224.555 129.698 228.346 129.089 231.77 127.495Z" fill="#37474F"/>
<path d="M210.605 141.252C214.206 137.545 220.721 129.152 220.721 129.152L224.404 116.393C224.493 116.429 222.525 116.435 221.933 116.399C217.954 116.665 216.78 117.004 214.303 119.714C212.338 121.865 204.836 132.112 202.228 135.556L195.308 126.741C193.651 124.232 193.919 121.426 193.058 119.379C192.197 117.332 190.806 116.427 189.693 114.576C188.579 112.724 188.314 111.519 187.398 112.462C186.483 113.405 187.539 115.96 187.676 116.541C187.813 117.122 189.207 118.852 186.879 117.954C184.55 117.055 180.948 112.792 180.018 111.922C179.088 111.052 178.602 112.4 178.811 113.464C179.02 114.528 178.02 116.936 178.382 118.7C178.767 120.571 179.043 121.426 180.847 123.244C182.528 124.937 186.642 127.013 188.25 129.232C189.859 131.452 193.292 138.359 195.391 142.52C198.058 147.808 200.33 149.552 203.329 147.771C206.328 145.991 209.271 142.627 210.605 141.252Z" fill="#FFA8A7"/>
<path d="M202.229 135.557C203.912 137.17 204.623 139.176 204.742 140.202C204.742 140.202 205.519 137.649 202.825 134.769L202.229 135.557Z" fill="#F28F8F"/>
<path d="M215.284 138.893C210.39 134.868 212.001 129.62 213.788 126.086C217.363 119.019 221.082 116.24 222.632 116.267L232.372 116.358C237.026 116.993 240.627 116.675 241.752 116.942C244.614 117.62 244.677 119.977 244.789 123.026C244.913 126.368 245.269 126.011 244.394 131.538C244.394 131.538 243.072 135.821 242.548 137.732C242.024 139.642 241.058 142.618 241.843 145.707C242.147 146.902 242.957 148.066 244.181 151.364C245.326 154.449 245.766 155.634 246.665 159.739C246.665 159.739 239.993 165.923 226.115 163.939C215.896 162.479 213.89 159.114 213.89 159.114L215.8 147.206C215.548 143.037 215.479 141.526 215.284 138.893Z" fill="#9B2172"/>
<path opacity="0.1" d="M221.646 137.838C221.646 137.838 225.647 141.057 230.305 139.496C234.962 137.936 235.709 133.901 235.709 133.901C235.709 133.901 236.107 139.201 230.237 140.904C224.571 142.546 221.646 137.838 221.646 137.838Z" fill="black"/>
<path d="M256.576 106.553C254.498 103.965 248.829 97.5065 247.793 96.2137C247.08 95.3241 246.107 94.6277 245.341 94.3711C244.479 94.0818 243.637 93.4802 243.071 92.9241C242.666 92.5266 241.793 90.8492 241.439 90.4057C240.252 88.9138 239.276 88.0345 237.714 86.9394C236.073 85.7887 234.514 85.2549 232.833 84.1625C231.842 83.5186 230.63 82.8754 231.715 81.7957C232.054 81.4585 232.484 81.2063 232.954 81.1186C235.253 80.6873 237.733 81.4111 240.613 82.165C241.958 82.517 243.206 82.8914 244.262 83.3049C244.931 83.5666 245.621 83.8322 246.186 84.2828C246.936 84.8818 247.403 85.7554 247.905 86.574C249.254 88.7724 252.336 90.2444 254.25 91.925C256.497 93.8975 258.712 95.5493 261.272 97.7228C263.575 99.6793 266.423 102.231 268.241 104.646C269.817 106.74 269.343 107.99 268.712 108.92C265.512 113.632 258.394 118.977 255.862 121.068C253.158 123.302 251.264 124.692 248.849 126.852C247.635 127.937 245.132 130.623 244.053 131.954C243.737 132.344 243.178 132.495 242.737 132.255C239.944 130.731 238.082 122.946 240.243 118.158C240.796 116.932 241.369 116.883 241.369 116.883C245.779 113.783 256.576 106.553 256.576 106.553Z" fill="#FFA8A7"/>
<path d="M256.576 106.553C256.576 106.553 258.417 109.106 261.611 110.15C261.611 110.15 258.939 110.782 255.355 107.451L256.576 106.553Z" fill="#F28F8F"/>
<path d="M216.781 101.514C216.82 109.196 219.28 111.138 220.519 111.706C221.759 112.273 224.175 111.983 226.522 111.636L226.441 116.245C226.441 116.245 223.691 119.028 223.857 121.143C224.027 123.263 228.059 123.568 231.127 121.554C233.366 120.085 234.977 118.39 235.682 117.585C235.938 117.291 236.081 116.92 236.087 116.531L236.277 105.687C236.277 105.687 237.535 107.067 239.831 105.553C242.122 104.043 242.369 101.156 241.012 99.4956C240.045 98.3167 237.537 98.1913 236.301 99.975C235.601 101.288 235.661 102.209 234.737 102.054C233.845 101.905 233.741 100.867 233.677 100.131C233.613 99.3938 233.642 99.15 233.588 98.183C231.316 97.694 228.966 94.5343 228.701 92.2252C227.082 92.9318 225.378 93.4527 223.76 93.3414C221.217 93.166 219.905 92.6559 218.655 90.821C218.373 91.1762 218.084 91.7785 217.947 92.1842C217.535 93.4047 217.322 94.174 217.159 95.1999C216.829 97.2818 216.769 99.4079 216.781 101.514Z" fill="#FFA8A7"/>
<path d="M226.525 111.634C229 111.353 234.106 109.983 234.933 107.988C234.933 107.988 234.647 109.246 233.107 110.52C231.566 111.794 226.498 113.172 226.498 113.172L226.525 111.634Z" fill="#F28F8F"/>
<path d="M225.324 99.9327C225.283 100.541 225.724 101.065 226.309 101.103C226.895 101.14 227.403 100.678 227.444 100.07C227.485 99.4623 227.044 98.9381 226.459 98.9004C225.874 98.8626 225.365 99.3247 225.324 99.9327Z" fill="#263238"/>
<path d="M218.147 99.4751C218.109 100.028 218.51 100.504 219.042 100.539C219.627 100.577 220.033 100.209 220.074 99.6006C220.112 99.0476 219.711 98.5715 219.178 98.5369C218.646 98.5023 218.184 98.9222 218.147 99.4751Z" fill="#263238"/>
<path d="M222.941 97.8271L222.589 105.062L219.213 103.933L222.941 97.8271Z" fill="#F28F8F"/>
<path d="M229.311 97.1589L227.398 95.3413C226.9 95.8975 226.925 96.7551 227.454 97.2568C227.982 97.7592 228.814 97.7157 229.311 97.1589Z" fill="#263238"/>
<path d="M226.498 105.496L223.093 106.603C223.435 107.556 224.475 108.081 225.415 107.775C226.355 107.469 226.841 106.449 226.498 105.496Z" fill="#B16668"/>
<path d="M225.415 107.775C226.08 107.559 226.51 106.982 226.588 106.327C226.405 106.257 226.208 106.214 226 106.214C225.115 106.214 224.398 106.915 224.359 107.791C224.697 107.887 225.063 107.89 225.415 107.775Z" fill="#EF6D6D"/>
<path d="M219.363 94.7551L217.242 96.3596C217.666 96.9663 218.485 97.0995 219.071 96.6566C219.656 96.2131 219.787 95.3618 219.363 94.7551Z" fill="#263238"/>
<path d="M59.3122 112.851C49.7717 118.359 35.9644 131.391 35.9644 154.896C35.9644 178.401 47.0722 195.879 68.3477 203.689C79.7276 207.866 97.9656 208.083 109.69 203.899C121.64 197.785 129.689 191.497 134.073 180.081C138.587 166.832 130.508 152.963 119.525 145.034C108.541 137.105 109.848 128.076 102.083 118.696C97.908 113.653 91.7596 109.339 84.2549 108.503C76.0687 107.592 66.5756 108.657 59.3122 112.851Z" fill="#0F3B62"/>
<path d="M112.848 152.149C105.77 148.233 104.396 143.95 98.253 127.992C92.1103 112.034 80.9071 113.243 80.9071 113.243C80.9071 113.243 64.4533 113.801 60.5224 125.525C57.8082 133.621 57.8632 149.582 60.4239 158.186C61.9592 163.347 64.061 165.785 64.061 165.785C55.9727 164.194 49.5298 169.65 49.5298 169.65C49.5298 169.65 56.3535 166.411 67.5554 170.905C74.1883 173.565 81.7288 177.223 88.5218 180.008C94.2991 182.377 97.4203 184.114 101.928 187.766C105.98 191.049 108.821 195.872 109.486 201.066C109.6 201.953 109.696 202.917 110.092 203.689C117.218 200.013 122.937 196.248 127.299 191.331C127.433 189.74 127.336 188.105 127.378 186.512C127.534 180.642 127.609 174.752 127.297 168.886C126.581 155.4 119.925 156.066 112.848 152.149Z" fill="#0F3B62"/>
<path opacity="0.1" d="M112.848 152.149C105.77 148.233 104.396 143.95 98.253 127.992C92.1103 112.034 80.9071 113.243 80.9071 113.243C80.9071 113.243 65.2328 113.801 61.3019 125.525C58.5877 133.621 57.8632 149.582 60.4239 158.186C61.9592 163.347 64.061 165.785 64.061 165.785C55.9727 164.194 49.5298 169.65 49.5298 169.65C49.5298 169.65 54.7688 168.349 66.493 171.215C72.9467 172.793 79.5144 175.773 86.1103 178.998C92.9051 182.32 97.4203 184.114 101.928 187.766C105.98 191.049 109.598 195.387 110.263 200.581C110.377 201.468 110.263 202.705 110.092 203.689C117.218 200.012 122.937 196.247 127.299 191.331C127.433 189.739 127.187 188.093 127.378 186.511C128.226 179.495 128.378 177.405 129.036 170.606C130.154 159.059 119.925 156.066 112.848 152.149Z" fill="black"/>
<path opacity="0.2" d="M104.585 205.358C90.963 206.952 76.7172 203.6 65.5364 195.993C48.4171 184.346 41.0072 165.884 44.6718 144.007C47.9089 124.684 57.5704 114.044 67.2696 109.643C65.0948 110.22 62.9912 110.981 61.0193 111.949C53.1659 117.68 46.1803 127.866 43.5089 143.813C39.7636 166.169 47.3515 185.047 64.8734 196.969C73.3815 202.755 83.6254 206.124 94.0478 206.794C97.7144 206.579 101.294 206.103 104.585 205.358Z" fill="black"/>
<path d="M120.86 186.874C120.86 186.874 118.922 195.819 119.327 199.141C119.749 202.604 119.119 203.886 120.357 207.515C120.627 208.305 121.34 209.86 121.562 210.501C121.76 211.072 121.623 211.583 120.895 211.872C119.46 212.442 116.496 210.081 114.785 207.244C113.073 204.408 110.199 197.838 109.951 197.034C109.711 196.259 109.802 195.226 110 194.549C110.348 193.361 110.465 193.185 110.465 193.185C110.696 191.605 110.433 188.725 110.502 186.688L120.86 186.874Z" fill="#FFA8A7"/>
<path d="M107.589 200.673C107.589 200.673 107.334 201.424 107.388 201.867C107.473 202.558 109.414 204.54 110.165 205.255C110.916 205.969 111.689 206.894 111.967 208.959C112.263 211.166 113.601 213.104 115.333 214.662C117.065 216.22 119.867 217.767 123.677 218.243C127.486 218.72 128.442 216.686 128.442 216.686C128.442 216.686 129.256 214.745 128.457 214.149C127.657 213.553 107.589 200.673 107.589 200.673Z" fill="#263238"/>
<path d="M110.465 193.186C110.355 193.201 110.155 193.205 109.932 193.595C109.848 193.743 109.474 195.484 109.077 196.433C108.652 197.45 107.53 199.255 107.589 200.673C108.897 203.205 111.738 204.627 112.559 207.09C113.381 209.553 113.94 212.481 118.371 214.894C122.803 217.306 126.856 216.923 128.148 215.851C129.441 214.779 129.038 213.263 126.521 210.684C123.849 207.947 121.232 201.458 121.231 201.455C120.869 200.557 120.594 199.591 120.352 198.654C120.117 197.743 120.213 196.711 120.122 195.77C120.079 195.325 120.013 194.849 119.715 194.517C119.416 194.183 118.951 194.066 118.515 193.965C117.818 193.804 117.115 193.642 116.4 193.639C115.685 193.637 114.947 193.807 114.386 194.25C113.98 194.57 113.681 195.019 113.245 195.296C112.66 195.668 111.859 195.666 111.276 195.29C110.417 194.737 110.418 194.103 110.451 193.627C110.435 193.617 110.465 193.186 110.465 193.186Z" fill="#37474F"/>
<path d="M115.663 212.812C115.663 212.812 116.631 209.484 120.761 208.775C124.891 208.065 126.688 209.914 127.533 211.039C128.539 212.378 129.787 214.907 128.218 215.972C126.523 217.122 124.347 217.241 120.7 216.15C117.054 215.059 115.663 212.812 115.663 212.812Z" fill="#FAFAFA"/>
<path d="M114.229 200.246C114.356 200.282 114.496 200.261 114.606 200.179C115.186 199.741 118.435 198.443 120.721 199.921C120.939 199.672 120.822 199.308 120.404 198.839C117.848 197.783 114.77 198.996 114.069 199.524C113.885 199.662 113.857 199.921 114.005 200.101C114.065 200.174 114.144 200.223 114.229 200.246Z" fill="#FAFAFA"/>
<path d="M121.568 202.251C121.646 201.861 121.369 201.329 121.13 201.16C118.647 200.328 115.788 201.464 115.116 201.97C114.932 202.108 114.904 202.366 115.052 202.546C115.112 202.619 115.191 202.668 115.276 202.692C115.403 202.727 115.543 202.706 115.653 202.624C116.216 202.199 119.299 200.971 121.568 202.251Z" fill="#FAFAFA"/>
<path d="M124.232 207.533C124.161 207.025 123.892 206.556 123.442 206.132C120.908 205.153 117.901 206.34 117.21 206.86C117.026 206.998 116.998 207.257 117.146 207.437C117.206 207.51 117.285 207.558 117.37 207.582C117.497 207.617 117.637 207.597 117.746 207.514C118.359 207.053 121.945 205.635 124.232 207.533Z" fill="#FAFAFA"/>
<path d="M116.323 205.137C116.45 205.172 116.59 205.151 116.7 205.069C117.274 204.637 120.456 203.368 122.737 204.767C122.759 204.368 122.579 203.976 122.177 203.605C119.692 202.773 116.834 203.91 116.163 204.415C115.979 204.554 115.951 204.812 116.099 204.992C116.159 205.065 116.238 205.114 116.323 205.137Z" fill="#FAFAFA"/>
<path d="M96.3567 145.792C101.082 148.809 116.332 154.986 123.093 160.483C125.047 162.071 126.704 164.512 125.93 169.378C124.485 178.471 121.477 190.154 121.477 190.154L111.182 186.169L108.883 176.163L94.2979 166.753L96.3567 145.792Z" fill="#455A64"/>
<path d="M121.761 190.806C115.689 186.362 96.0009 158.962 96.0054 158.957C100.088 157.205 102.266 151.623 102.266 151.623C102.085 154.987 100.721 157.759 99.7411 158.957C102.325 160.581 108.081 163.727 114.126 167.911C115.642 168.96 117.543 171.186 118.204 173.753C119.791 179.906 121.816 189.538 121.761 190.806Z" fill="#37474F"/>
<path d="M124.717 194.503C124.717 194.503 128.153 205.143 130.795 209.075C133.437 213.008 134.775 214.898 138.023 217.687C138.73 218.295 140.298 219.386 140.875 219.876C141.389 220.313 141.547 220.883 141.011 221.574C139.954 222.936 134.772 223.994 131.518 222.236C128.264 220.479 124.901 216.202 122.892 214.696C122.137 214.13 121.419 213.544 120.724 212.911C120.054 212.302 120.111 211.619 119.945 210.849C119.864 210.476 119.766 209.442 119.766 209.442C119.092 207.665 117.578 204.943 116.735 203.24L124.717 194.503Z" fill="#FFA8A7"/>
<path d="M119.963 217.838C119.963 217.838 120.041 218.721 120.296 219.149C120.694 219.816 123.57 220.968 124.659 221.36C125.748 221.752 126.955 222.348 128.168 224.333C129.464 226.454 131.704 227.832 134.175 228.645C136.646 229.457 140.207 229.775 144.313 228.547C148.42 227.32 148.481 224.81 148.481 224.81C148.481 224.81 148.439 222.46 147.354 222.211C146.269 221.963 119.963 217.838 119.963 217.838Z" fill="#263238"/>
<path d="M119.532 208.894C119.425 208.959 119.223 209.052 119.171 209.552C119.151 209.742 119.553 211.688 119.575 212.837C119.599 214.067 119.265 216.417 119.964 217.839C122.44 219.838 125.983 220.012 127.932 222.158C129.88 224.305 131.77 227.045 137.384 227.515C142.998 227.984 146.966 225.768 147.804 224.092C148.643 222.415 147.549 221.046 143.816 219.545C139.853 217.951 134.258 212.499 134.255 212.497C133.481 211.742 132.764 210.879 132.096 210.031C131.446 209.206 131.078 208.108 130.562 207.187C130.318 206.752 130.037 206.296 129.582 206.09C129.126 205.884 128.598 205.974 128.108 206.067C127.324 206.216 126.532 206.367 125.8 206.687C125.068 207.006 124.391 207.512 124.017 208.218C123.746 208.728 123.642 209.32 123.322 209.8C122.892 210.444 122.072 210.802 121.308 210.681C120.181 210.502 119.896 209.854 119.716 209.352C119.695 209.347 119.532 208.894 119.532 208.894Z" fill="#37474F"/>
<path d="M133.68 226.607C133.68 226.607 133.171 222.771 137.071 220.186C140.972 217.601 143.641 218.682 145.011 219.45C146.643 220.365 149.056 222.388 147.932 224.182C146.718 226.12 144.549 227.222 140.33 227.749C136.112 228.276 133.68 226.607 133.68 226.607Z" fill="#FAFAFA"/>
<path d="M126.557 214.413C126.703 214.392 126.837 214.308 126.911 214.174C127.308 213.466 130.043 210.676 133.044 211.157C133.155 210.805 132.871 210.485 132.233 210.195C129.146 210.266 126.546 212.892 126.068 213.747C125.943 213.971 126.031 214.248 126.263 214.365C126.357 214.413 126.459 214.428 126.557 214.413Z" fill="#FAFAFA"/>
<path d="M134.959 213.157C134.862 212.724 134.34 212.303 134.02 212.238C131.107 212.506 128.698 214.955 128.239 215.774C128.113 215.998 128.201 216.274 128.433 216.392C128.528 216.44 128.63 216.454 128.728 216.44C128.873 216.419 129.008 216.334 129.082 216.201C129.467 215.514 132.064 212.87 134.959 213.157Z" fill="#FAFAFA"/>
<path d="M140.058 217.354C139.757 216.867 139.272 216.509 138.619 216.278C135.59 216.419 133.051 218.986 132.58 219.828C132.454 220.052 132.542 220.33 132.774 220.447C132.868 220.495 132.971 220.508 133.069 220.494C133.215 220.473 133.348 220.388 133.423 220.255C133.842 219.508 136.866 216.445 140.058 217.354Z" fill="#FAFAFA"/>
<path d="M130.899 218.467C131.044 218.446 131.178 218.362 131.253 218.228C131.645 217.528 134.326 214.799 137.285 215.201C137.129 214.783 136.768 214.464 136.191 214.266C133.277 214.534 130.868 216.982 130.41 217.802C130.284 218.026 130.372 218.303 130.604 218.42C130.698 218.468 130.801 218.482 130.899 218.467Z" fill="#FAFAFA"/>
<path d="M96.5956 143.36L65.2056 149.017C65.2056 156.309 67.098 161.441 69.1953 163.981C71.4385 166.696 75.5153 169.853 83.5588 172.877C94.2737 176.905 96.3979 177.779 100.201 179.353C102.907 180.472 104.585 181.288 106.732 186.524C108.283 190.307 117.997 205.696 117.997 205.696C117.997 205.696 123.15 204.501 126.922 200.726C118.048 175.185 115.383 171.223 111.646 168.321C108.442 165.834 96.0062 158.958 96.0062 158.958C96.0062 158.958 100.567 150.936 96.5956 143.36Z" fill="#455A64"/>
<path d="M115.05 132.103C111.893 129.994 100.409 120.993 100.409 120.993L97.5439 104.525C101.089 105.04 102.188 106.108 108.596 112.222C112.457 115.906 119.816 122.573 119.816 122.573C121.762 120.744 128.404 113.833 129.733 111.999C130.845 110.464 132.016 108.17 132.604 106.347C132.894 105.449 133.173 104.533 133.555 103.65C133.828 103.018 134.377 102.075 134.768 101.513C135.199 100.892 135.587 100.068 136.008 99.4415C136.083 99.3301 136.162 99.2143 136.278 99.1465C136.534 98.9967 136.87 99.1356 137.077 99.3468C137.44 99.7161 137.564 100.862 137.525 101.377C137.486 101.893 137.31 102.387 137.159 102.881C137.007 103.376 136.876 103.891 136.932 104.405C137.527 104.526 138.163 104.154 138.64 103.825C140.241 102.752 141.726 100.948 142.904 99.4217C143.724 98.3599 144.408 97.2169 145.277 96.1845C145.438 95.9932 145.609 95.7986 145.836 95.6924C146.062 95.5861 146.36 95.5906 146.535 95.7698C146.695 95.933 146.711 96.1845 146.713 96.4124C146.718 97.1113 146.677 97.8108 146.59 98.5045C147.244 98.8386 147.407 99.6828 147.493 100.412C147.694 102.098 147.886 103.861 147.286 105.449C146.779 106.791 145.756 107.868 144.704 108.843C143.68 109.792 142.604 110.685 141.481 111.515C140.395 112.318 139.208 112.953 138.327 113.998C135.35 117.527 129.666 126.144 125.51 130.696C121.307 135.299 118.958 134.902 115.05 132.103Z" fill="#FFA8A7"/>
<path d="M97.1658 104.381C100.744 104.381 101.435 105.212 104.27 107.491C107.105 109.769 116.751 119.388 116.751 119.388C116.751 119.388 115.759 125.004 110.034 128.977L94.8721 117.644L97.1658 104.381Z" fill="#29428A"/>
<path d="M100.106 125.525C101.661 114.896 102.983 106.327 97.1658 104.381L90.2769 103.472L84.451 103.612C77.5812 104.202 72.7178 103.887 70.7134 107.751C70.7134 107.751 67.5441 109 65.7662 123.128C64.641 132.068 64.1399 142.342 65.1953 153.212C72.6654 157.507 94.2385 154.946 99.4871 147.038C98.6647 138.659 98.8298 134.248 100.106 125.525Z" fill="#0F3B62"/>
<path opacity="0.7" d="M100.106 125.525C101.661 114.896 102.983 106.327 97.1658 104.381L90.2769 103.472L84.451 103.612C77.5812 104.202 72.7178 103.887 70.7134 107.751C70.7134 107.751 67.5441 109 65.7662 123.128C64.641 132.068 64.1399 142.342 65.1953 153.212C72.6654 157.507 94.2385 154.946 99.4871 147.038C98.6647 138.659 98.8298 134.248 100.106 125.525Z" fill="#5272E2"/>
<path d="M106.635 83.81C107.071 78.2599 102.925 73.4068 97.3752 72.971C92.1828 72.5627 87.6024 76.1652 86.6756 81.1758L82.4209 77.5073C82.4209 77.5073 80.7832 77.0919 79.3854 78.3137C78.0145 79.5111 78.4036 83.6276 79.6715 87.7294C79.6715 87.7294 80.6436 95.0919 81.1684 96.3303C81.6932 97.5687 82.9438 98.0071 82.9438 98.0071L83.1966 93.6059L101.551 94.0014L99.8673 92.5492C103.544 91.2807 106.31 87.9361 106.635 83.81Z" fill="#263238"/>
<path d="M83.4191 88.3611C82.8098 88.6631 82.3977 87.3947 81.4082 86.6715C80.5666 86.0564 78.5237 85.2839 77.1234 87.0247C75.3762 89.1969 77.094 92.2747 78.8789 93.2622C81.3929 94.6529 82.6908 92.8935 82.6908 92.8935L82.2562 104.38C85.6572 109.643 96.3061 110.506 92.9986 104.528L93.2124 101.412C93.2124 101.412 96.0591 102.076 97.4818 101.969C99.8492 101.791 101.465 100.062 102.373 97.586C103.833 93.6097 104.523 90.3611 104.185 82.2887C103.815 73.4414 93.6277 72.5486 87.8505 75.5803C82.0732 78.6126 83.4191 88.3611 83.4191 88.3611Z" fill="#FFA8A7"/>
<path d="M107.171 74.34C106.468 73.8676 105.577 73.7524 104.734 73.8267C105.038 72.5876 104.302 71.2763 103.23 70.6632C101.933 69.9214 100.688 70.0238 99.4116 70.8142C99.7412 69.9502 99.0187 68.9704 98.1374 68.69C97.2561 68.4097 96.3006 68.6318 95.4097 68.8808C94.0836 69.2507 92.7729 69.6769 91.4321 69.9892C89.0692 70.5409 86.5905 70.7496 84.4017 71.7972C83.8852 72.0443 83.3809 72.3444 83.0039 72.7758C82.4766 73.3787 82.2436 74.1947 82.2059 74.9947C82.1931 75.2616 82.2129 75.5252 82.2436 75.787C82.1054 75.6052 81.9409 75.4401 81.7399 75.3115C80.8087 74.7131 79.5851 75.0139 79.0059 75.9835L82.2903 78.0942C82.1393 78.7816 81.9883 79.4683 81.8532 80.1588C81.4948 81.9822 80.938 84.0936 81.1819 85.9636C81.2094 86.1748 81.2215 86.4193 81.3495 86.5992C81.3495 86.5992 82.1822 87.33 82.9815 88.5134C83.2183 88.8641 83.4916 89.419 83.9121 89.5873C84.3307 89.755 84.9636 89.57 85.1556 89.1547C85.2708 88.9051 85.2721 88.6203 85.2708 88.3457C85.2657 87.2014 85.2599 86.0564 85.2542 84.9121C85.2529 84.6068 85.2542 84.2875 85.3937 84.0155C85.5806 83.6494 85.9723 83.4465 86.3083 83.2097C87.1639 82.6068 87.7591 81.6456 87.9179 80.6107C87.9678 80.2856 87.978 79.9489 88.1003 79.6436C88.1937 79.4107 88.4183 79.0536 88.6929 79.0785C89.2254 79.1265 92.0567 80.0257 92.7729 80.1928C96.506 81.0644 100.558 81.5444 104.068 80.0014C105.434 79.4004 107.763 78.107 108.141 76.5217C108.336 75.6974 107.874 74.8123 107.171 74.34Z" fill="#263238"/>
<path d="M93.2123 101.412C93.2123 101.412 88.0744 99.9495 86.3259 98.8365C85.1554 98.0909 84.2376 96.8864 83.9995 96.1421C83.9995 96.1421 84.2197 97.7178 85.2014 99.1987C86.4021 101.01 93.1035 102.801 93.1035 102.801L93.2123 101.412Z" fill="#F28F8F"/>
<path d="M94.2014 88.4225C94.1573 88.985 93.6824 89.4055 93.1409 89.3613C92.5995 89.3172 92.1969 88.8257 92.2411 88.2631C92.2853 87.7005 92.7595 87.2801 93.3009 87.3242C93.8424 87.3684 94.2456 87.8606 94.2014 88.4225Z" fill="#263238"/>
<path d="M92.6388 84.5939L90.2381 85.4951C90.0039 84.809 90.3514 84.0512 91.0144 83.8023C91.6775 83.5533 92.4045 83.9079 92.6388 84.5939Z" fill="#263238"/>
<path d="M92.4735 94.9919L95.7394 96.519C95.3305 97.4572 94.2681 97.8764 93.3663 97.4547C92.4639 97.0329 92.0645 95.9302 92.4735 94.9919Z" fill="#B16668"/>
<path d="M94.3829 97.593C94.3381 96.6234 93.5221 95.8688 92.5505 95.904C92.4744 95.9066 92.4021 95.9226 92.3291 95.9347C92.388 96.5773 92.7592 97.1706 93.3659 97.4547C93.6974 97.609 94.0494 97.6487 94.3829 97.593Z" fill="#EF6D6D"/>
<path d="M103.452 86.3694L101.343 85.0049C101.701 84.425 102.462 84.2599 103.045 84.6369C103.627 85.0138 103.809 85.7895 103.452 86.3694Z" fill="#263238"/>
<path d="M102.069 88.9915C102.025 89.554 101.55 89.9739 101.009 89.9297C100.467 89.8855 100.065 89.394 100.109 88.8315C100.153 88.2689 100.628 87.8484 101.169 87.8926C101.71 87.9367 102.113 88.4283 102.069 88.9915Z" fill="#263238"/>
<path d="M97.13 87.9148L96.7339 94.2668L100.55 93.7478L97.13 87.9148Z" fill="#F28F8F"/>
<path d="M118.39 142.728C118.338 142.506 119.135 142.244 119.302 142.163C120.353 141.651 121.468 141.079 122.032 140.055C122.226 139.703 122.321 139.207 122.022 138.938C121.737 138.681 121.291 138.794 120.927 138.914C119.708 139.314 118.456 139.613 117.188 139.808C115.983 139.992 114.813 140.327 113.635 140.667C112.438 141.013 111.381 141.694 110.148 141.805C108.978 141.911 107.287 141.74 106.117 141.651C99.756 141.168 90.3647 139.766 89.7413 139.649L81.42 119.299C81.42 119.299 79.724 107.976 75.2946 104.552C71.5909 105.208 66.6296 109.346 67.6709 117.189C68.4197 122.827 76.9963 141.968 78.2898 144.739C80.2693 148.981 80.1759 150.067 88.4242 150.508C92.1592 150.707 100.035 150.442 105.284 150.669C106.586 150.725 107.889 150.778 109.192 150.825C110.688 150.879 112.499 151.011 113.997 151.147" fill="#FFA8A7"/>
<path d="M117.755 148.766L128.434 145.736C128.826 145.624 129.213 145.212 129.3 144.815L133.021 127.706C133.108 127.309 132.861 127.077 132.469 127.187L121.79 130.217C121.398 130.328 121.011 130.741 120.925 131.138L117.203 148.246C117.116 148.644 117.364 148.876 117.755 148.766Z" fill="#37474F"/>
<path d="M75.45 104.525C71.2548 104.993 69.2836 106.232 67.8788 108.938C66.0087 112.542 66.874 117.18 68.1316 121.26C70.4407 128.755 73.8743 135.692 73.8743 135.692C73.8743 135.692 80.4119 136.053 86.3428 130.577L81.7022 117.223C81.7022 117.223 79.3476 108.29 75.45 104.525Z" fill="#29428A"/>
<path d="M113.997 151.148C116.832 151.406 119.17 151.476 121.853 150.452C123.186 149.943 124.494 149.164 125.431 148.073C125.664 147.802 125.873 147.51 126.043 147.196C126.199 146.905 126.209 146.625 126.314 146.325C126.405 146.066 126.487 145.782 126.595 145.533C126.709 145.272 126.927 145.033 127.071 144.786C127.36 144.29 127.597 143.747 127.623 143.167C127.641 142.755 127.556 142.335 127.657 141.936C127.761 141.523 128.05 141.186 128.238 140.805C128.537 140.203 128.388 139.269 127.545 139.379C126.944 139.457 126.427 139.826 125.924 140.163C124.886 140.858 123.791 141.466 122.654 141.981C121.591 142.462 120.399 143.039 119.205 142.986C119.013 142.978 118.448 142.979 118.39 142.727" fill="#FFA8A7"/>
<path d="M105.067 239.179C105.067 238.643 105.42 238.107 106.129 237.698C107.544 236.881 109.838 236.881 111.252 237.698C111.96 238.106 112.313 238.642 112.313 239.178L111.252 265.885H111.249C111.238 266.255 110.991 266.623 110.502 266.906C109.502 267.484 107.88 267.484 106.879 266.906C106.39 266.623 106.144 266.255 106.133 265.885H106.129L105.067 239.179Z" fill="#455A64"/>
<path d="M111.252 237.698C109.837 236.881 107.543 236.881 106.129 237.698C105.42 238.107 105.067 238.643 105.067 239.179L105.42 248.041C107.112 249.816 109.394 251.631 111.756 253.22L112.314 239.178C112.313 238.642 111.96 238.106 111.252 237.698Z" fill="#263238"/>
<path d="M217.613 239.179C217.614 238.643 217.26 238.107 216.552 237.698C215.137 236.882 212.842 236.882 211.427 237.698C210.72 238.106 210.366 238.642 210.366 239.178L211.427 265.885H211.432C211.443 266.255 211.689 266.624 212.178 266.906C213.179 267.484 214.801 267.484 215.801 266.906C216.29 266.624 216.536 266.255 216.547 265.885H216.551L217.613 239.179Z" fill="#455A64"/>
<path d="M216.552 237.697C215.137 236.881 212.842 236.881 211.427 237.697C210.72 238.106 210.366 238.641 210.366 239.177L210.936 253.506C213.262 251.985 215.538 250.276 217.239 248.576L217.613 239.178C217.614 238.643 217.26 238.106 216.552 237.697Z" fill="#263238"/>
<path d="M165.274 259.221C165.274 258.685 164.921 258.149 164.212 257.74C162.797 256.923 160.503 256.923 159.088 257.74C158.381 258.148 158.027 258.684 158.027 259.219L159.088 285.927H159.092C159.103 286.296 159.349 286.665 159.838 286.947C160.839 287.525 162.461 287.525 163.461 286.947C163.95 286.665 164.196 286.296 164.207 285.927H164.211L165.274 259.221Z" fill="#455A64"/>
<path d="M164.939 267.621L165.274 259.221C165.274 258.686 164.921 258.149 164.212 257.74C162.798 256.924 160.504 256.924 159.088 257.74C158.381 258.149 158.027 258.684 158.027 259.22L158.361 267.621C160.491 267.696 162.81 267.696 164.939 267.621Z" fill="#263238"/>
<path d="M226.593 220.268H226.533C226.543 210.672 220.253 201.078 207.571 193.756C182.211 179.113 141.089 179.113 115.73 193.756C103.048 201.077 96.7584 210.672 96.7693 220.268H96.7085V225.42C96.8608 234.891 103.214 244.332 115.73 251.559C141.092 266.201 182.212 266.201 207.572 251.559C220.09 244.332 226.442 234.891 226.593 225.42V220.268Z" fill="#0F3B62"/>
<path opacity="0.4" d="M226.593 220.268H226.533C226.543 210.672 220.253 201.078 207.571 193.756C182.211 179.113 141.089 179.113 115.73 193.756C103.048 201.077 96.7584 210.672 96.7693 220.268H96.7085V225.42C96.8608 234.891 103.214 244.332 115.73 251.559C141.092 266.201 182.212 266.201 207.572 251.559C220.09 244.332 226.442 234.891 226.593 225.42V220.268Z" fill="white"/>
<path d="M115.729 193.756C90.3681 208.398 90.3681 232.138 115.73 246.781C141.092 261.423 182.212 261.423 207.572 246.781C232.934 232.138 232.934 208.398 207.571 193.756C182.21 179.113 141.09 179.113 115.729 193.756Z" fill="#0F3B62"/>
<path opacity="0.65" d="M115.729 193.756C90.3681 208.398 90.3681 232.138 115.73 246.781C141.092 261.423 182.212 261.423 207.572 246.781C232.934 232.138 232.934 208.398 207.571 193.756C182.21 179.113 141.09 179.113 115.729 193.756Z" fill="white"/>
<path d="M169.608 188.296C166.515 190.081 166.515 192.976 169.608 194.762C172.7 196.547 177.715 196.547 180.807 194.762C183.899 192.976 183.899 190.081 180.807 188.296C177.714 186.51 172.7 186.51 169.608 188.296Z" fill="#99ABB9"/>
<path d="M183.377 169.965L167 169.985L168.672 191.507H168.687C168.76 192.291 169.376 193.065 170.549 193.663C173.051 194.939 177.175 194.939 179.763 193.663C180.977 193.065 181.614 192.291 181.689 191.507H181.703L183.377 169.965Z" fill="#95A0C9"/>
<path d="M180.938 167.161C177.686 165.613 172.501 165.612 169.357 167.161C166.214 168.709 166.214 171.22 169.357 172.769C172.501 174.317 177.686 174.317 180.938 172.769C184.191 171.22 184.191 168.71 180.938 167.161Z" fill="#95A0C9"/>
<g opacity="0.3">
<path d="M180.938 167.161C177.686 165.613 172.501 165.612 169.357 167.161C166.214 168.709 166.214 171.22 169.357 172.769C172.501 174.317 177.686 174.317 180.938 172.769C184.191 171.22 184.191 168.71 180.938 167.161Z" fill="black"/>
</g>
<path d="M168.173 172.019C168.502 172.285 168.891 172.538 169.357 172.769C172.501 174.317 177.686 174.317 180.938 172.769C181.425 172.537 181.828 172.282 182.169 172.014C181.799 171.669 181.314 171.345 180.708 171.057C177.586 169.571 172.609 169.57 169.591 171.057C169.003 171.347 168.532 171.672 168.173 172.019Z" fill="#37474F"/>
<path d="M71.5669 221.148C68.4744 222.934 68.4744 225.829 71.5669 227.614C74.6594 229.4 79.6732 229.4 82.7656 227.614C85.8581 225.829 85.8581 222.934 82.7656 221.148C79.6732 219.363 74.6594 219.363 71.5669 221.148Z" fill="#506A83"/>
<path d="M85.355 202.837L68.978 202.857L70.6503 224.379H70.6651C70.738 225.163 71.3537 225.936 72.5268 226.535C75.0286 227.811 79.1534 227.811 81.7409 226.535C82.955 225.936 83.5918 225.163 83.6667 224.379H83.6814L85.355 202.837Z" fill="#0F3B62"/>
<g opacity="0.65">
<path d="M85.355 202.837L68.978 202.857L70.6503 224.379H70.6651C70.738 225.163 71.3537 225.936 72.5268 226.535C75.0286 227.811 79.1534 227.811 81.7409 226.535C82.955 225.936 83.5918 225.163 83.6667 224.379H83.6814L85.355 202.837Z" fill="white"/>
</g>
<path d="M82.9161 200.033C79.6643 198.485 74.479 198.484 71.3353 200.033C68.1916 201.581 68.1916 204.092 71.3353 205.64C74.479 207.189 79.6643 207.189 82.9161 205.64C86.1679 204.092 86.1679 201.581 82.9161 200.033Z" fill="#0F3B62"/>
<g opacity="0.4">
<path d="M82.9161 200.033C79.6643 198.485 74.479 198.484 71.3353 200.033C68.1916 201.581 68.1916 204.092 71.3353 205.64C74.479 207.189 79.6643 207.189 82.9161 205.64C86.1679 204.092 86.1679 201.581 82.9161 200.033Z" fill="white"/>
</g>
<g opacity="0.2">
<path d="M82.9161 200.033C79.6643 198.485 74.479 198.484 71.3353 200.033C68.1916 201.581 68.1916 204.092 71.3353 205.64C74.479 207.189 79.6643 207.189 82.9161 205.64C86.1679 204.092 86.1679 201.581 82.9161 200.033Z" fill="black"/>
</g>
<path d="M70.1514 204.891C70.4797 205.157 70.8688 205.41 71.3354 205.64C74.479 207.188 79.6643 207.188 82.9162 205.64C83.4026 205.409 83.8064 205.154 84.1475 204.886C83.777 204.541 83.2918 204.217 82.6858 203.928C79.5638 202.442 74.5866 202.442 71.569 203.928C70.9802 204.219 70.5104 204.545 70.1514 204.891Z" fill="#37474F"/>
<path d="M138.677 207.194C124.44 215.414 124.44 228.74 138.678 236.961C152.915 245.18 175.998 245.18 190.234 236.961C204.471 228.741 204.471 215.414 190.234 207.194C175.997 198.974 152.914 198.974 138.677 207.194Z" fill="#5D7C95"/>
<path d="M189.485 205.499C175.522 197.437 152.882 197.436 138.918 205.498V204.046C131.616 208.262 128.14 213.848 128.475 219.37C128.14 224.892 131.616 230.477 138.917 234.692C152.88 242.754 175.52 242.754 189.484 234.693C203.448 226.632 203.449 213.561 189.485 205.499Z" fill="#0F3B62"/>
<path d="M189.485 204.047C203.449 212.109 203.448 225.179 189.484 233.241C175.52 241.302 152.881 241.302 138.917 233.24C124.954 225.179 124.954 212.107 138.918 204.046C152.883 195.984 175.522 195.985 189.485 204.047Z" fill="#0F3B62"/>
<path opacity="0.6" d="M189.485 204.047C203.449 212.109 203.448 225.179 189.484 233.241C175.52 241.302 152.881 241.302 138.917 233.24C124.954 225.179 124.954 212.107 138.918 204.046C152.883 195.984 175.522 195.985 189.485 204.047Z" fill="white"/>
<path d="M147.057 206.854C137.461 212.394 137.461 221.376 147.057 226.917C156.653 232.457 172.211 232.457 181.807 226.917C191.404 221.377 191.404 212.394 181.808 206.854C172.213 201.314 156.654 201.313 147.057 206.854Z" fill="#0F3B62"/>
<path d="M147.057 206.854C137.461 212.394 137.461 221.376 147.057 226.917C156.653 232.457 172.211 232.457 181.807 226.917C191.404 221.377 191.404 212.394 181.808 206.854C172.213 201.314 156.654 201.313 147.057 206.854Z" fill="#0F3B62"/>
<path d="M148.24 207.537C139.296 212.7 139.296 221.071 148.239 226.234C157.182 231.398 171.682 231.398 180.625 226.235C189.568 221.072 189.569 212.701 180.626 207.537C171.682 202.374 157.183 202.374 148.24 207.537Z" fill="#0F3B62"/>
<path opacity="0.6" d="M148.24 207.537C139.296 212.7 139.296 221.071 148.239 226.234C157.182 231.398 171.682 231.398 180.625 226.235C189.568 221.072 189.569 212.701 180.626 207.537C171.682 202.374 157.183 202.374 148.24 207.537Z" fill="white"/>
<path opacity="0.1" d="M131.818 217.718C131.424 220.653 132.717 223.522 133.978 226.201C134.371 227.034 134.773 227.883 135.407 228.55C136.008 229.183 136.784 229.616 137.547 230.041C139.039 230.872 140.531 231.702 142.024 232.532C142.447 232.768 142.89 233.01 143.375 233.038C144.344 233.095 145.039 232.207 145.835 231.65C151.935 227.386 164.564 219.637 164.564 219.637C164.564 219.637 164.889 221.364 164.977 221.931C165.293 223.968 165.544 226.015 165.728 228.068C165.917 230.169 165.988 232.459 164.778 234.187C164.314 234.85 163.657 235.448 163.557 236.251C163.439 237.203 164.2 238.088 165.095 238.438C165.99 238.789 166.985 238.731 167.944 238.669C169.788 238.548 171.64 238.425 173.447 238.035C177.71 237.114 181.5 234.756 185.194 232.44C184.033 231.173 182.37 230.516 180.799 229.817C175.988 227.678 171.353 224.358 167.426 220.853C172.897 221.186 184.665 221.895 192.565 221.759C193.289 221.746 194.029 221.6 194.654 221.236C195.719 220.616 196.179 219.551 195.724 218.407C195.501 217.845 195.09 217.38 194.687 216.928C192.403 214.364 190.118 211.8 187.834 209.236C187.074 208.383 186.306 207.522 185.377 206.858C184.277 206.072 182.994 205.59 181.728 205.116C177.725 203.619 173.593 202.1 169.321 202.241C169.05 202.25 168.764 202.27 168.535 202.415C168.216 202.617 168.081 203.007 167.983 203.371C166.733 208.023 168.004 213.165 166.251 217.651C166.113 218.004 165.932 218.377 165.592 218.548C165.209 218.74 164.621 218.356 164.212 218.228C160.154 216.95 156.225 215.93 152.168 214.653C150.603 214.16 149.027 213.663 147.584 212.883C146.029 212.043 144.65 210.885 143.028 210.18C138.107 208.043 132.47 212.868 131.818 217.718Z" fill="black"/>
<path d="M164.21 218.228L164.287 219.469C164.287 219.469 166.409 219.848 170.202 219.918C173.994 219.989 190.506 220.607 191.292 220.096C192.545 219.282 191.027 217.381 191.027 217.381H164.85L164.21 218.228Z" fill="#FFBDA7"/>
<path d="M152.95 225.17C153.55 224.794 158.06 222.108 158.655 221.725C159.62 221.104 160.572 220.479 161.484 219.783C161.839 219.512 162.15 219.249 161.793 218.172C161.793 218.172 161.271 217.974 160.712 217.89C159.53 217.711 158.331 218.013 157.193 218.379C154.712 219.177 152.347 220.288 149.926 221.251C148.118 221.97 146.257 222.619 144.65 223.714C143.58 224.444 142.649 225.355 141.727 226.264C141.177 226.806 140.597 227.408 140.495 228.173C140.35 229.253 140.861 230.996 141.948 231.142C141.948 231.142 146.671 229.097 152.95 225.17Z" fill="#FFBDA7"/>
<path d="M184.648 206.354C185.319 205.93 186.449 205.895 187.208 206.266C187.95 206.628 188.392 206.991 188.821 207.471C189.48 208.206 190.298 208.163 192.171 209.491C194.048 210.82 193.964 211.591 194.307 212.294C194.602 212.898 194.409 213.687 194.626 214.332C194.845 214.983 195.457 215.487 195.764 216.123C196.052 216.723 196.195 217.417 196.028 218.061C195.86 218.706 195.339 219.278 194.682 219.385C194.469 219.42 194.25 219.407 194.041 219.461C193.771 219.532 193.545 219.707 193.298 219.835C192.748 220.12 191.931 220.465 191.394 220.158C190.742 219.785 190.618 219.197 190.618 218.237C190.345 217.491 189.544 216.743 189.078 216.094C188.171 214.831 187.263 213.567 186.355 212.304C186.141 212.006 182.929 207.443 182.884 207.472L184.648 206.354Z" fill="#F0997A"/>
<path opacity="0.1" d="M187.489 213.882C187.628 214.075 187.767 214.269 187.906 214.462C188.234 214.919 188.562 215.376 188.89 215.832C188.99 215.972 189.086 216.107 189.186 216.236C189.196 216.249 189.206 216.263 189.217 216.276C189.328 216.414 189.446 216.544 189.589 216.661C189.821 216.85 189.969 217.058 190.056 217.303C190.293 217.61 190.503 217.924 190.617 218.237C190.617 219.197 190.741 219.785 191.394 220.158C191.931 220.465 192.748 220.12 193.298 219.835C193.545 219.707 193.772 219.532 194.041 219.461C194.249 219.407 194.469 219.42 194.681 219.385C195.339 219.278 195.86 218.705 196.028 218.061C196.195 217.417 196.053 216.723 195.763 216.123C195.615 215.815 195.394 215.537 195.181 215.259C195.372 215.769 195.255 216.422 194.885 216.656C194.393 216.968 192.813 216.798 192.171 216.456C191.532 216.115 191.776 215.062 191.58 214.58C191.381 214.096 190.446 213.725 190.617 212.702C190.788 211.677 190.149 210.88 188.653 210.377C187.157 209.874 186.943 209.259 186.339 208.576C185.735 207.893 184.08 207.694 182.883 207.471C182.928 207.443 186.133 211.996 186.354 212.302C186.732 212.829 187.111 213.355 187.489 213.882Z" fill="black"/>
<path d="M182.883 207.471C184.54 208.427 185.976 209.509 187.148 210.689C187.164 210.706 187.181 210.724 187.201 210.743C187.259 210.801 187.317 210.859 187.37 210.918C187.372 210.92 187.372 210.921 187.375 210.923C189.443 213.094 190.617 215.586 190.617 218.237H164.212L166.086 217.157L166.775 216.76C166.803 216.742 166.833 216.726 166.863 216.709L182.883 207.471Z" fill="#FFBDA7"/>
<path opacity="0.3" d="M182.883 207.471C184.54 208.427 185.976 209.509 187.148 210.689C187.164 210.706 187.181 210.724 187.201 210.743C187.259 210.801 187.317 210.859 187.37 210.918C187.372 210.92 187.372 210.921 187.375 210.923C189.443 213.094 190.617 215.586 190.617 218.237H164.212L166.086 217.157L166.775 216.76C166.803 216.742 166.833 216.726 166.863 216.709L182.883 207.471Z" fill="white"/>
<path d="M164.089 201.503C164.043 200.93 164.799 200.444 165.791 200.397C166.76 200.351 167.517 200.427 168.409 200.592C169.777 200.843 170.301 200.479 173.256 200.655C173.937 200.695 174.721 200.77 175.334 200.959C175.997 201.161 176.673 201.299 177.393 201.442C177.581 201.48 177.77 201.517 177.953 201.564C179.458 201.952 180.18 202.952 181.707 203.314C181.823 203.342 181.944 203.364 182.07 203.382C182.198 203.401 182.33 203.411 182.467 203.414C184.435 203.462 185.893 205.636 185.087 206.1C184.28 206.566 182.884 207.473 182.884 207.473L164.211 203.014L164.089 201.503Z" fill="#F0997A"/>
<path opacity="0.1" d="M164.21 203.013C165.331 202.683 166.745 202.148 168.009 202.386C169.274 202.623 170.179 202.97 171.855 202.716C173.53 202.462 174.958 202.764 176.095 203.559C177.229 204.353 178.346 204.234 179.079 204.494C179.81 204.756 180.929 205.599 181.798 205.58C182.672 205.561 183.997 205.037 183.963 204.615C183.933 204.245 182.956 203.608 182.07 203.382C182.198 203.401 182.33 203.411 182.467 203.414C184.434 203.462 185.893 205.636 185.087 206.1C184.28 206.566 182.884 207.473 182.884 207.473L164.21 203.013Z" fill="black"/>
<path d="M164.21 203.013C166.555 203.013 168.897 203.192 171.174 203.549C171.206 203.556 171.24 203.561 171.277 203.566C171.389 203.583 171.501 203.601 171.611 203.622C171.614 203.622 171.616 203.623 171.62 203.623C175.745 204.315 179.632 205.599 182.883 207.473L164.212 218.238V216.71V216.148C164.21 216.125 164.212 216.101 164.212 216.077L164.21 203.013Z" fill="#FFBDA7"/>
<path opacity="0.3" d="M164.21 203.013C166.555 203.013 168.897 203.192 171.174 203.549C171.206 203.556 171.24 203.561 171.277 203.566C171.389 203.583 171.501 203.601 171.611 203.622C171.614 203.622 171.616 203.623 171.62 203.623C175.745 204.315 179.632 205.599 182.883 207.473L164.212 218.238V216.71V216.148C164.21 216.125 164.212 216.101 164.212 216.077L164.21 203.013Z" fill="white"/>
<path d="M164.334 201.503C164.38 200.93 163.624 200.444 162.632 200.397C161.663 200.351 160.905 200.427 160.014 200.592C158.646 200.843 158.121 200.479 155.167 200.655C154.486 200.695 153.702 200.77 153.088 200.959C152.426 201.161 151.75 201.299 151.03 201.442C150.841 201.48 150.653 201.517 150.47 201.564C148.965 201.952 148.243 202.952 146.715 203.314C146.599 203.342 146.478 203.364 146.352 203.382C146.224 203.401 146.093 203.411 145.956 203.414C143.989 203.462 142.53 205.636 143.335 206.1C144.143 206.566 145.539 207.473 145.539 207.473L164.212 203.014L164.334 201.503Z" fill="#F0997A"/>
<path opacity="0.1" d="M164.213 203.013C163.092 202.683 161.678 202.148 160.414 202.386C159.149 202.623 158.244 202.97 156.569 202.716C154.893 202.462 153.465 202.764 152.329 203.559C151.194 204.353 150.077 204.234 149.344 204.494C148.613 204.756 147.495 205.599 146.625 205.58C145.751 205.561 144.427 205.037 144.46 204.615C144.491 204.245 145.467 203.608 146.353 203.382C146.225 203.401 146.093 203.411 145.956 203.414C143.989 203.462 142.53 205.636 143.336 206.1C144.144 206.566 145.539 207.473 145.539 207.473L164.213 203.013Z" fill="black"/>
<path d="M164.213 203.013C161.868 203.013 159.526 203.192 157.249 203.549C157.217 203.556 157.184 203.561 157.146 203.566C157.034 203.583 156.922 203.601 156.812 203.622C156.809 203.622 156.807 203.623 156.803 203.623C152.679 204.315 148.791 205.599 145.54 207.473L164.211 218.238V216.71V216.148C164.213 216.125 164.211 216.101 164.211 216.077L164.213 203.013Z" fill="#FFBDA7"/>
<path opacity="0.3" d="M164.213 203.013C161.868 203.013 159.526 203.192 157.249 203.549C157.217 203.556 157.184 203.561 157.146 203.566C157.034 203.583 156.922 203.601 156.812 203.622C156.809 203.622 156.807 203.623 156.803 203.623C152.679 204.315 148.791 205.599 145.54 207.473L164.211 218.238V216.71V216.148C164.213 216.125 164.211 216.101 164.211 216.077L164.213 203.013Z" fill="white"/>
<path d="M135.188 218.308C134.193 218.335 132.87 217.984 132.788 217.412C132.709 216.853 133.321 216.331 133.607 215.817C133.952 215.192 133.622 214.514 133.629 213.873C133.633 213.575 133.67 213.279 133.723 212.983C133.776 212.69 133.877 212.537 134.118 212.271C134.609 211.731 134.994 211.158 135.26 210.568C135.351 210.366 135.43 210.16 135.585 209.972C136.201 209.225 137.307 209.169 137.911 208.422C138.253 208 138.335 207.421 138.631 206.966C138.902 206.549 139.332 206.266 139.764 206.02C140.082 205.839 140.412 205.67 140.769 205.589C141.084 205.517 141.412 205.517 141.734 205.537C142.473 205.582 143.213 205.736 143.883 206.052C144.471 206.329 145.024 206.74 145.406 207.272C145.563 207.49 145.501 207.528 145.369 207.712C145.121 208.056 144.873 208.401 144.626 208.746C143.733 209.988 142.84 211.231 141.948 212.473C141.005 213.785 140.062 215.098 139.119 216.41C138.681 217.019 138.244 217.629 137.806 218.238L135.188 218.308Z" fill="#F0997A"/>
<path opacity="0.1" d="M141.947 212.474C142.361 211.898 142.775 211.322 143.188 210.747L145.453 207.594C145.517 207.498 145.522 207.435 145.405 207.272C145.023 206.741 144.47 206.33 143.882 206.052C143.212 205.736 142.473 205.583 141.734 205.537C141.411 205.517 141.084 205.518 140.768 205.59C140.412 205.67 140.082 205.839 139.764 206.02C139.332 206.266 138.901 206.55 138.63 206.966C138.6 207.013 138.578 207.066 138.552 207.115C139.004 206.807 139.472 206.523 139.99 206.355C140.665 206.134 141.447 206.131 142.044 206.516C142.234 206.638 142.406 206.804 142.485 207.015C142.601 207.325 142.504 207.674 142.358 207.971C141.933 208.835 141.033 209.05 140.374 209.667C139.922 210.089 140.128 210.733 138.751 211.387C137.373 212.042 136.848 212.865 137.289 213.832C137.73 214.797 137.128 215.32 136.717 216.049C136.306 216.778 137.232 217.593 137.805 218.239C138.243 217.629 138.681 217.02 139.119 216.411C140.062 215.098 141.005 213.786 141.947 212.474Z" fill="black"/>
<path d="M137.806 218.239C137.806 216.887 138.117 215.537 138.736 214.224C138.746 214.205 138.755 214.186 138.764 214.164C138.794 214.1 138.824 214.035 138.86 213.972C138.86 213.97 138.862 213.969 138.862 213.967C140.062 211.588 142.289 209.347 145.54 207.473L164.211 218.237H161.561H160.586C160.546 218.239 160.505 218.237 160.462 218.237L137.806 218.239Z" fill="#FFBDA7"/>
<path opacity="0.3" d="M137.806 218.239C137.806 216.887 138.117 215.537 138.736 214.224C138.746 214.205 138.755 214.186 138.764 214.164C138.794 214.1 138.824 214.035 138.86 213.972C138.86 213.97 138.862 213.969 138.862 213.967C140.062 211.588 142.289 209.347 145.54 207.473L164.211 218.237H161.561H160.586C160.546 218.239 160.505 218.237 160.462 218.237L137.806 218.239Z" fill="white"/>
<path d="M143.775 230.12C143.104 230.544 141.974 230.58 141.215 230.208C140.473 229.846 140.031 229.483 139.602 229.003C139.191 228.544 138.459 228.27 137.808 227.935C136.651 227.339 135.805 226.719 135.454 225.834C135.272 225.375 135.15 224.904 134.819 224.474C134.477 224.031 133.987 223.649 133.856 223.16C133.721 222.657 133.89 222.143 133.538 221.657C133.49 221.59 133.433 221.525 133.365 221.461C133.297 221.396 133.216 221.335 133.124 221.277C131.791 220.441 133.337 218.237 134.477 218.237C135.618 218.237 137.807 218.237 137.807 218.237L145.542 229.003L143.775 230.12Z" fill="#F0997A"/>
<path d="M135.436 225.326C135.427 226.74 136.223 228.132 137.448 228.841C137.871 229.085 138.337 229.253 138.745 229.521C139.451 229.985 139.94 230.722 140.633 231.206C141.743 231.981 143.343 231.97 144.444 231.183C144.855 230.888 145.202 230.488 145.367 230.009C145.531 229.531 145.495 228.973 145.209 228.556" fill="#F0997A"/>
<path opacity="0.1" d="M145.541 229.003C144.344 228.78 142.689 228.582 142.085 227.898C141.482 227.215 141.268 226.6 139.771 226.097C138.275 225.594 137.635 224.798 137.807 223.773C137.978 222.749 137.042 222.377 136.844 221.895C136.647 221.412 136.892 220.359 136.252 220.018C135.611 219.676 134.031 219.506 133.538 219.818C133.105 220.092 133.015 220.941 133.364 221.461C133.297 221.396 133.216 221.335 133.123 221.277C131.79 220.441 133.337 218.237 134.476 218.237C135.618 218.237 137.807 218.237 137.807 218.237L145.541 229.003Z" fill="black"/>
<path d="M145.541 229.003C143.883 228.048 142.447 226.966 141.275 225.785C141.26 225.768 141.243 225.751 141.222 225.732C141.165 225.673 141.106 225.616 141.054 225.556C141.051 225.555 141.051 225.553 141.049 225.552C138.981 223.381 137.807 220.888 137.807 218.237H164.212L162.338 219.318L161.649 219.715C161.621 219.732 161.591 219.748 161.56 219.766L145.541 229.003Z" fill="#FFBDA7"/>
<path opacity="0.3" d="M145.541 229.003C143.883 228.048 142.447 226.966 141.275 225.785C141.26 225.768 141.243 225.751 141.222 225.732C141.165 225.673 141.106 225.616 141.054 225.556C141.051 225.555 141.051 225.553 141.049 225.552C138.981 223.381 137.807 220.888 137.807 218.237H164.212L162.338 219.318L161.649 219.715C161.621 219.732 161.591 219.748 161.56 219.766L145.541 229.003Z" fill="white"/>
<path d="M185.654 230.994C185.657 231.038 185.658 231.081 185.658 231.124C185.65 232.134 184.805 233.006 183.832 233.281C183.055 233.5 182.199 233.41 181.458 233.732C180.624 234.094 180.034 234.938 179.15 235.151C178.464 235.315 177.725 235.062 177.043 235.243C176.571 235.369 176.177 235.691 175.727 235.883C174.218 236.53 172.598 235.533 171.108 236.15C170.609 236.357 170.173 236.697 169.668 236.889C169.066 237.119 168.404 237.125 167.76 237.119C166.818 237.11 165.869 237.08 164.952 236.866C164.729 236.815 164.504 236.75 164.314 236.624C163.885 236.342 163.7 235.796 163.691 235.284C163.68 234.691 163.875 233.975 164.292 233.533C164.493 233.32 164.813 233.316 165.097 233.248C165.469 233.159 165.842 233.07 166.214 232.981C167.797 232.603 169.38 232.225 170.963 231.847C172.834 231.4 174.705 230.953 176.577 230.506C178.109 230.14 179.641 229.775 181.173 229.409C182.358 229.126 183.653 228.624 184.762 229.421C185.268 229.786 185.616 230.376 185.654 230.994Z" fill="#F0997A"/>
<path opacity="0.1" d="M180.968 230.994C182.137 230.651 182.488 229.718 182.87 229.03C182.777 229.042 182.684 229.055 182.59 229.072C181.815 229.257 181.04 229.442 180.265 229.627C178.296 230.097 176.328 230.567 174.36 231.037C172.271 231.536 170.182 232.035 168.094 232.534C167.409 232.697 166.723 232.861 166.038 233.025C165.779 233.086 165.521 233.148 165.262 233.21C165.207 233.224 165.152 233.236 165.097 233.25C164.813 233.318 164.493 233.321 164.292 233.535C163.875 233.976 163.68 234.693 163.691 235.286C163.7 235.798 163.885 236.343 164.314 236.626C164.504 236.752 164.729 236.817 164.952 236.868C165.869 237.083 166.818 237.112 167.76 237.121C168.404 237.127 169.066 237.121 169.668 236.891C169.827 236.831 169.978 236.754 170.126 236.674C169.708 236.754 169.285 236.807 168.86 236.813C168.525 236.817 168.184 236.798 167.866 236.692C167.409 236.539 166.875 236.049 166.718 235.585C166.547 235.08 166.886 234.616 167.301 234.357C167.892 233.988 169.718 234.129 170.556 234.017C171.394 233.902 172.038 233.362 173.813 233.461C175.592 233.56 176.972 233.192 177.845 232.328C178.717 231.465 179.784 231.342 180.968 230.994Z" fill="black"/>
<path d="M182.885 229.001C181.228 229.957 179.351 230.785 177.304 231.461C177.274 231.47 177.244 231.48 177.211 231.491C177.11 231.524 177.009 231.558 176.906 231.588C176.904 231.59 176.901 231.59 176.899 231.592C173.134 232.784 168.89 233.534 164.291 233.534L164.212 218.237L166.086 219.318L166.775 219.715C166.805 219.731 166.833 219.748 166.863 219.766L182.885 229.001Z" fill="#FFBDA7"/>
<path opacity="0.3" d="M182.885 229.001C181.228 229.957 179.351 230.785 177.304 231.461C177.274 231.47 177.244 231.48 177.211 231.491C177.11 231.524 177.009 231.558 176.906 231.588C176.904 231.59 176.901 231.59 176.899 231.592C173.134 232.784 168.89 233.534 164.291 233.534L164.212 218.237L166.086 219.318L166.775 219.715C166.805 219.731 166.833 219.748 166.863 219.766L182.885 229.001Z" fill="white"/>
<g opacity="0.1">
<path d="M171.62 203.622C175.745 204.315 179.632 205.598 182.883 207.473L164.212 218.237V216.71C164.317 217.061 164.988 216.722 168.484 214.706C173.292 211.934 179.458 208.205 179.915 207.568C180.353 206.961 174.303 204.148 171.62 203.622Z" fill="black"/>
<path d="M164.211 216.148V216.71V218.232C164.198 218.121 162.757 206.477 161.951 204.849C161.151 203.234 153.852 204.251 153.67 204.276C154.695 204.02 155.741 203.8 156.804 203.622C156.808 203.622 156.809 203.62 156.813 203.62C156.923 203.6 157.035 203.583 157.147 203.565C157.184 203.56 157.218 203.554 157.25 203.548C159.526 203.192 161.869 203.012 164.213 203.012L164.211 216.074C164.211 216.1 164.213 216.124 164.211 216.148Z" fill="black"/>
<path d="M138.862 213.966C140.062 211.588 142.289 209.347 145.54 207.472L164.212 218.237H161.561C162.171 218.176 161.582 217.79 158.086 215.774C153.278 213.002 146.81 209.447 145.705 209.184C144.653 208.932 139.774 212.419 138.862 213.966Z" fill="black"/>
<path d="M141.049 225.552C138.981 223.381 137.807 220.888 137.807 218.237H164.212L162.338 219.318C162.695 219.026 161.805 218.993 156.859 218.993C150.061 218.993 141.126 219.116 140.022 219.38C138.969 219.631 139.796 224.086 141.049 225.552Z" fill="black"/>
<path d="M176.899 231.592C173.134 232.784 168.89 233.534 164.291 233.534L164.212 218.237L166.086 219.318C165.58 219.112 165.523 219.625 165.523 222.476C165.523 226.396 165.736 231.547 166.194 232.184C166.629 232.791 174.356 232.314 176.899 231.592Z" fill="black"/>
</g>
<path d="M174.687 213.057C175.075 213.28 175.338 213.547 175.479 213.831C175.784 214.441 175.52 215.124 174.687 215.604C173.467 216.308 171.489 216.308 170.269 215.604C169.63 215.236 169.326 214.749 169.358 214.267C169.381 213.828 169.687 213.392 170.269 213.057C171.489 212.354 173.467 212.354 174.687 213.057Z" fill="#B16668"/>
<path d="M168.623 222.288C169.011 222.511 169.274 222.778 169.415 223.062C169.721 223.671 169.456 224.355 168.623 224.835C167.404 225.538 165.425 225.538 164.205 224.835C163.567 224.467 163.263 223.98 163.295 223.498C163.318 223.058 163.624 222.623 164.205 222.288C165.425 221.584 167.403 221.584 168.623 222.288Z" fill="#B16668"/>
<path d="M183.336 211.611C183.885 211.606 184.399 211.683 184.851 211.823C185.822 212.12 186.489 212.706 186.506 213.385C186.532 214.379 185.155 215.198 183.429 215.213C182.526 215.22 181.708 215.007 181.131 214.658C180.6 214.342 180.271 213.912 180.259 213.439C180.234 212.444 181.611 211.626 183.336 211.611Z" fill="#B16668"/>
<path d="M149.714 220.038C149.329 219.814 149.068 219.546 148.931 219.261C148.631 218.651 148.904 217.968 149.741 217.491C150.968 216.792 152.946 216.799 154.159 217.507C154.794 217.878 155.093 218.365 155.056 218.847C155.027 219.287 154.717 219.721 154.132 220.054C152.904 220.753 150.926 220.746 149.714 220.038Z" fill="#B16668"/>
<path d="M149.317 210.399C149.74 210.663 150.018 210.973 150.155 211.299C150.456 211.999 150.101 212.769 149.119 213.292C147.679 214.059 145.432 214.008 144.102 213.178C143.405 212.743 143.098 212.182 143.172 211.636C143.233 211.137 143.613 210.651 144.3 210.285C145.74 209.517 147.986 209.569 149.317 210.399Z" fill="#B16668"/>
<path d="M158.913 205.21C159.336 205.474 159.614 205.784 159.752 206.11C160.052 206.809 159.697 207.579 158.715 208.103C157.275 208.87 155.029 208.819 153.698 207.988C153.002 207.554 152.694 206.992 152.768 206.447C152.829 205.947 153.21 205.462 153.896 205.096C155.336 204.329 157.583 204.38 158.913 205.21Z" fill="#B16668"/>
<path d="M161.549 211.755C161.972 212.019 162.25 212.329 162.387 212.655C162.688 213.355 162.333 214.125 161.351 214.648C159.911 215.416 157.664 215.364 156.334 214.534C155.637 214.099 155.33 213.539 155.404 212.992C155.465 212.493 155.845 212.007 156.532 211.642C157.972 210.874 160.218 210.925 161.549 211.755Z" fill="#B16668"/>
<path d="M173.927 205.11C174.476 205.106 174.99 205.183 175.442 205.322C176.413 205.62 177.08 206.206 177.097 206.884C177.123 207.879 175.745 208.698 174.02 208.712C173.117 208.72 172.299 208.507 171.722 208.157C171.19 207.841 170.862 207.412 170.85 206.938C170.824 205.943 172.202 205.125 173.927 205.11Z" fill="#B16668"/>
<path d="M172.198 228.045C172.423 227.757 172.763 227.521 173.174 227.344C174.054 226.964 175.257 226.865 176.33 227.144C177.903 227.553 178.602 228.619 177.892 229.526C177.521 230.001 176.838 230.337 176.045 230.49C175.323 230.633 174.509 230.622 173.759 230.427C172.188 230.018 171.488 228.952 172.198 228.045Z" fill="#B16668"/>
<path d="M144.877 221.195C145.425 221.191 145.94 221.268 146.392 221.407C147.363 221.705 148.029 222.291 148.047 222.969C148.072 223.964 146.695 224.782 144.97 224.797C144.067 224.805 143.249 224.592 142.671 224.242C142.14 223.926 141.812 223.497 141.8 223.023C141.774 222.028 143.152 221.21 144.877 221.195Z" fill="#B16668"/>
<path d="M38.2822 239.669C30.2438 244.31 30.2438 251.834 38.2822 256.476C46.3206 261.116 59.3536 261.116 67.3913 256.476C75.4297 251.835 75.4297 244.31 67.3913 239.669C59.3536 235.028 46.3206 235.028 38.2822 239.669Z" fill="#506A83"/>
<path d="M28.5991 230.91C28.5959 244.296 39.4446 255.151 52.8308 255.155C66.217 255.158 77.0714 244.309 77.0753 230.923L28.5991 230.91Z" fill="#0F3B62"/>
<path opacity="0.2" d="M28.5991 230.91C28.5959 244.296 39.4446 255.151 52.8308 255.155C66.217 255.158 77.0714 244.309 77.0753 230.923L28.5991 230.91Z" fill="black"/>
<path d="M35.7012 221.017C26.2343 226.479 26.2311 235.34 35.6954 240.807C45.1598 246.275 60.5057 246.279 69.9732 240.816C79.4401 235.354 79.4433 226.494 69.979 221.026C60.5153 215.559 45.1687 215.555 35.7012 221.017Z" fill="#0F3B62"/>
<path d="M37.1131 222.2C28.4257 227.009 28.4238 234.811 37.108 239.625C45.7921 244.439 59.874 244.443 68.5614 239.633C77.2488 234.824 77.2507 227.022 68.5665 222.207C59.8824 217.393 45.8004 217.39 37.1131 222.2Z" fill="#0F3B62"/>
<path opacity="0.2" d="M37.1131 222.2C28.4257 227.009 28.4238 234.811 37.108 239.625C45.7921 244.439 59.874 244.443 68.5614 239.633C77.2488 234.824 77.2507 227.022 68.5665 222.207C59.8824 217.393 45.8004 217.39 37.1131 222.2Z" fill="black"/>
<path opacity="0.1" d="M37.1131 222.2C28.4257 227.009 28.4238 234.811 37.108 239.625C37.7755 239.995 38.4782 240.333 39.2046 240.646C39.2123 240.607 40.2273 235.446 41.4715 228.697C42.3118 224.14 46.1115 219.743 52.6152 218.597C46.9992 218.627 41.3992 219.827 37.1131 222.2Z" fill="black"/>
<path d="M72.0912 229.339C72.0974 229.345 72.0974 229.352 72.0974 229.364H72.0781C72.085 229.358 72.0912 229.346 72.0912 229.339Z" fill="#0F3B62"/>
<path d="M74.6943 229.912C74.8985 229.662 75.0239 229.339 75.0239 228.99C75.0239 228.166 74.3583 227.501 73.5347 227.501C73.1129 227.501 72.7308 227.679 72.4671 227.955C72.4806 227.804 72.487 227.652 72.487 227.501C72.487 225.004 70.4639 222.981 67.9673 222.981C67.1564 222.981 66.3993 223.199 65.7401 223.567C65.8457 223.33 65.9046 223.067 65.9046 222.783C65.9046 221.696 65.022 220.814 63.9283 220.814C63.559 220.814 63.2166 220.912 62.9203 221.09C62.9529 220.86 62.9727 220.629 62.9727 220.392C62.9727 217.572 60.6796 215.279 57.8598 215.279C55.8764 215.279 54.1638 216.405 53.3139 218.046C53.0438 217.407 52.4108 216.959 51.6729 216.959C50.9414 216.959 50.3155 217.394 50.039 218.02C49.3343 216.88 48.0691 216.122 46.6329 216.122C44.4191 216.122 42.6207 217.921 42.6207 220.135C42.6207 220.339 42.6406 220.537 42.6732 220.728C42.4166 220.524 42.0934 220.392 41.7375 220.392C40.9139 220.392 40.2483 221.064 40.2483 221.881V221.901C39.7279 221.598 39.1219 221.42 38.4691 221.42C36.6636 221.42 35.175 222.757 34.9375 224.497C34.6937 224.405 34.43 224.351 34.1535 224.351C34.055 224.351 33.9622 224.358 33.87 224.371C33.8367 224.371 33.8041 224.378 33.7708 224.391C33.6787 224.398 33.5929 224.424 33.5071 224.451C33.4412 224.477 33.3753 224.497 33.3158 224.53C32.558 224.866 32.0639 225.663 31.9321 226.579C31.9187 226.659 31.9187 226.757 31.9257 226.863C31.9257 226.909 31.9321 226.955 31.9385 227.001C31.9449 227.067 31.9583 227.139 31.9782 227.212C31.998 227.297 32.0243 227.383 32.0575 227.475C32.0703 227.515 32.0902 227.561 32.11 227.607C32.2483 227.937 32.4723 228.279 32.8217 228.582C32.9075 228.662 32.9996 228.728 33.0982 228.8C31.9647 229.123 30.1395 230.342 30.0147 232.853C29.9027 235.212 31.55 236.582 33.9219 237.406C34.8313 238.242 36.0108 239.02 37.3087 239.738C45.966 244.535 59.9935 244.542 68.6515 239.745C70.2924 238.842 71.623 237.821 72.638 236.741C73.4201 236.57 74.999 236.191 75.8911 233.586C76.2239 232.614 76.103 230.953 74.6943 229.912ZM72.0915 229.339C72.0979 229.345 72.0979 229.352 72.0979 229.365H72.078C72.0851 229.359 72.0915 229.346 72.0915 229.339Z" fill="white"/>
<path d="M72.6388 236.738C71.6244 237.818 70.2932 238.84 68.6522 239.742C59.9949 244.539 45.9674 244.532 37.3095 239.736C36.0116 239.018 34.8321 238.24 33.9226 237.403C31.2109 237.12 29.9034 235.209 30.0154 232.85C30.1402 230.34 31.9661 229.121 33.0989 228.797C33.0004 228.725 32.9076 228.659 32.8225 228.58C32.473 228.277 32.249 227.934 32.1108 227.605C32.0909 227.558 32.0711 227.512 32.0583 227.473C32.025 227.381 31.9988 227.295 31.9789 227.209C31.9591 227.137 31.9457 227.064 31.9393 226.998C31.9329 226.952 31.9265 226.906 31.9265 226.86C31.9201 226.755 31.9201 226.656 31.9329 226.577C32.0647 225.661 32.5588 224.863 33.3165 224.527C33.3761 224.495 33.442 224.475 33.5079 224.448C33.5937 224.422 33.6794 224.396 33.7716 224.389C33.8049 224.375 33.8375 224.369 33.8708 224.369C33.9629 224.355 34.0551 224.349 34.1543 224.349C34.4308 224.349 34.6945 224.401 34.9383 224.494C35.1757 222.755 36.6644 221.417 38.4698 221.417C36.2689 222.57 35.9597 226.794 40.2618 227.393C40.2618 227.393 40.2093 228.533 41.1053 229.099C41.5469 229.375 42.2125 229.521 43.2269 229.317C43.2269 229.317 41.4938 231.998 43.5431 233.942C45.5924 235.885 47.9905 234.812 47.9905 234.812C47.9905 234.812 48.089 237.032 49.4996 237.783C50.857 238.508 51.6673 237.875 51.7332 237.823C51.7069 237.862 51.2589 238.62 52.6689 238.976C54.1185 239.345 54.6388 237.981 54.6388 237.981C54.6388 237.981 56.2465 241.013 59.0138 240.505C61.7812 239.991 62.2228 237.586 62.2228 237.586C62.2228 237.586 62.7367 238.758 64.1601 238.653C65.5764 238.555 65.8337 236.874 65.8337 236.874C65.8337 236.874 68.3162 239.624 72.6388 236.738Z" fill="#EBEBEB"/>
<path d="M51.7349 237.821C51.2856 238.44 50.556 238.843 49.7329 238.843C48.3691 238.843 47.2632 237.738 47.2632 236.374C47.2632 235.234 48.0363 234.274 49.0859 233.99C48.7902 234.396 48.6161 234.898 48.6161 235.437C48.6161 236.801 49.7233 237.907 51.0872 237.907C51.3112 237.907 51.5275 237.877 51.7349 237.821Z" fill="#E0E0E0"/>
<path d="M54.6355 237.981C54.6893 238.476 54.5133 238.989 54.1165 239.349C53.4586 239.946 52.441 239.895 51.8451 239.237C51.3466 238.687 51.2999 237.886 51.6826 237.29C51.7178 237.615 51.8528 237.933 52.089 238.194C52.6855 238.852 53.7031 238.902 54.361 238.305C54.4685 238.207 54.56 238.099 54.6355 237.981Z" fill="#E0E0E0"/>
<path d="M44.7844 226.284C45.203 226.924 45.3207 227.749 45.0283 228.518C44.5431 229.793 43.1166 230.434 41.8417 229.949C40.7761 229.544 40.154 228.48 40.2609 227.398C40.5355 227.818 40.9431 228.159 41.4475 228.351C42.7223 228.837 44.1495 228.195 44.634 226.92C44.714 226.71 44.7627 226.498 44.7844 226.284Z" fill="#E0E0E0"/>
<path d="M40.9581 228.63C41.1891 229.071 41.2128 229.614 40.9747 230.093C40.5798 230.888 39.6147 231.214 38.8192 230.819C38.1542 230.488 37.8182 229.76 37.9565 229.065C38.1075 229.355 38.3501 229.602 38.665 229.758C39.4605 230.153 40.4262 229.827 40.8211 229.032C40.8858 228.901 40.9306 228.767 40.9581 228.63Z" fill="#E0E0E0"/>
<path d="M66.5329 232.232C66.5789 232.995 66.2711 233.77 65.6356 234.292C64.5821 235.158 63.0257 235.006 62.1597 233.952C61.4359 233.072 61.4237 231.84 62.0541 230.953C62.0836 231.454 62.2679 231.953 62.6109 232.37C63.4769 233.424 65.0346 233.575 66.0881 232.709C66.2602 232.567 66.4081 232.407 66.5329 232.232Z" fill="#E0E0E0"/>
<path d="M69.2094 231.066C69.2631 231.562 69.0871 232.075 68.6903 232.435C68.0324 233.031 67.0148 232.981 66.419 232.323C65.9204 231.773 65.8737 230.972 66.2558 230.375C66.291 230.7 66.426 231.019 66.6622 231.28C67.2587 231.937 68.2763 231.987 68.9342 231.391C69.0423 231.292 69.1339 231.184 69.2094 231.066Z" fill="#E0E0E0"/>
<path d="M62.2399 228.35C62.6854 228.572 63.0227 228.997 63.1103 229.526C63.2563 230.402 62.6649 231.231 61.7887 231.377C61.0566 231.499 60.3577 231.105 60.062 230.462C60.3545 230.608 60.6956 230.666 61.0425 230.608C61.9187 230.462 62.51 229.632 62.3641 228.757C62.3404 228.612 62.2982 228.476 62.2399 228.35Z" fill="#E0E0E0"/>
<path d="M86.3602 63.2242L84.1177 59.0066L85.9225 53.7976V50.6091L80.3999 53.7976V56.9861L82.7743 61.0987C82.8146 61.1685 82.8722 61.2139 82.9356 61.2421L82.9343 61.244L86.3602 63.2242Z" fill="#0F3B62"/>
<path opacity="0.2" d="M86.3602 63.2242L84.1177 59.0066L85.9225 53.7976V50.6091L80.3999 53.7976V56.9861L82.7743 61.0987C82.8146 61.1685 82.8722 61.2139 82.9356 61.2421L82.9343 61.244L86.3602 63.2242Z" fill="black"/>
<path d="M97.3258 22.7205C97.3258 21.6645 96.5847 20.3807 95.6702 19.8527L94.3217 19.0745C93.4078 18.5465 91.9249 18.5465 91.0103 19.0745L71.7924 30.1695C70.8778 30.6975 70.1367 31.9813 70.1367 33.0373V59.6191C70.1367 60.6751 70.8785 61.9589 71.7924 62.4869L73.1409 63.2652C74.0554 63.7932 75.5383 63.7932 76.4522 63.2652L83.8666 58.9945L86.2359 63.0988C86.387 63.3612 86.7774 63.3241 86.8759 63.038L89.3802 55.8092L95.6695 52.1701C96.5841 51.6421 97.3252 50.3583 97.3252 49.3023L97.3258 22.7205Z" fill="#0F3B62"/>
<path opacity="0.2" d="M70.1372 59.619C70.1372 60.675 70.8783 61.9589 71.7929 62.4869L73.1414 63.2651C73.9682 63.7426 75.254 63.7842 76.1698 63.3982C75.3903 63.6926 74.7971 63.253 74.7971 62.309V35.7272C74.7971 35.1992 74.9826 34.6142 75.2822 34.0952L70.6223 31.4053C70.3228 31.9243 70.1372 32.5093 70.1372 33.0373V59.619Z" fill="black"/>
<path opacity="0.4" d="M97.2721 22.2494C97.0788 21.5467 96.4382 21.3227 95.6734 21.763L76.4516 32.8612C75.9959 33.1236 75.5786 33.5716 75.2849 34.0971L70.627 31.4091C70.9284 30.8836 71.3374 30.4356 71.793 30.1732L91.0071 19.075C91.9262 18.5495 93.4097 18.5495 94.321 19.075L95.6727 19.8551C96.4529 20.3031 97.1095 21.3073 97.2721 22.2494Z" fill="white"/>
<path d="M85.6486 31.8803C86.3782 31.4585 87.0656 31.2179 87.7101 31.1558C88.3552 31.095 88.9152 31.2032 89.3907 31.4797C89.8662 31.7574 90.2406 32.1926 90.5146 32.7865C90.7878 33.3811 90.9248 34.1293 90.9248 35.0323C90.9248 35.7542 90.8467 36.4313 90.6905 37.063C90.5337 37.6953 90.3354 38.3014 90.0941 38.8819C89.8534 39.4624 89.5891 40.0109 89.3024 40.5267C89.0163 41.0432 88.7386 41.5494 88.4723 42.0441C88.2048 42.5395 87.9642 43.0349 87.7491 43.5296C87.5341 44.0256 87.3875 44.5158 87.3094 45.0022C87.271 45.2461 87.2083 45.472 87.1238 45.6813C87.0387 45.8912 86.9248 46.0371 86.7821 46.1197L84.3981 47.4963C84.2541 47.5795 84.1306 47.5705 84.0262 47.4701C83.9219 47.3702 83.8701 47.2096 83.8701 46.9881C83.8701 46.3257 83.9584 45.6845 84.1337 45.0611C84.3098 44.4377 84.528 43.8361 84.7885 43.2537C85.0496 42.6726 85.3325 42.1126 85.639 41.5744C85.9456 41.0368 86.2285 40.5273 86.4896 40.0454C86.7501 39.5641 86.9677 39.1027 87.1443 38.6592C87.3197 38.2169 87.408 37.7952 87.408 37.3939C87.408 36.8121 87.264 36.439 86.9779 36.2733C86.6912 36.1075 86.2477 36.1984 85.6493 36.5446C85.063 36.8832 84.6432 37.2608 84.3885 37.6781C84.1344 38.0953 83.9488 38.4992 83.8317 38.887C83.7139 39.2755 83.6134 39.6294 83.529 39.9488C83.4445 40.2688 83.2781 40.5005 83.0304 40.6432L80.647 42.0192C80.5293 42.087 80.4282 42.0851 80.3437 42.0134C80.2592 41.9417 80.2163 41.8067 80.2163 41.6057C80.2297 40.8966 80.3597 40.0845 80.6073 39.1686C80.855 38.2541 81.2096 37.3369 81.6723 36.4179C82.1344 35.4995 82.6982 34.6368 83.3632 33.8323C84.0262 33.0278 84.7885 32.3769 85.6486 31.8803ZM87.3485 51.4483C87.3485 51.6691 87.2966 51.8893 87.1923 52.1101C87.0874 52.3309 86.9638 52.4825 86.8205 52.5651L84.359 53.9865C84.2157 54.0697 84.0922 54.0608 83.9878 53.9603C83.8829 53.8598 83.831 53.6998 83.831 53.479V50.4403C83.831 50.2195 83.8829 49.9993 83.9878 49.7779C84.0922 49.5571 84.2157 49.4054 84.359 49.3229L86.8205 47.9014C86.9638 47.8189 87.0874 47.8272 87.1923 47.9277C87.2966 48.0281 87.3485 48.1888 87.3485 48.4089V51.4483Z" fill="#FAFAFA"/>
<path d="M226.191 62.0479L228.434 57.8303L226.629 52.6213V49.4329L232.152 52.6213V55.8098L229.777 59.9225C229.737 59.9922 229.68 60.0377 229.616 60.0658L229.617 60.0677L226.191 62.0479Z" fill="#0F3B62"/>
<path opacity="0.2" d="M226.191 62.0479L228.434 57.8303L226.629 52.6213V49.4329L232.152 52.6213V55.8098L229.777 59.9225C229.737 59.9922 229.68 60.0377 229.616 60.0658L229.617 60.0677L226.191 62.0479Z" fill="black"/>
<path d="M211.903 30.119C211.903 29.063 212.644 27.7791 213.559 27.2511L214.907 26.4729C215.822 25.9449 217.304 25.9449 218.219 26.4729L244.561 41.6812C245.475 42.2092 246.216 43.4931 246.216 44.5491V60.6988C246.216 61.7548 245.475 63.0387 244.561 63.5667L243.213 64.3449C242.298 64.8729 240.815 64.8729 239.901 64.3449L228.685 57.8188L226.315 61.9231C226.164 62.1855 225.774 62.1484 225.675 61.8623L223.171 54.6335L213.559 49.1372C212.644 48.6092 211.903 47.3254 211.903 46.2694V30.119Z" fill="#0F3B62"/>
<path opacity="0.2" d="M246.216 60.6981C246.216 61.7541 245.475 63.038 244.56 63.566L243.213 64.3442C242.386 64.8216 241.1 64.8632 240.184 64.478C240.964 64.7724 241.557 64.3327 241.557 63.3887V47.2389C241.557 46.7109 241.371 46.126 241.072 45.6069L245.732 42.917C246.031 43.436 246.217 44.021 246.217 44.549L246.216 60.6981Z" fill="black"/>
<path opacity="0.4" d="M211.958 29.6478C212.151 28.9451 212.791 28.7211 213.556 29.1614L239.901 44.3723C240.357 44.6347 240.774 45.0827 241.068 45.6081L245.726 42.9201C245.424 42.3947 245.015 41.9467 244.56 41.6843L218.222 26.4734C217.303 25.948 215.821 25.948 214.909 26.4734L213.557 27.2536C212.776 27.7016 212.119 28.7057 211.958 29.6478Z" fill="white"/>
<path d="M234.829 48.8812C236.05 49.5859 237.039 51.2991 237.039 52.7084C237.039 54.1177 236.05 54.6886 234.829 53.9846C233.609 53.2799 232.619 51.5667 232.619 50.1574C232.619 48.7475 233.609 48.1766 234.829 48.8812Z" fill="white"/>
<path d="M226.682 44.1681C227.902 44.8728 228.892 46.5861 228.892 47.9953C228.892 49.4046 227.902 49.9755 226.682 49.2709C225.461 48.5662 224.472 46.8529 224.472 45.4437C224.472 44.0344 225.462 43.4629 226.682 44.1681Z" fill="white"/>
<path d="M218.535 39.4546C219.756 40.1592 220.745 41.8731 220.744 43.2818C220.744 44.691 219.755 45.2619 218.535 44.5573C217.315 43.8526 216.326 42.1394 216.325 40.7301C216.326 39.3214 217.315 38.7506 218.535 39.4546Z" fill="white"/>
<path d="M290.949 208.774C294.291 209.158 297.221 210.698 299.858 212.712C300.416 213.137 300.961 213.576 301.484 214.042C307.1 219.122 308.524 227.756 304.672 234.278C303.11 236.926 300.905 239.149 298.498 241.073C296.719 242.487 294.898 243.456 293.593 245.344C292.421 247.044 292.749 248.87 293.391 250.118C290.739 249.323 288.465 247.344 287.314 244.829C285.939 241.832 286.281 238.383 287.865 235.547C289.833 232.028 293 229.31 294.758 225.735C296.37 222.46 296.342 218.446 294.249 215.394C292.56 212.935 289.623 211.415 286.644 211.353C286.295 211.346 285.925 211.353 285.639 211.151C285.13 210.802 285.193 209.98 285.611 209.527C286.03 209.081 286.672 208.921 287.279 208.823C288.493 208.635 289.728 208.628 290.949 208.767V208.774Z" fill="#37474F"/>
<path d="M287.314 244.829C285.939 241.832 286.281 238.383 287.865 235.547C288.144 235.045 288.451 234.564 288.772 234.09C288.451 235.045 288.312 236.056 288.367 237.059C288.333 236.425 291.13 233.658 291.395 234.146C291.451 234.244 291.43 234.369 291.416 234.481C291.207 235.749 290.747 236.892 290.788 238.188C292.379 237.073 293.642 235.491 295.365 234.585C295.477 234.529 295.63 234.474 295.714 234.571C295.756 234.62 295.763 234.697 295.763 234.759C295.763 235.157 295.637 235.547 295.512 235.923C295.065 237.24 294.5 238.515 293.844 239.742C294.954 239.017 296 238.195 296.97 237.289C297.402 236.885 297.898 236.439 298.484 236.474C298.616 237.554 298.302 238.676 297.647 239.54C300.033 238.202 302.272 236.752 304.282 234.892C302.747 237.275 300.71 239.303 298.491 241.073C296.712 242.487 294.891 243.456 293.586 245.344C292.414 247.045 292.742 248.87 293.384 250.118C290.733 249.323 288.458 247.344 287.307 244.829H287.314Z" fill="#F5F5F5"/>
<path d="M238.196 217.157C239.236 217.854 239.487 218.962 239.047 220.105C238.852 220.621 238.552 221.094 238.28 221.575C237.54 222.864 236.919 224.342 237.184 225.805C237.394 225.129 237.826 224.53 238.398 224.112C237.596 225.561 238.001 227.561 239.305 228.585C239.403 227.903 239.605 227.241 239.912 226.627C239.822 227.408 240.031 228.195 240.373 228.906C240.687 229.554 241.175 230.077 241.524 230.697C241.761 231.122 241.978 231.547 242.264 231.951C242.885 232.836 243.603 233.658 244.385 234.397C245.354 235.317 246.987 236.641 248.173 237.233C252.401 239.351 262.671 238.689 268.043 232.934C273.422 227.178 276.743 227.519 281.502 225.721C286.26 223.924 294.869 223.136 294.869 214.67C294.869 206.203 290.369 202.155 287.816 201.813C285.492 196.399 278.592 194.434 272.774 195.137C268.232 195.688 264.199 198.176 261.031 202.155C259.183 204.475 256.566 205.897 254.703 206.684C252.715 207.52 250.831 208.558 249.045 209.771L238.196 217.157Z" fill="#455A64"/>
<path d="M239.187 228.293C239.445 228.474 239.529 227.972 239.766 227.645C239.536 229.812 240.338 231.435 241.992 232.836C241.901 232.522 241.873 232.056 241.88 231.644C241.922 232.195 242.522 233.045 242.808 233.387C243.917 234.704 245.871 236.251 248.166 237.226C247.168 236.237 246.806 234.697 247.28 233.498C247.489 233.902 247.699 234.306 247.901 234.711C248.557 234.049 248.843 233.087 248.885 232.118C248.927 231.15 248.731 230.174 248.543 229.199C248.794 229.756 249.192 231.512 249.896 230.648C250.489 229.93 250.538 228.787 250.482 227.861C250.315 225.192 249.122 222.76 246.757 221.373C244.838 220.251 241.245 219.582 239.626 221.603C238.999 222.391 238.552 223.742 238.447 224.732C238.322 225.944 238.419 227.526 239.173 228.272L239.187 228.293Z" fill="#EBEBEB"/>
<path d="M231.359 230.78C231.261 231.415 231.219 232.056 231.226 232.697C231.233 233.31 231.296 233.951 231.589 234.488C231.798 234.878 232.126 235.191 232.475 235.463C234.889 237.324 237.792 237.261 240.68 237.449C243.254 237.609 245.948 237.623 248.48 238.174C248.787 238.237 249.171 238.299 249.422 238.501C250.322 239.226 252.806 242.083 254.152 240.397C255.352 238.892 254.508 236.369 252.15 234.543C250.971 233.63 249.694 232.913 248.306 232.369C247.001 231.861 245.508 231.345 244.406 230.474C243.68 229.902 243.108 229.115 242.906 228.216C242.689 227.282 243.059 226.237 242.808 225.338C242.599 224.586 241.608 224.746 240.938 224.69C238.936 224.53 236.926 224.572 234.931 224.823C234.561 224.871 234.178 224.927 233.871 225.136C233.647 225.289 233.48 225.512 233.326 225.735C232.294 227.241 231.617 228.983 231.345 230.787L231.359 230.78Z" fill="#37474F"/>
<path d="M253.783 238.334C253.783 238.285 253.88 238.188 253.915 238.264C254.292 238.968 254.132 239.86 253.783 240.543C253.734 240.641 253.678 240.731 253.622 240.822C253.35 240.94 253.05 240.947 252.743 240.878C252.876 240.752 252.994 240.62 253.106 240.48C253.587 239.86 253.706 239.094 253.783 238.341V238.334Z" fill="#263238"/>
<path d="M251.948 239.087C252.087 238.857 252.213 238.599 252.297 238.348C252.415 238 252.422 237.623 252.353 237.261C252.339 237.177 252.492 237.066 252.541 237.163C252.771 237.658 252.834 238.285 252.715 238.822C252.576 239.449 252.199 239.986 251.739 240.418C251.536 240.292 251.334 240.146 251.146 240C251.452 239.735 251.732 239.435 251.948 239.087Z" fill="#263238"/>
<path d="M272.942 212.349C273.2 211.095 273.618 210.342 273.835 209.959C274.253 209.213 274.776 208.524 275.383 207.917C276.695 206.6 278.307 205.674 280.086 205.13C281.021 204.844 282.039 204.726 283.009 204.656C285.012 204.51 287.07 204.789 288.919 205.59C290.977 206.489 292.756 208.071 293.754 210.078C294.528 211.645 294.814 213.408 294.863 215.157C294.94 218.147 294.214 221.359 291.995 223.359C289.163 225.944 285.458 227.923 281.739 229.491C278.049 231.045 275.321 231.038 274.337 229.345C273.242 226.662 278.397 224.279 278.397 224.279C278.397 224.279 278 224.14 277.274 223.352C276.283 222.425 275.467 221.324 274.958 220.063C273.904 218.237 274.093 215.889 274.609 213.84C274.051 214.196 273.702 214.865 273.737 215.52C273.465 213.847 274.03 212.064 275.216 210.858C274.33 211.095 273.514 211.625 272.935 212.335L272.942 212.349Z" fill="#455A64"/>
<path d="M276.102 228.857C276.395 228.446 276.869 228.112 277.344 227.972C277.441 227.944 277.462 228.119 277.392 228.16C277.099 228.328 276.848 228.565 276.681 228.857C276.562 229.073 276.457 229.31 276.388 229.547C276.29 229.882 276.255 230.23 276.255 230.578C276.025 230.537 275.809 230.481 275.613 230.404C275.641 229.861 275.788 229.317 276.109 228.864L276.102 228.857Z" fill="#263238"/>
<path d="M274.337 229.352C274.337 229.352 274.316 229.282 274.302 229.247C274.323 229.171 274.344 229.101 274.372 229.024C274.63 228.369 275.146 227.721 275.858 227.554C275.927 227.54 275.92 227.659 275.892 227.693C275.418 228.202 274.965 228.753 274.832 229.456C274.804 229.603 274.79 229.756 274.783 229.909C274.609 229.749 274.462 229.568 274.337 229.359V229.352Z" fill="#263238"/>
<path d="M274.337 229.352C274.113 228.801 274.169 228.174 274.427 227.645C274.679 227.115 275.069 226.662 275.502 226.272C275.934 225.875 276.409 225.526 276.897 225.213C277.393 224.892 277.902 224.606 278.432 224.356L278.579 224.286L278.425 224.216C278.328 224.174 278.223 224.105 278.132 224.035C278.035 223.965 277.944 223.889 277.853 223.812C277.672 223.652 277.504 223.478 277.337 223.303C276.36 222.384 275.558 221.276 275.062 220.035V220.021C274.539 219.115 274.33 218.056 274.316 217.011C274.302 215.959 274.476 214.907 274.734 213.889L274.811 213.603L274.56 213.764C273.96 214.14 273.597 214.844 273.632 215.555L273.869 215.527C273.597 213.896 274.148 212.147 275.307 210.962L275.579 210.684L275.202 210.788C274.295 211.039 273.465 211.569 272.872 212.307L273.046 212.391C273.213 211.527 273.513 210.698 273.96 209.938C274.393 209.172 274.937 208.468 275.572 207.855C276.827 206.607 278.397 205.694 280.093 205.165C278.39 205.66 276.779 206.538 275.488 207.771C274.839 208.384 274.274 209.088 273.827 209.861C273.367 210.628 273.039 211.478 272.858 212.356L272.774 212.746L273.025 212.44C273.597 211.75 274.386 211.234 275.258 211.004L275.153 210.83C273.939 212.063 273.36 213.875 273.632 215.582L273.869 215.555C273.841 214.941 274.162 214.307 274.686 213.98L274.504 213.847C274.246 214.886 274.072 215.952 274.093 217.032C274.107 218.105 274.33 219.206 274.881 220.147V220.133C275.383 221.408 276.227 222.523 277.225 223.45C277.393 223.624 277.574 223.798 277.762 223.958C277.853 224.042 277.951 224.119 278.055 224.188C278.16 224.258 278.258 224.328 278.39 224.383V224.251C277.853 224.516 277.337 224.809 276.848 225.136C276.36 225.464 275.886 225.826 275.46 226.237C275.034 226.648 274.651 227.115 274.407 227.659C274.162 228.195 274.12 228.836 274.358 229.38L274.337 229.352Z" fill="#263238"/>
<path d="M260.006 217.562C257.006 217.415 255.032 218.948 253.866 220.997C252.387 223.603 251.976 227.289 252.527 230.237C252.471 229.059 253.294 228.028 254.187 227.262C253.099 229.338 252.883 231.854 253.601 234.091C253.783 233.115 254.327 232.216 255.108 231.603C254.501 232.669 254.543 233.916 254.571 235.101C254.599 236.146 254.815 237.324 254.027 238.076C252.946 239.108 251.62 239.665 250.427 240.522C248.892 241.623 248.062 242.634 247.685 244.794C247.587 245.372 247.783 246.536 248.013 247.08C248.355 247.881 249.338 248.417 250.204 248.369C250.776 248.334 251.313 248.062 251.732 247.665C252.157 247.254 252.457 246.724 252.834 246.271C253.971 244.898 255.82 244.432 257.383 243.714C259.036 242.954 260.662 242.048 261.988 240.773C262.525 240.257 262.964 239.658 263.376 239.045C264.109 237.972 264.778 236.864 265.385 235.721C265.916 234.725 266.592 233.659 266.962 232.599" fill="#455A64"/>
<path d="M260.006 217.562C257.006 217.415 255.032 218.948 253.866 220.997C252.387 223.603 251.976 227.289 252.527 230.237C252.471 229.059 253.294 228.028 254.187 227.262C253.099 229.338 252.883 231.854 253.601 234.091C253.783 233.115 254.327 232.216 255.108 231.603C254.501 232.669 254.543 233.916 254.571 235.101C254.599 236.146 254.815 237.324 254.027 238.076C252.946 239.108 251.62 239.665 250.427 240.522C248.892 241.623 248.062 242.634 247.685 244.794C247.587 245.372 247.783 246.536 248.013 247.08C248.355 247.881 249.338 248.417 250.204 248.369C250.776 248.334 251.313 248.062 251.732 247.665C252.157 247.254 252.457 246.724 252.834 246.271C253.971 244.898 255.82 244.432 257.383 243.714C259.036 242.954 260.662 242.048 261.988 240.773C262.525 240.257 262.964 239.658 263.376 239.045C264.109 237.972 264.778 236.864 265.385 235.721C265.916 234.725 266.592 233.659 266.962 232.599" fill="#455A64"/>
<path d="M248.759 245.351C248.822 245.31 248.85 245.428 248.836 245.47C248.55 246.104 248.292 246.766 248.397 247.477C248.404 247.539 248.424 247.602 248.438 247.665C248.264 247.491 248.118 247.295 248.027 247.073C247.985 246.975 247.943 246.85 247.908 246.71C248.027 246.167 248.299 245.644 248.773 245.344L248.759 245.351Z" fill="#263238"/>
<path d="M249.387 248.25C249.276 247.769 249.255 247.268 249.401 246.787C249.548 246.306 249.89 245.839 250.294 245.547C250.378 245.491 250.448 245.651 250.399 245.707C250.176 245.965 250.015 246.264 249.945 246.592C249.897 246.836 249.876 247.093 249.89 247.337C249.903 247.686 249.98 248.027 250.092 248.355C249.855 248.355 249.617 248.313 249.387 248.243V248.25Z" fill="#263238"/>
<path d="M260.006 217.562C259.302 217.52 258.583 217.562 257.899 217.743C257.209 217.91 256.553 218.203 255.96 218.6C254.767 219.394 253.908 220.607 253.343 221.903C252.771 223.206 252.436 224.6 252.29 226.014C252.15 227.429 252.178 228.857 252.429 230.258L252.632 230.237C252.604 229.672 252.806 229.115 253.113 228.634C253.42 228.153 253.825 227.728 254.264 227.352L254.09 227.213C252.974 229.317 252.778 231.867 253.504 234.125L253.629 234.509L253.699 234.111C253.874 233.164 254.404 232.279 255.164 231.679L255.032 231.561C254.739 232.084 254.585 232.676 254.522 233.261C254.46 233.847 254.474 234.439 254.488 235.017C254.501 235.603 254.571 236.188 254.522 236.752C254.494 237.038 254.439 237.317 254.313 237.568C254.194 237.825 253.992 238.021 253.776 238.216C252.904 238.975 251.885 239.554 250.901 240.188C250.413 240.508 249.925 240.836 249.485 241.219C249.046 241.602 248.655 242.055 248.411 242.585C248.662 242.055 249.066 241.616 249.513 241.247C249.96 240.871 250.448 240.557 250.943 240.25C251.934 239.637 252.967 239.087 253.86 238.306C254.083 238.118 254.306 237.895 254.432 237.623C254.564 237.352 254.634 237.052 254.662 236.759C254.718 236.167 254.648 235.582 254.641 235.003C254.627 234.425 254.62 233.84 254.683 233.268C254.746 232.697 254.899 232.132 255.178 231.645L255.408 231.247L255.046 231.533C254.243 232.153 253.685 233.073 253.497 234.069L253.692 234.056C252.987 231.847 253.225 229.366 254.285 227.31L254.557 226.781L254.111 227.171C253.664 227.561 253.246 228 252.925 228.509C252.604 229.017 252.387 229.617 252.422 230.237L252.625 230.216C252.367 228.836 252.325 227.422 252.457 226.021C252.597 224.627 252.918 223.241 253.469 221.952C254.02 220.662 254.857 219.478 256.008 218.669C256.581 218.265 257.229 217.966 257.906 217.785C258.59 217.596 259.302 217.541 260.006 217.562Z" fill="#263238"/>
<path d="M265.867 234.815C266.223 234.223 266.55 233.617 266.843 232.989C266.99 232.676 267.13 232.362 267.262 232.035C267.388 231.714 267.506 231.38 267.569 231.024H267.36C267.409 231.331 267.436 231.652 267.443 231.965C267.443 232.279 267.423 232.592 267.353 232.885L267.192 233.505L267.562 232.989C267.876 232.55 268.134 232.077 268.323 231.575C268.497 231.073 268.644 230.551 268.706 230.028C268.776 229.498 268.797 228.969 268.79 228.439C268.769 227.91 268.72 227.38 268.616 226.864C268.671 227.387 268.692 227.916 268.671 228.439C268.657 228.962 268.609 229.484 268.525 230C268.434 230.516 268.302 231.017 268.12 231.498C267.939 231.979 267.674 232.432 267.381 232.85L267.59 232.955C267.667 232.627 267.681 232.3 267.674 231.972C267.66 231.645 267.632 231.324 267.576 231.003L267.464 230.369L267.367 231.003C267.318 231.331 267.206 231.658 267.102 231.979C266.99 232.3 266.864 232.62 266.732 232.941C266.46 233.575 266.181 234.202 265.881 234.822L265.867 234.815Z" fill="#263238"/>
<path d="M233.822 216.851C232.231 214.063 232.671 207.548 235.029 206.231C237.255 204.984 242.376 211.534 242.376 211.534C242.376 211.534 238.162 216.175 233.822 216.851Z" fill="#37474F"/>
<path d="M236.515 215.178C239.48 213.457 242.376 211.534 242.376 211.534C242.376 211.534 237.492 205.304 235.664 206.342C234.513 206.837 233.341 210.488 236.515 215.171V215.178Z" fill="#FFA8A7"/>
<path d="M240.687 211.638C240.164 211.387 239.864 211.081 239.48 210.53C239.096 209.98 238.936 209.464 238.915 208.712C237.813 209.464 237.359 211.276 237.359 211.276C235.754 211.018 235.859 209.415 235.859 209.415C235.043 210.293 235.071 212.516 236.473 213.666C236.473 213.666 237.436 213.868 238.692 213.297C239.947 212.725 240.603 212.077 240.687 211.631V211.638Z" fill="#F28F8F"/>
<path d="M237.324 214.091C236.271 213.359 235.608 211.806 236.054 210.732C236.054 210.732 236.78 211.652 237.631 211.68C237.631 211.68 238.043 208.649 239.724 208.189C239.724 208.189 239.361 210.182 240.848 211.269C241.315 214.084 237.324 214.084 237.324 214.084V214.091Z" fill="#455A64"/>
<path d="M246.436 210.182C247.908 207.729 252.15 205.325 254.718 207.109C256.162 208.119 253.35 215.283 253.35 215.283C253.35 215.283 248.543 213.339 246.436 210.182Z" fill="#37474F"/>
<path d="M248.487 212.182C250.859 213.806 253.35 215.283 253.35 215.283C253.35 215.283 256.162 208.119 254.718 207.109C253.734 206.642 250.776 207.659 248.487 212.182Z" fill="#FFA8A7"/>
<path d="M253.05 213.694C253.238 213.332 253.448 213.074 253.657 212.872C253.817 212.419 253.992 211.889 254.152 211.332C253.189 210.781 251.836 210.781 251.836 210.781C251.787 209.994 252.499 209.206 252.499 209.206C251.55 208.935 249.966 209.861 249.638 211.471C249.638 211.471 249.973 212.419 250.685 213.116C251.208 213.394 251.682 213.631 252.073 213.812C252.373 213.847 252.694 213.819 253.05 213.701V213.694Z" fill="#F28F8F"/>
<path d="M250.043 212.022C250.357 210.907 251.417 209.889 252.373 209.952C252.373 209.952 251.829 210.844 252.017 211.576C252.017 211.576 254.508 211.032 255.29 212.328C255.29 212.328 253.629 212.607 253.141 214.196C251.034 215.422 250.043 212.022 250.043 212.022Z" fill="#455A64"/>
<path d="M245.445 210.001C248.215 210.272 250.762 211.513 252.855 213.325C254.787 214.997 256.336 217.081 257.571 219.31C258.129 220.321 258.722 221.331 259.008 222.453C259.343 223.763 259.322 225.164 258.925 226.46C258.792 225.916 258.562 225.394 258.262 224.92C258.38 225.638 258.122 226.544 257.822 227.206C257.76 226.815 257.704 226.46 257.543 226.223C257.397 226.516 257.236 226.718 257.062 226.976C256.853 227.282 256.636 227.582 256.406 227.875C255.932 228.474 255.408 229.045 254.843 229.561C253.72 230.585 252.401 231.442 250.929 231.867C250.629 231.958 250.315 232.021 250.008 232.069C247.078 232.515 244.057 232.188 241.238 231.317C239.899 230.906 238.601 230.362 237.359 229.707C236.843 229.428 235.071 228.174 235.001 227.31C234.645 227.456 234.387 227.819 234.359 228.209C233.159 227.268 232.678 225.526 233.215 224.098C232.573 224.481 232.043 225.059 231.729 225.742C231.052 224.92 230.94 223.777 231.024 222.718C231.157 220.92 232.036 219.429 232.992 217.952C235.671 213.778 240.345 210.217 245.452 210.001H245.445Z" fill="#455A64"/>
<path d="M252.855 213.318C255.687 215.812 258.053 219.053 259.218 222.669C259.504 223.923 259.476 225.261 259.106 226.509C259.078 226.606 258.973 226.662 258.883 226.634C258.82 226.613 258.771 226.564 258.757 226.502C258.625 225.979 258.408 225.477 258.108 225.017L258.45 224.885C258.632 225.226 258.108 228.104 257.634 227.233C257.578 226.899 257.529 226.55 257.383 226.334L257.718 226.307C255.325 230.425 251.529 232.878 246.666 232.446C242.857 232.209 238.817 231.198 235.845 228.725C235.454 228.341 235.015 227.93 234.917 227.317L235.043 227.394C234.715 227.519 234.471 227.854 234.443 228.209C234.443 228.251 234.408 228.279 234.366 228.279C233.11 227.345 232.664 225.512 233.222 224.098C232.706 225.533 233.222 227.247 234.415 228.146L234.296 228.202C234.317 227.784 234.582 227.394 234.973 227.226C235.022 227.205 235.071 227.226 235.092 227.275C235.922 229.289 238.406 230.076 240.296 230.836C244.273 232.118 249.157 232.954 252.925 230.759C254.773 229.637 256.266 227.944 257.383 226.118C257.85 225.7 257.969 226.983 258.018 227.178L257.648 227.129C257.955 226.439 258.185 225.666 258.08 224.948C258.046 224.753 258.325 224.655 258.422 224.822C258.736 225.31 258.967 225.854 259.106 226.418H258.757C259.587 223.958 258.757 221.436 257.439 219.31C256.246 217.094 254.752 215.011 252.855 213.325V213.318Z" fill="#263238"/>
<path d="M245.941 223.547C249.038 221.77 247.42 214.091 247.42 214.091C249.032 217.443 249.639 221.429 252.834 222.739C255.611 223.882 257.104 224.816 256.42 227.854C254.976 229.958 252.736 231.951 250.085 232.286C247.797 232.578 244.964 232.439 241.573 231.415C240.129 227.338 242.027 225.791 245.941 223.54V223.547Z" fill="#FAFAFA"/>
<path d="M241.092 225.505C241.092 225.505 241.106 225.505 241.113 225.498C241.21 225.436 241.238 225.303 241.176 225.199C240.527 224.112 239.313 222.871 237.22 223.115C237.108 223.129 237.024 223.234 237.045 223.359C237.059 223.478 237.164 223.568 237.275 223.554C239.152 223.331 240.241 224.453 240.827 225.429C240.883 225.526 241.001 225.561 241.092 225.512V225.505Z" fill="#263238"/>
<path d="M240.506 226.028C240.506 226.028 240.548 226 240.562 225.986C240.638 225.903 240.638 225.763 240.555 225.68C239.857 224.969 238.482 224.648 237.687 224.809C237.575 224.829 237.506 224.948 237.527 225.066C237.548 225.185 237.659 225.262 237.771 225.241C238.469 225.101 239.689 225.394 240.276 225.993C240.338 226.063 240.436 226.077 240.513 226.035L240.506 226.028Z" fill="#263238"/>
<path d="M240.589 226.927C240.624 226.906 240.659 226.871 240.673 226.829C240.722 226.718 240.673 226.592 240.569 226.537C239.662 226.091 238.064 226 236.696 226.85C236.599 226.913 236.571 227.045 236.627 227.15C236.682 227.254 236.808 227.289 236.906 227.234C238.155 226.46 239.585 226.537 240.401 226.934C240.464 226.962 240.534 226.962 240.589 226.934V226.927Z" fill="#263238"/>
<path d="M256.573 223.22C256.573 223.22 256.559 223.22 256.553 223.22C256.448 223.178 256.392 223.052 256.434 222.934C256.859 221.742 257.801 220.286 259.901 220.119C260.013 220.112 260.118 220.202 260.125 220.321C260.132 220.439 260.048 220.544 259.936 220.558C258.053 220.711 257.208 222.021 256.825 223.094C256.79 223.199 256.678 223.255 256.58 223.227L256.573 223.22Z" fill="#263238"/>
<path d="M257.25 223.617C257.25 223.617 257.208 223.603 257.187 223.582C257.097 223.512 257.069 223.373 257.132 223.276C257.669 222.439 258.959 221.861 259.776 221.854C259.887 221.854 259.985 221.952 259.985 222.07C259.985 222.188 259.894 222.293 259.783 222.293C259.071 222.293 257.934 222.823 257.48 223.526C257.432 223.603 257.341 223.638 257.257 223.61L257.25 223.617Z" fill="#263238"/>
<path d="M257.348 224.516C257.306 224.502 257.271 224.474 257.243 224.439C257.173 224.342 257.194 224.202 257.292 224.133C258.094 223.519 259.636 223.115 261.15 223.68C261.255 223.721 261.311 223.847 261.276 223.958C261.241 224.07 261.122 224.133 261.018 224.091C259.643 223.575 258.255 223.937 257.536 224.488C257.48 224.53 257.411 224.537 257.348 224.516Z" fill="#263238"/>
<path d="M247.503 228.23C246.917 228.23 246.359 228.049 245.975 227.693C245.871 227.603 245.871 227.442 245.961 227.338C246.052 227.233 246.213 227.233 246.317 227.324C246.847 227.819 247.838 227.868 248.627 227.449C249.408 227.031 249.792 226.244 249.694 225.268C249.68 225.192 249.666 225.108 249.666 225.038C249.659 224.906 249.757 224.788 249.889 224.774C250.015 224.76 250.148 224.85 250.168 224.983C250.182 225.052 250.189 225.122 250.196 225.192C250.287 225.645 250.608 226.3 251.159 226.634C251.599 226.906 252.108 226.92 252.659 226.683C252.785 226.627 252.931 226.683 252.987 226.815C253.043 226.941 252.987 227.087 252.855 227.143C251.968 227.526 251.299 227.31 250.894 227.059C250.58 226.871 250.329 226.599 250.127 226.307C249.952 226.997 249.52 227.547 248.864 227.902C248.438 228.132 247.964 228.244 247.503 228.244V228.23Z" fill="#263238"/>
<path d="M249.959 225.617C250.315 225.589 251.18 224.753 251.208 224.167C251.243 223.582 248.354 223.972 248.354 224.432C248.354 225.08 249.596 225.645 249.959 225.617Z" fill="#F28F8F"/>
<path d="M244.894 220.997C244.539 220.342 243.597 220.14 242.899 220.168C242.229 220.195 241.573 220.46 241.078 220.906C240.945 221.025 240.82 221.206 240.736 221.366C240.513 221.805 241.183 221.464 241.315 221.394C241.769 221.171 242.348 221.032 242.85 221.004C243.366 220.976 243.883 221.08 244.392 221.185C244.49 221.206 244.852 221.338 244.929 221.296C245.041 221.234 244.936 221.073 244.894 220.997Z" fill="#263238"/>
<path d="M251.857 220.739C252.094 220.056 252.883 219.77 253.476 219.742C254.048 219.715 254.634 219.924 255.101 220.328C255.227 220.439 255.352 220.607 255.436 220.76C255.666 221.178 255.066 220.892 254.941 220.836C254.529 220.648 254.027 220.558 253.594 220.572C253.148 220.586 252.722 220.732 252.304 220.878C252.227 220.906 251.927 221.073 251.857 221.039C251.752 220.99 251.829 220.823 251.857 220.739Z" fill="#263238"/>
<circle cx="124" cy="133" r="1" fill="#17242B"/>
<circle cx="124" cy="136" r="1" fill="#17242B"/>
</svg>
