<svg width="115" height="57" viewBox="0 0 115 57" fill="none" xmlns="http://www.w3.org/2000/svg">
<g filter="url(#filter0_i_1031_14005)">
<path d="M1 14.1442C1 8.41378 5.386 3.64766 11.1016 3.23622C23.4489 2.34741 44.2667 1 57 1C69.8115 1 91.2617 2.364 103.876 3.25254C109.601 3.65583 114 8.42641 114 14.1658V42.915C114 48.6208 109.645 53.3737 103.955 53.7977C92.0303 54.6865 71.8881 56 57 56C42.2159 56 22.6827 54.7048 11.0243 53.8164C5.34585 53.3838 1 48.636 1 42.9411V14.1442Z" fill="#354859"/>
</g>
<path d="M11.0657 2.73751C5.08549 3.168 0.5 8.15466 0.5 14.1442V42.9411C0.5 48.894 5.04384 53.8622 10.9863 54.315C22.6454 55.2034 42.1952 56.5 57 56.5C71.9086 56.5 92.0672 55.1851 103.992 54.2964C109.946 53.8526 114.5 48.879 114.5 42.915V14.1658C114.5 8.16685 109.901 3.17571 103.911 2.75377C91.2999 1.86545 69.8321 0.5 57 0.5C44.2458 0.5 23.4102 1.8489 11.0657 2.73751Z" stroke="white"/>
<g filter="url(#filter1_d_1031_14005)">
<path d="M23.9 34C23.06 34 22.28 33.7933 21.56 33.38C20.8533 32.9533 20.2867 32.3867 19.86 31.68C19.4467 30.96 19.24 30.18 19.24 29.34V27.18H21.3V29.24C21.3 29.7067 21.4133 30.14 21.64 30.54C21.88 30.9267 22.2 31.24 22.6 31.48C23 31.7067 23.4333 31.82 23.9 31.82H30.6C31.1333 31.82 31.58 31.64 31.94 31.28C32.3 30.92 32.48 30.4733 32.48 29.94V27.18H34.54V30.4C34.54 30.8 34.6733 31.14 34.94 31.42C35.22 31.6867 35.56 31.82 35.96 31.82H36.86C36.9933 31.82 37.06 31.8867 37.06 32.02V33.8C37.06 33.9333 36.9933 34 36.86 34H35.96C35.3867 34 34.88 33.8733 34.44 33.62C34.0133 33.3667 33.6667 33.0133 33.4 32.56C33.0933 33.0133 32.7 33.3667 32.22 33.62C31.74 33.8733 31.2 34 30.6 34H23.9ZM26.38 35.8H28.42V37.84H26.38V35.8ZM40.9472 22.08V24.1H38.9072V22.08H40.9472ZM44.0072 22.08V24.1H41.9872V22.08H44.0072ZM46.1072 31.82C46.2405 31.82 46.3072 31.8867 46.3072 32.02V33.8C46.3072 33.9333 46.2405 34 46.1072 34H36.8672C36.7339 34 36.6672 33.9333 36.6672 33.8V32.02C36.6672 31.8867 36.7339 31.82 36.8672 31.82H37.9072C37.5872 31.22 37.4272 30.58 37.4272 29.9C37.4272 29.1667 37.6072 28.5 37.9672 27.9C38.3272 27.2867 38.8205 26.8067 39.4472 26.46C40.0739 26.1133 40.7539 25.94 41.4872 25.94C42.2205 25.94 42.8939 26.1133 43.5072 26.46C44.1339 26.8067 44.6272 27.2867 44.9872 27.9C45.3605 28.5 45.5472 29.1667 45.5472 29.9C45.5472 30.5933 45.3805 31.2333 45.0472 31.82H46.1072ZM39.5872 29.98C39.5872 30.5 39.7672 30.94 40.1272 31.3C40.5005 31.6467 40.9539 31.82 41.4872 31.82C42.0072 31.82 42.4472 31.6467 42.8072 31.3C43.1805 30.94 43.3672 30.5 43.3672 29.98C43.3672 29.46 43.1805 29.02 42.8072 28.66C42.4472 28.3 42.0072 28.12 41.4872 28.12C40.9539 28.12 40.5005 28.3 40.1272 28.66C39.7672 29.02 39.5872 29.46 39.5872 29.98ZM54.7855 31.82V34H46.1055C45.9721 34 45.9055 33.9333 45.9055 33.8V32.02C45.9055 31.8867 45.9721 31.82 46.1055 31.82H48.0455C47.6055 31.1933 47.3855 30.4867 47.3855 29.7C47.3855 28.9267 47.5788 28.2267 47.9655 27.6C48.3521 26.96 48.8788 26.46 49.5455 26.1C50.2121 25.7267 50.9455 25.54 51.7455 25.54H53.9255V27.56H51.7455C51.1321 27.56 50.6121 27.7667 50.1855 28.18C49.7721 28.58 49.5655 29.08 49.5655 29.68C49.5655 30.2933 49.7721 30.8067 50.1855 31.22C50.5988 31.62 51.1121 31.82 51.7255 31.82H54.7855ZM65.3834 31.82C65.7834 31.82 66.1168 31.6867 66.3834 31.42C66.6634 31.1533 66.8034 30.8267 66.8034 30.44C66.8034 30.1733 66.7368 29.94 66.6034 29.74C66.4701 29.5267 66.2501 29.3133 65.9434 29.1L62.0434 26.42L63.2034 24.74L67.4234 27.64C67.8901 27.9867 68.2501 28.3867 68.5034 28.84C68.7568 29.28 68.8834 29.7933 68.8834 30.38C68.8834 31.0467 68.7168 31.66 68.3834 32.22C68.0501 32.7667 67.6034 33.2 67.0434 33.52C66.4834 33.84 65.8701 34 65.2034 34H60.6634V31.82H65.3834ZM75.3311 31.82C75.4644 31.82 75.5311 31.8867 75.5311 32.02V33.8C75.5311 33.9333 75.4644 34 75.3311 34H74.4311C73.8844 34 73.4111 33.88 73.0111 33.64C72.9978 34.6267 72.8378 35.44 72.5311 36.08C72.2378 36.7333 71.7711 37.3067 71.1311 37.8C70.5044 38.2933 69.6044 38.82 68.4311 39.38L67.6511 37.66C68.6244 37.1133 69.3178 36.68 69.7311 36.36C70.1578 36.0533 70.4644 35.68 70.6511 35.24C70.8511 34.8133 70.9511 34.2267 70.9511 33.48V27.18H73.0111V30.4C73.0111 30.8 73.1444 31.14 73.4111 31.42C73.6911 31.6867 74.0311 31.82 74.4311 31.82H75.3311ZM76.0242 22.32L79.5442 18.6L80.5642 19.64L77.0442 23.36L76.0242 22.32ZM75.3242 34C75.1909 34 75.1242 33.9333 75.1242 33.8V32.02C75.1242 31.8867 75.1909 31.82 75.3242 31.82H81.7042C82.1842 31.82 82.5976 31.6533 82.9442 31.32C83.2909 30.9867 83.4642 30.5667 83.4642 30.06C83.4642 29.42 83.1509 28.9133 82.5242 28.54L77.8242 25.46V23.8L81.7242 19.68L83.1442 21.02L79.9242 24.38L83.8442 26.94C84.3776 27.2867 84.7909 27.7333 85.0842 28.28C85.3776 28.8267 85.5242 29.44 85.5242 30.12C85.5242 30.8267 85.3509 31.48 85.0042 32.08C84.6709 32.6667 84.2109 33.1333 83.6242 33.48C83.0376 33.8267 82.3909 34 81.6842 34H75.3242ZM91.9913 31.82C92.1246 31.82 92.1913 31.8867 92.1913 32.02V33.8C92.1913 33.9333 92.1246 34 91.9913 34H91.0913C90.5446 34 90.0713 33.88 89.6713 33.64C89.6579 34.6267 89.4979 35.44 89.1913 36.08C88.8979 36.7333 88.4313 37.3067 87.7913 37.8C87.1646 38.2933 86.2646 38.82 85.0913 39.38L84.3112 37.66C85.2846 37.1133 85.9779 36.68 86.3913 36.36C86.8179 36.0533 87.1246 35.68 87.3113 35.24C87.5113 34.8133 87.6113 34.2267 87.6113 33.48V27.18H89.6713V30.4C89.6713 30.8 89.8046 31.14 90.0713 31.42C90.3513 31.6867 90.6913 31.82 91.0913 31.82H91.9913ZM91.9844 34C91.851 34 91.7844 33.9333 91.7844 33.8V32.02C91.7844 31.8867 91.851 31.82 91.9844 31.82H92.9644C93.351 31.82 93.6844 31.68 93.9644 31.4C94.2444 31.12 94.3844 30.78 94.3844 30.38V26.58H96.4444V30.5C96.4444 31.14 96.291 31.7267 95.9844 32.26C95.6777 32.7933 95.2577 33.22 94.7244 33.54C94.191 33.8467 93.6044 34 92.9644 34H91.9844ZM91.9844 35.8H94.0244V37.84H91.9844V35.8Z" fill="#E6E8EA"/>
</g>
<path d="M23 6.65259C23.8439 8.12992 18.4131 8.41722 14.5 10.6526C10.5869 12.888 8.87197 16.0488 8.02805 14.5714C7.18413 13.0941 9.67223 10.0844 13.5854 7.84899C17.4985 5.61361 22.1561 5.17526 23 6.65259Z" fill="#536B80"/>
<circle cx="6.5" cy="18.5" r="2" fill="#092B4B"/>
<circle cx="6.5" cy="18.5" r="2" fill="#536B80"/>
<defs>
<filter id="filter0_i_1031_14005" x="0" y="0" width="115.5" height="57.5" filterUnits="userSpaceOnUse" color-interpolation-filters="sRGB">
<feFlood flood-opacity="0" result="BackgroundImageFix"/>
<feBlend mode="normal" in="SourceGraphic" in2="BackgroundImageFix" result="shape"/>
<feColorMatrix in="SourceAlpha" type="matrix" values="0 0 0 0 0 0 0 0 0 0 0 0 0 0 0 0 0 0 127 0" result="hardAlpha"/>
<feOffset dx="2" dy="2"/>
<feGaussianBlur stdDeviation="0.25"/>
<feComposite in2="hardAlpha" operator="arithmetic" k2="-1" k3="1"/>
<feColorMatrix type="matrix" values="0 0 0 0 0 0 0 0 0 0 0 0 0 0 0 0 0 0 0.25 0"/>
<feBlend mode="normal" in2="shape" result="effect1_innerShadow_1031_14005"/>
</filter>
<filter id="filter1_d_1031_14005" x="19.24" y="18.6001" width="79.2043" height="22.7798" filterUnits="userSpaceOnUse" color-interpolation-filters="sRGB">
<feFlood flood-opacity="0" result="BackgroundImageFix"/>
<feColorMatrix in="SourceAlpha" type="matrix" values="0 0 0 0 0 0 0 0 0 0 0 0 0 0 0 0 0 0 127 0" result="hardAlpha"/>
<feOffset dx="2" dy="2"/>
<feComposite in2="hardAlpha" operator="out"/>
<feColorMatrix type="matrix" values="0 0 0 0 0 0 0 0 0 0 0 0 0 0 0 0 0 0 0.25 0"/>
<feBlend mode="normal" in2="BackgroundImageFix" result="effect1_dropShadow_1031_14005"/>
<feBlend mode="normal" in="SourceGraphic" in2="effect1_dropShadow_1031_14005" result="shape"/>
</filter>
</defs>
</svg>
