<svg width="114" height="56" viewBox="0 0 114 56" fill="none" xmlns="http://www.w3.org/2000/svg">
<g filter="url(#filter0_i_1125_17249)">
<path d="M1 14.0974C1 8.36374 5.39143 3.596 11.1106 3.18856C23.3605 2.31585 43.9175 1 56.5044 1C69.1696 1 90.3526 2.33226 102.868 3.20478C108.596 3.60417 113 8.37628 113 14.1188V41.9613C113 47.6706 108.637 52.4253 102.943 52.8452C91.1121 53.7176 71.2192 55 56.5044 55C41.8924 55 22.5996 53.7355 11.0331 52.8635C5.35082 52.4351 1 47.6856 1 41.9872V14.0974Z" fill="#354859"/>
</g>
<path d="M11.075 2.68982C5.09118 3.11612 0.5 8.10443 0.5 14.0974V41.9872C0.5 47.9437 5.04903 52.9138 10.9956 53.3621C22.5627 54.2341 41.8719 55.5 56.5044 55.5C71.2394 55.5 91.1487 54.2163 102.98 53.3438C108.939 52.9045 113.5 47.929 113.5 41.9613V14.1188C113.5 8.11659 108.896 3.12385 102.903 2.70599C90.3904 1.83368 69.19 0.5 56.5044 0.5C43.8968 0.5 23.3222 1.8173 11.075 2.68982Z" stroke="white"/>
<path fill-rule="evenodd" clip-rule="evenodd" d="M5.1875 50.6035C6.81674 51.8782 8.82468 52.6979 11.0339 52.8644C22.6003 53.7364 41.8931 55.0009 56.5052 55.0009C71.2199 55.0009 91.1129 53.7186 102.944 52.8461C108.638 52.4263 113.001 47.6715 113.001 41.9623V14.1197C113.001 11.7447 112.247 9.53573 110.959 7.7334C110.061 32.2842 91.2671 60.6409 5.1875 50.6035Z" fill="#283643"/>
<path d="M21.3188 8.02235C22.1553 9.47281 16.7726 9.75489 12.894 11.9496C9.01553 14.1443 7.31582 17.2477 6.47937 15.7972C5.64292 14.3467 8.109 11.3917 11.9875 9.19699C15.866 7.00226 20.4824 6.57188 21.3188 8.02235Z" fill="#536B80"/>
<circle cx="5.5" cy="18.5" r="1.5" fill="#536B80"/>
<g filter="url(#filter1_d_1125_17249)">
<path d="M28.3367 24.78H30.3767V26.82H28.3367V24.78ZM29.3767 36.72C28.2967 36.72 27.2967 36.4467 26.3767 35.9C25.4567 35.3667 24.7234 34.64 24.1767 33.72C23.6434 32.8 23.3767 31.8 23.3767 30.72V26.98H25.4367V30.6C25.4367 31.32 25.6101 31.9867 25.9567 32.6C26.3167 33.2 26.7967 33.6733 27.3967 34.02C28.0101 34.38 28.6701 34.56 29.3767 34.56C30.0967 34.56 30.7567 34.38 31.3567 34.02C31.9701 33.6733 32.4501 33.2 32.7967 32.6C33.1567 31.9867 33.3367 31.32 33.3367 30.6V26.18H35.3967V30.72C35.3967 31.8 35.1234 32.8 34.5767 33.72C34.0434 34.64 33.3167 35.3667 32.3967 35.9C31.4767 36.4467 30.4701 36.72 29.3767 36.72ZM39.0745 36.56C40.3145 36.0267 41.2279 35.5933 41.8145 35.26C42.4145 34.94 42.8345 34.6067 43.0745 34.26C43.3279 33.9267 43.4545 33.5067 43.4545 33H41.6145C40.8679 33 40.1812 32.8333 39.5545 32.5C38.9412 32.1533 38.4479 31.68 38.0745 31.08C37.7145 30.48 37.5345 29.8133 37.5345 29.08C37.5345 28.3467 37.7145 27.6733 38.0745 27.06C38.4479 26.4467 38.9412 25.96 39.5545 25.6C40.1812 25.2267 40.8679 25.04 41.6145 25.04C42.3345 25.04 42.9945 25.22 43.5945 25.58C44.1945 25.94 44.6612 26.4333 44.9945 27.06C45.3412 27.6733 45.5145 28.3467 45.5145 29.08V32.18C45.5145 33.2867 45.3145 34.1867 44.9145 34.88C44.5279 35.5733 43.9412 36.16 43.1545 36.64C42.3812 37.1333 41.2345 37.7133 39.7145 38.38L39.0745 36.56ZM43.4545 29.08C43.4545 28.56 43.2745 28.12 42.9145 27.76C42.5545 27.3867 42.1212 27.2 41.6145 27.2C41.0812 27.2 40.6279 27.3867 40.2545 27.76C39.8945 28.12 39.7145 28.56 39.7145 29.08C39.7145 29.6133 39.8945 30.06 40.2545 30.42C40.6279 30.7667 41.0812 30.94 41.6145 30.94H43.4545V29.08ZM52.7517 30.82C52.8851 30.82 52.9517 30.8867 52.9517 31.02V32.8C52.9517 32.9333 52.8851 33 52.7517 33H51.8517C51.2917 33 50.8117 32.88 50.4117 32.64C50.3984 33.5867 50.2917 34.3733 50.0917 35C49.9051 35.6267 49.5851 36.1933 49.1317 36.7C48.6784 37.22 48.0117 37.78 47.1317 38.38L45.9917 36.86C46.7117 36.34 47.2317 35.8867 47.5517 35.5C47.8851 35.1133 48.0984 34.7 48.1917 34.26C48.2984 33.8333 48.3517 33.24 48.3517 32.48V26.18H50.4117V29.4C50.4117 29.8 50.5517 30.14 50.8317 30.42C51.1117 30.6867 51.4517 30.82 51.8517 30.82H52.7517ZM52.5422 31.02C52.5422 30.8867 52.6089 30.82 52.7422 30.82H53.9422C54.3289 30.82 54.6622 30.6867 54.9422 30.42C55.2222 30.14 55.3622 29.8 55.3622 29.4V26.18H57.4222V29.4C57.4222 29.8 57.5622 30.14 57.8422 30.42C58.1222 30.6867 58.4555 30.82 58.8422 30.82H60.0622C60.1955 30.82 60.2622 30.8867 60.2622 31.02V32.8C60.2622 32.9333 60.1955 33 60.0622 33H58.8422C58.3222 33 57.8489 32.8867 57.4222 32.66C57.0089 32.4333 56.6689 32.12 56.4022 31.72C56.1355 32.12 55.7889 32.4333 55.3622 32.66C54.9489 32.8867 54.4755 33 53.9422 33H52.7422C52.6089 33 52.5422 32.9333 52.5422 32.8V31.02ZM53.8222 34.84H55.8622V36.88H53.8222V34.84ZM56.9022 34.84H58.9222V36.88H56.9022V34.84ZM60.0664 33C59.9331 33 59.8664 32.9333 59.8664 32.8V31.02C59.8664 30.8867 59.9331 30.82 60.0664 30.82H61.9664C62.3531 30.82 62.6864 30.68 62.9664 30.4C63.2464 30.12 63.3864 29.78 63.3864 29.38V25.58H65.4464V29.5C65.4464 30.14 65.2931 30.7267 64.9864 31.26C64.6797 31.7933 64.2597 32.22 63.7264 32.54C63.1931 32.8467 62.6064 33 61.9664 33H60.0664ZM60.9664 34.82H62.9864V36.86H60.9664V34.82ZM72.8831 36.56C74.1231 36.0267 75.0365 35.5933 75.6231 35.26C76.2231 34.94 76.6431 34.6067 76.8831 34.26C77.1365 33.9267 77.2631 33.5067 77.2631 33H75.4231C74.6765 33 73.9898 32.8333 73.3631 32.5C72.7498 32.1533 72.2565 31.68 71.8831 31.08C71.5231 30.48 71.3431 29.8133 71.3431 29.08C71.3431 28.3467 71.5231 27.6733 71.8831 27.06C72.2565 26.4467 72.7498 25.96 73.3631 25.6C73.9898 25.2267 74.6765 25.04 75.4231 25.04C76.1431 25.04 76.8031 25.22 77.4031 25.58C78.0031 25.94 78.4698 26.4333 78.8031 27.06C79.1498 27.6733 79.3231 28.3467 79.3231 29.08V32.18C79.3231 33.2867 79.1231 34.1867 78.7231 34.88C78.3365 35.5733 77.7498 36.16 76.9631 36.64C76.1898 37.1333 75.0431 37.7133 73.5231 38.38L72.8831 36.56ZM77.2631 29.08C77.2631 28.56 77.0831 28.12 76.7231 27.76C76.3631 27.3867 75.9298 27.2 75.4231 27.2C74.8898 27.2 74.4365 27.3867 74.0631 27.76C73.7031 28.12 73.5231 28.56 73.5231 29.08C73.5231 29.6133 73.7031 30.06 74.0631 30.42C74.4365 30.7667 74.8898 30.94 75.4231 30.94H77.2631V29.08ZM86.5603 30.82C86.6936 30.82 86.7603 30.8867 86.7603 31.02V32.8C86.7603 32.9333 86.6936 33 86.5603 33H85.6603C85.1003 33 84.6203 32.88 84.2203 32.64C84.207 33.5867 84.1003 34.3733 83.9003 35C83.7136 35.6267 83.3936 36.1933 82.9403 36.7C82.487 37.22 81.8203 37.78 80.9403 38.38L79.8003 36.86C80.5203 36.34 81.0403 35.8867 81.3603 35.5C81.6936 35.1133 81.907 34.7 82.0003 34.26C82.107 33.8333 82.1603 33.24 82.1603 32.48V26.18H84.2203V29.4C84.2203 29.8 84.3603 30.14 84.6403 30.42C84.9203 30.6867 85.2603 30.82 85.6603 30.82H86.5603ZM86.5508 33C86.4174 33 86.3508 32.9333 86.3508 32.8V31.02C86.3508 30.8867 86.4174 30.82 86.5508 30.82H87.5308C87.9174 30.82 88.2508 30.68 88.5308 30.4C88.8108 30.12 88.9508 29.78 88.9508 29.38V25.58H91.0108V29.5C91.0108 30.14 90.8574 30.7267 90.5508 31.26C90.2441 31.7933 89.8241 32.22 89.2908 32.54C88.7574 32.8467 88.1708 33 87.5308 33H86.5508ZM86.5508 34.8H88.5908V36.84H86.5508V34.8Z" fill="#E6E8EA"/>
</g>
<defs>
<filter id="filter0_i_1125_17249" x="0" y="0" width="114.5" height="56.5" filterUnits="userSpaceOnUse" color-interpolation-filters="sRGB">
<feFlood flood-opacity="0" result="BackgroundImageFix"/>
<feBlend mode="normal" in="SourceGraphic" in2="BackgroundImageFix" result="shape"/>
<feColorMatrix in="SourceAlpha" type="matrix" values="0 0 0 0 0 0 0 0 0 0 0 0 0 0 0 0 0 0 127 0" result="hardAlpha"/>
<feOffset dx="2" dy="2"/>
<feGaussianBlur stdDeviation="0.25"/>
<feComposite in2="hardAlpha" operator="arithmetic" k2="-1" k3="1"/>
<feColorMatrix type="matrix" values="0 0 0 0 0 0 0 0 0 0 0 0 0 0 0 0 0 0 0.25 0"/>
<feBlend mode="normal" in2="shape" result="effect1_innerShadow_1125_17249"/>
</filter>
<filter id="filter1_d_1125_17249" x="23.377" y="24.78" width="69.6338" height="15.5999" filterUnits="userSpaceOnUse" color-interpolation-filters="sRGB">
<feFlood flood-opacity="0" result="BackgroundImageFix"/>
<feColorMatrix in="SourceAlpha" type="matrix" values="0 0 0 0 0 0 0 0 0 0 0 0 0 0 0 0 0 0 127 0" result="hardAlpha"/>
<feOffset dx="2" dy="2"/>
<feComposite in2="hardAlpha" operator="out"/>
<feColorMatrix type="matrix" values="0 0 0 0 0 0 0 0 0 0 0 0 0 0 0 0 0 0 0.25 0"/>
<feBlend mode="normal" in2="BackgroundImageFix" result="effect1_dropShadow_1125_17249"/>
<feBlend mode="normal" in="SourceGraphic" in2="effect1_dropShadow_1125_17249" result="shape"/>
</filter>
</defs>
</svg>
