<svg width="134" height="57" viewBox="0 0 134 57" fill="none" xmlns="http://www.w3.org/2000/svg">
<g filter="url(#filter0_i_393_3053)">
<path d="M1 14.263C1 8.48342 5.45991 3.69355 11.2282 3.33369C25.3959 2.44982 50.9867 1 66.4159 1C81.9319 1 108.295 2.46615 122.756 3.34853C128.532 3.701 133 8.49444 133 14.2817V42.7884C133 48.5467 128.56 53.3258 122.814 53.6982C109.136 54.5846 84.4693 56 66.4159 56C48.4708 56 24.5358 54.6015 11.1555 53.7142C5.41908 53.3338 1 48.56 1 42.811V14.263Z" fill="#1D3752"/>
</g>
<path d="M11.1971 2.83466C5.16274 3.21112 0.5 8.22188 0.5 14.263V42.811C0.5 48.8203 5.12026 53.8151 11.1224 54.2131C24.503 55.1004 48.4527 56.5 66.4159 56.5C84.4872 56.5 109.169 55.0835 122.846 54.1972C128.858 53.8076 133.5 48.8079 133.5 42.7884V14.2817C133.5 8.23274 128.829 3.21818 122.786 2.84946C108.328 1.96726 81.9498 0.5 66.4159 0.5C50.9685 0.5 25.3621 1.95095 11.1971 2.83466Z" stroke="white"/>
<path fill-rule="evenodd" clip-rule="evenodd" d="M6.42328 51.4505C8.07878 52.7443 10.1236 53.5693 12.3715 53.7196C25.644 54.6072 49.2948 55.9998 67.0361 55.9998C84.8855 55.9998 109.26 54.5902 122.828 53.7035C128.571 53.3281 133.004 48.5507 133.004 42.7952V14.275C133.004 11.7048 132.123 9.33054 130.637 7.45432C129.805 32.6083 108.07 61.9331 6.42328 51.4505Z" fill="#12273C"/>
<path d="M21.5 7.15283C22.3439 8.63016 16.9131 8.91746 13 11.1528C9.08685 13.3882 7.37197 16.549 6.52805 15.0717C5.68413 13.5943 8.17223 10.5846 12.0854 8.34923C15.9985 6.11386 20.6561 5.6755 21.5 7.15283Z" fill="#536B80"/>
<g filter="url(#filter1_d_393_3053)">
<path d="M27.5 31.94C27.4867 31.02 27.0333 30.0067 26.14 28.9C25.58 28.22 25.18 27.6267 24.94 27.12C24.7133 26.6 24.6 26.0467 24.6 25.46C24.6 24.74 24.7667 24.0867 25.1 23.5C25.4467 22.9133 25.9133 22.4533 26.5 22.12C27.0867 21.7733 27.74 21.6 28.46 21.6C29.4333 21.6 30.2867 21.9133 31.02 22.54C31.7533 23.1533 32.2067 23.9267 32.38 24.86L30.58 25.54C30.5267 25.4467 30.4867 25.36 30.46 25.28C30.4333 25.2 30.4 25.1267 30.36 25.06C30.2267 24.7667 30.02 24.5267 29.74 24.34C29.4733 24.14 29.1667 24.04 28.82 24.04C28.3533 24.04 27.9533 24.2067 27.62 24.54C27.3 24.86 27.14 25.2533 27.14 25.72C27.14 26.08 27.2133 26.42 27.36 26.74C27.52 27.0467 27.7733 27.4533 28.12 27.96C28.2133 28.08 28.34 28.26 28.5 28.5C28.8867 29.0733 29.1467 29.6133 29.28 30.12C29.4133 30.6267 29.4733 31.2333 29.46 31.94H27.5ZM28.5 36.3C28.06 36.3 27.68 36.1467 27.36 35.84C27.04 35.5333 26.88 35.1467 26.88 34.68C26.88 34.2533 27.0267 33.88 27.32 33.56C27.6267 33.24 28.02 33.08 28.5 33.08C28.94 33.08 29.3133 33.24 29.62 33.56C29.9267 33.8667 30.08 34.24 30.08 34.68C30.08 35.1067 29.92 35.4867 29.6 35.82C29.28 36.14 28.9133 36.3 28.5 36.3ZM38.5323 32.98C38.8257 32.98 39.059 32.8933 39.2323 32.72C39.419 32.5467 39.5123 32.3267 39.5123 32.06C39.5123 31.8733 39.4523 31.7133 39.3323 31.58C39.2257 31.4333 39.0257 31.26 38.7323 31.06L34.5323 28.18L36.1523 25.8L40.8323 29.04C41.339 29.4267 41.719 29.8533 41.9723 30.32C42.239 30.7733 42.3723 31.3267 42.3723 31.98C42.3723 32.7267 42.1857 33.4067 41.8123 34.02C41.4523 34.6333 40.959 35.12 40.3323 35.48C39.7057 35.8267 39.0257 36 38.2923 36H33.5323V32.98H38.5323ZM53.2439 32.98C53.3772 32.98 53.4439 33.0467 53.4439 33.18V35.8C53.4439 35.9333 53.3772 36 53.2439 36H52.3439C52.2372 36.92 51.9639 37.6933 51.5239 38.32C51.0972 38.9467 50.4772 39.5067 49.6639 40C48.8639 40.5067 47.7439 41.0667 46.3039 41.68L45.4039 39.14C46.5906 38.6333 47.4706 38.22 48.0439 37.9C48.6306 37.58 49.0306 37.28 49.2439 37C49.4572 36.72 49.5639 36.3867 49.5639 36H48.2639C47.4639 36 46.7306 35.82 46.0639 35.46C45.3972 35.1 44.8639 34.6067 44.4639 33.98C44.0772 33.34 43.8839 32.6267 43.8839 31.84C43.8839 31.04 44.0772 30.3067 44.4639 29.64C44.8639 28.9733 45.3972 28.4467 46.0639 28.06C46.7306 27.66 47.4639 27.46 48.2639 27.46C49.0372 27.46 49.7439 27.66 50.3839 28.06C51.0239 28.4467 51.5239 28.9733 51.8839 29.64C52.2439 30.3067 52.4239 31.04 52.4239 31.84V32.98H53.2439ZM49.5639 31.82C49.5639 31.4333 49.4372 31.1133 49.1839 30.86C48.9439 30.6067 48.6372 30.48 48.2639 30.48C47.8772 30.48 47.5506 30.6067 47.2839 30.86C47.0306 31.1133 46.9039 31.4333 46.9039 31.82C46.9039 32.2067 47.0306 32.5267 47.2839 32.78C47.5506 33.0333 47.8772 33.16 48.2639 33.16H49.5639V31.82ZM53.2383 36C53.1049 36 53.0383 35.9333 53.0383 35.8V33.18C53.0383 33.0467 53.1049 32.98 53.2383 32.98H54.3183C54.5716 32.98 54.7849 32.8867 54.9583 32.7C55.1449 32.5133 55.2383 32.2933 55.2383 32.04V27.94H58.0983V32.22C58.0983 32.9 57.9316 33.5333 57.5983 34.12C57.2649 34.6933 56.8116 35.1533 56.2383 35.5C55.6649 35.8333 55.0316 36 54.3383 36H53.2383ZM53.2183 37.7H55.7983V40.26H53.2183V37.7ZM67.8441 25.96H70.4041V28.54H67.8441V25.96ZM71.4441 25.96H74.0041V28.54H71.4441V25.96ZM65.9641 28.54V30.78C65.9641 31.38 66.1774 31.9 66.6041 32.34C67.0307 32.7667 67.5441 32.98 68.1441 32.98H74.5041C74.8907 32.98 75.2041 32.8533 75.4441 32.6C75.6974 32.3333 75.8241 32.0067 75.8241 31.62V28.54H78.7041V32.04C78.7041 32.3067 78.7907 32.5333 78.9641 32.72C79.1374 32.8933 79.3574 32.98 79.6241 32.98H80.4641C80.5974 32.98 80.6641 33.0467 80.6641 33.18V35.8C80.6641 35.9333 80.5974 36 80.4641 36H79.6241C78.5974 36 77.7774 35.6333 77.1641 34.9C76.4574 35.6333 75.5707 36 74.5041 36H68.1441C67.2241 36 66.3774 35.7733 65.6041 35.32C64.8307 34.8667 64.2174 34.2533 63.7641 33.48C63.3107 32.7067 63.0841 31.86 63.0841 30.94V28.54H65.9641ZM94.3248 27.94V36H90.7248C89.7648 36 88.9915 35.6533 88.4048 34.96C87.8315 35.68 87.0382 36.04 86.0248 36.04C85.0248 36.04 84.2382 35.6867 83.6648 34.98C83.0915 35.66 82.3048 36 81.3048 36H80.4648C80.3315 36 80.2648 35.9333 80.2648 35.8V33.18C80.2648 33.0467 80.3315 32.98 80.4648 32.98H81.3048C81.5715 32.98 81.7915 32.8933 81.9648 32.72C82.1515 32.5333 82.2448 32.3067 82.2448 32.04V28.54H85.1048V32.08C85.1048 32.3467 85.1915 32.5733 85.3648 32.76C85.5382 32.9333 85.7582 33.02 86.0248 33.02C86.2915 33.02 86.5115 32.9333 86.6848 32.76C86.8582 32.5733 86.9448 32.3467 86.9448 32.08V28.54H89.8248V32.04C89.8248 32.3067 89.9115 32.5333 90.0848 32.72C90.2582 32.8933 90.4715 32.98 90.7248 32.98H91.4448V27.94H94.3248ZM92.9442 39.26C93.8909 38.7133 94.5642 38.2733 94.9642 37.94C95.3642 37.6067 95.6309 37.2467 95.7642 36.86C95.8976 36.4733 95.9642 35.9133 95.9642 35.18V28.54H98.8442V35.18C98.8442 36.3 98.7042 37.22 98.4242 37.94C98.1442 38.66 97.6642 39.3 96.9842 39.86C96.3042 40.4333 95.3176 41.04 94.0242 41.68L92.9442 39.26ZM105.427 32.98C105.72 32.98 105.954 32.8933 106.127 32.72C106.314 32.5467 106.407 32.3267 106.407 32.06C106.407 31.8733 106.347 31.7133 106.227 31.58C106.12 31.4333 105.92 31.26 105.627 31.06L101.427 28.18L103.047 25.8L107.727 29.04C108.234 29.4267 108.614 29.8533 108.867 30.32C109.134 30.7733 109.267 31.3267 109.267 31.98C109.267 32.7267 109.08 33.4067 108.707 34.02C108.347 34.6333 107.854 35.12 107.227 35.48C106.6 35.8267 105.92 36 105.187 36H100.427V32.98H105.427Z" fill="#E6E8EA"/>
</g>
<defs>
<filter id="filter0_i_393_3053" x="0" y="0" width="134.5" height="57.5" filterUnits="userSpaceOnUse" color-interpolation-filters="sRGB">
<feFlood flood-opacity="0" result="BackgroundImageFix"/>
<feBlend mode="normal" in="SourceGraphic" in2="BackgroundImageFix" result="shape"/>
<feColorMatrix in="SourceAlpha" type="matrix" values="0 0 0 0 0 0 0 0 0 0 0 0 0 0 0 0 0 0 127 0" result="hardAlpha"/>
<feOffset dx="2" dy="2"/>
<feGaussianBlur stdDeviation="0.25"/>
<feComposite in2="hardAlpha" operator="arithmetic" k2="-1" k3="1"/>
<feColorMatrix type="matrix" values="0 0 0 0 0 0 0 0 0 0 0 0 0 0 0 0 0 0 0.25 0"/>
<feBlend mode="normal" in2="shape" result="effect1_innerShadow_393_3053"/>
</filter>
<filter id="filter1_d_393_3053" x="24.6" y="21.6" width="86.6669" height="22.08" filterUnits="userSpaceOnUse" color-interpolation-filters="sRGB">
<feFlood flood-opacity="0" result="BackgroundImageFix"/>
<feColorMatrix in="SourceAlpha" type="matrix" values="0 0 0 0 0 0 0 0 0 0 0 0 0 0 0 0 0 0 127 0" result="hardAlpha"/>
<feOffset dx="2" dy="2"/>
<feComposite in2="hardAlpha" operator="out"/>
<feColorMatrix type="matrix" values="0 0 0 0 0 0 0 0 0 0 0 0 0 0 0 0 0 0 0.25 0"/>
<feBlend mode="normal" in2="BackgroundImageFix" result="effect1_dropShadow_393_3053"/>
<feBlend mode="normal" in="SourceGraphic" in2="effect1_dropShadow_393_3053" result="shape"/>
</filter>
</defs>
</svg>
