<svg width="300" height="240" viewBox="0 0 300 145" fill="none" xmlns="http://www.w3.org/2000/svg">
<rect x="1.5" y="1.5" width="297" height="142" rx="25.5" fill="#031A30"/>
<rect x="1.5" y="1.5" width="297" height="142" rx="25.5" stroke="#B1B8BF" stroke-width="3"/>
<mask id="mask0_393_3026" style="mask-type:alpha" maskUnits="userSpaceOnUse" x="3" y="22" width="294" height="120">
<rect x="4.5" y="23.8758" width="291" height="116.443" rx="22.5" fill="#031A30"/>
<rect x="4.5" y="23.8758" width="291" height="116.443" rx="22.5" stroke="#B1B8BF" stroke-width="3"/>
</mask>
<g mask="url(#mask0_393_3026)">
<path d="M255 92.3606C286.2 74.129 300.667 40.5858 304 26.0932L374.5 134.707C351 143.004 298.4 160.083 276 162.022C253.6 163.962 77.3333 155.827 -8 151.516L-49.5 134.707C-14.1667 136 70.2 137.81 125 134.707C193.5 130.828 216 115.15 255 92.3606Z" fill="#021425"/>
</g>
<path d="M46.7399 13.8738C48.3122 16.6261 38.1945 17.1613 30.9042 21.3259C23.6139 25.4905 20.419 31.3791 18.8468 28.6268C17.2746 25.8745 21.91 20.2673 29.2002 16.1027C36.4905 11.9382 45.1677 11.1215 46.7399 13.8738Z" fill="#092B4B"/>
<path d="M46.7399 13.8738C48.3122 16.6261 38.1945 17.1613 30.9042 21.3259C23.6139 25.4905 20.419 31.3791 18.8468 28.6268C17.2746 25.8745 21.91 20.2673 29.2002 16.1027C36.4905 11.9382 45.1677 11.1215 46.7399 13.8738Z" fill="#1D3E5E"/>
<circle cx="16" cy="36" r="3" fill="#092B4B"/>
<circle cx="16" cy="36" r="3" fill="#1D3E5E"/>
</svg>
