<svg width="134" height="57" viewBox="0 0 134 57" fill="none" xmlns="http://www.w3.org/2000/svg">
<g filter="url(#filter0_i_1211_12921)">
<path d="M1 14.263C1 8.48342 5.45991 3.69355 11.2282 3.33369C25.3959 2.44982 50.9867 1 66.4159 1C81.9319 1 108.295 2.46615 122.756 3.34853C128.532 3.701 133 8.49444 133 14.2817V42.7884C133 48.5467 128.56 53.3258 122.814 53.6982C109.136 54.5846 84.4693 56 66.4159 56C48.4708 56 24.5358 54.6015 11.1555 53.7142C5.41908 53.3338 1 48.56 1 42.811V14.263Z" fill="#354859"/>
</g>
<path d="M11.1971 2.83466C5.16274 3.21112 0.5 8.22188 0.5 14.263V42.811C0.5 48.8203 5.12026 53.8151 11.1224 54.2131C24.503 55.1004 48.4527 56.5 66.4159 56.5C84.4872 56.5 109.169 55.0835 122.846 54.1972C128.858 53.8076 133.5 48.8079 133.5 42.7884V14.2817C133.5 8.23274 128.829 3.21818 122.786 2.84946C108.328 1.96726 81.9498 0.5 66.4159 0.5C50.9685 0.5 25.3621 1.95095 11.1971 2.83466Z" stroke="white"/>
<g filter="url(#filter1_d_1211_12921)">
<path d="M34.74 28.94H32.78L32.14 18.76H35.38L34.74 28.94ZM33.76 33.3C33.3467 33.3 32.9733 33.14 32.64 32.82C32.32 32.4867 32.16 32.1067 32.16 31.68C32.16 31.24 32.3133 30.8667 32.62 30.56C32.9267 30.24 33.3067 30.08 33.76 30.08C34.24 30.08 34.6267 30.24 34.92 30.56C35.2133 30.88 35.36 31.2533 35.36 31.68C35.36 32.1467 35.2 32.5333 34.88 32.84C34.56 33.1467 34.1867 33.3 33.76 33.3ZM42.5269 37.5C41.6069 37.5 40.7602 37.2733 39.9869 36.82C39.2135 36.3667 38.6002 35.7533 38.1469 34.98C37.6935 34.2067 37.4669 33.36 37.4669 32.44V27.58H40.3469V32.28C40.3469 32.88 40.5602 33.3933 40.9869 33.82C41.4135 34.26 41.9269 34.48 42.5269 34.48H47.1069C47.4269 34.48 47.6869 34.3733 47.8869 34.16C48.0869 33.96 48.1869 33.7 48.1869 33.38C48.1869 33.14 48.1135 32.92 47.9669 32.72C47.8202 32.52 47.6202 32.3933 47.3669 32.34L42.2069 31.16V28.54C42.2069 27.78 42.4002 27.0733 42.7869 26.42C43.1869 25.7533 43.7202 25.2267 44.3869 24.84C45.0669 24.4533 45.7935 24.26 46.5669 24.26H50.2869V27.12H46.5269C46.1402 27.12 45.8002 27.2667 45.5069 27.56C45.2269 27.84 45.0869 28.1733 45.0869 28.56V28.88C46.3135 29.1467 47.1135 29.3267 47.4869 29.42L48.2869 29.6C49.1269 29.8533 49.8135 30.34 50.3469 31.06C50.8802 31.78 51.1469 32.5867 51.1469 33.48C51.1469 34.2133 50.9669 34.8867 50.6069 35.5C50.2469 36.1133 49.7535 36.6 49.1269 36.96C48.5135 37.32 47.8402 37.5 47.1069 37.5H42.5269ZM53.7389 21.26H56.2989V23.84H53.7389V21.26ZM51.2989 36.58C52.0056 36.02 52.5122 35.54 52.8189 35.14C53.1389 34.74 53.3456 34.3333 53.4389 33.92C53.5322 33.5067 53.5789 32.9267 53.5789 32.18V25.54H56.4389V32.18C56.4389 33.26 56.3322 34.1467 56.1189 34.84C55.9189 35.5333 55.5722 36.1667 55.0789 36.74C54.5856 37.3133 53.8589 37.96 52.8989 38.68L51.2989 36.58ZM61.8909 33C61.1976 33 60.5643 32.8333 59.9909 32.5C59.4176 32.1533 58.9643 31.6933 58.6309 31.12C58.2976 30.5333 58.1309 29.9 58.1309 29.22V19.52H61.0109V29.04C61.0109 29.3067 61.0976 29.5333 61.2709 29.72C61.4443 29.8933 61.6576 29.98 61.9109 29.98H63.0109C63.1443 29.98 63.2109 30.0467 63.2109 30.18V32.8C63.2109 32.9333 63.1443 33 63.0109 33H61.8909ZM63.0117 33C62.8784 33 62.8117 32.9333 62.8117 32.8V30.18C62.8117 30.0467 62.8784 29.98 63.0117 29.98H64.0917C64.3451 29.98 64.5584 29.8867 64.7317 29.7C64.9184 29.5133 65.0117 29.2933 65.0117 29.04V24.94H67.8717V29.22C67.8717 29.9 67.7051 30.5333 67.3717 31.12C67.0384 31.6933 66.5851 32.1533 66.0117 32.5C65.4384 32.8333 64.8051 33 64.1117 33H63.0117ZM62.9917 34.7H65.5717V37.26H62.9917V34.7ZM87.6775 29.98C87.8108 29.98 87.8775 30.0467 87.8775 30.18V32.8C87.8775 32.9333 87.8108 33 87.6775 33H86.8175C85.8175 33 85.0242 32.64 84.4375 31.92C84.0375 32.28 83.5842 32.56 83.0775 32.76C82.5842 32.9467 82.0642 33.04 81.5175 33.04C80.7308 33.04 80.0175 32.8467 79.3775 32.46C78.7508 32.06 78.2575 31.5267 77.8975 30.86C77.5375 30.1933 77.3575 29.46 77.3575 28.66V27.36H76.9575C76.6242 27.36 76.3375 27.4867 76.0975 27.74C75.8575 27.98 75.7375 28.2667 75.7375 28.6V38.02H72.8575V28.6C72.8575 27.8667 73.0375 27.1867 73.3975 26.56C73.7708 25.9333 74.2708 25.4333 74.8975 25.06C75.5242 24.6867 76.2042 24.5 76.9375 24.5H81.5175C82.3175 24.5 83.0508 24.68 83.7175 25.04C84.3842 25.4 84.9108 25.9 85.2975 26.54C85.6975 27.1667 85.8975 27.8733 85.8975 28.66V29.04C85.8975 29.3067 85.9842 29.5333 86.1575 29.72C86.3308 29.8933 86.5508 29.98 86.8175 29.98H87.6775ZM81.5175 30.02C81.9042 30.02 82.2242 29.8933 82.4775 29.64C82.7442 29.3733 82.8775 29.0467 82.8775 28.66C82.8775 28.2867 82.7442 27.9733 82.4775 27.72C82.2242 27.4667 81.9042 27.34 81.5175 27.34H80.1975V28.66C80.1975 29.0467 80.3242 29.3733 80.5775 29.64C80.8308 29.8933 81.1442 30.02 81.5175 30.02ZM87.6797 33C87.5464 33 87.4797 32.9333 87.4797 32.8V30.18C87.4797 30.0467 87.5464 29.98 87.6797 29.98H92.4997C92.753 29.98 92.9664 29.8867 93.1397 29.7C93.3264 29.5133 93.4197 29.2933 93.4197 29.04V24.94H96.2797V29.22C96.2797 29.9 96.1064 30.5333 95.7597 31.12C95.4264 31.6933 94.973 32.1533 94.3997 32.5C93.8264 32.8333 93.1997 33 92.5197 33H87.6797ZM87.8597 34.72H90.4397V37.28H87.8597V34.72ZM91.4597 34.72H94.0197V37.28H91.4597V34.72ZM102.682 29.98C102.816 29.98 102.882 30.0467 102.882 30.18V32.8C102.882 32.9333 102.816 33 102.682 33H101.842C101.496 33 101.182 32.96 100.902 32.88C100.849 33.8133 100.669 34.6 100.362 35.24C100.056 35.8933 99.569 36.48 98.9023 37C98.2357 37.5333 97.3023 38.0933 96.1023 38.68L95.0223 36.26C95.969 35.7133 96.6423 35.2733 97.0423 34.94C97.4423 34.6067 97.709 34.2467 97.8423 33.86C97.9757 33.4733 98.0423 32.9133 98.0423 32.18V25.54H100.922V29.04C100.922 29.3067 101.009 29.5333 101.182 29.72C101.356 29.8933 101.576 29.98 101.842 29.98H102.682ZM102.68 33C102.546 33 102.48 32.9333 102.48 32.8V30.18C102.48 30.0467 102.546 29.98 102.68 29.98H103.76C104.013 29.98 104.226 29.8867 104.4 29.7C104.586 29.5133 104.68 29.2933 104.68 29.04V24.94H107.54V29.22C107.54 29.9 107.373 30.5333 107.04 31.12C106.706 31.6933 106.253 32.1533 105.68 32.5C105.106 32.8333 104.473 33 103.78 33H102.68ZM102.66 34.7H105.24V37.26H102.66V34.7Z" fill="#E6E8EA"/>
</g>
<path fill-rule="evenodd" clip-rule="evenodd" d="M6.42334 51.4505C8.07884 52.7443 10.1237 53.5693 12.3716 53.7197C25.6441 54.6072 49.2948 55.9998 67.0362 55.9998C84.8856 55.9998 109.26 54.5902 122.828 53.7035C128.571 53.3281 133.004 48.5507 133.004 42.7953V14.275C133.004 11.7048 132.123 9.33057 130.637 7.45435C129.805 32.6084 108.07 61.9332 6.42334 51.4505Z" fill="#283643"/>
<path d="M21.5 7.15283C22.3439 8.63016 16.9131 8.91746 13 11.1528C9.08685 13.3882 7.37197 16.549 6.52805 15.0717C5.68413 13.5943 8.17223 10.5846 12.0854 8.34923C15.9985 6.11386 20.6561 5.6755 21.5 7.15283Z" fill="#536B80"/>
<defs>
<filter id="filter0_i_1211_12921" x="0" y="0" width="134.5" height="57.5" filterUnits="userSpaceOnUse" color-interpolation-filters="sRGB">
<feFlood flood-opacity="0" result="BackgroundImageFix"/>
<feBlend mode="normal" in="SourceGraphic" in2="BackgroundImageFix" result="shape"/>
<feColorMatrix in="SourceAlpha" type="matrix" values="0 0 0 0 0 0 0 0 0 0 0 0 0 0 0 0 0 0 127 0" result="hardAlpha"/>
<feOffset dx="2" dy="2"/>
<feGaussianBlur stdDeviation="0.25"/>
<feComposite in2="hardAlpha" operator="arithmetic" k2="-1" k3="1"/>
<feColorMatrix type="matrix" values="0 0 0 0 0 0 0 0 0 0 0 0 0 0 0 0 0 0 0.25 0"/>
<feBlend mode="normal" in2="shape" result="effect1_innerShadow_1211_12921"/>
</filter>
<filter id="filter1_d_1211_12921" x="32.1401" y="18.76" width="77.3994" height="21.9199" filterUnits="userSpaceOnUse" color-interpolation-filters="sRGB">
<feFlood flood-opacity="0" result="BackgroundImageFix"/>
<feColorMatrix in="SourceAlpha" type="matrix" values="0 0 0 0 0 0 0 0 0 0 0 0 0 0 0 0 0 0 127 0" result="hardAlpha"/>
<feOffset dx="2" dy="2"/>
<feComposite in2="hardAlpha" operator="out"/>
<feColorMatrix type="matrix" values="0 0 0 0 0 0 0 0 0 0 0 0 0 0 0 0 0 0 0.25 0"/>
<feBlend mode="normal" in2="BackgroundImageFix" result="effect1_dropShadow_1211_12921"/>
<feBlend mode="normal" in="SourceGraphic" in2="effect1_dropShadow_1211_12921" result="shape"/>
</filter>
</defs>
</svg>
