<svg width="115" height="57" viewBox="0 0 115 57" fill="none" xmlns="http://www.w3.org/2000/svg">
<g filter="url(#filter0_i_229_4940)">
<path d="M1 14.1442C1 8.41378 5.386 3.64766 11.1016 3.23622C23.4489 2.34741 44.2667 1 57 1C69.8115 1 91.2617 2.364 103.876 3.25254C109.601 3.65583 114 8.42641 114 14.1658V42.915C114 48.6208 109.645 53.3737 103.955 53.7977C92.0303 54.6865 71.8881 56 57 56C42.2159 56 22.6827 54.7048 11.0243 53.8164C5.34585 53.3838 1 48.636 1 42.9411V14.1442Z" fill="#354859"/>
</g>
<path d="M11.0657 2.73751C5.08549 3.168 0.5 8.15466 0.5 14.1442V42.9411C0.5 48.894 5.04384 53.8622 10.9863 54.315C22.6454 55.2034 42.1952 56.5 57 56.5C71.9086 56.5 92.0672 55.1851 103.992 54.2964C109.946 53.8526 114.5 48.879 114.5 42.915V14.1658C114.5 8.16685 109.901 3.17571 103.911 2.75377C91.2999 1.86545 69.8321 0.5 57 0.5C44.2458 0.5 23.4102 1.8489 11.0657 2.73751Z" stroke="white"/>
<g filter="url(#filter1_d_229_4940)">
<path d="M23.26 28.18H21.84L21.38 18.14H23.7L23.26 28.18ZM22.56 32.22C22.2267 32.22 21.9267 32.0933 21.66 31.84C21.4067 31.5733 21.28 31.2667 21.28 30.92C21.28 30.5733 21.4 30.2733 21.64 30.02C21.8933 29.7667 22.2 29.64 22.56 29.64C22.9333 29.64 23.24 29.7667 23.48 30.02C23.72 30.2733 23.84 30.5733 23.84 30.92C23.84 31.28 23.7067 31.5867 23.44 31.84C23.1867 32.0933 22.8933 32.22 22.56 32.22ZM40.9972 29.82C41.1305 29.82 41.1972 29.8867 41.1972 30.02V31.8C41.1972 31.9333 41.1305 32 40.9972 32H40.0972C39.5639 32 39.0839 31.8867 38.6572 31.66C38.2439 31.4333 37.8972 31.1133 37.6172 30.7C37.2439 31.1133 36.7972 31.44 36.2772 31.68C35.7572 31.92 35.2039 32.04 34.6172 32.04C33.8839 32.04 33.2172 31.86 32.6172 31.5C32.0305 31.14 31.5639 30.6467 31.2172 30.02C30.8839 29.3933 30.7172 28.7133 30.7172 27.98V26.14H30.0572C29.6039 26.14 29.2172 26.3 28.8972 26.62C28.5772 26.94 28.4172 27.32 28.4172 27.76V37H26.3572V27.76C26.3572 27.0933 26.5239 26.48 26.8572 25.92C27.1905 25.3467 27.6372 24.9 28.1972 24.58C28.7705 24.2467 29.3905 24.08 30.0572 24.08H34.6172C35.3505 24.08 36.0305 24.2533 36.6572 24.6C37.2839 24.9333 37.7772 25.4 38.1372 26C38.4972 26.6 38.6772 27.26 38.6772 27.98V28.4C38.6772 28.8 38.8172 29.14 39.0972 29.42C39.3772 29.6867 39.7105 29.82 40.0972 29.82H40.9972ZM34.6172 29.86C35.1505 29.86 35.5972 29.68 35.9572 29.32C36.3172 28.96 36.4972 28.5133 36.4972 27.98C36.4972 27.46 36.3172 27.02 35.9572 26.66C35.5972 26.3 35.1505 26.12 34.6172 26.12H32.7572V27.98C32.7572 28.5133 32.9372 28.96 33.2972 29.32C33.6572 29.68 34.0972 29.86 34.6172 29.86ZM40.9961 32C40.8628 32 40.7961 31.9333 40.7961 31.8V30.02C40.7961 29.8867 40.8628 29.82 40.9961 29.82H45.1361C45.5361 29.82 45.8761 29.68 46.1561 29.4C46.4361 29.12 46.5761 28.78 46.5761 28.38V24.58H48.6161V28.5C48.6161 29.14 48.4628 29.7267 48.1561 30.26C47.8494 30.7933 47.4294 31.22 46.8961 31.54C46.3628 31.8467 45.7761 32 45.1361 32H40.9961ZM41.3561 33.82H43.3961V35.86H41.3561V33.82ZM44.4361 33.82H46.4761V35.86H44.4361V33.82ZM55.2413 29.82C55.3746 29.82 55.4413 29.8867 55.4413 30.02V31.8C55.4413 31.9333 55.3746 32 55.2413 32H54.3413C53.7946 32 53.3213 31.88 52.9213 31.64C52.9079 32.6267 52.7479 33.44 52.4413 34.08C52.1479 34.7333 51.6813 35.3067 51.0413 35.8C50.4146 36.2933 49.5146 36.82 48.3413 37.38L47.5612 35.66C48.5346 35.1133 49.2279 34.68 49.6413 34.36C50.0679 34.0533 50.3746 33.68 50.5613 33.24C50.7613 32.8133 50.8613 32.2267 50.8613 31.48V25.18H52.9213V28.4C52.9213 28.8 53.0546 29.14 53.3213 29.42C53.6013 29.6867 53.9413 29.82 54.3413 29.82H55.2413ZM55.2344 32C55.101 32 55.0344 31.9333 55.0344 31.8V30.02C55.0344 29.8867 55.101 29.82 55.2344 29.82H56.2144C56.601 29.82 56.9344 29.68 57.2144 29.4C57.4944 29.12 57.6344 28.78 57.6344 28.38V24.58H59.6944V28.5C59.6944 29.14 59.541 29.7267 59.2344 30.26C58.9277 30.7933 58.5077 31.22 57.9744 31.54C57.441 31.8467 56.8544 32 56.2144 32H55.2344ZM55.2344 33.8H57.2744V35.84H55.2344V33.8ZM70.6531 23.78H72.6931V25.82H70.6531V23.78ZM71.6931 35.72C70.6131 35.72 69.6131 35.4467 68.6931 34.9C67.7731 34.3667 67.0398 33.64 66.4931 32.72C65.9598 31.8 65.6931 30.8 65.6931 29.72V25.98H67.7531V29.6C67.7531 30.32 67.9265 30.9867 68.2731 31.6C68.6331 32.2 69.1131 32.6733 69.7131 33.02C70.3265 33.38 70.9865 33.56 71.6931 33.56C72.4131 33.56 73.0731 33.38 73.6731 33.02C74.2865 32.6733 74.7665 32.2 75.1131 31.6C75.4731 30.9867 75.6531 30.32 75.6531 29.6V25.18H77.7131V29.72C77.7131 30.8 77.4398 31.8 76.8931 32.72C76.3598 33.64 75.6331 34.3667 74.7131 34.9C73.7931 35.4467 72.7865 35.72 71.6931 35.72ZM82.6109 21.36V23.38H80.5909V21.36H82.6109ZM84.9509 29.82C85.0843 29.82 85.1509 29.8867 85.1509 30.02V31.8C85.1509 31.9333 85.0843 32 84.9509 32H84.0509C83.4909 32 83.0109 31.88 82.6109 31.64C82.5976 32.5867 82.4909 33.3733 82.2909 34C82.1043 34.6267 81.7843 35.1933 81.3309 35.7C80.8776 36.22 80.2109 36.78 79.3309 37.38L78.1909 35.86C78.9109 35.34 79.4309 34.8867 79.7509 34.5C80.0843 34.1133 80.2976 33.7 80.3909 33.26C80.4976 32.8333 80.5509 32.24 80.5509 31.48V25.18H82.6109V28.4C82.6109 28.8 82.7509 29.14 83.0309 29.42C83.3109 29.6867 83.6509 29.82 84.0509 29.82H84.9509ZM84.9414 32C84.8081 32 84.7414 31.9333 84.7414 31.8V30.02C84.7414 29.8867 84.8081 29.82 84.9414 29.82H85.9214C86.3081 29.82 86.6414 29.68 86.9214 29.4C87.2014 29.12 87.3414 28.78 87.3414 28.38V24.58H89.4014V28.5C89.4014 29.14 89.2481 29.7267 88.9414 30.26C88.6347 30.7933 88.2147 31.22 87.6814 31.54C87.1481 31.8467 86.5614 32 85.9214 32H84.9414ZM84.9414 33.8H86.9814V35.84H84.9414V33.8Z" fill="#E6E8EA"/>
</g>
<path fill-rule="evenodd" clip-rule="evenodd" d="M5.12891 51.5102C6.76622 52.8093 8.79248 53.6462 11.0247 53.8163C22.6831 54.7046 42.2163 55.9998 57.0004 55.9998C71.8885 55.9998 92.0306 54.6863 103.955 53.7976C109.645 53.3735 114 48.6206 114 42.9149V14.1656C114 11.7819 113.242 9.5653 111.944 7.75928C111.084 32.7964 92.1729 61.7795 5.12891 51.5102Z" fill="#283643"/>
<path d="M21.5 8.15283C22.3439 9.63016 16.9131 9.91746 13 12.1528C9.08685 14.3882 7.37197 17.549 6.52805 16.0717C5.68413 14.5943 8.17223 11.5846 12.0854 9.34923C15.9985 7.11386 20.6561 6.6755 21.5 8.15283Z" fill="#546B81"/>
<defs>
<filter id="filter0_i_229_4940" x="0" y="0" width="115.5" height="57.5" filterUnits="userSpaceOnUse" color-interpolation-filters="sRGB">
<feFlood flood-opacity="0" result="BackgroundImageFix"/>
<feBlend mode="normal" in="SourceGraphic" in2="BackgroundImageFix" result="shape"/>
<feColorMatrix in="SourceAlpha" type="matrix" values="0 0 0 0 0 0 0 0 0 0 0 0 0 0 0 0 0 0 127 0" result="hardAlpha"/>
<feOffset dx="2" dy="2"/>
<feGaussianBlur stdDeviation="0.25"/>
<feComposite in2="hardAlpha" operator="arithmetic" k2="-1" k3="1"/>
<feColorMatrix type="matrix" values="0 0 0 0 0 0 0 0 0 0 0 0 0 0 0 0 0 0 0.25 0"/>
<feBlend mode="normal" in2="shape" result="effect1_innerShadow_229_4940"/>
</filter>
<filter id="filter1_d_229_4940" x="21.28" y="18.14" width="70.1213" height="21.24" filterUnits="userSpaceOnUse" color-interpolation-filters="sRGB">
<feFlood flood-opacity="0" result="BackgroundImageFix"/>
<feColorMatrix in="SourceAlpha" type="matrix" values="0 0 0 0 0 0 0 0 0 0 0 0 0 0 0 0 0 0 127 0" result="hardAlpha"/>
<feOffset dx="2" dy="2"/>
<feComposite in2="hardAlpha" operator="out"/>
<feColorMatrix type="matrix" values="0 0 0 0 0 0 0 0 0 0 0 0 0 0 0 0 0 0 0.25 0"/>
<feBlend mode="normal" in2="BackgroundImageFix" result="effect1_dropShadow_229_4940"/>
<feBlend mode="normal" in="SourceGraphic" in2="effect1_dropShadow_229_4940" result="shape"/>
</filter>
</defs>
</svg>
