<svg width="308" height="444" viewBox="0 0 308 444" fill="none" xmlns="http://www.w3.org/2000/svg">
<g filter="url(#filter0_d_449_3491)">
<rect x="5.5" y="1.5" width="297" height="433" rx="25.5" fill="#031A30"/>
<rect x="5.5" y="1.5" width="297" height="433" rx="25.5" stroke="#B1B8BF" stroke-width="3"/>
<mask id="mask0_449_3491" style="mask-type:alpha" maskUnits="userSpaceOnUse" x="7" y="63" width="294" height="370">
<rect x="8.5" y="64.5" width="291" height="366.5" rx="22.5" fill="#031A30"/>
<rect x="8.5" y="64.5" width="291" height="366.5" rx="22.5" stroke="#B1B8BF" stroke-width="3"/>
</mask>
<g mask="url(#mask0_449_3491)">
<path d="M259 279.5C290.2 223.1 304.667 119.333 308 74.5L378.5 410.5C355 436.167 302.4 489 280 495C257.6 501 81.3333 475.833 -4 462.5L-45.5 410.5C-10.1667 414.5 74.2 420.1 129 410.5C197.5 398.5 220 350 259 279.5Z" fill="#021425"/>
</g>
<path d="M50.7399 13.8738C52.3122 16.6261 42.1945 17.1613 34.9042 21.3259C27.6139 25.4905 24.419 31.3791 22.8468 28.6268C21.2746 25.8745 25.91 20.2673 33.2002 16.1027C40.4905 11.9382 49.1677 11.1215 50.7399 13.8738Z" fill="#092B4B"/>
<path d="M50.7399 13.8738C52.3122 16.6261 42.1945 17.1613 34.9042 21.3259C27.6139 25.4905 24.419 31.3791 22.8468 28.6268C21.2746 25.8745 25.91 20.2673 33.2002 16.1027C40.4905 11.9382 49.1677 11.1215 50.7399 13.8738Z" fill="#1D3E5E"/>
<circle cx="20" cy="36" r="3" fill="#092B4B"/>
<circle cx="20" cy="36" r="3" fill="#1D3E5E"/>
</g>
<defs>
<filter id="filter0_d_449_3491" x="0" y="0" width="308" height="444" filterUnits="userSpaceOnUse" color-interpolation-filters="sRGB">
<feFlood flood-opacity="0" result="BackgroundImageFix"/>
<feColorMatrix in="SourceAlpha" type="matrix" values="0 0 0 0 0 0 0 0 0 0 0 0 0 0 0 0 0 0 127 0" result="hardAlpha"/>
<feOffset dy="4"/>
<feGaussianBlur stdDeviation="2"/>
<feComposite in2="hardAlpha" operator="out"/>
<feColorMatrix type="matrix" values="0 0 0 0 0 0 0 0 0 0 0 0 0 0 0 0 0 0 0.25 0"/>
<feBlend mode="normal" in2="BackgroundImageFix" result="effect1_dropShadow_449_3491"/>
<feBlend mode="normal" in="SourceGraphic" in2="effect1_dropShadow_449_3491" result="shape"/>
</filter>
</defs>
</svg>
