<svg width="334" height="448" viewBox="0 0 334 448" fill="none" xmlns="http://www.w3.org/2000/svg">
<g filter="url(#filter0_d_952_7200)">
<rect x="34" y="64" width="266" height="350" rx="24" fill="#031A30" shape-rendering="crispEdges"/>
<rect x="32.5" y="62.5" width="269" height="353" rx="25.5" stroke="#B1B8BF" stroke-width="3" shape-rendering="crispEdges"/>
<mask id="mask0_952_7200" style="mask-type:alpha" maskUnits="userSpaceOnUse" x="34" y="297" width="266" height="117">
<rect x="35.5" y="299.337" width="263" height="113.006" rx="22.5" fill="#031A30"/>
<rect x="35.5" y="299.337" width="263" height="113.006" rx="22.5" stroke="#B1B8BF" stroke-width="3"/>
</mask>
<g mask="url(#mask0_952_7200)">
<path d="M262 365.808C290.229 348.101 303.318 315.523 306.334 301.448H535.239C513.977 309.506 512.077 451.674 491.81 453.558C471.543 455.442 53.3021 468.419 -23.9043 464.233L-13.4995 406.936C18.4687 408.192 94.8005 409.95 144.381 406.936C206.358 403.169 226.715 387.942 262 365.808Z" fill="#021425"/>
</g>
<circle cx="47" cy="97" r="3" fill="#092B4B"/>
<circle cx="47" cy="97" r="3" fill="#1D3E5E"/>
<g filter="url(#filter1_d_952_7200)">
<path d="M195.523 40.9295C196.029 37.6547 199.094 35.4105 202.369 35.9168L250.044 43.2883C254.886 44.0369 256.838 49.9588 253.39 53.4398L244.231 62.689C242.458 64.4787 241.993 67.1849 243.064 69.4642L249.426 82.9915C251.471 87.3403 247.829 92.2087 243.079 91.4743L194.93 84.0295C191.655 83.5232 189.411 80.4579 189.917 77.1831L195.523 40.9295Z" fill="#354859"/>
<path d="M202.293 36.411L249.968 43.7824C254.406 44.4687 256.195 49.897 253.035 53.088L243.876 62.3371C241.955 64.276 241.451 67.2077 242.612 69.677L248.973 83.2043C250.848 87.1907 247.509 91.6533 243.156 90.9802L195.006 83.5354C192.004 83.0712 189.947 80.2614 190.411 77.2595L196.017 41.0059C196.481 38.004 199.291 35.9468 202.293 36.411Z" stroke="#E6E8EA"/>
</g>
<g filter="url(#filter2_d_952_7200)">
<path d="M138.142 41.9295C137.636 38.6547 134.57 36.4105 131.296 36.9168L83.6205 44.2883C78.7789 45.0369 76.8267 50.9588 80.2741 54.4398L89.4337 63.689C91.2061 65.4787 91.672 68.1849 90.6001 70.4642L84.2388 83.9915C82.1938 88.3403 85.836 93.2087 90.5853 92.4743L138.735 85.0295C142.01 84.5232 144.254 81.4579 143.747 78.1831L138.142 41.9295Z" fill="#354859"/>
<path d="M131.372 37.411L83.6969 44.7824C79.2587 45.4687 77.4693 50.897 80.6293 54.088L89.789 63.3371C91.7091 65.276 92.2138 68.2077 91.0526 70.677L84.6913 84.2043C82.8167 88.1907 86.1554 92.6533 90.5089 91.9802L138.658 84.5354C141.66 84.0712 143.717 81.2614 143.253 78.2595L137.648 42.0059C137.184 39.004 134.374 36.9468 131.372 37.411Z" stroke="#E6E8EA"/>
</g>
<g filter="url(#filter3_i_952_7200)">
<path d="M101 45.263C101 39.4834 105.46 34.6936 111.228 34.3337C125.396 33.4498 150.987 32 166.416 32C181.932 32 208.295 33.4662 222.756 34.3485C228.532 34.701 233 39.4944 233 45.2817V73.7884C233 79.5468 228.56 84.3258 222.814 84.6982C209.136 85.5846 184.469 87 166.416 87C148.471 87 124.536 85.6015 111.155 84.7142C105.419 84.3338 101 79.56 101 73.811V45.263Z" fill="#354859"/>
</g>
<path d="M233.5 73.7884V45.2817C233.5 39.2327 228.829 34.2182 222.786 33.8495C208.328 32.9673 181.95 31.5 166.416 31.5C150.968 31.5 125.362 32.951 111.197 33.8347C105.163 34.2111 100.5 39.2219 100.5 45.263V73.811C100.5 79.8203 105.12 84.8151 111.122 85.2131C124.503 86.1004 148.453 87.5 166.416 87.5C184.487 87.5 209.169 86.0835 222.846 85.1972C228.858 84.8076 233.5 79.8079 233.5 73.7884Z" stroke="white"/>
<g filter="url(#filter4_d_952_7200)">
<path d="M129.64 60.98C129.933 60.98 130.18 60.9 130.38 60.74C130.58 60.5667 130.68 60.3333 130.68 60.04C130.68 59.96 130.64 59.7867 130.56 59.52L128.66 54.36L131.38 53.34L133.84 60.16C134.067 60.7067 134.427 60.98 134.92 60.98H135.04C135.173 60.98 135.24 61.0467 135.24 61.18V63.8C135.24 63.9333 135.173 64 135.04 64H134.78C134.233 64 133.747 63.8933 133.32 63.68C132.893 63.4667 132.573 63.2 132.36 62.88C131.933 63.3067 131.527 63.6 131.14 63.76C130.753 63.92 130.253 64 129.64 64H124.88V60.98H129.64ZM135.035 64C134.902 64 134.835 63.9333 134.835 63.8V61.18C134.835 61.0467 134.902 60.98 135.035 60.98H137.195C137.448 60.98 137.662 60.8867 137.835 60.7C138.022 60.5133 138.115 60.2933 138.115 60.04V55.94H140.975V60.22C140.975 60.9 140.808 61.5333 140.475 62.12C140.142 62.6933 139.688 63.1533 139.115 63.5C138.542 63.8333 137.908 64 137.215 64H135.035ZM135.055 65.72H137.615V68.28H135.055V65.72ZM138.655 65.72H141.235V68.28H138.655V65.72ZM147.355 60.98C147.648 60.98 147.895 60.9 148.095 60.74C148.295 60.5667 148.395 60.3333 148.395 60.04C148.395 59.96 148.355 59.7867 148.275 59.52L146.375 54.36L149.095 53.34L151.555 60.16C151.782 60.7067 152.142 60.98 152.635 60.98H152.755C152.888 60.98 152.955 61.0467 152.955 61.18V63.8C152.955 63.9333 152.888 64 152.755 64H152.495C151.948 64 151.462 63.8933 151.035 63.68C150.608 63.4667 150.288 63.2 150.075 62.88C149.648 63.3067 149.242 63.6 148.855 63.76C148.468 63.92 147.968 64 147.355 64H142.595V60.98H147.355ZM152.75 64C152.617 64 152.55 63.9333 152.55 63.8V61.18C152.55 61.0467 152.617 60.98 152.75 60.98H156.91C157.95 60.98 158.817 60.66 159.51 60.02L161.45 58.26L158.67 56.92C158.403 56.8133 158.203 56.76 158.07 56.76C157.897 56.76 157.723 56.8 157.55 56.88C157.39 56.96 157.25 57.0667 157.13 57.2L155.29 59.24L153.29 57.48L155.13 55.24C155.517 54.8 155.963 54.4733 156.47 54.26C156.99 54.0333 157.517 53.92 158.05 53.92C158.423 53.92 158.737 53.9667 158.99 54.06C159.257 54.14 159.523 54.2467 159.79 54.38L164.09 56.38C164.17 56.42 164.277 56.44 164.41 56.44H166.55V59.24H164.33L161.09 62.26C160.477 62.8333 159.77 63.2667 158.97 63.56C158.17 63.8533 157.343 64 156.49 64H152.75ZM155.89 65.7H158.43V68.26H155.89V65.7ZM176.582 68.5C175.662 68.5 174.815 68.2733 174.042 67.82C173.268 67.3667 172.655 66.7533 172.202 65.98C171.748 65.2067 171.522 64.36 171.522 63.44V58.58H174.402V63.28C174.402 63.88 174.615 64.3933 175.042 64.82C175.468 65.26 175.982 65.48 176.582 65.48H181.162C181.482 65.48 181.742 65.3733 181.942 65.16C182.142 64.96 182.242 64.7 182.242 64.38C182.242 64.14 182.168 63.92 182.022 63.72C181.875 63.52 181.675 63.3933 181.422 63.34L176.262 62.16V59.54C176.262 58.78 176.455 58.0733 176.842 57.42C177.242 56.7533 177.775 56.2267 178.442 55.84C179.122 55.4533 179.848 55.26 180.622 55.26H184.342V58.12H180.582C180.195 58.12 179.855 58.2667 179.562 58.56C179.282 58.84 179.142 59.1733 179.142 59.56V59.88C180.368 60.1467 181.168 60.3267 181.542 60.42L182.342 60.6C183.182 60.8533 183.868 61.34 184.402 62.06C184.935 62.78 185.202 63.5867 185.202 64.48C185.202 65.2133 185.022 65.8867 184.662 66.5C184.302 67.1133 183.808 67.6 183.182 67.96C182.568 68.32 181.895 68.5 181.162 68.5H176.582ZM187.794 52.26H190.354V54.84H187.794V52.26ZM185.354 67.58C186.06 67.02 186.567 66.54 186.874 66.14C187.194 65.74 187.4 65.3333 187.494 64.92C187.587 64.5067 187.634 63.9267 187.634 63.18V56.54H190.494V63.18C190.494 64.26 190.387 65.1467 190.174 65.84C189.974 66.5333 189.627 67.1667 189.134 67.74C188.64 68.3133 187.914 68.96 186.954 69.68L185.354 67.58ZM195.946 64C195.252 64 194.619 63.8333 194.046 63.5C193.472 63.1533 193.019 62.6933 192.686 62.12C192.352 61.5333 192.186 60.9 192.186 60.22V50.52H195.066V60.04C195.066 60.3067 195.152 60.5333 195.326 60.72C195.499 60.8933 195.712 60.98 195.966 60.98H197.066C197.199 60.98 197.266 61.0467 197.266 61.18V63.8C197.266 63.9333 197.199 64 197.066 64H195.946ZM197.066 64C196.933 64 196.866 63.9333 196.866 63.8V61.18C196.866 61.0467 196.933 60.98 197.066 60.98H198.146C198.4 60.98 198.613 60.8867 198.786 60.7C198.973 60.5133 199.066 60.2933 199.066 60.04V55.94H201.926V60.22C201.926 60.9 201.76 61.5333 201.426 62.12C201.093 62.6933 200.64 63.1533 200.066 63.5C199.493 63.8333 198.86 64 198.166 64H197.066ZM197.046 65.7H199.626V68.26H197.046V65.7Z" fill="#E6E8EA"/>
</g>
<path fill-rule="evenodd" clip-rule="evenodd" d="M106.423 82.4505C108.079 83.7443 110.124 84.5693 112.372 84.7196C125.644 85.6072 149.295 86.9998 167.036 86.9998C184.886 86.9998 209.26 85.5902 222.828 84.7035C228.571 84.3281 233.004 79.5507 233.004 73.7953V45.275C233.004 42.7048 232.123 40.3306 230.637 38.4543C229.805 63.6084 208.07 92.9332 106.423 82.4505Z" fill="#283643"/>
<path d="M121.5 38.1528C122.344 39.6302 116.913 39.9175 113 42.1528C109.087 44.3882 107.372 47.549 106.528 46.0717C105.684 44.5943 108.172 41.5846 112.085 39.3492C115.999 37.1139 120.656 36.6755 121.5 38.1528Z" fill="#536B80"/>
<path d="M77.7399 74.8738C79.3122 77.6261 69.1945 78.1613 61.9042 82.3259C54.6139 86.4905 51.419 92.3791 49.8468 89.6268C48.2746 86.8745 52.91 81.2673 60.2002 77.1027C67.4905 72.9382 76.1677 72.1215 77.7399 74.8738Z" fill="#092B4B"/>
<path d="M77.7399 74.8738C79.3122 77.6261 69.1945 78.1613 61.9042 82.3259C54.6139 86.4905 51.419 92.3791 49.8468 89.6268C48.2746 86.8745 52.91 81.2673 60.2002 77.1027C67.4905 72.9382 76.1677 72.1215 77.7399 74.8738Z" fill="#1D3E5E"/>
</g>
<defs>
<filter id="filter0_d_952_7200" x="0.700001" y="0.700001" width="332.6" height="446.6" filterUnits="userSpaceOnUse" color-interpolation-filters="sRGB">
<feFlood flood-opacity="0" result="BackgroundImageFix"/>
<feColorMatrix in="SourceAlpha" type="matrix" values="0 0 0 0 0 0 0 0 0 0 0 0 0 0 0 0 0 0 127 0" result="hardAlpha"/>
<feOffset/>
<feGaussianBlur stdDeviation="15.15"/>
<feComposite in2="hardAlpha" operator="out"/>
<feColorMatrix type="matrix" values="0 0 0 0 1 0 0 0 0 1 0 0 0 0 1 0 0 0 0.2 0"/>
<feBlend mode="normal" in2="BackgroundImageFix" result="effect1_dropShadow_952_7200"/>
<feBlend mode="normal" in="SourceGraphic" in2="effect1_dropShadow_952_7200" result="shape"/>
</filter>
<filter id="filter1_d_952_7200" x="189.846" y="35.8455" width="67.2881" height="59.7029" filterUnits="userSpaceOnUse" color-interpolation-filters="sRGB">
<feFlood flood-opacity="0" result="BackgroundImageFix"/>
<feColorMatrix in="SourceAlpha" type="matrix" values="0 0 0 0 0 0 0 0 0 0 0 0 0 0 0 0 0 0 127 0" result="hardAlpha"/>
<feOffset dx="2" dy="4"/>
<feComposite in2="hardAlpha" operator="out"/>
<feColorMatrix type="matrix" values="0 0 0 0 0 0 0 0 0 0 0 0 0 0 0 0 0 0 0.25 0"/>
<feBlend mode="normal" in2="BackgroundImageFix" result="effect1_dropShadow_952_7200"/>
<feBlend mode="normal" in="SourceGraphic" in2="effect1_dropShadow_952_7200" result="shape"/>
</filter>
<filter id="filter2_d_952_7200" x="78.5308" y="36.8455" width="67.2881" height="59.7029" filterUnits="userSpaceOnUse" color-interpolation-filters="sRGB">
<feFlood flood-opacity="0" result="BackgroundImageFix"/>
<feColorMatrix in="SourceAlpha" type="matrix" values="0 0 0 0 0 0 0 0 0 0 0 0 0 0 0 0 0 0 127 0" result="hardAlpha"/>
<feOffset dx="2" dy="4"/>
<feComposite in2="hardAlpha" operator="out"/>
<feColorMatrix type="matrix" values="0 0 0 0 0 0 0 0 0 0 0 0 0 0 0 0 0 0 0.25 0"/>
<feBlend mode="normal" in2="BackgroundImageFix" result="effect1_dropShadow_952_7200"/>
<feBlend mode="normal" in="SourceGraphic" in2="effect1_dropShadow_952_7200" result="shape"/>
</filter>
<filter id="filter3_i_952_7200" x="100" y="31" width="134.5" height="57.5" filterUnits="userSpaceOnUse" color-interpolation-filters="sRGB">
<feFlood flood-opacity="0" result="BackgroundImageFix"/>
<feBlend mode="normal" in="SourceGraphic" in2="BackgroundImageFix" result="shape"/>
<feColorMatrix in="SourceAlpha" type="matrix" values="0 0 0 0 0 0 0 0 0 0 0 0 0 0 0 0 0 0 127 0" result="hardAlpha"/>
<feOffset dx="2" dy="2"/>
<feGaussianBlur stdDeviation="0.25"/>
<feComposite in2="hardAlpha" operator="arithmetic" k2="-1" k3="1"/>
<feColorMatrix type="matrix" values="0 0 0 0 0 0 0 0 0 0 0 0 0 0 0 0 0 0 0.25 0"/>
<feBlend mode="normal" in2="shape" result="effect1_innerShadow_952_7200"/>
</filter>
<filter id="filter4_d_952_7200" x="124.88" y="50.52" width="79.0464" height="21.16" filterUnits="userSpaceOnUse" color-interpolation-filters="sRGB">
<feFlood flood-opacity="0" result="BackgroundImageFix"/>
<feColorMatrix in="SourceAlpha" type="matrix" values="0 0 0 0 0 0 0 0 0 0 0 0 0 0 0 0 0 0 127 0" result="hardAlpha"/>
<feOffset dx="2" dy="2"/>
<feComposite in2="hardAlpha" operator="out"/>
<feColorMatrix type="matrix" values="0 0 0 0 0 0 0 0 0 0 0 0 0 0 0 0 0 0 0.25 0"/>
<feBlend mode="normal" in2="BackgroundImageFix" result="effect1_dropShadow_952_7200"/>
<feBlend mode="normal" in="SourceGraphic" in2="effect1_dropShadow_952_7200" result="shape"/>
</filter>
</defs>
</svg>
