<svg width="71" height="34" viewBox="0 0 71 34" fill="none" xmlns="http://www.w3.org/2000/svg">
<g filter="url(#filter0_d_827_9399)">
<rect width="70" height="30" rx="15" fill="#132D46" shape-rendering="crispEdges"/>
<g filter="url(#filter1_d_827_9399)">
<path d="M29.872 17.974C29.9653 17.974 30.012 18.0207 30.012 18.114V19.36C30.012 19.4533 29.9653 19.5 29.872 19.5H29.242C28.8593 19.5 28.528 19.416 28.248 19.248C28.2387 19.9387 28.1267 20.508 27.912 20.956C27.7067 21.4133 27.38 21.8147 26.932 22.16C26.4933 22.5053 25.8633 22.874 25.042 23.266L24.496 22.062C25.1773 21.6793 25.6627 21.376 25.952 21.152C26.2507 20.9373 26.4653 20.676 26.596 20.368C26.736 20.0693 26.806 19.6587 26.806 19.136V14.726H28.248V16.98C28.248 17.26 28.3413 17.498 28.528 17.694C28.724 17.8807 28.962 17.974 29.242 17.974H29.872ZM29.7272 18.114C29.7272 18.0207 29.7739 17.974 29.8672 17.974H30.7072C30.9779 17.974 31.2112 17.8807 31.4072 17.694C31.6032 17.498 31.7012 17.26 31.7012 16.98V14.726H33.1432V16.98C33.1432 17.26 33.2412 17.498 33.4372 17.694C33.6332 17.8807 33.8665 17.974 34.1372 17.974H34.9912C35.0845 17.974 35.1312 18.0207 35.1312 18.114V19.36C35.1312 19.4533 35.0845 19.5 34.9912 19.5H34.1372C33.7732 19.5 33.4419 19.4207 33.1432 19.262C32.8539 19.1033 32.6159 18.884 32.4292 18.604C32.2425 18.884 31.9999 19.1033 31.7012 19.262C31.4119 19.4207 31.0805 19.5 30.7072 19.5H29.8672C29.7739 19.5 29.7272 19.4533 29.7272 19.36V18.114ZM30.6232 20.788H32.0512V22.216H30.6232V20.788ZM32.7792 20.788H34.1932V22.216H32.7792V20.788ZM37.7941 10.47H39.2221V11.884H37.7941V10.47ZM34.9941 19.5C34.9008 19.5 34.8541 19.4533 34.8541 19.36V18.114C34.8541 18.0207 34.9008 17.974 34.9941 17.974H37.6681C38.4708 17.974 39.1428 17.7313 39.6841 17.246L41.3221 15.762L39.0261 14.67C38.9515 14.6327 38.8675 14.6 38.7741 14.572C38.6808 14.5347 38.5875 14.516 38.4941 14.516C38.3448 14.516 38.1955 14.5533 38.0461 14.628C37.8968 14.6933 37.7708 14.782 37.6681 14.894L36.5761 16.14L35.5681 15.272L36.6741 13.928C36.8981 13.6667 37.1688 13.466 37.4861 13.326C37.8035 13.1767 38.1395 13.102 38.4941 13.102C38.7368 13.102 38.9375 13.13 39.0961 13.186C39.2548 13.2327 39.4181 13.298 39.5861 13.382L42.6241 14.81C42.6801 14.838 42.7641 14.852 42.8761 14.852H44.1361V16.252H42.7501L40.4821 18.366C40.0808 18.73 39.6188 19.01 39.0961 19.206C38.5735 19.402 38.0275 19.5 37.4581 19.5H34.9941Z" fill="#E6E8EA"/>
</g>
<circle cx="5" cy="10.0001" r="1" fill="#092B4B"/>
<circle cx="5" cy="10.0001" r="1" fill="#1D3E5E"/>
<path d="M16.6171 2.90779C17.1278 3.80173 13.66 4.07933 11.1236 5.52822C8.58726 6.9771 7.43529 8.955 6.92463 8.06106C6.41397 7.16712 8.05612 5.26789 10.5925 3.81901C13.1288 2.37012 16.1065 2.01385 16.6171 2.90779Z" fill="#092B4B"/>
<path d="M16.6171 2.90779C17.1278 3.80173 13.66 4.07933 11.1236 5.52822C8.58726 6.9771 7.43529 8.955 6.92463 8.06106C6.41397 7.16712 8.05612 5.26789 10.5925 3.81901C13.1288 2.37012 16.1065 2.01385 16.6171 2.90779Z" fill="#1D3E5E"/>
</g>
<defs>
<filter id="filter0_d_827_9399" x="0" y="0" width="71" height="34" filterUnits="userSpaceOnUse" color-interpolation-filters="sRGB">
<feFlood flood-opacity="0" result="BackgroundImageFix"/>
<feColorMatrix in="SourceAlpha" type="matrix" values="0 0 0 0 0 0 0 0 0 0 0 0 0 0 0 0 0 0 127 0" result="hardAlpha"/>
<feOffset dx="1" dy="4"/>
<feComposite in2="hardAlpha" operator="out"/>
<feColorMatrix type="matrix" values="0 0 0 0 0.02 0 0 0 0 0.086383 0 0 0 0 0.15 0 0 0 1 0"/>
<feBlend mode="normal" in2="BackgroundImageFix" result="effect1_dropShadow_827_9399"/>
<feBlend mode="normal" in="SourceGraphic" in2="effect1_dropShadow_827_9399" result="shape"/>
</filter>
<filter id="filter1_d_827_9399" x="24.496" y="10.47" width="21.6402" height="14.796" filterUnits="userSpaceOnUse" color-interpolation-filters="sRGB">
<feFlood flood-opacity="0" result="BackgroundImageFix"/>
<feColorMatrix in="SourceAlpha" type="matrix" values="0 0 0 0 0 0 0 0 0 0 0 0 0 0 0 0 0 0 127 0" result="hardAlpha"/>
<feOffset dx="2" dy="2"/>
<feComposite in2="hardAlpha" operator="out"/>
<feColorMatrix type="matrix" values="0 0 0 0 0 0 0 0 0 0 0 0 0 0 0 0 0 0 0.34 0"/>
<feBlend mode="normal" in2="BackgroundImageFix" result="effect1_dropShadow_827_9399"/>
<feBlend mode="normal" in="SourceGraphic" in2="effect1_dropShadow_827_9399" result="shape"/>
</filter>
</defs>
</svg>
