<svg width="62" height="62" viewBox="0 0 62 62" fill="none" xmlns="http://www.w3.org/2000/svg">
<g filter="url(#filter0_d_393_3040)">
<g clip-path="url(#clip0_393_3040)">
<rect x="10" y="10" width="42" height="42" rx="16" fill="#410711"/>
<mask id="mask0_393_3040" style="mask-type:alpha" maskUnits="userSpaceOnUse" x="10" y="10" width="42" height="42">
<rect x="10" y="10" width="42" height="42" rx="16" fill="#354859"/>
</mask>
<g mask="url(#mask0_393_3040)">
<path d="M13.0791 48C58.8659 39.0811 45.5793 15.6667 49.0793 0C50.0794 9.5 64.9326 37.8 65.3326 39C65.7326 40.2 52.3318 54.1667 48.3316 58.5C19.4984 53 -32.7077 56.9189 13.0791 48Z" fill="#2F020A"/>
<path d="M24.8325 12.675C25.6764 14.1523 23.6283 14.8833 21.3351 16.1933C19.0419 17.5033 17.372 18.8962 16.5281 17.4188C15.6841 15.9415 16.859 13.6819 19.1522 12.372C21.4454 11.062 23.9885 11.1976 24.8325 12.675Z" fill="#611421"/>
<path d="M16.3859 18.0998C16.9493 18.7072 16.2453 19.5941 15.233 20.533C14.2207 21.472 13.2833 22.1073 12.72 21.4999C12.1566 20.8925 12.5206 19.639 13.5329 18.7001C14.5452 17.7612 15.8226 17.4924 16.3859 18.0998Z" fill="#611421"/>
</g>
<g filter="url(#filter1_i_393_3040)">
<path d="M31 44.3333C38.3334 44.3333 44.3334 38.3333 44.3334 31C44.3334 23.6667 38.3334 17.6667 31 17.6667C23.6667 17.6667 17.6667 23.6667 17.6667 31C17.6667 38.3333 23.6667 44.3333 31 44.3333Z" stroke="#E6E8EA" stroke-width="3" stroke-linecap="round" stroke-linejoin="round"/>
<path d="M27.2267 34.7733L34.7734 27.2267" stroke="#E6E8EA" stroke-width="3" stroke-linecap="round" stroke-linejoin="round"/>
<path d="M34.7734 34.7733L27.2267 27.2267" stroke="#E6E8EA" stroke-width="3" stroke-linecap="round" stroke-linejoin="round"/>
</g>
</g>
<rect x="9.5" y="9.5" width="43" height="43" rx="16.5" stroke="#B1B8BF"/>
</g>
<defs>
<filter id="filter0_d_393_3040" x="0" y="0" width="62" height="62" filterUnits="userSpaceOnUse" color-interpolation-filters="sRGB">
<feFlood flood-opacity="0" result="BackgroundImageFix"/>
<feColorMatrix in="SourceAlpha" type="matrix" values="0 0 0 0 0 0 0 0 0 0 0 0 0 0 0 0 0 0 127 0" result="hardAlpha"/>
<feOffset/>
<feGaussianBlur stdDeviation="4.5"/>
<feComposite in2="hardAlpha" operator="out"/>
<feColorMatrix type="matrix" values="0 0 0 0 0.941667 0 0 0 0 0.223646 0 0 0 0 0.223646 0 0 0 1 0"/>
<feBlend mode="normal" in2="BackgroundImageFix" result="effect1_dropShadow_393_3040"/>
<feBlend mode="normal" in="SourceGraphic" in2="effect1_dropShadow_393_3040" result="shape"/>
</filter>
<filter id="filter1_i_393_3040" x="15" y="15" width="33" height="33" filterUnits="userSpaceOnUse" color-interpolation-filters="sRGB">
<feFlood flood-opacity="0" result="BackgroundImageFix"/>
<feBlend mode="normal" in="SourceGraphic" in2="BackgroundImageFix" result="shape"/>
<feColorMatrix in="SourceAlpha" type="matrix" values="0 0 0 0 0 0 0 0 0 0 0 0 0 0 0 0 0 0 127 0" result="hardAlpha"/>
<feOffset dx="1" dy="1"/>
<feGaussianBlur stdDeviation="0.5"/>
<feComposite in2="hardAlpha" operator="arithmetic" k2="-1" k3="1"/>
<feColorMatrix type="matrix" values="0 0 0 0 0 0 0 0 0 0 0 0 0 0 0 0 0 0 0.25 0"/>
<feBlend mode="normal" in2="shape" result="effect1_innerShadow_393_3040"/>
</filter>
<clipPath id="clip0_393_3040">
<rect x="10" y="10" width="42" height="42" rx="16" fill="white"/>
</clipPath>
</defs>
</svg>
