<svg width="344" height="298" viewBox="0 0 344 298" fill="none" xmlns="http://www.w3.org/2000/svg">
<g filter="url(#filter0_d_833_6509)">
<rect x="25" y="55" width="294" height="218" rx="24" fill="#031A30" shape-rendering="crispEdges"/>
<rect x="23.5" y="53.5" width="297" height="221" rx="25.5" stroke="#B1B8BF" stroke-width="3" shape-rendering="crispEdges"/>
<mask id="mask0_833_6509" style="mask-type:alpha" maskUnits="userSpaceOnUse" x="25" y="-55" width="294" height="329">
<rect x="26.5" y="-53.5" width="291" height="325.5" rx="22.5" fill="#031A30"/>
<rect x="26.5" y="-53.5" width="291" height="325.5" rx="22.5" stroke="#B1B8BF" stroke-width="3"/>
</mask>
<g mask="url(#mask0_833_6509)">
<path d="M269.541 208.005C299.343 173.856 306.475 101.945 309.659 74.7997L377 278.241C354.553 293.781 304.31 325.771 282.914 329.404C261.518 333.036 93.1498 317.799 11.6403 309.726L-28 278.241C5.75 280.663 86.3361 284.053 138.68 278.241C204.111 270.975 232.289 250.691 269.541 208.005Z" fill="#021425"/>
</g>
<g filter="url(#filter1_d_833_6509)">
<rect x="67" y="198" width="210" height="43" rx="16" fill="#203547" shape-rendering="crispEdges"/>
<rect x="66" y="197" width="212" height="45" rx="17" stroke="#B1B8BF" stroke-width="2" shape-rendering="crispEdges"/>
<path d="M96.544 228C95.664 228 94.856 227.784 94.12 227.352C93.4 226.92 92.824 226.344 92.392 225.624C91.96 224.888 91.744 224.08 91.744 223.2C91.744 222.32 91.96 221.52 92.392 220.8C92.824 220.064 93.4 219.48 94.12 219.048C94.856 218.616 95.664 218.4 96.544 218.4C97.424 218.4 98.232 218.616 98.968 219.048C99.704 219.48 100.288 220.064 100.72 220.8C101.152 221.52 101.368 222.32 101.368 223.2C101.368 224.08 101.152 224.888 100.72 225.624C100.288 226.344 99.704 226.92 98.968 227.352C98.232 227.784 97.424 228 96.544 228ZM96.544 224.568C96.944 224.568 97.272 224.44 97.528 224.184C97.784 223.928 97.912 223.6 97.912 223.2C97.912 222.8 97.784 222.472 97.528 222.216C97.272 221.96 96.944 221.832 96.544 221.832C96.144 221.832 95.816 221.96 95.56 222.216C95.32 222.472 95.2 222.8 95.2 223.2C95.2 223.6 95.32 223.928 95.56 224.184C95.816 224.44 96.144 224.568 96.544 224.568Z" fill="#E6E8EA"/>
<path d="M148.78 218.56C148.393 218.56 148.06 218.427 147.78 218.16C147.513 217.88 147.38 217.547 147.38 217.16C147.38 216.773 147.513 216.447 147.78 216.18C148.06 215.913 148.393 215.78 148.78 215.78C149.167 215.78 149.493 215.913 149.76 216.18C150.027 216.447 150.16 216.773 150.16 217.16C150.16 217.547 150.027 217.88 149.76 218.16C149.493 218.427 149.167 218.56 148.78 218.56ZM147.38 223.04C147.38 222.653 147.513 222.327 147.78 222.06C148.06 221.793 148.393 221.66 148.78 221.66C149.167 221.66 149.493 221.793 149.76 222.06C150.027 222.327 150.16 222.653 150.16 223.04C150.16 223.427 150.027 223.76 149.76 224.04C149.493 224.307 149.167 224.44 148.78 224.44C148.393 224.44 148.06 224.307 147.78 224.04C147.513 223.76 147.38 223.427 147.38 223.04ZM151.547 228.4C152.414 228.08 153.194 227.68 153.887 227.2C154.594 226.72 155.147 226.22 155.547 225.7C155.96 225.193 156.167 224.72 156.167 224.28C156.167 223.72 155.814 222.067 155.107 219.32L156.867 218.64C157.174 219.587 157.42 220.587 157.607 221.64C157.807 222.68 157.907 223.56 157.907 224.28C157.907 225.507 157.394 226.66 156.367 227.74C155.354 228.833 154.034 229.68 152.407 230.28L151.547 228.4ZM159.335 228.34C161.242 227.927 162.708 227.4 163.735 226.76C164.762 226.133 165.382 225.36 165.595 224.44C165.142 224.52 164.662 224.56 164.155 224.56C163.248 224.56 162.428 224.413 161.695 224.12C160.962 223.813 160.442 223.347 160.135 222.72C159.908 222.24 159.795 221.713 159.795 221.14C159.795 220.42 159.948 219.7 160.255 218.98C160.575 218.26 160.995 217.667 161.515 217.2C162.048 216.733 162.622 216.5 163.235 216.5C164.022 216.5 164.722 216.847 165.335 217.54C165.962 218.22 166.442 219.1 166.775 220.18C167.122 221.247 167.295 222.32 167.295 223.4C167.295 225.133 166.648 226.6 165.355 227.8C164.075 229 162.288 229.827 159.995 230.28L159.335 228.34ZM161.595 221.5C161.808 221.807 162.175 222.033 162.695 222.18C163.215 222.327 163.815 222.4 164.495 222.4C164.868 222.4 165.235 222.38 165.595 222.34C165.435 221.327 165.142 220.46 164.715 219.74C164.302 219.02 163.795 218.627 163.195 218.56C162.902 218.52 162.615 218.62 162.335 218.86C162.068 219.087 161.848 219.387 161.675 219.76C161.515 220.133 161.435 220.493 161.435 220.84C161.435 221.12 161.488 221.34 161.595 221.5ZM173.542 224.58C172.462 224.58 171.542 224.427 170.782 224.12C170.022 223.813 169.422 223.473 168.982 223.1L169.862 221.52C170.382 221.8 170.895 222.033 171.402 222.22C171.909 222.393 172.555 222.48 173.342 222.48C174.062 222.48 174.649 222.387 175.102 222.2C175.569 222.013 175.875 221.8 176.022 221.56C176.062 221.453 176.082 221.327 176.082 221.18C176.082 220.607 175.742 219.873 175.062 218.98C174.395 218.073 173.349 217.107 171.922 216.08L173.002 214.18C174.495 215.287 175.669 216.46 176.522 217.7C177.389 218.927 177.822 220.073 177.822 221.14C177.822 221.647 177.729 222.107 177.542 222.52C177.262 223.173 176.755 223.68 176.022 224.04C175.289 224.4 174.462 224.58 173.542 224.58ZM198.549 224.5C198.083 224.5 197.663 224.353 197.289 224.06V224.28C197.289 225.307 197.029 226.28 196.509 227.2C195.989 228.12 195.236 228.86 194.249 229.42C193.276 229.993 192.129 230.28 190.809 230.28C189.556 230.28 188.476 230.027 187.569 229.52C186.663 229.027 185.969 228.353 185.489 227.5C185.023 226.647 184.789 225.687 184.789 224.62C184.789 223.82 184.923 222.967 185.189 222.06C185.456 221.153 185.769 220.34 186.129 219.62L187.689 220.34C186.943 221.887 186.569 223.233 186.569 224.38C186.569 225.593 186.936 226.513 187.669 227.14C188.403 227.767 189.449 228.08 190.809 228.08C191.836 228.08 192.709 227.893 193.429 227.52C194.149 227.16 194.683 226.687 195.029 226.1C195.389 225.527 195.569 224.92 195.569 224.28C195.569 223.707 195.449 222.953 195.209 222.02C194.969 221.087 194.703 220.193 194.409 219.34L196.109 218.52C196.349 219.2 196.549 219.84 196.709 220.44C196.936 221.133 197.176 221.62 197.429 221.9C197.696 222.167 198.069 222.3 198.549 222.3H198.669L198.789 223.4L198.669 224.5H198.549ZM191.249 217.18L192.809 218.74C192.809 218.74 192.463 219.087 191.769 219.78L191.249 220.3L190.729 219.78C190.036 219.087 189.689 218.74 189.689 218.74L191.249 217.18ZM198.399 223.4L198.519 222.3H199.819C201.219 222.3 202.205 222.173 202.779 221.92C203.352 221.653 203.639 221.24 203.639 220.68C203.625 220.307 203.485 219.7 203.219 218.86C202.952 218.02 202.732 217.427 202.559 217.08L204.219 216.18C204.485 216.713 204.745 217.427 204.999 218.32C205.265 219.213 205.399 219.993 205.399 220.66C205.399 221.927 204.959 222.887 204.079 223.54C203.199 224.18 201.879 224.5 200.119 224.5H198.519L198.399 223.4ZM200.059 226.28L201.579 227.78C200.912 228.447 200.579 228.78 200.579 228.78L200.059 229.3L198.559 227.78L200.059 226.28ZM203.619 226.28L205.139 227.78C204.472 228.447 204.139 228.78 204.139 228.78L203.619 229.3L202.119 227.78L203.619 226.28ZM207.715 224.38C207.822 223.58 207.875 222.18 207.875 220.18C207.875 218.353 207.828 216.48 207.735 214.56C207.655 212.627 207.562 211.34 207.455 210.7L209.355 210.28C209.448 210.947 209.542 212.26 209.635 214.22C209.728 216.18 209.775 218.073 209.775 219.9C209.775 221.98 209.708 223.547 209.575 224.6L207.715 224.38ZM216.41 228.4C217.277 228.08 218.057 227.68 218.75 227.2C219.457 226.72 220.01 226.22 220.41 225.7C220.823 225.193 221.03 224.72 221.03 224.28C221.03 223.72 220.677 222.067 219.97 219.32L221.73 218.64C222.037 219.587 222.283 220.587 222.47 221.64C222.67 222.68 222.77 223.56 222.77 224.28C222.77 225.507 222.257 226.66 221.23 227.74C220.217 228.833 218.897 229.68 217.27 230.28L216.41 228.4ZM220.53 213.6L222.09 215.16L220.53 216.72L218.97 215.16L220.53 213.6ZM229.058 224.5C227.645 224.5 226.651 224.133 226.078 223.4C225.518 222.653 225.238 221.473 225.238 219.86C225.238 218.393 225.198 216.727 225.118 214.86C225.051 212.98 224.951 211.593 224.818 210.7L226.718 210.28C226.825 211.04 226.911 212.253 226.978 213.92C227.045 215.573 227.078 217.113 227.078 218.54V219.42C227.065 220.22 227.098 220.813 227.178 221.2C227.258 221.587 227.438 221.867 227.718 222.04C227.998 222.213 228.445 222.3 229.058 222.3H229.158L229.278 223.4L229.158 224.5H229.058ZM228.966 222.3H229.126C230.166 222.3 230.973 222.253 231.546 222.16C232.12 222.067 232.533 221.933 232.786 221.76C233.053 221.573 233.233 221.313 233.326 220.98C233.38 220.807 233.406 220.56 233.406 220.24C233.406 219.88 233.373 219.473 233.306 219.02C233.24 218.553 233.2 218.267 233.186 218.16L234.846 217.82C235.033 218.713 235.126 219.793 235.126 221.06C235.193 221.447 235.366 221.753 235.646 221.98C235.94 222.193 236.333 222.3 236.826 222.3H236.966L237.086 223.4L236.966 224.5H236.826C236.266 224.5 235.76 224.367 235.306 224.1C234.866 223.82 234.506 223.447 234.226 222.98C233.893 223.54 233.333 223.933 232.546 224.16C231.773 224.387 230.633 224.5 229.126 224.5H228.966V222.3ZM229.186 226.28L230.706 227.78C230.04 228.447 229.706 228.78 229.706 228.78L229.186 229.3L227.686 227.78L229.186 226.28ZM232.746 226.28L234.266 227.78C233.6 228.447 233.266 228.78 233.266 228.78L232.746 229.3L231.246 227.78L232.746 226.28ZM236.759 222.3H236.919C237.959 222.3 238.766 222.253 239.339 222.16C239.913 222.067 240.326 221.933 240.579 221.76C240.846 221.573 241.026 221.313 241.119 220.98C241.173 220.807 241.199 220.56 241.199 220.24C241.199 219.88 241.166 219.473 241.099 219.02C241.033 218.553 240.993 218.267 240.979 218.16L242.639 217.82C242.826 218.713 242.919 219.793 242.919 221.06C242.986 221.447 243.159 221.753 243.439 221.98C243.733 222.193 244.126 222.3 244.619 222.3H244.759L244.879 223.4L244.759 224.5H244.619C244.059 224.5 243.553 224.367 243.099 224.1C242.659 223.82 242.299 223.447 242.019 222.98C241.686 223.54 241.126 223.933 240.339 224.16C239.566 224.387 238.426 224.5 236.919 224.5H236.759V222.3ZM238.619 213.3L240.119 214.8L238.619 216.32L237.099 214.8L238.619 213.3ZM242.179 213.3L243.679 214.8L242.179 216.32L240.659 214.8L242.179 213.3ZM244.592 222.3H244.952C245.486 222.3 245.979 222.147 246.432 221.84C246.886 221.533 247.272 221.067 247.592 220.44C248.179 219.293 248.772 218.387 249.372 217.72C249.972 217.053 250.626 216.7 251.332 216.66C252.039 216.62 252.652 216.807 253.172 217.22C253.706 217.633 254.112 218.18 254.392 218.86C254.672 219.54 254.812 220.253 254.812 221C254.812 221.733 254.672 222.407 254.392 223.02C254.112 223.62 253.699 224.073 253.152 224.38C252.912 224.527 252.606 224.6 252.232 224.6C251.259 224.6 249.899 224.047 248.152 222.94C247.339 223.98 246.259 224.5 244.912 224.5H244.552L244.592 222.3ZM249.132 221.2C249.799 221.627 250.406 221.96 250.952 222.2C251.512 222.427 251.946 222.54 252.252 222.54C252.386 222.54 252.492 222.52 252.572 222.48C252.772 222.373 252.926 222.2 253.032 221.96C253.139 221.707 253.192 221.42 253.192 221.1C253.192 220.487 253.032 219.927 252.712 219.42C252.392 218.913 251.979 218.66 251.472 218.66C250.792 218.66 250.012 219.507 249.132 221.2ZM257.109 224.38C257.216 223.58 257.269 222.18 257.269 220.18C257.269 218.353 257.223 216.48 257.129 214.56C257.049 212.627 256.956 211.34 256.849 210.7L258.749 210.28C258.843 210.947 258.936 212.26 259.029 214.22C259.123 216.18 259.169 218.073 259.169 219.9C259.169 221.98 259.103 223.547 258.969 224.6L257.109 224.38Z" fill="#E6E8EA"/>
</g>
<path d="M66.7399 61.8738C68.3122 64.6261 58.1945 65.1613 50.9042 69.3259C43.6139 73.4905 40.419 79.3791 38.8468 76.6268C37.2746 73.8745 41.91 68.2673 49.2002 64.1027C56.4905 59.9382 65.1677 59.1215 66.7399 61.8738Z" fill="#092B4B"/>
<path d="M66.7399 61.8738C68.3122 64.6261 58.1945 65.1613 50.9042 69.3259C43.6139 73.4905 40.419 79.3791 38.8468 76.6268C37.2746 73.8745 41.91 68.2673 49.2002 64.1027C56.4905 59.9382 65.1677 59.1215 66.7399 61.8738Z" fill="#1D3E5E"/>
<circle cx="36" cy="84" r="3" fill="#092B4B"/>
<circle cx="36" cy="84" r="3" fill="#1D3E5E"/>
<g filter="url(#filter2_d_833_6509)">
<path d="M200.691 31.9295C201.197 28.6547 204.263 26.4105 207.537 26.9168L255.212 34.2883C260.054 35.0369 262.006 40.9588 258.559 44.4398L249.399 53.689C247.627 55.4787 247.161 58.1849 248.233 60.4642L254.594 73.9915C256.639 78.3403 252.997 83.2087 248.248 82.4743L200.098 75.0295C196.823 74.5232 194.579 71.4579 195.085 68.1831L200.691 31.9295Z" fill="#354859"/>
<path d="M201.185 32.0059C201.649 29.004 204.459 26.9468 207.461 27.411L255.136 34.7824C259.574 35.4687 261.364 40.897 258.204 44.088L249.044 53.3371C247.124 55.276 246.619 58.2077 247.78 60.677L254.142 74.2043C256.016 78.1907 252.678 82.6533 248.324 81.9802L200.175 74.5354C197.173 74.0712 195.115 71.2614 195.58 68.2595L201.185 32.0059Z" stroke="#E6E8EA"/>
</g>
<g filter="url(#filter3_d_833_6509)">
<path d="M143.31 32.9295C142.803 29.6547 139.738 27.4105 136.463 27.9168L88.7883 35.2883C83.9467 36.0369 81.9946 41.9588 85.4419 45.4398L94.6016 54.689C96.3739 56.4787 96.8398 59.1849 95.7679 61.4642L89.4067 74.9915C87.3616 79.3403 91.0039 84.2087 95.7531 83.4743L143.903 76.0295C147.177 75.5232 149.422 72.4579 148.915 69.1831L143.31 32.9295Z" fill="#354859"/>
<path d="M142.816 33.0059C142.351 30.004 139.542 27.9468 136.54 28.411L88.8647 35.7824C84.4266 36.4687 82.6371 41.897 85.7972 45.088L94.9568 54.3371C96.8769 56.276 97.3816 59.2077 96.2204 61.677L89.8592 75.2043C87.9845 79.1907 91.3232 83.6533 95.6767 82.9802L143.826 75.5354C146.828 75.0712 148.885 72.2614 148.421 69.2595L142.816 33.0059Z" stroke="#E6E8EA"/>
</g>
<g filter="url(#filter4_i_833_6509)">
<path d="M106.171 36.263C106.171 30.4834 110.631 25.6936 116.399 25.3337C130.567 24.4498 156.158 23 171.587 23C187.103 23 213.466 24.4662 227.927 25.3485C233.704 25.701 238.171 30.4944 238.171 36.2817V64.7884C238.171 70.5467 233.731 75.3258 227.985 75.6982C214.307 76.5846 189.641 78 171.587 78C153.642 78 129.707 76.6015 116.327 75.7142C110.59 75.3338 106.171 70.56 106.171 64.811V36.263Z" fill="#354859"/>
</g>
<path d="M116.368 24.8347C110.334 25.2111 105.671 30.2219 105.671 36.263V64.811C105.671 70.8203 110.292 75.8151 116.294 76.2131C129.674 77.1004 153.624 78.5 171.587 78.5C189.658 78.5 214.34 77.0835 228.017 76.1972C234.029 75.8076 238.671 70.8079 238.671 64.7884V36.2817C238.671 30.2327 234 25.2182 227.958 24.8495C213.499 23.9673 187.121 22.5 171.587 22.5C156.14 22.5 130.533 23.951 116.368 24.8347Z" stroke="white"/>
<g filter="url(#filter5_d_833_6509)">
<path d="M140.984 42.952H144.056V46.048H140.984V42.952ZM145.304 42.952H148.376V46.048H145.304V42.952ZM141.344 55C140.24 55 139.224 54.728 138.296 54.184C137.368 53.64 136.632 52.904 136.088 51.976C135.544 51.048 135.272 50.032 135.272 48.928V46.048H138.728V48.736C138.728 49.456 138.984 50.08 139.496 50.608C140.008 51.12 140.624 51.376 141.344 51.376H148.976C149.44 51.376 149.816 51.224 150.104 50.92C150.408 50.6 150.56 50.208 150.56 49.744V46.048H154.016V49.744C154.016 50.704 153.792 51.584 153.344 52.384C152.912 53.184 152.312 53.824 151.544 54.304C150.776 54.768 149.92 55 148.976 55H141.344ZM155.874 38.824H159.33V55H155.874V38.824ZM161.772 40.912H164.844V43.984H161.772V40.912ZM157.956 58.912C159.092 58.256 159.9 57.728 160.38 57.328C160.86 56.928 161.18 56.496 161.34 56.032C161.5 55.568 161.58 54.896 161.58 54.016V46.048H165.036V54.016C165.036 55.36 164.868 56.464 164.532 57.328C164.196 58.192 163.62 58.96 162.804 59.632C161.988 60.32 160.804 61.048 159.252 61.816L157.956 58.912ZM171.566 55C170.734 55 169.974 54.8 169.286 54.4C168.598 53.984 168.054 53.432 167.654 52.744C167.254 52.04 167.054 51.28 167.054 50.464V38.824H170.51V50.248C170.51 50.568 170.614 50.84 170.822 51.064C171.03 51.272 171.286 51.376 171.59 51.376H172.91C173.07 51.376 173.15 51.456 173.15 51.616V54.76C173.15 54.92 173.07 55 172.91 55H171.566ZM172.671 51.616C172.671 51.456 172.751 51.376 172.911 51.376H174.471C174.791 51.376 175.055 51.272 175.263 51.064C175.471 50.84 175.575 50.568 175.575 50.248V46.048H179.031V50.248C179.031 50.568 179.135 50.84 179.343 51.064C179.551 51.272 179.815 51.376 180.135 51.376H181.695C181.855 51.376 181.935 51.456 181.935 51.616V54.76C181.935 54.92 181.855 55 181.695 55H180.135C178.951 55 178.007 54.608 177.303 53.824C176.567 54.608 175.623 55 174.471 55H172.911C172.751 55 172.671 54.92 172.671 54.76V51.616ZM173.583 57.064H176.655V60.136H173.583V57.064ZM177.903 57.064H180.999V60.136H177.903V57.064ZM182.396 40.888H185.468V43.96H182.396V40.888ZM186.716 40.888H189.812V43.96H186.716V40.888ZM181.46 51.616C181.46 51.456 181.54 51.376 181.7 51.376H183.26C183.58 51.376 183.844 51.272 184.052 51.064C184.26 50.84 184.364 50.568 184.364 50.248V46.048H187.82V50.248C187.82 50.568 187.924 50.84 188.132 51.064C188.34 51.272 188.604 51.376 188.924 51.376H190.484C190.644 51.376 190.724 51.456 190.724 51.616V54.76C190.724 54.92 190.644 55 190.484 55H188.924C187.74 55 186.796 54.608 186.092 53.824C185.356 54.608 184.412 55 183.26 55H181.7C181.54 55 181.46 54.92 181.46 54.76V51.616ZM198.169 44.8C199.129 44.8 200.009 45.016 200.809 45.448C201.609 45.88 202.241 46.48 202.705 47.248C203.185 48 203.425 48.848 203.425 49.792C203.425 50.736 203.185 51.616 202.705 52.432C202.241 53.232 201.601 53.872 200.785 54.352C199.985 54.816 199.113 55.048 198.169 55.048C197.529 55.048 196.929 54.936 196.369 54.712C195.809 54.488 195.305 54.176 194.857 53.776C194.169 54.592 193.241 55 192.073 55H190.489C190.329 55 190.249 54.92 190.249 54.76V51.616C190.249 51.456 190.329 51.376 190.489 51.376H192.073C192.377 51.376 192.633 51.272 192.841 51.064C193.065 50.84 193.177 50.568 193.177 50.248V48.232H191.689V44.8H198.169ZM198.169 51.424C198.633 51.424 199.017 51.272 199.321 50.968C199.625 50.648 199.777 50.256 199.777 49.792C199.777 49.344 199.625 48.976 199.321 48.688C199.017 48.384 198.633 48.232 198.169 48.232H196.585V49.792C196.585 50.256 196.729 50.648 197.017 50.968C197.321 51.272 197.705 51.424 198.169 51.424ZM205.28 38.824H208.736V55H205.28V38.824Z" fill="#E6E8EA"/>
</g>
<path fill-rule="evenodd" clip-rule="evenodd" d="M111.595 73.4505C113.25 74.7443 115.295 75.5693 117.543 75.7196C130.815 76.6072 154.466 77.9998 172.207 77.9998C190.057 77.9998 214.432 76.5902 227.999 75.7035C233.742 75.3281 238.175 70.5507 238.175 64.7952V36.275C238.175 33.7048 237.294 31.3305 235.808 29.4543C234.977 54.6083 213.241 83.9331 111.595 73.4505Z" fill="#283643"/>
<path d="M126.671 29.1528C127.515 30.6302 122.084 30.9175 118.171 33.1528C114.258 35.3882 112.543 38.549 111.699 37.0717C110.855 35.5943 113.343 32.5846 117.257 30.3492C121.17 28.1139 125.827 27.6755 126.671 29.1528Z" fill="#536B80"/>
<g filter="url(#filter6_d_833_6509)">
<path d="M70.3943 146.94H68.4343L67.7943 136.76H71.0343L70.3943 146.94ZM69.4143 151.3C69.001 151.3 68.6276 151.14 68.2943 150.82C67.9743 150.487 67.8143 150.107 67.8143 149.68C67.8143 149.24 67.9676 148.867 68.2743 148.56C68.581 148.24 68.961 148.08 69.4143 148.08C69.8943 148.08 70.281 148.24 70.5743 148.56C70.8676 148.88 71.0143 149.253 71.0143 149.68C71.0143 150.147 70.8543 150.533 70.5343 150.84C70.2143 151.147 69.841 151.3 69.4143 151.3ZM87.5612 147.98C87.6945 147.98 87.7612 148.047 87.7612 148.18V150.8C87.7612 150.933 87.6945 151 87.5612 151H86.6612C86.7545 151.28 86.8012 151.607 86.8012 151.98C86.8012 152.713 86.6212 153.387 86.2612 154C85.9012 154.613 85.4145 155.1 84.8012 155.46C84.1878 155.82 83.5078 156 82.7612 156H78.1812C77.2612 156 76.4145 155.773 75.6412 155.32C74.8678 154.867 74.2545 154.253 73.8012 153.48C73.3478 152.707 73.1212 151.86 73.1212 150.94V146.08H76.0012V150.78C76.0012 151.38 76.2145 151.893 76.6412 152.32C77.0678 152.76 77.5812 152.98 78.1812 152.98H82.8212C83.1012 152.98 83.3345 152.88 83.5212 152.68C83.7212 152.48 83.8212 152.247 83.8212 151.98C83.8212 151.713 83.7212 151.48 83.5212 151.28C83.3345 151.093 83.1012 151 82.8212 151H78.6812V147.98H87.5612ZM88.1327 139.24H90.6927V141.8H88.1327V139.24ZM91.7327 139.24H94.3127V141.8H91.7327V139.24ZM87.3527 148.18C87.3527 148.047 87.4194 147.98 87.5527 147.98H88.8527C89.1194 147.98 89.3394 147.893 89.5127 147.72C89.6861 147.533 89.7727 147.307 89.7727 147.04V143.54H92.6527V147.04C92.6527 147.307 92.7394 147.533 92.9127 147.72C93.0861 147.893 93.3061 147.98 93.5727 147.98H94.8727C95.0061 147.98 95.0727 148.047 95.0727 148.18V150.8C95.0727 150.933 95.0061 151 94.8727 151H93.5727C92.5861 151 91.7994 150.673 91.2127 150.02C90.5994 150.673 89.8127 151 88.8527 151H87.5527C87.4194 151 87.3527 150.933 87.3527 150.8V148.18ZM98.437 134.82H101.017V137.38H98.437V134.82ZM94.877 151C94.7436 151 94.677 150.933 94.677 150.8V148.18C94.677 148.047 94.7436 147.98 94.877 147.98H99.757C100.024 147.98 100.244 147.893 100.417 147.72C100.59 147.547 100.677 147.327 100.677 147.06V146.86H99.717C98.9836 146.86 98.3036 146.693 97.677 146.36C97.0636 146.013 96.5703 145.547 96.197 144.96C95.837 144.373 95.657 143.727 95.657 143.02C95.657 142.273 95.8436 141.593 96.217 140.98C96.5903 140.353 97.0836 139.86 97.697 139.5C98.3236 139.127 98.997 138.94 99.717 138.94C100.437 138.94 101.084 139.12 101.657 139.48C102.244 139.84 102.704 140.333 103.037 140.96C103.37 141.587 103.537 142.273 103.537 143.02V147.22C103.537 147.9 103.37 148.533 103.037 149.12C102.704 149.693 102.25 150.153 101.677 150.5C101.104 150.833 100.47 151 99.777 151H94.877ZM100.857 142.92C100.857 142.573 100.737 142.28 100.497 142.04C100.257 141.8 99.9636 141.68 99.617 141.68C99.257 141.68 98.957 141.8 98.717 142.04C98.477 142.28 98.357 142.573 98.357 142.92C98.357 143.28 98.477 143.587 98.717 143.84C98.957 144.08 99.257 144.2 99.617 144.2H100.857V142.92ZM109.821 147.98C109.954 147.98 110.021 148.047 110.021 148.18V150.8C110.021 150.933 109.954 151 109.821 151H108.981C108.634 151 108.321 150.96 108.041 150.88C107.988 151.813 107.808 152.6 107.501 153.24C107.194 153.893 106.708 154.48 106.041 155C105.374 155.533 104.441 156.093 103.241 156.68L102.161 154.26C103.108 153.713 103.781 153.273 104.181 152.94C104.581 152.607 104.848 152.247 104.981 151.86C105.114 151.473 105.181 150.913 105.181 150.18V143.54H108.061V147.04C108.061 147.307 108.148 147.533 108.321 147.72C108.494 147.893 108.714 147.98 108.981 147.98H109.821ZM115.018 136.3L111.498 140.02L110.118 138.62L113.638 134.9L115.018 136.3ZM122.118 147.98C122.252 147.98 122.318 148.047 122.318 148.18V150.8C122.318 150.933 122.252 151 122.118 151H121.278C120.278 151 119.492 150.647 118.918 149.94C118.545 150.273 118.118 150.533 117.638 150.72C117.158 150.907 116.658 151 116.138 151H109.818C109.685 151 109.618 150.933 109.618 150.8V148.18C109.618 148.047 109.685 147.98 109.818 147.98H116.178C116.538 147.98 116.845 147.86 117.098 147.62C117.352 147.38 117.478 147.06 117.478 146.66C117.478 146.18 117.252 145.8 116.798 145.52L112.258 142.54V140.36L116.258 136.12L118.218 137.98L115.258 141.08L118.578 143.26C119.138 143.62 119.572 144.107 119.878 144.72C120.198 145.32 120.358 145.987 120.358 146.72V147.04C120.345 147.307 120.425 147.533 120.598 147.72C120.785 147.893 121.012 147.98 121.278 147.98H122.118ZM124.183 138.66H126.743V141.24H124.183V138.66ZM122.123 151C121.99 151 121.923 150.933 121.923 150.8V148.18C121.923 148.047 121.99 147.98 122.123 147.98H123.203C123.456 147.98 123.67 147.887 123.843 147.7C124.03 147.513 124.123 147.293 124.123 147.04V142.94H126.983V147.22C126.983 147.9 126.816 148.533 126.483 149.12C126.15 149.693 125.696 150.153 125.123 150.5C124.55 150.833 123.916 151 123.223 151H122.123ZM137.048 155.5C136.128 155.5 135.282 155.273 134.508 154.82C133.735 154.367 133.122 153.753 132.668 152.98C132.215 152.207 131.988 151.36 131.988 150.44V145.58H134.868V150.28C134.868 150.88 135.082 151.393 135.508 151.82C135.935 152.26 136.448 152.48 137.048 152.48H141.628C141.948 152.48 142.208 152.373 142.408 152.16C142.608 151.96 142.708 151.7 142.708 151.38C142.708 151.14 142.635 150.92 142.488 150.72C142.342 150.52 142.142 150.393 141.888 150.34L136.728 149.16V146.54C136.728 145.78 136.922 145.073 137.308 144.42C137.708 143.753 138.242 143.227 138.908 142.84C139.588 142.453 140.315 142.26 141.088 142.26H144.808V145.12H141.048C140.662 145.12 140.322 145.267 140.028 145.56C139.748 145.84 139.608 146.173 139.608 146.56V146.88C140.835 147.147 141.635 147.327 142.008 147.42L142.808 147.6C143.648 147.853 144.335 148.34 144.868 149.06C145.402 149.78 145.668 150.587 145.668 151.48C145.668 152.213 145.488 152.887 145.128 153.5C144.768 154.113 144.275 154.6 143.648 154.96C143.035 155.32 142.362 155.5 141.628 155.5H137.048ZM148.26 139.26H150.82V141.84H148.26V139.26ZM145.82 154.58C146.527 154.02 147.034 153.54 147.34 153.14C147.66 152.74 147.867 152.333 147.96 151.92C148.054 151.507 148.1 150.927 148.1 150.18V143.54H150.96V150.18C150.96 151.26 150.854 152.147 150.64 152.84C150.44 153.533 150.094 154.167 149.6 154.74C149.107 155.313 148.38 155.96 147.42 156.68L145.82 154.58ZM156.412 151C155.719 151 155.086 150.833 154.512 150.5C153.939 150.153 153.486 149.693 153.152 149.12C152.819 148.533 152.652 147.9 152.652 147.22V137.52H155.532V147.04C155.532 147.307 155.619 147.533 155.792 147.72C155.966 147.893 156.179 147.98 156.432 147.98H157.532C157.666 147.98 157.732 148.047 157.732 148.18V150.8C157.732 150.933 157.666 151 157.532 151H156.412ZM157.333 148.18C157.333 148.047 157.4 147.98 157.533 147.98H158.833C159.1 147.98 159.32 147.893 159.493 147.72C159.667 147.533 159.753 147.307 159.753 147.04V143.54H162.633V147.04C162.633 147.307 162.72 147.533 162.893 147.72C163.067 147.893 163.287 147.98 163.553 147.98H164.853C164.987 147.98 165.053 148.047 165.053 148.18V150.8C165.053 150.933 164.987 151 164.853 151H163.553C162.567 151 161.78 150.673 161.193 150.02C160.58 150.673 159.793 151 158.833 151H157.533C157.4 151 157.333 150.933 157.333 150.8V148.18ZM158.093 152.72H160.653V155.28H158.093V152.72ZM161.693 152.72H164.273V155.28H161.693V152.72ZM165.437 139.24H167.997V141.8H165.437V139.24ZM169.037 139.24H171.617V141.8H169.037V139.24ZM164.657 148.18C164.657 148.047 164.724 147.98 164.857 147.98H166.157C166.424 147.98 166.644 147.893 166.817 147.72C166.991 147.533 167.077 147.307 167.077 147.04V143.54H169.957V147.04C169.957 147.307 170.044 147.533 170.217 147.72C170.391 147.893 170.611 147.98 170.877 147.98H172.177C172.311 147.98 172.377 148.047 172.377 148.18V150.8C172.377 150.933 172.311 151 172.177 151H170.877C169.891 151 169.104 150.673 168.517 150.02C167.904 150.673 167.117 151 166.157 151H164.857C164.724 151 164.657 150.933 164.657 150.8V148.18ZM178.582 142.5C179.382 142.5 180.115 142.68 180.782 143.04C181.448 143.4 181.975 143.9 182.362 144.54C182.762 145.167 182.962 145.873 182.962 146.66C182.962 147.447 182.762 148.18 182.362 148.86C181.975 149.527 181.442 150.06 180.762 150.46C180.095 150.847 179.368 151.04 178.582 151.04C178.048 151.04 177.548 150.947 177.082 150.76C176.615 150.573 176.195 150.313 175.822 149.98C175.248 150.66 174.475 151 173.502 151H172.182C172.048 151 171.982 150.933 171.982 150.8V148.18C171.982 148.047 172.048 147.98 172.182 147.98H173.502C173.755 147.98 173.968 147.893 174.142 147.72C174.328 147.533 174.422 147.307 174.422 147.04V145.36H173.182V142.5H178.582ZM178.582 148.02C178.968 148.02 179.288 147.893 179.542 147.64C179.795 147.373 179.922 147.047 179.922 146.66C179.922 146.287 179.795 145.98 179.542 145.74C179.288 145.487 178.968 145.36 178.582 145.36H177.262V146.66C177.262 147.047 177.382 147.373 177.622 147.64C177.875 147.893 178.195 148.02 178.582 148.02ZM184.508 137.52H187.388V151H184.508V137.52ZM190.755 154.26C191.701 153.713 192.375 153.273 192.775 152.94C193.175 152.607 193.441 152.247 193.575 151.86C193.708 151.473 193.775 150.913 193.775 150.18V143.54H196.655V150.18C196.655 151.3 196.515 152.22 196.235 152.94C195.955 153.66 195.475 154.3 194.795 154.86C194.115 155.433 193.128 156.04 191.835 156.68L190.755 154.26ZM199.757 154.14C200.944 153.633 201.824 153.22 202.397 152.9C202.984 152.58 203.384 152.28 203.597 152C203.811 151.72 203.917 151.387 203.917 151H202.617C201.817 151 201.084 150.82 200.417 150.46C199.751 150.1 199.217 149.607 198.817 148.98C198.431 148.34 198.237 147.627 198.237 146.84C198.237 146.04 198.431 145.307 198.817 144.64C199.217 143.973 199.751 143.447 200.417 143.06C201.084 142.66 201.817 142.46 202.617 142.46C203.391 142.46 204.097 142.66 204.737 143.06C205.377 143.447 205.877 143.973 206.237 144.64C206.597 145.307 206.777 146.04 206.777 146.84V149.76C206.777 151 206.584 152 206.197 152.76C205.824 153.533 205.211 154.2 204.357 154.76C203.517 155.333 202.284 155.973 200.657 156.68L199.757 154.14ZM203.917 146.82C203.917 146.433 203.791 146.113 203.537 145.86C203.297 145.607 202.991 145.48 202.617 145.48C202.231 145.48 201.904 145.607 201.637 145.86C201.384 146.113 201.257 146.433 201.257 146.82C201.257 147.207 201.384 147.527 201.637 147.78C201.904 148.033 202.231 148.16 202.617 148.16H203.917V146.82ZM213.413 147.98C213.707 147.98 213.94 147.893 214.113 147.72C214.3 147.547 214.393 147.327 214.393 147.06C214.393 146.873 214.333 146.713 214.213 146.58C214.107 146.433 213.907 146.26 213.613 146.06L209.413 143.18L211.033 140.8L215.713 144.04C216.22 144.427 216.6 144.853 216.853 145.32C217.12 145.773 217.253 146.327 217.253 146.98C217.253 147.727 217.067 148.407 216.693 149.02C216.333 149.633 215.84 150.12 215.213 150.48C214.587 150.827 213.907 151 213.173 151H208.413V147.98H213.413ZM229.922 141.68V144.24H227.342V141.68H229.922ZM236.962 147.98C237.096 147.98 237.162 148.047 237.162 148.18V150.8C237.162 150.933 237.096 151 236.962 151H236.102C235.489 151 234.982 150.853 234.582 150.56C234.089 151.747 233.309 152.7 232.242 153.42C231.189 154.153 230.002 154.52 228.682 154.52C227.522 154.52 226.449 154.227 225.462 153.64C224.476 153.067 223.689 152.287 223.102 151.3C222.529 150.313 222.242 149.24 222.242 148.08V144.34H225.122V147.92C225.122 148.56 225.282 149.153 225.602 149.7C225.922 150.247 226.356 150.68 226.902 151C227.449 151.32 228.042 151.48 228.682 151.48C229.336 151.48 229.936 151.32 230.482 151C231.042 150.68 231.482 150.247 231.802 149.7C232.122 149.153 232.282 148.56 232.282 147.92V143.54H235.182V147.04C235.182 147.307 235.269 147.533 235.442 147.72C235.629 147.893 235.849 147.98 236.102 147.98H236.962ZM236.967 151C236.833 151 236.767 150.933 236.767 150.8V148.18C236.767 148.047 236.833 147.98 236.967 147.98H239.127C239.38 147.98 239.593 147.887 239.767 147.7C239.953 147.513 240.047 147.293 240.047 147.04V142.94H242.907V147.22C242.907 147.9 242.74 148.533 242.407 149.12C242.073 149.693 241.62 150.153 241.047 150.5C240.473 150.833 239.84 151 239.147 151H236.967ZM236.987 152.72H239.547V155.28H236.987V152.72ZM240.587 152.72H243.167V155.28H240.587V152.72ZM244.566 137.52H247.446V151H244.566V137.52ZM255.433 146.94H253.473L252.833 136.76H256.073L255.433 146.94ZM254.453 151.3C254.04 151.3 253.667 151.14 253.333 150.82C253.013 150.487 252.853 150.107 252.853 149.68C252.853 149.24 253.007 148.867 253.313 148.56C253.62 148.24 254 148.08 254.453 148.08C254.933 148.08 255.32 148.24 255.613 148.56C255.907 148.88 256.053 149.253 256.053 149.68C256.053 150.147 255.893 150.533 255.573 150.84C255.253 151.147 254.88 151.3 254.453 151.3ZM261.32 136.58H263.88V139.14H261.32V136.58ZM263.34 157.36C262.447 157.36 261.614 157.133 260.84 156.68C260.08 156.227 259.474 155.613 259.02 154.84C258.58 154.08 258.36 153.26 258.36 152.38C258.36 151.633 258.52 150.92 258.84 150.24C259.174 149.56 259.634 148.98 260.22 148.5L265.36 144.72L263.22 143.7C263.007 143.593 262.814 143.54 262.64 143.54C262.307 143.54 261.987 143.68 261.68 143.96L260.18 145.58L258.18 143.84L259.7 142.02C260.074 141.567 260.514 141.233 261.02 141.02C261.54 140.807 262.074 140.7 262.62 140.7C263.22 140.7 263.794 140.847 264.34 141.14L268.66 143.16C268.767 143.187 268.867 143.2 268.96 143.2H270.8V146.02H268.38L262.2 150.56C261.654 151 261.38 151.587 261.38 152.32C261.38 152.92 261.594 153.433 262.02 153.86C262.46 154.287 262.974 154.5 263.56 154.5H269.36V157.36H263.34ZM268.934 136.56C268.934 135.947 269.134 135.46 269.534 135.1C269.921 134.727 270.401 134.54 270.974 134.54H276.034V136.72H271.354C271.194 136.72 271.068 136.767 270.974 136.86C270.881 136.94 270.834 137.067 270.834 137.24V138.2H268.934V136.56ZM271.714 138.32H274.594V151H271.714V138.32Z" fill="#E6E8EA"/>
</g>
</g>
<defs>
<filter id="filter0_d_833_6509" x="0.1" y="0.1" width="343.8" height="297.8" filterUnits="userSpaceOnUse" color-interpolation-filters="sRGB">
<feFlood flood-opacity="0" result="BackgroundImageFix"/>
<feColorMatrix in="SourceAlpha" type="matrix" values="0 0 0 0 0 0 0 0 0 0 0 0 0 0 0 0 0 0 127 0" result="hardAlpha"/>
<feOffset/>
<feGaussianBlur stdDeviation="10.95"/>
<feComposite in2="hardAlpha" operator="out"/>
<feColorMatrix type="matrix" values="0 0 0 0 0.0941176 0 0 0 0 0.231373 0 0 0 0 0.34902 0 0 0 1 0"/>
<feBlend mode="normal" in2="BackgroundImageFix" result="effect1_dropShadow_833_6509"/>
<feBlend mode="normal" in="SourceGraphic" in2="effect1_dropShadow_833_6509" result="shape"/>
</filter>
<filter id="filter1_d_833_6509" x="34.7" y="165.7" width="274.6" height="107.6" filterUnits="userSpaceOnUse" color-interpolation-filters="sRGB">
<feFlood flood-opacity="0" result="BackgroundImageFix"/>
<feColorMatrix in="SourceAlpha" type="matrix" values="0 0 0 0 0 0 0 0 0 0 0 0 0 0 0 0 0 0 127 0" result="hardAlpha"/>
<feOffset/>
<feGaussianBlur stdDeviation="15.15"/>
<feComposite in2="hardAlpha" operator="out"/>
<feColorMatrix type="matrix" values="0 0 0 0 1 0 0 0 0 1 0 0 0 0 1 0 0 0 0.2 0"/>
<feBlend mode="normal" in2="BackgroundImageFix" result="effect1_dropShadow_833_6509"/>
<feBlend mode="normal" in="SourceGraphic" in2="effect1_dropShadow_833_6509" result="shape"/>
</filter>
<filter id="filter2_d_833_6509" x="195.014" y="26.8455" width="67.2877" height="59.7028" filterUnits="userSpaceOnUse" color-interpolation-filters="sRGB">
<feFlood flood-opacity="0" result="BackgroundImageFix"/>
<feColorMatrix in="SourceAlpha" type="matrix" values="0 0 0 0 0 0 0 0 0 0 0 0 0 0 0 0 0 0 127 0" result="hardAlpha"/>
<feOffset dx="2" dy="4"/>
<feComposite in2="hardAlpha" operator="out"/>
<feColorMatrix type="matrix" values="0 0 0 0 0 0 0 0 0 0 0 0 0 0 0 0 0 0 0.25 0"/>
<feBlend mode="normal" in2="BackgroundImageFix" result="effect1_dropShadow_833_6509"/>
<feBlend mode="normal" in="SourceGraphic" in2="effect1_dropShadow_833_6509" result="shape"/>
</filter>
<filter id="filter3_d_833_6509" x="83.6989" y="27.8455" width="67.2877" height="59.7028" filterUnits="userSpaceOnUse" color-interpolation-filters="sRGB">
<feFlood flood-opacity="0" result="BackgroundImageFix"/>
<feColorMatrix in="SourceAlpha" type="matrix" values="0 0 0 0 0 0 0 0 0 0 0 0 0 0 0 0 0 0 127 0" result="hardAlpha"/>
<feOffset dx="2" dy="4"/>
<feComposite in2="hardAlpha" operator="out"/>
<feColorMatrix type="matrix" values="0 0 0 0 0 0 0 0 0 0 0 0 0 0 0 0 0 0 0.25 0"/>
<feBlend mode="normal" in2="BackgroundImageFix" result="effect1_dropShadow_833_6509"/>
<feBlend mode="normal" in="SourceGraphic" in2="effect1_dropShadow_833_6509" result="shape"/>
</filter>
<filter id="filter4_i_833_6509" x="105.171" y="22" width="134.5" height="57.5" filterUnits="userSpaceOnUse" color-interpolation-filters="sRGB">
<feFlood flood-opacity="0" result="BackgroundImageFix"/>
<feBlend mode="normal" in="SourceGraphic" in2="BackgroundImageFix" result="shape"/>
<feColorMatrix in="SourceAlpha" type="matrix" values="0 0 0 0 0 0 0 0 0 0 0 0 0 0 0 0 0 0 127 0" result="hardAlpha"/>
<feOffset dx="2" dy="2"/>
<feGaussianBlur stdDeviation="0.25"/>
<feComposite in2="hardAlpha" operator="arithmetic" k2="-1" k3="1"/>
<feColorMatrix type="matrix" values="0 0 0 0 0 0 0 0 0 0 0 0 0 0 0 0 0 0 0.25 0"/>
<feBlend mode="normal" in2="shape" result="effect1_innerShadow_833_6509"/>
</filter>
<filter id="filter5_d_833_6509" x="135.272" y="38.824" width="75.4637" height="24.992" filterUnits="userSpaceOnUse" color-interpolation-filters="sRGB">
<feFlood flood-opacity="0" result="BackgroundImageFix"/>
<feColorMatrix in="SourceAlpha" type="matrix" values="0 0 0 0 0 0 0 0 0 0 0 0 0 0 0 0 0 0 127 0" result="hardAlpha"/>
<feOffset dx="2" dy="2"/>
<feComposite in2="hardAlpha" operator="out"/>
<feColorMatrix type="matrix" values="0 0 0 0 0 0 0 0 0 0 0 0 0 0 0 0 0 0 0.25 0"/>
<feBlend mode="normal" in2="BackgroundImageFix" result="effect1_dropShadow_833_6509"/>
<feBlend mode="normal" in="SourceGraphic" in2="effect1_dropShadow_833_6509" result="shape"/>
</filter>
<filter id="filter6_d_833_6509" x="67.7943" y="134.54" width="210.24" height="24.82" filterUnits="userSpaceOnUse" color-interpolation-filters="sRGB">
<feFlood flood-opacity="0" result="BackgroundImageFix"/>
<feColorMatrix in="SourceAlpha" type="matrix" values="0 0 0 0 0 0 0 0 0 0 0 0 0 0 0 0 0 0 127 0" result="hardAlpha"/>
<feOffset dx="2" dy="2"/>
<feComposite in2="hardAlpha" operator="out"/>
<feColorMatrix type="matrix" values="0 0 0 0 0 0 0 0 0 0 0 0 0 0 0 0 0 0 0.25 0"/>
<feBlend mode="normal" in2="BackgroundImageFix" result="effect1_dropShadow_833_6509"/>
<feBlend mode="normal" in="SourceGraphic" in2="effect1_dropShadow_833_6509" result="shape"/>
</filter>
</defs>
</svg>
