<svg width="114" height="56" viewBox="0 0 114 56" fill="none" xmlns="http://www.w3.org/2000/svg">
<g filter="url(#filter0_i_1125_17241)">
<path d="M1 14.0974C1 8.36374 5.39143 3.596 11.1106 3.18856C23.3605 2.31585 43.9175 1 56.5044 1C69.1696 1 90.3526 2.33226 102.868 3.20478C108.596 3.60417 113 8.37628 113 14.1188V41.9613C113 47.6706 108.637 52.4253 102.943 52.8452C91.1121 53.7176 71.2192 55 56.5044 55C41.8924 55 22.5996 53.7355 11.0331 52.8635C5.35082 52.4351 1 47.6856 1 41.9872V14.0974Z" fill="#CB6404"/>
</g>
<path d="M11.075 2.68982C5.09118 3.11612 0.5 8.10443 0.5 14.0974V41.9872C0.5 47.9437 5.04903 52.9138 10.9956 53.3621C22.5627 54.2341 41.8719 55.5 56.5044 55.5C71.2394 55.5 91.1487 54.2163 102.98 53.3438C108.939 52.9045 113.5 47.929 113.5 41.9613V14.1188C113.5 8.11659 108.896 3.12385 102.903 2.70599C90.3904 1.83368 69.19 0.5 56.5044 0.5C43.8968 0.5 23.3222 1.8173 11.075 2.68982Z" stroke="white"/>
<path fill-rule="evenodd" clip-rule="evenodd" d="M5.18848 50.6036C6.81749 51.8777 8.82494 52.6971 11.0336 52.8636C22.6 53.7355 41.8928 55.0001 56.5048 55.0001C71.2196 55.0001 91.1126 53.7177 102.944 52.8452C108.638 52.4254 113 47.6706 113 41.9614V14.1188C113 11.744 112.247 9.53517 110.959 7.73291C110.061 32.2837 91.2678 60.6407 5.18848 50.6036Z" fill="#B65700"/>
<path d="M21.354 7.09559C22.1904 8.54606 16.8077 8.82813 12.9292 11.0229C9.05068 13.2176 7.35098 16.3209 6.51453 14.8704C5.67808 13.42 8.14416 10.465 12.0227 8.27023C15.9012 6.0755 20.5175 5.64512 21.354 7.09559Z" fill="#FC8E29"/>
<g filter="url(#filter1_d_1125_17241)">
<path d="M19.1652 31.84C18.7918 31.4667 18.5052 31.0467 18.3052 30.58C18.1185 30.1 18.0252 29.6133 18.0252 29.12C18.0252 28.6 18.1318 28.0867 18.3452 27.58C18.5718 27.06 18.8852 26.6 19.2852 26.2L20.5852 24.9L19.7252 24.06L21.2052 22.6L24.8252 26.2C25.2252 26.6 25.5252 27.0533 25.7252 27.56C25.9385 28.0667 26.0452 28.5867 26.0452 29.12C26.0452 29.6267 25.9452 30.1133 25.7452 30.58C25.5585 31.0467 25.2785 31.4667 24.9052 31.84C24.5185 32.2267 24.0785 32.52 23.5852 32.72C23.0918 32.92 22.5785 33.02 22.0452 33.02C21.5118 33.02 20.9985 32.92 20.5052 32.72C20.0118 32.52 19.5652 32.2267 19.1652 31.84ZM20.7052 30.3C21.0918 30.6867 21.5385 30.88 22.0452 30.88C22.5518 30.88 22.9985 30.6867 23.3852 30.3C23.7318 29.9533 23.9052 29.5267 23.9052 29.02C23.9052 28.5 23.7185 28.0533 23.3452 27.68L22.0252 26.34L20.7252 27.66C20.3518 28.0333 20.1652 28.48 20.1652 29C20.1652 29.5067 20.3452 29.94 20.7052 30.3ZM24.8152 36.66C25.7885 36.1133 26.4818 35.68 26.8952 35.36C27.3218 35.0533 27.6285 34.68 27.8152 34.24C28.0152 33.8133 28.1152 33.2267 28.1152 32.48V26.18H30.1752V32.46C30.1752 33.5 30.0285 34.3533 29.7352 35.02C29.4418 35.6867 28.9752 36.2667 28.3352 36.76C27.7085 37.2533 26.7952 37.7933 25.5952 38.38L24.8152 36.66ZM35.802 33C35.162 33 34.5754 32.8467 34.042 32.54C33.5087 32.22 33.0887 31.7933 32.782 31.26C32.4754 30.7267 32.322 30.14 32.322 29.5V19.72H34.382V29.38C34.382 29.78 34.522 30.12 34.802 30.4C35.082 30.68 35.4154 30.82 35.802 30.82H36.782C36.9154 30.82 36.982 30.8867 36.982 31.02V32.8C36.982 32.9333 36.9154 33 36.782 33H35.802ZM36.7852 33C36.6518 33 36.5852 32.9333 36.5852 32.8V31.02C36.5852 30.8867 36.6518 30.82 36.7852 30.82H37.7652C38.1518 30.82 38.4852 30.68 38.7652 30.4C39.0452 30.12 39.1852 29.78 39.1852 29.38V25.58H41.2452V29.5C41.2452 30.14 41.0918 30.7267 40.7852 31.26C40.4785 31.7933 40.0585 32.22 39.5252 32.54C38.9918 32.8467 38.4052 33 37.7652 33H36.7852ZM36.7852 34.8H38.8252V36.84H36.7852V34.8ZM44.7777 36.56C46.0177 36.0267 46.931 35.5933 47.5177 35.26C48.1177 34.94 48.5377 34.6067 48.7777 34.26C49.031 33.9267 49.1577 33.5067 49.1577 33H47.3177C46.571 33 45.8843 32.8333 45.2577 32.5C44.6443 32.1533 44.151 31.68 43.7777 31.08C43.4177 30.48 43.2377 29.8133 43.2377 29.08C43.2377 28.3467 43.4177 27.6733 43.7777 27.06C44.151 26.4467 44.6443 25.96 45.2577 25.6C45.8843 25.2267 46.571 25.04 47.3177 25.04C48.0377 25.04 48.6977 25.22 49.2977 25.58C49.8977 25.94 50.3643 26.4333 50.6977 27.06C51.0443 27.6733 51.2177 28.3467 51.2177 29.08V32.18C51.2177 33.2867 51.0177 34.1867 50.6177 34.88C50.231 35.5733 49.6443 36.16 48.8577 36.64C48.0843 37.1333 46.9377 37.7133 45.4177 38.38L44.7777 36.56ZM49.1577 29.08C49.1577 28.56 48.9777 28.12 48.6177 27.76C48.2577 27.3867 47.8243 27.2 47.3177 27.2C46.7843 27.2 46.331 27.3867 45.9577 27.76C45.5977 28.12 45.4177 28.56 45.4177 29.08C45.4177 29.6133 45.5977 30.06 45.9577 30.42C46.331 30.7667 46.7843 30.94 47.3177 30.94H49.1577V29.08ZM58.0748 30.82C58.4748 30.82 58.8082 30.6867 59.0748 30.42C59.3548 30.1533 59.4948 29.8267 59.4948 29.44C59.4948 29.1733 59.4282 28.94 59.2948 28.74C59.1615 28.5267 58.9415 28.3133 58.6348 28.1L54.7348 25.42L55.8948 23.74L60.1148 26.64C60.5815 26.9867 60.9415 27.3867 61.1948 27.84C61.4482 28.28 61.5748 28.7933 61.5748 29.38C61.5748 30.0467 61.4082 30.66 61.0748 31.22C60.7415 31.7667 60.2948 32.2 59.7348 32.52C59.1748 32.84 58.5615 33 57.8948 33H53.3548V30.82H58.0748ZM72.2164 37.5C71.3764 37.5 70.5964 37.2867 69.8764 36.86C69.1697 36.4467 68.6031 35.88 68.1764 35.16C67.7631 34.4533 67.5564 33.68 67.5564 32.84V28.42H69.6164V32.74C69.6164 33.2067 69.7297 33.6333 69.9564 34.02C70.1964 34.42 70.5164 34.7333 70.9164 34.96C71.3164 35.2 71.7497 35.32 72.2164 35.32H76.6364C77.0764 35.32 77.4364 35.1733 77.7164 34.88C77.9964 34.6 78.1364 34.2467 78.1364 33.82C78.1364 33.4733 78.0297 33.1667 77.8164 32.9C77.6031 32.62 77.3231 32.44 76.9764 32.36L72.1364 31.24V28.98C72.1364 28.2867 72.3097 27.6467 72.6564 27.06C73.0164 26.46 73.4964 25.9867 74.0964 25.64C74.6964 25.28 75.3497 25.1 76.0564 25.1H79.3964V27.16H76.0364C75.5297 27.16 75.0964 27.34 74.7364 27.7C74.3764 28.06 74.1964 28.4933 74.1964 29V29.6C75.3831 29.8667 76.5364 30.1333 77.6564 30.4C78.4297 30.6133 79.0564 31.0467 79.5364 31.7C80.0297 32.3533 80.2764 33.08 80.2764 33.88C80.2764 34.5333 80.1097 35.1333 79.7764 35.68C79.4564 36.24 79.0164 36.68 78.4564 37C77.9097 37.3333 77.3031 37.5 76.6364 37.5H72.2164ZM83.0788 22.36H85.1188V24.38H83.0788V22.36ZM80.6987 36.86C81.4188 36.34 81.9388 35.8867 82.2588 35.5C82.5921 35.1133 82.8054 34.7 82.8988 34.26C83.0054 33.8333 83.0588 33.24 83.0588 32.48V26.18H85.1188V32.46C85.1188 33.46 85.0254 34.28 84.8388 34.92C84.6521 35.5733 84.3254 36.16 83.8587 36.68C83.4054 37.2 82.7321 37.7667 81.8388 38.38L80.6987 36.86ZM90.9192 33C90.2792 33 89.6926 32.8467 89.1592 32.54C88.6259 32.22 88.2059 31.7933 87.8992 31.26C87.5926 30.7267 87.4392 30.14 87.4392 29.5V19.72H89.4992V29.38C89.4992 29.78 89.6392 30.12 89.9192 30.4C90.1992 30.68 90.5326 30.82 90.9192 30.82H91.8992C92.0326 30.82 92.0992 30.8867 92.0992 31.02V32.8C92.0992 32.9333 92.0326 33 91.8992 33H90.9192ZM91.9023 33C91.769 33 91.7023 32.9333 91.7023 32.8V31.02C91.7023 30.8867 91.769 30.82 91.9023 30.82H92.8823C93.269 30.82 93.6023 30.68 93.8823 30.4C94.1623 30.12 94.3023 29.78 94.3023 29.38V25.58H96.3623V29.5C96.3623 30.14 96.209 30.7267 95.9023 31.26C95.5957 31.7933 95.1757 32.22 94.6423 32.54C94.109 32.8467 93.5223 33 92.8823 33H91.9023ZM91.9023 34.8H93.9423V36.84H91.9023V34.8Z" fill="#E6E8EA"/>
</g>
<circle cx="5.5" cy="17.5" r="1.5" fill="#FC8E29"/>
<defs>
<filter id="filter0_i_1125_17241" x="0" y="0" width="114.5" height="56.5" filterUnits="userSpaceOnUse" color-interpolation-filters="sRGB">
<feFlood flood-opacity="0" result="BackgroundImageFix"/>
<feBlend mode="normal" in="SourceGraphic" in2="BackgroundImageFix" result="shape"/>
<feColorMatrix in="SourceAlpha" type="matrix" values="0 0 0 0 0 0 0 0 0 0 0 0 0 0 0 0 0 0 127 0" result="hardAlpha"/>
<feOffset dx="2" dy="2"/>
<feGaussianBlur stdDeviation="0.25"/>
<feComposite in2="hardAlpha" operator="arithmetic" k2="-1" k3="1"/>
<feColorMatrix type="matrix" values="0 0 0 0 0 0 0 0 0 0 0 0 0 0 0 0 0 0 0.25 0"/>
<feBlend mode="normal" in2="shape" result="effect1_innerShadow_1125_17241"/>
</filter>
<filter id="filter1_d_1125_17241" x="18.0254" y="19.72" width="80.3369" height="20.6599" filterUnits="userSpaceOnUse" color-interpolation-filters="sRGB">
<feFlood flood-opacity="0" result="BackgroundImageFix"/>
<feColorMatrix in="SourceAlpha" type="matrix" values="0 0 0 0 0 0 0 0 0 0 0 0 0 0 0 0 0 0 127 0" result="hardAlpha"/>
<feOffset dx="2" dy="2"/>
<feComposite in2="hardAlpha" operator="out"/>
<feColorMatrix type="matrix" values="0 0 0 0 0 0 0 0 0 0 0 0 0 0 0 0 0 0 0.25 0"/>
<feBlend mode="normal" in2="BackgroundImageFix" result="effect1_dropShadow_1125_17241"/>
<feBlend mode="normal" in="SourceGraphic" in2="effect1_dropShadow_1125_17241" result="shape"/>
</filter>
</defs>
</svg>
