<svg width="142" height="56" viewBox="0 0 142 56" fill="none" xmlns="http://www.w3.org/2000/svg">
<g filter="url(#filter0_i_1247_23286)">
<path d="M1 14.2613C1 8.46005 5.48684 3.66011 11.2784 3.32423C26.1794 2.46005 53.8072 1 70.3805 1C87.0418 1 115.496 2.47558 130.702 3.33793C136.501 3.6668 141 8.47034 141 14.2788V41.7865C141 47.5681 136.539 52.3576 130.767 52.7057C116.385 53.5732 89.782 55 70.3805 55C51.0974 55 25.2931 53.5906 11.2167 52.7216C5.45465 52.366 1 47.5805 1 41.8075V14.2613Z" fill="#0F3B62"/>
</g>
<path d="M11.2494 2.82507C5.1908 3.17644 0.5 8.1978 0.5 14.2613V41.8075C0.5 47.8419 5.15741 52.8486 11.1858 53.2207C25.2625 54.0896 51.0805 55.5 70.3805 55.5C89.7987 55.5 116.416 54.0723 130.798 53.2048C136.836 52.8406 141.5 47.8296 141.5 41.7865V14.2788C141.5 8.20767 136.797 3.18275 130.73 2.83873C115.527 1.97654 87.0585 0.5 70.3805 0.5C53.7902 0.5 26.1479 1.96103 11.2494 2.82507Z" stroke="white"/>
<path fill-rule="evenodd" clip-rule="evenodd" d="M5.2915 50.5148C6.94833 51.7821 8.98438 52.5848 11.2167 52.7226C25.2931 53.5915 51.0974 55.0009 70.3805 55.0009C89.782 55.0009 116.385 53.5741 130.767 52.7066C136.539 52.3585 141 47.569 141 41.7874V14.2797C141 11.6146 140.053 9.16098 138.468 7.25415C137.626 31.9846 114.401 60.873 5.2915 50.5148Z" fill="#072B4B"/>
<path d="M26.4425 7.09559C27.488 8.54606 20.7597 8.82813 15.9115 11.0229C11.0634 13.2176 8.93872 16.3209 7.89316 14.8704C6.8476 13.42 9.9302 10.465 14.7784 8.27023C19.6265 6.0755 25.3969 5.64512 26.4425 7.09559Z" fill="#1C4D79"/>
<g filter="url(#filter1_d_1247_23286)">
<path d="M32.1434 31.76C31.7434 31.36 31.4434 30.9133 31.2434 30.42C31.0434 29.9267 30.9434 29.4133 30.9434 28.88C30.9434 28.3067 31.0568 27.7467 31.2834 27.2C31.5234 26.64 31.8634 26.14 32.3034 25.7L33.2234 24.78L32.3234 23.9L34.3834 21.9L38.2034 25.7C38.6434 26.14 38.9768 26.64 39.2034 27.2C39.4301 27.7467 39.5434 28.3067 39.5434 28.88C39.5434 29.4133 39.4434 29.9333 39.2434 30.44C39.0434 30.9333 38.7434 31.3733 38.3434 31.76C37.9301 32.1733 37.4568 32.4867 36.9234 32.7C36.3901 32.9133 35.8301 33.02 35.2434 33.02C34.6701 33.02 34.1168 32.9133 33.5834 32.7C33.0501 32.4867 32.5701 32.1733 32.1434 31.76ZM34.3034 29.6C34.5834 29.88 34.9034 30.02 35.2634 30.02C35.6101 30.02 35.9234 29.88 36.2034 29.6C36.4568 29.3467 36.5834 29.0533 36.5834 28.72C36.5834 28.3467 36.4434 28.02 36.1634 27.74L35.2434 26.8L34.3234 27.7C34.0434 27.98 33.9034 28.3 33.9034 28.66C33.9034 29.02 34.0368 29.3333 34.3034 29.6ZM38.1669 36.26C39.1135 35.7133 39.7869 35.2733 40.1869 34.94C40.5869 34.6067 40.8535 34.2467 40.9869 33.86C41.1202 33.4733 41.1869 32.9133 41.1869 32.18V25.54H44.0669V32.18C44.0669 33.3 43.9269 34.22 43.6469 34.94C43.3669 35.66 42.8869 36.3 42.2069 36.86C41.5269 37.4333 40.5402 38.04 39.2469 38.68L38.1669 36.26ZM49.4495 33C48.7562 33 48.1229 32.8333 47.5495 32.5C46.9762 32.1533 46.5229 31.6933 46.1895 31.12C45.8562 30.5333 45.6895 29.9 45.6895 29.22V19.52H48.5695V29.04C48.5695 29.3067 48.6562 29.5333 48.8295 29.72C49.0029 29.8933 49.2162 29.98 49.4695 29.98H50.5695C50.7029 29.98 50.7695 30.0467 50.7695 30.18V32.8C50.7695 32.9333 50.7029 33 50.5695 33H49.4495ZM50.5703 33C50.437 33 50.3703 32.9333 50.3703 32.8V30.18C50.3703 30.0467 50.437 29.98 50.5703 29.98H51.6503C51.9036 29.98 52.117 29.8867 52.2903 29.7C52.477 29.5133 52.5703 29.2933 52.5703 29.04V24.94H55.4303V29.22C55.4303 29.9 55.2636 30.5333 54.9303 31.12C54.597 31.6933 54.1436 32.1533 53.5703 32.5C52.997 32.8333 52.3636 33 51.6703 33H50.5703ZM50.5503 34.7H53.1303V37.26H50.5503V34.7ZM58.4586 36.14C59.6453 35.6333 60.5253 35.22 61.0986 34.9C61.6853 34.58 62.0853 34.28 62.2986 34C62.5119 33.72 62.6186 33.3867 62.6186 33H61.3186C60.5186 33 59.7853 32.82 59.1186 32.46C58.4519 32.1 57.9186 31.6067 57.5186 30.98C57.1319 30.34 56.9386 29.6267 56.9386 28.84C56.9386 28.04 57.1319 27.3067 57.5186 26.64C57.9186 25.9733 58.4519 25.4467 59.1186 25.06C59.7853 24.66 60.5186 24.46 61.3186 24.46C62.0919 24.46 62.7986 24.66 63.4386 25.06C64.0786 25.4467 64.5786 25.9733 64.9386 26.64C65.2986 27.3067 65.4786 28.04 65.4786 28.84V31.76C65.4786 33 65.2853 34 64.8986 34.76C64.5253 35.5333 63.9119 36.2 63.0586 36.76C62.2186 37.3333 60.9853 37.9733 59.3586 38.68L58.4586 36.14ZM62.6186 28.82C62.6186 28.4333 62.4919 28.1133 62.2386 27.86C61.9986 27.6067 61.6919 27.48 61.3186 27.48C60.9319 27.48 60.6053 27.6067 60.3386 27.86C60.0853 28.1133 59.9586 28.4333 59.9586 28.82C59.9586 29.2067 60.0853 29.5267 60.3386 29.78C60.6053 30.0333 60.9319 30.16 61.3186 30.16H62.6186V28.82ZM72.1144 29.98C72.4077 29.98 72.641 29.8933 72.8144 29.72C73.001 29.5467 73.0944 29.3267 73.0944 29.06C73.0944 28.8733 73.0344 28.7133 72.9144 28.58C72.8077 28.4333 72.6077 28.26 72.3144 28.06L68.1144 25.18L69.7344 22.8L74.4144 26.04C74.921 26.4267 75.301 26.8533 75.5544 27.32C75.821 27.7733 75.9544 28.3267 75.9544 28.98C75.9544 29.7267 75.7677 30.4067 75.3944 31.02C75.0344 31.6333 74.541 32.12 73.9144 32.48C73.2877 32.8267 72.6077 33 71.8744 33H67.1144V29.98H72.1144ZM86.0034 37.5C85.0834 37.5 84.2368 37.2733 83.4634 36.82C82.6901 36.3667 82.0768 35.7533 81.6234 34.98C81.1701 34.2067 80.9434 33.36 80.9434 32.44V27.58H83.8234V32.28C83.8234 32.88 84.0368 33.3933 84.4634 33.82C84.8901 34.26 85.4034 34.48 86.0034 34.48H90.5834C90.9034 34.48 91.1634 34.3733 91.3634 34.16C91.5634 33.96 91.6634 33.7 91.6634 33.38C91.6634 33.14 91.5901 32.92 91.4434 32.72C91.2968 32.52 91.0968 32.3933 90.8434 32.34L85.6834 31.16V28.54C85.6834 27.78 85.8768 27.0733 86.2634 26.42C86.6634 25.7533 87.1968 25.2267 87.8634 24.84C88.5434 24.4533 89.2701 24.26 90.0434 24.26H93.7634V27.12H90.0034C89.6168 27.12 89.2768 27.2667 88.9834 27.56C88.7034 27.84 88.5634 28.1733 88.5634 28.56V28.88C89.7901 29.1467 90.5901 29.3267 90.9634 29.42L91.7634 29.6C92.6034 29.8533 93.2901 30.34 93.8234 31.06C94.3568 31.78 94.6234 32.5867 94.6234 33.48C94.6234 34.2133 94.4434 34.8867 94.0834 35.5C93.7234 36.1133 93.2301 36.6 92.6034 36.96C91.9901 37.32 91.3168 37.5 90.5834 37.5H86.0034ZM97.2155 21.26H99.7755V23.84H97.2155V21.26ZM94.7755 36.58C95.4821 36.02 95.9888 35.54 96.2955 35.14C96.6155 34.74 96.8221 34.3333 96.9155 33.92C97.0088 33.5067 97.0555 32.9267 97.0555 32.18V25.54H99.9155V32.18C99.9155 33.26 99.8088 34.1467 99.5955 34.84C99.3955 35.5333 99.0488 36.1667 98.5555 36.74C98.0621 37.3133 97.3355 37.96 96.3755 38.68L94.7755 36.58ZM105.368 33C104.674 33 104.041 32.8333 103.468 32.5C102.894 32.1533 102.441 31.6933 102.108 31.12C101.774 30.5333 101.608 29.9 101.608 29.22V19.52H104.488V29.04C104.488 29.3067 104.574 29.5333 104.748 29.72C104.921 29.8933 105.134 29.98 105.388 29.98H106.488C106.621 29.98 106.688 30.0467 106.688 30.18V32.8C106.688 32.9333 106.621 33 106.488 33H105.368ZM106.488 33C106.355 33 106.288 32.9333 106.288 32.8V30.18C106.288 30.0467 106.355 29.98 106.488 29.98H107.568C107.822 29.98 108.035 29.8867 108.208 29.7C108.395 29.5133 108.488 29.2933 108.488 29.04V24.94H111.348V29.22C111.348 29.9 111.182 30.5333 110.848 31.12C110.515 31.6933 110.062 32.1533 109.488 32.5C108.915 32.8333 108.282 33 107.588 33H106.488ZM106.468 34.7H109.048V37.26H106.468V34.7Z" fill="#E6E8EA"/>
</g>
<ellipse cx="6.625" cy="17.5" rx="1.875" ry="1.5" fill="#1C4D79"/>
<defs>
<filter id="filter0_i_1247_23286" x="0" y="0" width="142.5" height="56.5" filterUnits="userSpaceOnUse" color-interpolation-filters="sRGB">
<feFlood flood-opacity="0" result="BackgroundImageFix"/>
<feBlend mode="normal" in="SourceGraphic" in2="BackgroundImageFix" result="shape"/>
<feColorMatrix in="SourceAlpha" type="matrix" values="0 0 0 0 0 0 0 0 0 0 0 0 0 0 0 0 0 0 127 0" result="hardAlpha"/>
<feOffset dx="2" dy="2"/>
<feGaussianBlur stdDeviation="0.25"/>
<feComposite in2="hardAlpha" operator="arithmetic" k2="-1" k3="1"/>
<feColorMatrix type="matrix" values="0 0 0 0 0 0 0 0 0 0 0 0 0 0 0 0 0 0 0.25 0"/>
<feBlend mode="normal" in2="shape" result="effect1_innerShadow_1247_23286"/>
</filter>
<filter id="filter1_d_1247_23286" x="30.9434" y="19.52" width="82.405" height="21.1599" filterUnits="userSpaceOnUse" color-interpolation-filters="sRGB">
<feFlood flood-opacity="0" result="BackgroundImageFix"/>
<feColorMatrix in="SourceAlpha" type="matrix" values="0 0 0 0 0 0 0 0 0 0 0 0 0 0 0 0 0 0 127 0" result="hardAlpha"/>
<feOffset dx="2" dy="2"/>
<feComposite in2="hardAlpha" operator="out"/>
<feColorMatrix type="matrix" values="0 0 0 0 0 0 0 0 0 0 0 0 0 0 0 0 0 0 0.25 0"/>
<feBlend mode="normal" in2="BackgroundImageFix" result="effect1_dropShadow_1247_23286"/>
<feBlend mode="normal" in="SourceGraphic" in2="effect1_dropShadow_1247_23286" result="shape"/>
</filter>
</defs>
</svg>
