<svg width="300" height="195" viewBox="0 0 300 195" fill="none" xmlns="http://www.w3.org/2000/svg">
<rect x="1" y="34" width="298" height="160" rx="15" fill="#031A30"/>
<rect x="1" y="34" width="298" height="160" rx="15" stroke="#B1B8BF" stroke-width="2"/>
<mask id="mask0_830_6507" style="mask-type:alpha" maskUnits="userSpaceOnUse" x="0" y="72" width="298" height="122">
<rect x="1.5" y="73.95" width="294.959" height="117.726" rx="22.5" fill="#031A30"/>
<rect x="1.5" y="73.95" width="294.959" height="117.726" rx="22.5" stroke="#B1B8BF" stroke-width="3"/>
</mask>
<g mask="url(#mask0_830_6507)">
<path d="M255.403 143.184C287.023 124.757 301.685 90.8533 305.063 76.205H561.47C537.653 84.591 535.525 232.544 512.823 234.505C490.122 236.465 21.6299 249.97 -64.8525 245.614L-53.1977 185.986C-17.3885 187.293 68.1143 189.122 123.652 185.986C193.075 182.065 215.878 166.219 255.403 143.184Z" fill="#021425"/>
</g>
<circle cx="9" cy="60" r="3" fill="#092B4B"/>
<circle cx="9" cy="60" r="3" fill="#1D3E5E"/>
<path d="M38.5146 39.6241C39.8861 42.025 30.5725 42.7705 23.7606 46.6618C16.9486 50.5531 13.8548 55.8652 12.4833 53.4643C11.1118 51.0635 15.5222 45.9627 22.3341 42.0714C29.146 38.1801 37.1431 37.2233 38.5146 39.6241Z" fill="#092B4B"/>
<path d="M38.5146 39.6241C39.8861 42.025 30.5725 42.7705 23.7606 46.6618C16.9486 50.5531 13.8548 55.8652 12.4833 53.4643C11.1118 51.0635 15.5222 45.9627 22.3341 42.0714C29.146 38.1801 37.1431 37.2233 38.5146 39.6241Z" fill="#1D3E5E"/>
<g filter="url(#filter0_d_830_6507)">
<path d="M63.2583 86.032H62.0823L61.9283 78.962H63.3983L63.2583 86.032ZM61.7323 88.202C61.7323 87.9313 61.821 87.7073 61.9983 87.53C62.185 87.3433 62.4136 87.25 62.6843 87.25C62.955 87.25 63.179 87.3433 63.3563 87.53C63.543 87.7073 63.6363 87.9313 63.6363 88.202C63.6363 88.4633 63.543 88.6873 63.3563 88.874C63.179 89.0607 62.955 89.154 62.6843 89.154C62.4136 89.154 62.185 89.0653 61.9983 88.888C61.821 88.7013 61.7323 88.4727 61.7323 88.202ZM69.3525 92.276C68.5031 92.276 67.7518 92.108 67.0985 91.772C66.4451 91.436 65.9411 90.9507 65.5865 90.316C65.2411 89.6813 65.0918 88.9347 65.1385 88.076C65.1571 87.544 65.2551 86.9887 65.4325 86.41C65.6191 85.822 65.8291 85.29 66.0625 84.814L67.1545 85.318C66.9211 85.8407 66.7345 86.34 66.5945 86.816C66.4545 87.2827 66.3845 87.7353 66.3845 88.174C66.3845 89.014 66.6411 89.6487 67.1545 90.078C67.6678 90.5167 68.4005 90.736 69.3525 90.736C69.9498 90.736 70.4865 90.6473 70.9625 90.47C71.4478 90.302 71.8445 90.078 72.1525 89.798C72.4698 89.5273 72.6891 89.2427 72.8105 88.944C72.8198 88.8973 72.6985 88.8273 72.4465 88.734C72.1945 88.6313 71.7651 88.496 71.1585 88.328C70.4305 88.1227 69.9171 87.894 69.6185 87.642C69.3198 87.3807 69.1705 87.0027 69.1705 86.508C69.1705 85.7987 69.3478 85.122 69.7025 84.478C70.0665 83.834 70.5471 83.316 71.1445 82.924C71.7511 82.532 72.3858 82.336 73.0485 82.336C73.3005 82.336 73.5571 82.3733 73.8185 82.448C74.0891 82.5133 74.2851 82.5927 74.4065 82.686L73.9585 84.03C73.8465 83.9833 73.7018 83.946 73.5245 83.918C73.3471 83.89 73.1838 83.876 73.0345 83.876C72.6145 83.876 72.2131 83.9787 71.8305 84.184C71.4571 84.3893 71.1445 84.6507 70.8925 84.968C70.6498 85.2853 70.4958 85.612 70.4305 85.948C70.4211 85.9853 70.4165 86.0413 70.4165 86.116C70.4165 86.2933 70.5191 86.4473 70.7245 86.578C70.9298 86.6993 71.3405 86.844 71.9565 87.012C72.5351 87.1707 72.9785 87.3247 73.2865 87.474C73.5945 87.6233 73.8045 87.7867 73.9165 87.964C74.0285 88.132 74.0845 88.342 74.0845 88.594C74.0845 89.2007 73.8791 89.784 73.4685 90.344C73.0671 90.9133 72.5025 91.3753 71.7745 91.73C71.0558 92.094 70.2485 92.276 69.3525 92.276ZM79.7425 89C79.4159 89 79.1172 88.9253 78.8465 88.776V88.846C78.8465 89.7047 78.4872 90.512 77.7685 91.268C77.0592 92.0333 76.1352 92.626 74.9965 93.046L74.3945 91.73C75.0012 91.506 75.5472 91.226 76.0325 90.89C76.5272 90.554 76.9145 90.204 77.1945 89.84C77.4839 89.4853 77.6285 89.154 77.6285 88.846C77.6285 88.454 77.3812 87.2967 76.8865 85.374L78.1185 84.898C78.2492 85.318 78.3752 85.7847 78.4965 86.298C78.6272 86.7273 78.7859 87.0307 78.9725 87.208C79.1592 87.376 79.4159 87.46 79.7425 87.46H79.8405L79.9245 88.23L79.8405 89H79.7425ZM79.6976 87.46H79.8096C80.5376 87.46 81.1022 87.4273 81.5036 87.362C81.9049 87.2967 82.1942 87.2033 82.3716 87.082C82.5582 86.9513 82.6842 86.7693 82.7496 86.536C82.7869 86.4147 82.8056 86.242 82.8056 86.018C82.8056 85.766 82.7822 85.4813 82.7356 85.164C82.6889 84.8373 82.6609 84.6367 82.6516 84.562L83.8136 84.324C83.9442 84.9493 84.0096 85.7053 84.0096 86.592C84.0562 86.8627 84.1776 87.0773 84.3736 87.236C84.5789 87.3853 84.8542 87.46 85.1996 87.46H85.2976L85.3816 88.23L85.2976 89H85.1996C84.8076 89 84.4529 88.9067 84.1356 88.72C83.8276 88.524 83.5756 88.2627 83.3796 87.936C83.1462 88.328 82.7542 88.6033 82.2036 88.762C81.6622 88.9207 80.8642 89 79.8096 89H79.6976V87.46ZM80.8176 90.274L81.8816 91.324C81.4149 91.7907 81.1816 92.024 81.1816 92.024L80.8176 92.388L79.7676 91.324L80.8176 90.274ZM83.3096 90.274L84.3736 91.324C83.9069 91.7907 83.6736 92.024 83.6736 92.024L83.3096 92.388L82.2596 91.324L83.3096 90.274ZM85.1527 87.46H85.5447C87.2993 87.46 88.3493 87.18 88.6947 86.62C88.7227 86.536 88.7367 86.4473 88.7367 86.354C88.7367 85.9247 88.48 85.388 87.9667 84.744C87.4533 84.1 86.7347 83.4187 85.8107 82.7L85.9647 81.3L91.1167 79.102L91.5367 80.334L87.2667 82.182C87.9573 82.7607 88.5733 83.4327 89.1147 84.198C89.6653 84.954 89.9407 85.6773 89.9407 86.368C89.9407 86.5827 89.9033 86.802 89.8287 87.026C89.614 87.698 89.138 88.1973 88.4007 88.524C87.6633 88.8413 86.7113 89 85.5447 89H85.1527V87.46ZM86.1187 79.634L90.5847 77.758L90.8087 78.332L86.0347 80.362L86.1187 79.634ZM96.3271 92.948C95.5057 92.948 94.7777 92.794 94.1431 92.486C93.5084 92.178 93.0091 91.7253 92.6451 91.128C92.2811 90.54 92.0991 89.84 92.0991 89.028C92.0991 88.468 92.1924 87.866 92.3791 87.222C92.5751 86.578 92.7991 85.9993 93.0511 85.486L94.1291 85.99C93.8957 86.5127 93.7091 87.012 93.5691 87.488C93.4291 87.9547 93.3591 88.4073 93.3591 88.846C93.3591 89.6953 93.6157 90.3347 94.1291 90.764C94.6424 91.2027 95.3751 91.422 96.3271 91.422C96.8684 91.422 97.3817 91.352 97.8671 91.212C98.3617 91.072 98.7724 90.8993 99.0991 90.694C99.4257 90.498 99.6264 90.316 99.7011 90.148C99.5984 89.98 99.2671 89.7187 98.7071 89.364C98.1471 89.0093 97.5544 88.7107 96.9291 88.468L97.2511 87.012C97.9977 87.1613 98.6604 87.2733 99.2391 87.348C99.8271 87.4227 100.396 87.46 100.947 87.46H101.241L101.325 88.23L101.241 89H100.947C100.648 89 100.35 88.986 100.051 88.958C100.62 89.3873 100.905 89.8027 100.905 90.204C100.896 90.6427 100.681 91.0767 100.261 91.506C99.8411 91.9353 99.2811 92.2807 98.5811 92.542C97.8904 92.8127 97.1391 92.948 96.3271 92.948ZM101.012 87.46H101.292C102.057 87.46 102.673 87.026 103.14 86.158C103.607 85.3087 104.05 84.6553 104.47 84.198C104.899 83.7407 105.371 83.512 105.884 83.512C106.444 83.512 106.892 83.708 107.228 84.1C107.573 84.492 107.844 85.0333 108.04 85.724C108.217 86.3587 108.381 86.8067 108.53 87.068C108.689 87.3293 108.903 87.46 109.174 87.46H109.314L109.398 88.23L109.314 89H109.174C108.53 89 108.073 88.6453 107.802 87.936C107.774 88.1413 107.685 88.3327 107.536 88.51C107.387 88.678 107.219 88.8133 107.032 88.916C106.845 89.0187 106.631 89.07 106.388 89.07C105.697 89.07 104.75 88.6827 103.546 87.908C103.266 88.272 102.93 88.5473 102.538 88.734C102.146 88.9113 101.721 89 101.264 89H101.012V87.46ZM104.204 86.676C104.708 87.0307 105.179 87.2967 105.618 87.474C106.066 87.642 106.421 87.726 106.682 87.726C106.747 87.726 106.817 87.7167 106.892 87.698C107.023 87.5113 107.088 87.2547 107.088 86.928C107.088 86.62 107.037 86.312 106.934 86.004C106.831 85.6867 106.687 85.4253 106.5 85.22C106.313 85.0147 106.099 84.912 105.856 84.912C105.38 84.912 104.829 85.5 104.204 86.676ZM109.174 87.46H109.902C110.63 87.46 111.153 87.3713 111.47 87.194C111.787 87.0167 111.946 86.7413 111.946 86.368C111.946 86.116 111.848 85.6867 111.652 85.08C111.465 84.464 111.316 84.0393 111.204 83.806L112.366 83.176C112.543 83.54 112.725 84.0487 112.912 84.702C113.099 85.346 113.192 85.9013 113.192 86.368C113.192 87.236 112.907 87.894 112.338 88.342C111.778 88.7807 110.966 89 109.902 89H109.174V87.46ZM110.266 81.314C110.639 80.9593 111.003 80.5953 111.358 80.222L112.45 81.314L111.358 82.42L110.266 81.314ZM117.516 91.73C118.122 91.506 118.668 91.226 119.154 90.89C119.648 90.554 120.036 90.204 120.316 89.84C120.605 89.4853 120.75 89.154 120.75 88.846C120.75 88.454 120.502 87.2967 120.008 85.374L121.24 84.898C121.454 85.5607 121.627 86.2607 121.758 86.998C121.898 87.726 121.968 88.342 121.968 88.846C121.968 89.7047 121.608 90.512 120.89 91.268C120.18 92.0333 119.256 92.626 118.118 93.046L117.516 91.73ZM120.4 81.37L121.492 82.462L120.4 83.554L119.308 82.462L120.4 81.37ZM126.369 89C125.38 89 124.685 88.7433 124.283 88.23C123.891 87.7073 123.695 86.8813 123.695 85.752C123.695 84.7253 123.667 83.5587 123.611 82.252C123.565 80.936 123.495 79.9653 123.401 79.34L124.731 79.046C124.806 79.578 124.867 80.4273 124.913 81.594C124.96 82.7513 124.983 83.8293 124.983 84.828V85.444C124.974 86.004 124.997 86.4193 125.053 86.69C125.109 86.9607 125.235 87.1567 125.431 87.278C125.627 87.3993 125.94 87.46 126.369 87.46H126.439L126.523 88.23L126.439 89H126.369ZM126.305 87.46H126.417C127.145 87.46 127.71 87.4273 128.111 87.362C128.512 87.2967 128.802 87.2033 128.979 87.082C129.166 86.9513 129.292 86.7693 129.357 86.536C129.394 86.4147 129.413 86.242 129.413 86.018C129.413 85.766 129.39 85.4813 129.343 85.164C129.296 84.8373 129.268 84.6367 129.259 84.562L130.421 84.324C130.552 84.9493 130.617 85.7053 130.617 86.592C130.664 86.8627 130.785 87.0773 130.981 87.236C131.186 87.3853 131.462 87.46 131.807 87.46H131.905L131.989 88.23L131.905 89H131.807C131.415 89 131.06 88.9067 130.743 88.72C130.435 88.524 130.183 88.2627 129.987 87.936C129.754 88.328 129.362 88.6033 128.811 88.762C128.27 88.9207 127.472 89 126.417 89H126.305V87.46ZM126.459 90.246L127.523 91.296C127.056 91.7627 126.823 91.996 126.823 91.996L126.459 92.36L125.409 91.296L126.459 90.246ZM128.951 90.246L130.015 91.296C129.548 91.7627 129.315 91.996 129.315 91.996L128.951 92.36L127.901 91.296L128.951 90.246ZM131.76 87.46H131.872C132.6 87.46 133.165 87.4273 133.566 87.362C133.967 87.2967 134.257 87.2033 134.434 87.082C134.621 86.9513 134.747 86.7693 134.812 86.536C134.849 86.4147 134.868 86.242 134.868 86.018C134.868 85.766 134.845 85.4813 134.798 85.164C134.751 84.8373 134.723 84.6367 134.714 84.562L135.876 84.324C136.007 84.9493 136.072 85.7053 136.072 86.592C136.119 86.8627 136.24 87.0773 136.436 87.236C136.641 87.3853 136.917 87.46 137.262 87.46H137.36L137.444 88.23L137.36 89H137.262C136.87 89 136.515 88.9067 136.198 88.72C135.89 88.524 135.638 88.2627 135.442 87.936C135.209 88.328 134.817 88.6033 134.266 88.762C133.725 88.9207 132.927 89 131.872 89H131.76V87.46ZM133.062 81.16L134.112 82.21L133.062 83.274L131.998 82.21L133.062 81.16ZM135.554 81.16L136.604 82.21L135.554 83.274L134.49 82.21L135.554 81.16ZM137.243 87.46H137.495C137.868 87.46 138.214 87.3527 138.531 87.138C138.848 86.9233 139.119 86.5967 139.343 86.158C139.754 85.3553 140.169 84.7207 140.589 84.254C141.009 83.7873 141.466 83.54 141.961 83.512C142.456 83.484 142.885 83.6147 143.249 83.904C143.622 84.1933 143.907 84.576 144.103 85.052C144.299 85.528 144.397 86.0273 144.397 86.55C144.397 87.0633 144.299 87.5347 144.103 87.964C143.907 88.384 143.618 88.7013 143.235 88.916C143.067 89.0187 142.852 89.07 142.591 89.07C141.91 89.07 140.958 88.6827 139.735 87.908C139.166 88.636 138.41 89 137.467 89H137.215L137.243 87.46ZM140.421 86.69C140.888 86.9887 141.312 87.222 141.695 87.39C142.087 87.5487 142.39 87.628 142.605 87.628C142.698 87.628 142.773 87.614 142.829 87.586C142.969 87.5113 143.076 87.39 143.151 87.222C143.226 87.0447 143.263 86.844 143.263 86.62C143.263 86.1907 143.151 85.7987 142.927 85.444C142.703 85.0893 142.414 84.912 142.059 84.912C141.583 84.912 141.037 85.5047 140.421 86.69ZM146.005 88.916C146.08 88.356 146.117 87.376 146.117 85.976C146.117 84.6973 146.084 83.386 146.019 82.042C145.963 80.6887 145.898 79.788 145.823 79.34L147.153 79.046C147.218 79.5127 147.284 80.432 147.349 81.804C147.414 83.176 147.447 84.5013 147.447 85.78C147.447 87.236 147.4 88.3327 147.307 89.07L146.005 88.916ZM156.88 92.276C156.03 92.276 155.279 92.108 154.626 91.772C153.972 91.436 153.468 90.9507 153.114 90.316C152.768 89.6813 152.619 88.9347 152.666 88.076C152.684 87.544 152.782 86.9887 152.96 86.41C153.146 85.822 153.356 85.29 153.59 84.814L154.682 85.318C154.448 85.8407 154.262 86.34 154.122 86.816C153.982 87.2827 153.912 87.7353 153.912 88.174C153.912 89.014 154.168 89.6487 154.682 90.078C155.195 90.5167 155.928 90.736 156.88 90.736C157.477 90.736 158.014 90.6473 158.49 90.47C158.975 90.302 159.372 90.078 159.68 89.798C159.997 89.5273 160.216 89.2427 160.338 88.944C160.347 88.8973 160.226 88.8273 159.974 88.734C159.722 88.6313 159.292 88.496 158.686 88.328C157.958 88.1227 157.444 87.894 157.146 87.642C156.847 87.3807 156.698 87.0027 156.698 86.508C156.698 85.7987 156.875 85.122 157.23 84.478C157.594 83.834 158.074 83.316 158.672 82.924C159.278 82.532 159.913 82.336 160.576 82.336C160.828 82.336 161.084 82.3733 161.346 82.448C161.616 82.5133 161.812 82.5927 161.934 82.686L161.486 84.03C161.374 83.9833 161.229 83.946 161.052 83.918C160.874 83.89 160.711 83.876 160.562 83.876C160.142 83.876 159.74 83.9787 159.358 84.184C158.984 84.3893 158.672 84.6507 158.42 84.968C158.177 85.2853 158.023 85.612 157.958 85.948C157.948 85.9853 157.944 86.0413 157.944 86.116C157.944 86.2933 158.046 86.4473 158.252 86.578C158.457 86.6993 158.868 86.844 159.484 87.012C160.062 87.1707 160.506 87.3247 160.814 87.474C161.122 87.6233 161.332 87.7867 161.444 87.964C161.556 88.132 161.612 88.342 161.612 88.594C161.612 89.2007 161.406 89.784 160.996 90.344C160.594 90.9133 160.03 91.3753 159.302 91.73C158.583 92.094 157.776 92.276 156.88 92.276ZM170.545 89C170.125 89 169.752 88.9253 169.425 88.776C169.098 88.6173 168.804 88.3793 168.543 88.062C167.796 88.7247 166.924 89.056 165.925 89.056C165.262 89.056 164.693 88.9533 164.217 88.748C163.741 88.5427 163.312 88.3 162.929 88.02L163.545 86.914C163.909 87.1193 164.254 87.2873 164.581 87.418C164.917 87.5393 165.323 87.6 165.799 87.6C166.564 87.6 167.264 87.3947 167.899 86.984L165.939 82.406L167.101 81.79L169.019 86.326C169.196 86.7553 169.397 87.054 169.621 87.222C169.845 87.3807 170.153 87.46 170.545 87.46H170.699L170.783 88.23L170.699 89H170.545ZM170.561 87.46H171.289C172.017 87.46 172.54 87.3713 172.857 87.194C173.174 87.0167 173.333 86.7413 173.333 86.368C173.333 86.116 173.235 85.6867 173.039 85.08C172.852 84.464 172.703 84.0393 172.591 83.806L173.753 83.176C173.93 83.54 174.112 84.0487 174.299 84.702C174.486 85.346 174.579 85.9013 174.579 86.368C174.579 87.236 174.294 87.894 173.725 88.342C173.165 88.7807 172.353 89 171.289 89H170.561V87.46ZM170.533 91.338C170.533 91.338 170.776 91.0953 171.261 90.61L171.625 90.246L171.989 90.61C172.474 91.0953 172.717 91.338 172.717 91.338L172.353 91.702C171.868 92.1873 171.625 92.43 171.625 92.43C171.625 92.43 171.382 92.1873 170.897 91.702L170.533 91.338ZM184.726 89.14C183.028 89.14 181.726 88.8787 180.82 88.356C179.915 87.824 179.462 87.0633 179.462 86.074C179.462 85.6913 179.514 85.2853 179.616 84.856C179.719 84.4173 179.845 84.0207 179.994 83.666L181.086 84.198C180.825 84.9353 180.694 85.5093 180.694 85.92C180.694 86.0227 180.699 86.102 180.708 86.158C180.783 86.606 181.156 86.9607 181.828 87.222C182.51 87.474 183.476 87.6047 184.726 87.614V87.6H184.894C186.033 87.6 186.952 87.5113 187.652 87.334C188.362 87.1567 188.87 86.8813 189.178 86.508C188.954 86.536 188.73 86.55 188.506 86.55C187.862 86.55 187.293 86.4473 186.798 86.242C186.304 86.0273 185.944 85.71 185.72 85.29C185.543 84.9447 185.454 84.5527 185.454 84.114C185.454 83.638 185.557 83.1713 185.762 82.714C185.977 82.2473 186.266 81.8693 186.63 81.58C187.004 81.2813 187.414 81.132 187.862 81.132C188.385 81.132 188.852 81.3373 189.262 81.748C189.673 82.1493 189.986 82.6767 190.2 83.33C190.424 83.974 190.536 84.6413 190.536 85.332C190.536 85.5187 190.532 85.6587 190.522 85.752C190.457 86.8067 189.948 87.6373 188.996 88.244C188.044 88.8413 186.668 89.1447 184.866 89.154L184.726 89.14ZM186.644 79.074C186.644 79.074 186.887 78.8313 187.372 78.346L187.736 77.982C187.736 77.982 187.979 78.2247 188.464 78.71L188.828 79.074L188.464 79.438C187.979 79.9233 187.736 80.166 187.736 80.166L187.372 79.802C186.887 79.3167 186.644 79.074 186.644 79.074ZM186.7 84.422C186.85 84.6367 187.111 84.8047 187.484 84.926C187.867 85.0473 188.296 85.108 188.772 85.108C188.996 85.108 189.22 85.094 189.444 85.066C189.351 84.3847 189.155 83.7967 188.856 83.302C188.558 82.798 188.194 82.546 187.764 82.546C187.559 82.546 187.363 82.6207 187.176 82.77C186.99 82.91 186.84 83.0873 186.728 83.302C186.626 83.5167 186.574 83.7313 186.574 83.946C186.574 84.1233 186.616 84.282 186.7 84.422ZM192.161 88.916C192.236 88.356 192.273 87.376 192.273 85.976C192.273 84.6973 192.241 83.386 192.175 82.042C192.119 80.6887 192.054 79.788 191.979 79.34L193.309 79.046C193.375 79.5127 193.44 80.432 193.505 81.804C193.571 83.176 193.603 84.5013 193.603 85.78C193.603 87.236 193.557 88.3327 193.463 89.07L192.161 88.916ZM198.784 89C198.457 89 198.158 88.9253 197.888 88.776V88.846C197.888 89.7047 197.528 90.512 196.81 91.268C196.1 92.0333 195.176 92.626 194.038 93.046L193.436 91.73C194.042 91.506 194.588 91.226 195.074 90.89C195.568 90.554 195.956 90.204 196.236 89.84C196.525 89.4853 196.67 89.154 196.67 88.846C196.67 88.454 196.422 87.2967 195.928 85.374L197.16 84.898C197.29 85.318 197.416 85.7847 197.538 86.298C197.668 86.7273 197.827 87.0307 198.014 87.208C198.2 87.376 198.457 87.46 198.784 87.46H198.882L198.966 88.23L198.882 89H198.784ZM210.975 89C210.107 89 209.444 88.9907 208.987 88.972C208.529 88.944 208.151 88.888 207.853 88.804C207.013 89.1307 206.037 89.294 204.927 89.294C203.06 89.294 201.917 88.7107 201.497 87.544C201.245 88.02 200.918 88.384 200.517 88.636C200.115 88.8787 199.583 89 198.921 89H198.725V87.46H198.935C199.392 87.46 199.765 87.362 200.055 87.166C200.344 86.9607 200.573 86.6433 200.741 86.214C200.918 85.7847 201.058 85.206 201.161 84.478L202.323 84.716C202.267 85.0613 202.239 85.3787 202.239 85.668C202.239 86.3587 202.411 86.872 202.757 87.208C203.466 85.948 204.255 84.968 205.123 84.268C206 83.5587 206.868 83.204 207.727 83.204C208.231 83.204 208.688 83.3113 209.099 83.526C209.509 83.7407 209.827 84.0393 210.051 84.422C210.284 84.7953 210.401 85.22 210.401 85.696C210.401 86.3587 210.172 86.9793 209.715 87.558C210.209 87.4927 210.634 87.46 210.989 87.46H211.059L211.143 88.23L211.059 89H210.975ZM203.821 87.698C204.166 87.7447 204.511 87.768 204.857 87.768C205.706 87.768 206.462 87.67 207.125 87.474C207.787 87.278 208.301 87.0213 208.665 86.704C209.038 86.3867 209.225 86.0553 209.225 85.71C209.225 85.4113 209.099 85.164 208.847 84.968C208.604 84.7627 208.268 84.66 207.839 84.66C207.167 84.66 206.481 84.926 205.781 85.458C205.081 85.9807 204.427 86.7273 203.821 87.698ZM210.92 87.46H211.648C212.376 87.46 212.899 87.3713 213.216 87.194C213.534 87.0167 213.692 86.7413 213.692 86.368C213.692 86.116 213.594 85.6867 213.398 85.08C213.212 84.464 213.062 84.0393 212.95 83.806L214.112 83.176C214.29 83.54 214.472 84.0487 214.658 84.702C214.845 85.346 214.938 85.9013 214.938 86.368C214.938 87.236 214.654 87.894 214.084 88.342C213.524 88.7807 212.712 89 211.648 89H210.92V87.46ZM212.012 81.314C212.386 80.9593 212.75 80.5953 213.104 80.222L214.196 81.314L213.104 82.42L212.012 81.314ZM216.566 88.916C216.64 88.356 216.678 87.376 216.678 85.976C216.678 84.6973 216.645 83.386 216.58 82.042C216.524 80.6887 216.458 79.788 216.384 79.34L217.714 79.046C217.779 79.5127 217.844 80.432 217.91 81.804C217.975 83.176 218.008 84.5013 218.008 85.78C218.008 87.236 217.961 88.3327 217.868 89.07L216.566 88.916ZM229.456 89C228.56 89 227.912 88.6873 227.51 88.062C226.969 88.23 226.442 88.314 225.928 88.314C225.144 88.314 224.5 88.132 223.996 87.768C223.492 87.3947 223.24 86.8907 223.24 86.256C223.24 85.5187 223.534 84.8933 224.122 84.38C224.72 83.8573 225.522 83.4047 226.53 83.022L226.432 82.196L227.734 81.93C227.893 83.61 228.028 84.8887 228.14 85.766C228.187 86.242 228.252 86.5967 228.336 86.83C228.42 87.0633 228.546 87.2267 228.714 87.32C228.882 87.4133 229.13 87.46 229.456 87.46H229.666L229.75 88.23L229.666 89H229.456ZM224.458 85.962C224.43 86.214 224.542 86.424 224.794 86.592C225.056 86.7507 225.401 86.83 225.83 86.83C226.194 86.83 226.577 86.7693 226.978 86.648C226.95 86.508 226.918 86.2793 226.88 85.962C226.796 85.234 226.736 84.7253 226.698 84.436C226.092 84.6227 225.574 84.8607 225.144 85.15C224.715 85.43 224.486 85.7007 224.458 85.962ZM229.514 87.46H229.906C231.661 87.46 232.711 87.18 233.056 86.62C233.084 86.536 233.098 86.4473 233.098 86.354C233.098 85.9247 232.841 85.388 232.328 84.744C231.815 84.1 231.096 83.4187 230.172 82.7L230.326 81.3L235.478 79.102L235.898 80.334L231.628 82.182C232.319 82.7607 232.935 83.4327 233.476 84.198C234.027 84.954 234.302 85.6773 234.302 86.368C234.302 86.5827 234.265 86.802 234.19 87.026C233.975 87.698 233.499 88.1973 232.762 88.524C232.025 88.8413 231.073 89 229.906 89H229.514V87.46ZM230.48 79.634L234.946 77.758L235.17 78.332L230.396 80.362L230.48 79.634ZM237.005 88.916C237.08 88.356 237.117 87.376 237.117 85.976C237.117 84.6973 237.084 83.386 237.019 82.042C236.963 80.6887 236.898 79.788 236.823 79.34L238.153 79.046C238.218 79.5127 238.284 80.432 238.349 81.804C238.414 83.176 238.447 84.5013 238.447 85.78C238.447 87.236 238.4 88.3327 238.307 89.07L237.005 88.916ZM40.6924 114.168C40.4311 114.168 40.2071 114.075 40.0204 113.888C39.8338 113.701 39.7404 113.477 39.7404 113.216C39.7404 112.945 39.8338 112.721 40.0204 112.544C40.2071 112.357 40.4311 112.264 40.6924 112.264C40.9631 112.264 41.1871 112.357 41.3644 112.544C41.5511 112.721 41.6444 112.945 41.6444 113.216C41.6444 113.477 41.5511 113.701 41.3644 113.888C41.1871 114.075 40.9631 114.168 40.6924 114.168ZM37.6684 106.608C37.6684 106.113 37.7898 105.651 38.0324 105.222C38.2844 104.783 38.6204 104.433 39.0404 104.172C39.4698 103.911 39.9318 103.78 40.4264 103.78C40.9398 103.78 41.4018 103.915 41.8124 104.186C42.2231 104.457 42.5451 104.821 42.7784 105.278C43.0211 105.726 43.1424 106.211 43.1424 106.734L42.0644 106.846C42.0551 106.566 41.9851 106.291 41.8544 106.02C41.7331 105.749 41.5464 105.525 41.2944 105.348C41.0518 105.171 40.7624 105.082 40.4264 105.082C39.9784 105.082 39.6004 105.236 39.2924 105.544C38.9844 105.843 38.8304 106.211 38.8304 106.65C38.8304 106.893 38.8678 107.098 38.9424 107.266C39.0264 107.425 39.1478 107.579 39.3064 107.728C39.4651 107.868 39.7451 108.092 40.1464 108.4L40.5524 108.708C40.7578 108.876 40.9071 109.049 41.0004 109.226C41.0938 109.403 41.1498 109.609 41.1684 109.842C41.1964 110.075 41.2104 110.407 41.2104 110.836V111.326H40.1464V110.528C40.1464 110.341 40.0998 110.159 40.0064 109.982C39.9131 109.805 39.7311 109.604 39.4604 109.38C38.9658 108.969 38.6158 108.666 38.4104 108.47C38.2051 108.265 38.0278 108.013 37.8784 107.714C37.7384 107.415 37.6684 107.047 37.6684 106.608ZM48.6464 117.276C47.7971 117.276 47.0457 117.108 46.3924 116.772C45.7391 116.436 45.2351 115.951 44.8804 115.316C44.5351 114.681 44.3857 113.935 44.4324 113.076C44.4511 112.544 44.5491 111.989 44.7264 111.41C44.9131 110.822 45.1231 110.29 45.3564 109.814L46.4484 110.318C46.2151 110.841 46.0284 111.34 45.8884 111.816C45.7484 112.283 45.6784 112.735 45.6784 113.174C45.6784 114.014 45.9351 114.649 46.4484 115.078C46.9617 115.517 47.6944 115.736 48.6464 115.736C49.2437 115.736 49.7804 115.647 50.2564 115.47C50.7417 115.302 51.1384 115.078 51.4464 114.798C51.7637 114.527 51.9831 114.243 52.1044 113.944C52.1137 113.897 51.9924 113.827 51.7404 113.734C51.4884 113.631 51.0591 113.496 50.4524 113.328C49.7244 113.123 49.2111 112.894 48.9124 112.642C48.6137 112.381 48.4644 112.003 48.4644 111.508C48.4644 110.799 48.6417 110.122 48.9964 109.478C49.3604 108.834 49.8411 108.316 50.4384 107.924C51.0451 107.532 51.6797 107.336 52.3424 107.336C52.5944 107.336 52.8511 107.373 53.1124 107.448C53.3831 107.513 53.5791 107.593 53.7004 107.686L53.2524 109.03C53.1404 108.983 52.9957 108.946 52.8184 108.918C52.6411 108.89 52.4777 108.876 52.3284 108.876C51.9084 108.876 51.5071 108.979 51.1244 109.184C50.7511 109.389 50.4384 109.651 50.1864 109.968C49.9437 110.285 49.7897 110.612 49.7244 110.948C49.7151 110.985 49.7104 111.041 49.7104 111.116C49.7104 111.293 49.8131 111.447 50.0184 111.578C50.2237 111.699 50.6344 111.844 51.2504 112.012C51.8291 112.171 52.2724 112.325 52.5804 112.474C52.8884 112.623 53.0984 112.787 53.2104 112.964C53.3224 113.132 53.3784 113.342 53.3784 113.594C53.3784 114.201 53.1731 114.784 52.7624 115.344C52.3611 115.913 51.7964 116.375 51.0684 116.73C50.3497 117.094 49.5424 117.276 48.6464 117.276ZM62.3117 114C61.8917 114 61.5184 113.925 61.1917 113.776C60.865 113.617 60.571 113.379 60.3097 113.062C59.563 113.725 58.6904 114.056 57.6917 114.056C57.029 114.056 56.4597 113.953 55.9837 113.748C55.5077 113.543 55.0784 113.3 54.6957 113.02L55.3117 111.914C55.6757 112.119 56.021 112.287 56.3477 112.418C56.6837 112.539 57.0897 112.6 57.5657 112.6C58.331 112.6 59.031 112.395 59.6657 111.984L57.7057 107.406L58.8677 106.79L60.7857 111.326C60.963 111.755 61.1637 112.054 61.3877 112.222C61.6117 112.381 61.9197 112.46 62.3117 112.46H62.4657L62.5497 113.23L62.4657 114H62.3117ZM62.3275 112.46H63.0555C63.7835 112.46 64.3061 112.371 64.6235 112.194C64.9408 112.017 65.0995 111.741 65.0995 111.368C65.0995 111.116 65.0015 110.687 64.8055 110.08C64.6188 109.464 64.4695 109.039 64.3575 108.806L65.5195 108.176C65.6968 108.54 65.8788 109.049 66.0655 109.702C66.2521 110.346 66.3455 110.901 66.3455 111.368C66.3455 112.236 66.0608 112.894 65.4915 113.342C64.9315 113.781 64.1195 114 63.0555 114H62.3275V112.46ZM62.2995 116.338C62.2995 116.338 62.5421 116.095 63.0275 115.61L63.3915 115.246L63.7555 115.61C64.2408 116.095 64.4835 116.338 64.4835 116.338L64.1195 116.702C63.6341 117.187 63.3915 117.43 63.3915 117.43C63.3915 117.43 63.1488 117.187 62.6635 116.702L62.2995 116.338ZM76.4929 114.14C74.7943 114.14 73.4923 113.879 72.5869 113.356C71.6816 112.824 71.2289 112.063 71.2289 111.074C71.2289 110.691 71.2803 110.285 71.3829 109.856C71.4856 109.417 71.6116 109.021 71.7609 108.666L72.8529 109.198C72.5916 109.935 72.4609 110.509 72.4609 110.92C72.4609 111.023 72.4656 111.102 72.4749 111.158C72.5496 111.606 72.9229 111.961 73.5949 112.222C74.2763 112.474 75.2423 112.605 76.4929 112.614V112.6H76.6609C77.7996 112.6 78.7189 112.511 79.4189 112.334C80.1283 112.157 80.6369 111.881 80.9449 111.508C80.7209 111.536 80.4969 111.55 80.2729 111.55C79.6289 111.55 79.0596 111.447 78.5649 111.242C78.0703 111.027 77.7109 110.71 77.4869 110.29C77.3096 109.945 77.2209 109.553 77.2209 109.114C77.2209 108.638 77.3236 108.171 77.5289 107.714C77.7436 107.247 78.0329 106.869 78.3969 106.58C78.7703 106.281 79.1809 106.132 79.6289 106.132C80.1516 106.132 80.6183 106.337 81.0289 106.748C81.4396 107.149 81.7523 107.677 81.9669 108.33C82.1909 108.974 82.3029 109.641 82.3029 110.332C82.3029 110.519 82.2983 110.659 82.2889 110.752C82.2236 111.807 81.7149 112.637 80.7629 113.244C79.8109 113.841 78.4343 114.145 76.6329 114.154L76.4929 114.14ZM78.4109 104.074C78.4109 104.074 78.6536 103.831 79.1389 103.346L79.5029 102.982C79.5029 102.982 79.7456 103.225 80.2309 103.71L80.5949 104.074L80.2309 104.438C79.7456 104.923 79.5029 105.166 79.5029 105.166L79.1389 104.802C78.6536 104.317 78.4109 104.074 78.4109 104.074ZM78.4669 109.422C78.6163 109.637 78.8776 109.805 79.2509 109.926C79.6336 110.047 80.0629 110.108 80.5389 110.108C80.7629 110.108 80.9869 110.094 81.2109 110.066C81.1176 109.385 80.9216 108.797 80.6229 108.302C80.3243 107.798 79.9603 107.546 79.5309 107.546C79.3256 107.546 79.1296 107.621 78.9429 107.77C78.7563 107.91 78.6069 108.087 78.4949 108.302C78.3923 108.517 78.3409 108.731 78.3409 108.946C78.3409 109.123 78.3829 109.282 78.4669 109.422ZM83.9279 113.916C84.0026 113.356 84.0399 112.376 84.0399 110.976C84.0399 109.697 84.0073 108.386 83.9419 107.042C83.8859 105.689 83.8206 104.788 83.7459 104.34L85.0759 104.046C85.1413 104.513 85.2066 105.432 85.2719 106.804C85.3373 108.176 85.3699 109.501 85.3699 110.78C85.3699 112.236 85.3233 113.333 85.2299 114.07L83.9279 113.916ZM90.5501 114C90.2235 114 89.9248 113.925 89.6541 113.776V113.846C89.6541 114.705 89.2948 115.512 88.5761 116.268C87.8668 117.033 86.9428 117.626 85.8041 118.046L85.2021 116.73C85.8088 116.506 86.3548 116.226 86.8401 115.89C87.3348 115.554 87.7221 115.204 88.0021 114.84C88.2915 114.485 88.4361 114.154 88.4361 113.846C88.4361 113.454 88.1888 112.297 87.6941 110.374L88.9261 109.898C89.0568 110.318 89.1828 110.785 89.3041 111.298C89.4348 111.727 89.5935 112.031 89.7801 112.208C89.9668 112.376 90.2235 112.46 90.5501 112.46H90.6481L90.7321 113.23L90.6481 114H90.5501ZM102.741 114C101.873 114 101.211 113.991 100.753 113.972C100.296 113.944 99.9179 113.888 99.6192 113.804C98.7792 114.131 97.8039 114.294 96.6932 114.294C94.8265 114.294 93.6832 113.711 93.2632 112.544C93.0112 113.02 92.6845 113.384 92.2832 113.636C91.8819 113.879 91.3499 114 90.6872 114H90.4912V112.46H90.7012C91.1585 112.46 91.5319 112.362 91.8212 112.166C92.1105 111.961 92.3392 111.643 92.5072 111.214C92.6845 110.785 92.8245 110.206 92.9272 109.478L94.0892 109.716C94.0332 110.061 94.0052 110.379 94.0052 110.668C94.0052 111.359 94.1779 111.872 94.5232 112.208C95.2325 110.948 96.0212 109.968 96.8892 109.268C97.7665 108.559 98.6345 108.204 99.4932 108.204C99.9972 108.204 100.455 108.311 100.865 108.526C101.276 108.741 101.593 109.039 101.817 109.422C102.051 109.795 102.167 110.22 102.167 110.696C102.167 111.359 101.939 111.979 101.481 112.558C101.976 112.493 102.401 112.46 102.755 112.46H102.825L102.909 113.23L102.825 114H102.741ZM95.5872 112.698C95.9325 112.745 96.2779 112.768 96.6232 112.768C97.4725 112.768 98.2285 112.67 98.8912 112.474C99.5539 112.278 100.067 112.021 100.431 111.704C100.805 111.387 100.991 111.055 100.991 110.71C100.991 110.411 100.865 110.164 100.613 109.968C100.371 109.763 100.035 109.66 99.6052 109.66C98.9332 109.66 98.2472 109.926 97.5472 110.458C96.8472 110.981 96.1939 111.727 95.5872 112.698ZM102.687 112.46H103.415C104.143 112.46 104.666 112.371 104.983 112.194C105.3 112.017 105.459 111.741 105.459 111.368C105.459 111.116 105.361 110.687 105.165 110.08C104.978 109.464 104.829 109.039 104.717 108.806L105.879 108.176C106.056 108.54 106.238 109.049 106.425 109.702C106.612 110.346 106.705 110.901 106.705 111.368C106.705 112.236 106.42 112.894 105.851 113.342C105.291 113.781 104.479 114 103.415 114H102.687V112.46ZM103.779 106.314C104.152 105.959 104.516 105.595 104.871 105.222L105.963 106.314L104.871 107.42L103.779 106.314ZM108.332 113.916C108.407 113.356 108.444 112.376 108.444 110.976C108.444 109.697 108.412 108.386 108.346 107.042C108.29 105.689 108.225 104.788 108.15 104.34L109.48 104.046C109.546 104.513 109.611 105.432 109.676 106.804C109.742 108.176 109.774 109.501 109.774 110.78C109.774 112.236 109.728 113.333 109.634 114.07L108.332 113.916ZM113.298 116.73C113.905 116.506 114.451 116.226 114.936 115.89C115.431 115.554 115.818 115.204 116.098 114.84C116.387 114.485 116.532 114.154 116.532 113.846C116.532 113.454 116.285 112.297 115.79 110.374L117.022 109.898C117.237 110.561 117.409 111.261 117.54 111.998C117.68 112.726 117.75 113.342 117.75 113.846C117.75 114.705 117.391 115.512 116.672 116.268C115.963 117.033 115.039 117.626 113.9 118.046L113.298 116.73ZM118.749 116.688C120.084 116.399 121.111 116.03 121.829 115.582C122.548 115.143 122.982 114.602 123.131 113.958C122.814 114.014 122.478 114.042 122.123 114.042C121.489 114.042 120.915 113.939 120.401 113.734C119.888 113.519 119.524 113.193 119.309 112.754C119.151 112.418 119.071 112.049 119.071 111.648C119.071 111.144 119.179 110.64 119.393 110.136C119.617 109.632 119.911 109.217 120.275 108.89C120.649 108.563 121.05 108.4 121.479 108.4C122.03 108.4 122.52 108.643 122.949 109.128C123.388 109.604 123.724 110.22 123.957 110.976C124.2 111.723 124.321 112.474 124.321 113.23C124.321 114.443 123.869 115.47 122.963 116.31C122.067 117.15 120.817 117.729 119.211 118.046L118.749 116.688ZM120.331 111.9C120.481 112.115 120.737 112.273 121.101 112.376C121.465 112.479 121.885 112.53 122.361 112.53C122.623 112.53 122.879 112.516 123.131 112.488C123.019 111.779 122.814 111.172 122.515 110.668C122.226 110.164 121.871 109.889 121.451 109.842C121.246 109.814 121.045 109.884 120.849 110.052C120.663 110.211 120.509 110.421 120.387 110.682C120.275 110.943 120.219 111.195 120.219 111.438C120.219 111.634 120.257 111.788 120.331 111.9ZM128.694 114.056C127.938 114.056 127.294 113.949 126.762 113.734C126.23 113.519 125.81 113.281 125.502 113.02L126.118 111.914C126.482 112.11 126.842 112.273 127.196 112.404C127.551 112.525 128.004 112.586 128.554 112.586C129.058 112.586 129.469 112.521 129.786 112.39C130.113 112.259 130.328 112.11 130.43 111.942C130.458 111.867 130.472 111.779 130.472 111.676C130.472 111.275 130.234 110.761 129.758 110.136C129.292 109.501 128.559 108.825 127.56 108.106L128.316 106.776C129.362 107.551 130.183 108.372 130.78 109.24C131.387 110.099 131.69 110.901 131.69 111.648C131.69 112.003 131.625 112.325 131.494 112.614C131.298 113.071 130.944 113.426 130.43 113.678C129.917 113.93 129.338 114.056 128.694 114.056ZM146.199 114C145.873 114 145.579 113.897 145.317 113.692V113.846C145.317 114.565 145.135 115.246 144.771 115.89C144.407 116.534 143.88 117.052 143.189 117.444C142.508 117.845 141.705 118.046 140.781 118.046C139.904 118.046 139.148 117.869 138.513 117.514C137.879 117.169 137.393 116.697 137.057 116.1C136.731 115.503 136.567 114.831 136.567 114.084C136.567 113.524 136.661 112.927 136.847 112.292C137.034 111.657 137.253 111.088 137.505 110.584L138.597 111.088C138.075 112.171 137.813 113.113 137.813 113.916C137.813 114.765 138.07 115.409 138.583 115.848C139.097 116.287 139.829 116.506 140.781 116.506C141.5 116.506 142.111 116.375 142.615 116.114C143.119 115.862 143.493 115.531 143.735 115.12C143.987 114.719 144.113 114.294 144.113 113.846C144.113 113.445 144.029 112.917 143.861 112.264C143.693 111.611 143.507 110.985 143.301 110.388L144.491 109.814C144.659 110.29 144.799 110.738 144.911 111.158C145.07 111.643 145.238 111.984 145.415 112.18C145.602 112.367 145.863 112.46 146.199 112.46H146.283L146.367 113.23L146.283 114H146.199ZM141.089 108.876L142.181 109.968C142.181 109.968 141.939 110.211 141.453 110.696L141.089 111.06L140.725 110.696C140.24 110.211 139.997 109.968 139.997 109.968L141.089 108.876ZM146.094 113.23L146.178 112.46H147.088C148.068 112.46 148.759 112.371 149.16 112.194C149.561 112.007 149.762 111.718 149.762 111.326C149.753 111.065 149.655 110.64 149.468 110.052C149.281 109.464 149.127 109.049 149.006 108.806L150.168 108.176C150.355 108.549 150.537 109.049 150.714 109.674C150.901 110.299 150.994 110.845 150.994 111.312C150.994 112.199 150.686 112.871 150.07 113.328C149.454 113.776 148.53 114 147.298 114H146.178L146.094 113.23ZM147.256 115.246L148.32 116.296C147.853 116.763 147.62 116.996 147.62 116.996L147.256 117.36L146.206 116.296L147.256 115.246ZM149.748 115.246L150.812 116.296C150.345 116.763 150.112 116.996 150.112 116.996L149.748 117.36L148.698 116.296L149.748 115.246ZM152.615 113.916C152.69 113.356 152.727 112.376 152.727 110.976C152.727 109.697 152.695 108.386 152.629 107.042C152.573 105.689 152.508 104.788 152.433 104.34L153.763 104.046C153.829 104.513 153.894 105.432 153.959 106.804C154.025 108.176 154.057 109.501 154.057 110.78C154.057 112.236 154.011 113.333 153.917 114.07L152.615 113.916ZM158.702 116.73C159.309 116.506 159.855 116.226 160.34 115.89C160.835 115.554 161.222 115.204 161.502 114.84C161.791 114.485 161.936 114.154 161.936 113.846C161.936 113.454 161.689 112.297 161.194 110.374L162.426 109.898C162.641 110.561 162.813 111.261 162.944 111.998C163.084 112.726 163.154 113.342 163.154 113.846C163.154 114.705 162.795 115.512 162.076 116.268C161.367 117.033 160.443 117.626 159.304 118.046L158.702 116.73ZM161.586 106.37L162.678 107.462L161.586 108.554L160.494 107.462L161.586 106.37ZM164.77 113.916C164.844 113.356 164.882 112.376 164.882 110.976C164.882 109.697 164.849 108.386 164.784 107.042C164.728 105.689 164.662 104.788 164.588 104.34L165.918 104.046C165.983 104.513 166.048 105.432 166.114 106.804C166.179 108.176 166.212 109.501 166.212 110.78C166.212 112.236 166.165 113.333 166.072 114.07L164.77 113.916ZM175.644 117.276C174.795 117.276 174.044 117.108 173.39 116.772C172.737 116.436 172.233 115.951 171.878 115.316C171.533 114.681 171.384 113.935 171.43 113.076C171.449 112.544 171.547 111.989 171.724 111.41C171.911 110.822 172.121 110.29 172.354 109.814L173.446 110.318C173.213 110.841 173.026 111.34 172.886 111.816C172.746 112.283 172.676 112.735 172.676 113.174C172.676 114.014 172.933 114.649 173.446 115.078C173.96 115.517 174.692 115.736 175.644 115.736C176.242 115.736 176.778 115.647 177.254 115.47C177.74 115.302 178.136 115.078 178.444 114.798C178.762 114.527 178.981 114.243 179.102 113.944C179.112 113.897 178.99 113.827 178.738 113.734C178.486 113.631 178.057 113.496 177.45 113.328C176.722 113.123 176.209 112.894 175.91 112.642C175.612 112.381 175.462 112.003 175.462 111.508C175.462 110.799 175.64 110.122 175.994 109.478C176.358 108.834 176.839 108.316 177.436 107.924C178.043 107.532 178.678 107.336 179.34 107.336C179.592 107.336 179.849 107.373 180.11 107.448C180.381 107.513 180.577 107.593 180.698 107.686L180.25 109.03C180.138 108.983 179.994 108.946 179.816 108.918C179.639 108.89 179.476 108.876 179.326 108.876C178.906 108.876 178.505 108.979 178.122 109.184C177.749 109.389 177.436 109.651 177.184 109.968C176.942 110.285 176.788 110.612 176.722 110.948C176.713 110.985 176.708 111.041 176.708 111.116C176.708 111.293 176.811 111.447 177.016 111.578C177.222 111.699 177.632 111.844 178.248 112.012C178.827 112.171 179.27 112.325 179.578 112.474C179.886 112.623 180.096 112.787 180.208 112.964C180.32 113.132 180.376 113.342 180.376 113.594C180.376 114.201 180.171 114.784 179.76 115.344C179.359 115.913 178.794 116.375 178.066 116.73C177.348 117.094 176.54 117.276 175.644 117.276ZM182.352 113.916C182.426 113.356 182.464 112.376 182.464 110.976C182.464 109.697 182.431 108.386 182.366 107.042C182.31 105.689 182.244 104.788 182.17 104.34L183.5 104.046C183.565 104.513 183.63 105.432 183.696 106.804C183.761 108.176 183.794 109.501 183.794 110.78C183.794 112.236 183.747 113.333 183.654 114.07L182.352 113.916ZM185.126 116.688C186.442 116.408 187.455 116.049 188.164 115.61C188.883 115.181 189.326 114.649 189.494 114.014C188.477 114.014 187.651 113.935 187.016 113.776C186.382 113.608 185.938 113.267 185.686 112.754C185.528 112.418 185.448 112.049 185.448 111.648C185.448 111.144 185.556 110.64 185.77 110.136C185.994 109.632 186.288 109.217 186.652 108.89C187.026 108.563 187.427 108.4 187.856 108.4C188.351 108.4 188.799 108.596 189.2 108.988C189.602 109.371 189.924 109.875 190.166 110.5C190.418 111.116 190.582 111.769 190.656 112.46H191.202L191.286 113.23L191.202 114H190.628C190.451 115.017 189.924 115.876 189.046 116.576C188.169 117.276 187.016 117.766 185.588 118.046L185.126 116.688ZM186.708 111.9C186.848 112.115 187.161 112.264 187.646 112.348C188.141 112.423 188.762 112.46 189.508 112.46C189.406 111.732 189.196 111.116 188.878 110.612C188.57 110.099 188.197 109.842 187.758 109.842C187.562 109.842 187.371 109.926 187.184 110.094C187.007 110.262 186.862 110.472 186.75 110.724C186.648 110.967 186.596 111.205 186.596 111.438C186.596 111.634 186.634 111.788 186.708 111.9ZM201.619 114C200.779 113.991 200.088 113.846 199.547 113.566C199.005 113.277 198.604 112.843 198.343 112.264C197.213 112.843 196.168 113.277 195.207 113.566C194.255 113.855 193.209 114 192.071 114H191.007V112.46H192.211C193.359 112.46 194.432 112.325 195.431 112.054C196.429 111.783 197.447 111.373 198.483 110.822L198.721 110.696C198.235 110.556 197.727 110.351 197.195 110.08C196.327 109.623 195.594 109.394 194.997 109.394C194.614 109.394 194.269 109.506 193.961 109.73C193.653 109.954 193.424 110.211 193.275 110.5L192.379 109.87C192.696 109.235 193.079 108.755 193.527 108.428C193.975 108.101 194.474 107.938 195.025 107.938C195.426 107.938 195.804 108.008 196.159 108.148C196.523 108.279 197.031 108.512 197.685 108.848C198.291 109.156 198.777 109.385 199.141 109.534C199.505 109.683 199.911 109.805 200.359 109.898L200.415 111.256C200.172 111.321 199.827 111.475 199.379 111.718C199.593 111.951 199.873 112.133 200.219 112.264C200.564 112.395 200.97 112.46 201.437 112.46H201.759L201.843 113.23L201.759 114H201.619ZM193.919 105.74C193.919 105.74 194.161 105.497 194.647 105.012L195.011 104.648C195.011 104.648 195.253 104.891 195.739 105.376L196.103 105.74L195.739 106.104C195.253 106.589 195.011 106.832 195.011 106.832L194.647 106.468C194.161 105.983 193.919 105.74 193.919 105.74ZM201.617 112.46H201.729C202.457 112.46 203.021 112.427 203.423 112.362C203.824 112.297 204.113 112.203 204.291 112.082C204.477 111.951 204.603 111.769 204.669 111.536C204.706 111.415 204.725 111.242 204.725 111.018C204.725 110.766 204.701 110.481 204.655 110.164C204.608 109.837 204.58 109.637 204.571 109.562L205.733 109.324C205.863 109.949 205.929 110.705 205.929 111.592C205.975 111.863 206.097 112.077 206.293 112.236C206.498 112.385 206.773 112.46 207.119 112.46H207.217L207.301 113.23L207.217 114H207.119C206.727 114 206.372 113.907 206.055 113.72C205.747 113.524 205.495 113.263 205.299 112.936C205.065 113.328 204.673 113.603 204.123 113.762C203.581 113.921 202.783 114 201.729 114H201.617V112.46ZM201.771 115.246L202.835 116.296C202.368 116.763 202.135 116.996 202.135 116.996L201.771 117.36L200.721 116.296L201.771 115.246ZM204.263 115.246L205.327 116.296C204.86 116.763 204.627 116.996 204.627 116.996L204.263 117.36L203.213 116.296L204.263 115.246ZM207.1 112.46H207.352C207.725 112.46 208.07 112.353 208.388 112.138C208.705 111.923 208.976 111.597 209.2 111.158C209.61 110.355 210.026 109.721 210.446 109.254C210.866 108.787 211.323 108.54 211.818 108.512C212.312 108.484 212.742 108.615 213.106 108.904C213.479 109.193 213.764 109.576 213.96 110.052C214.156 110.528 214.254 111.027 214.254 111.55C214.254 112.063 214.156 112.535 213.96 112.964C213.764 113.384 213.474 113.701 213.092 113.916C212.924 114.019 212.709 114.07 212.448 114.07C211.766 114.07 210.814 113.683 209.592 112.908C209.022 113.636 208.266 114 207.324 114H207.072L207.1 112.46ZM210.278 111.69C210.744 111.989 211.169 112.222 211.552 112.39C211.944 112.549 212.247 112.628 212.462 112.628C212.555 112.628 212.63 112.614 212.686 112.586C212.826 112.511 212.933 112.39 213.008 112.222C213.082 112.045 213.12 111.844 213.12 111.62C213.12 111.191 213.008 110.799 212.784 110.444C212.56 110.089 212.27 109.912 211.916 109.912C211.44 109.912 210.894 110.505 210.278 111.69ZM223.346 117.948C222.524 117.948 221.796 117.794 221.162 117.486C220.527 117.178 220.028 116.725 219.664 116.128C219.3 115.54 219.118 114.84 219.118 114.028C219.118 113.468 219.211 112.866 219.398 112.222C219.594 111.578 219.818 110.999 220.07 110.486L221.148 110.99C220.914 111.513 220.728 112.012 220.588 112.488C220.448 112.955 220.378 113.407 220.378 113.846C220.378 114.695 220.634 115.335 221.148 115.764C221.661 116.203 222.394 116.422 223.346 116.422C223.887 116.422 224.4 116.352 224.886 116.212C225.38 116.072 225.791 115.899 226.118 115.694C226.444 115.498 226.645 115.316 226.72 115.148C226.617 114.98 226.286 114.719 225.726 114.364C225.166 114.009 224.573 113.711 223.948 113.468L224.27 112.012C225.016 112.161 225.679 112.273 226.258 112.348C226.846 112.423 227.415 112.46 227.966 112.46H228.26L228.344 113.23L228.26 114H227.966C227.667 114 227.368 113.986 227.07 113.958C227.639 114.387 227.924 114.803 227.924 115.204C227.914 115.643 227.7 116.077 227.28 116.506C226.86 116.935 226.3 117.281 225.6 117.542C224.909 117.813 224.158 117.948 223.346 117.948ZM228.031 112.46H228.143C228.824 112.46 229.333 112.39 229.669 112.25C230.014 112.101 230.238 111.863 230.341 111.536C230.378 111.415 230.397 111.251 230.397 111.046C230.397 110.747 230.341 110.253 230.229 109.562L231.391 109.324C231.521 109.949 231.587 110.705 231.587 111.592C231.633 111.863 231.759 112.077 231.965 112.236C232.179 112.385 232.45 112.46 232.777 112.46H232.875L232.959 113.23L232.875 114H232.777C232.394 114 232.044 113.907 231.727 113.72C231.409 113.524 231.153 113.267 230.957 112.95C230.723 113.323 230.373 113.594 229.907 113.762C229.449 113.921 228.861 114 228.143 114H228.031V112.46ZM229.851 106.048L230.943 107.14L229.851 108.232L228.759 107.14L229.851 106.048ZM232.734 112.46H232.846C233.527 112.46 234.036 112.39 234.372 112.25C234.717 112.101 234.941 111.863 235.044 111.536C235.081 111.415 235.1 111.251 235.1 111.046C235.1 110.747 235.044 110.253 234.932 109.562L236.094 109.324C236.224 109.949 236.29 110.705 236.29 111.592C236.336 111.863 236.462 112.077 236.668 112.236C236.882 112.385 237.153 112.46 237.48 112.46H237.578L237.662 113.23L237.578 114H237.48C237.097 114 236.747 113.907 236.43 113.72C236.112 113.524 235.856 113.267 235.66 112.95C235.426 113.323 235.076 113.594 234.61 113.762C234.152 113.921 233.564 114 232.846 114H232.734V112.46ZM233.042 107.77L233.882 107.504C233.676 107.308 233.546 107.089 233.49 106.846C233.471 106.734 233.462 106.645 233.462 106.58C233.462 106.272 233.555 105.992 233.742 105.74C233.928 105.479 234.166 105.315 234.456 105.25C234.586 105.222 234.717 105.208 234.848 105.208C235.109 105.208 235.422 105.269 235.786 105.39L235.576 106.16C235.277 106.048 235.03 105.992 234.834 105.992C234.582 105.992 234.39 106.067 234.26 106.216C234.129 106.356 234.082 106.515 234.12 106.692C234.157 106.813 234.241 106.925 234.372 107.028C234.512 107.131 234.689 107.182 234.904 107.182L236.038 106.832V107.602L233.042 108.554V107.77ZM237.437 112.46H237.717C238.482 112.46 239.098 112.026 239.565 111.158C240.032 110.309 240.475 109.655 240.895 109.198C241.324 108.741 241.796 108.512 242.309 108.512C242.869 108.512 243.317 108.708 243.653 109.1C243.998 109.492 244.269 110.033 244.465 110.724C244.642 111.359 244.806 111.807 244.955 112.068C245.114 112.329 245.328 112.46 245.599 112.46H245.739L245.823 113.23L245.739 114H245.599C244.955 114 244.498 113.645 244.227 112.936C244.199 113.141 244.11 113.333 243.961 113.51C243.812 113.678 243.644 113.813 243.457 113.916C243.27 114.019 243.056 114.07 242.813 114.07C242.122 114.07 241.175 113.683 239.971 112.908C239.691 113.272 239.355 113.547 238.963 113.734C238.571 113.911 238.146 114 237.689 114H237.437V112.46ZM240.629 111.676C241.133 112.031 241.604 112.297 242.043 112.474C242.491 112.642 242.846 112.726 243.107 112.726C243.172 112.726 243.242 112.717 243.317 112.698C243.448 112.511 243.513 112.255 243.513 111.928C243.513 111.62 243.462 111.312 243.359 111.004C243.256 110.687 243.112 110.425 242.925 110.22C242.738 110.015 242.524 109.912 242.281 109.912C241.805 109.912 241.254 110.5 240.629 111.676ZM246.887 112.46C247.176 111.928 247.48 111.429 247.797 110.962C247.816 110.551 247.825 110.206 247.825 109.926C247.825 109.011 247.778 107.975 247.685 106.818C247.601 105.651 247.517 104.83 247.433 104.354L248.763 104.046C248.838 104.503 248.908 105.18 248.973 106.076C249.048 106.963 249.085 107.849 249.085 108.736L249.071 109.436C250.116 108.419 251.152 107.91 252.179 107.91C252.683 107.91 253.136 108.017 253.537 108.232C253.948 108.447 254.27 108.745 254.503 109.128C254.736 109.501 254.853 109.931 254.853 110.416C254.853 111.219 254.536 111.928 253.901 112.544C254.648 112.488 255.156 112.46 255.427 112.46L255.511 113.23L255.427 114C253.794 114 252.59 113.893 251.815 113.678C251.068 113.893 250.261 114 249.393 114H245.599V112.46H246.887ZM248.245 112.46C248.441 112.469 248.782 112.474 249.267 112.474C250.126 112.474 250.886 112.376 251.549 112.18C252.221 111.984 252.739 111.727 253.103 111.41C253.476 111.093 253.663 110.757 253.663 110.402C253.663 110.113 253.542 109.87 253.299 109.674C253.066 109.478 252.739 109.38 252.319 109.38C251.666 109.38 250.98 109.651 250.261 110.192C249.552 110.733 248.88 111.489 248.245 112.46ZM255.348 112.46H255.6C255.973 112.46 256.318 112.353 256.636 112.138C256.953 111.923 257.224 111.597 257.448 111.158C257.858 110.355 258.274 109.721 258.694 109.254C259.114 108.787 259.571 108.54 260.066 108.512C260.56 108.484 260.99 108.615 261.354 108.904C261.727 109.193 262.012 109.576 262.208 110.052C262.404 110.528 262.502 111.027 262.502 111.55C262.502 112.063 262.404 112.535 262.208 112.964C262.012 113.384 261.722 113.701 261.34 113.916C261.172 114.019 260.957 114.07 260.696 114.07C260.014 114.07 259.062 113.683 257.84 112.908C257.27 113.636 256.514 114 255.572 114H255.32L255.348 112.46ZM258.526 111.69C258.992 111.989 259.417 112.222 259.8 112.39C260.192 112.549 260.495 112.628 260.71 112.628C260.803 112.628 260.878 112.614 260.934 112.586C261.074 112.511 261.181 112.39 261.256 112.222C261.33 112.045 261.368 111.844 261.368 111.62C261.368 111.191 261.256 110.799 261.032 110.444C260.808 110.089 260.518 109.912 260.164 109.912C259.688 109.912 259.142 110.505 258.526 111.69Z" fill="#E6E8EA"/>
</g>
<g filter="url(#filter1_i_830_6507)">
<path d="M84 14.263C84 8.48342 88.4599 3.69355 94.2282 3.33369C108.396 2.44982 133.987 1 149.416 1C164.932 1 191.295 2.46615 205.756 3.34853C211.532 3.701 216 8.49444 216 14.2817V42.7884C216 48.5467 211.56 53.3258 205.814 53.6982C192.136 54.5846 167.469 56 149.416 56C131.471 56 107.536 54.6015 94.1555 53.7142C88.4191 53.3338 84 48.56 84 42.811V14.263Z" fill="#1D3752"/>
</g>
<path d="M94.1971 2.83466C88.1627 3.21112 83.5 8.22188 83.5 14.263V42.811C83.5 48.8203 88.1203 53.8151 94.1224 54.2131C107.503 55.1004 131.453 56.5 149.416 56.5C167.487 56.5 192.169 55.0835 205.846 54.1972C211.858 53.8076 216.5 48.8079 216.5 42.7884V14.2817C216.5 8.23274 211.829 3.21818 205.786 2.84946C191.328 1.96726 164.95 0.5 149.416 0.5C133.968 0.5 108.362 1.95095 94.1971 2.83466Z" stroke="white"/>
<path fill-rule="evenodd" clip-rule="evenodd" d="M89.4233 51.4505C91.0788 52.7443 93.1237 53.5693 95.3716 53.7196C108.644 54.6072 132.295 55.9998 150.036 55.9998C167.886 55.9998 192.26 54.5902 205.828 53.7035C211.571 53.3281 216.004 48.5507 216.004 42.7952V14.275C216.004 11.7048 215.123 9.33053 213.637 7.45431C212.805 32.6083 191.07 61.9331 89.4233 51.4505Z" fill="#12273C"/>
<path d="M104.5 7.15283C105.344 8.63016 99.9131 8.91746 96 11.1528C92.0869 13.3882 90.372 16.549 89.5281 15.0717C88.6841 13.5943 91.1722 10.5846 95.0854 8.34923C98.9985 6.11386 103.656 5.6755 104.5 7.15283Z" fill="#536B80"/>
<g filter="url(#filter2_d_830_6507)">
<path d="M99.12 38.26C100.067 37.7133 100.74 37.2733 101.14 36.94C101.54 36.6067 101.807 36.2467 101.94 35.86C102.073 35.4733 102.14 34.9133 102.14 34.18V27.54H105.02V34.18C105.02 35.3 104.88 36.22 104.6 36.94C104.32 37.66 103.84 38.3 103.16 38.86C102.48 39.4333 101.493 40.04 100.2 40.68L99.12 38.26ZM108.123 38.14C109.309 37.6333 110.189 37.22 110.763 36.9C111.349 36.58 111.749 36.28 111.963 36C112.176 35.72 112.283 35.3867 112.283 35H110.983C110.183 35 109.449 34.82 108.783 34.46C108.116 34.1 107.583 33.6067 107.183 32.98C106.796 32.34 106.603 31.6267 106.603 30.84C106.603 30.04 106.796 29.3067 107.183 28.64C107.583 27.9733 108.116 27.4467 108.783 27.06C109.449 26.66 110.183 26.46 110.983 26.46C111.756 26.46 112.463 26.66 113.103 27.06C113.743 27.4467 114.243 27.9733 114.603 28.64C114.963 29.3067 115.143 30.04 115.143 30.84V33.76C115.143 35 114.949 36 114.563 36.76C114.189 37.5333 113.576 38.2 112.723 38.76C111.883 39.3333 110.649 39.9733 109.023 40.68L108.123 38.14ZM112.283 30.82C112.283 30.4333 112.156 30.1133 111.903 29.86C111.663 29.6067 111.356 29.48 110.983 29.48C110.596 29.48 110.269 29.6067 110.003 29.86C109.749 30.1133 109.623 30.4333 109.623 30.82C109.623 31.2067 109.749 31.5267 110.003 31.78C110.269 32.0333 110.596 32.16 110.983 32.16H112.283V30.82ZM121.778 31.98C122.072 31.98 122.305 31.8933 122.478 31.72C122.665 31.5467 122.758 31.3267 122.758 31.06C122.758 30.8733 122.698 30.7133 122.578 30.58C122.472 30.4333 122.272 30.26 121.978 30.06L117.778 27.18L119.398 24.8L124.078 28.04C124.585 28.4267 124.965 28.8533 125.218 29.32C125.485 29.7733 125.618 30.3267 125.618 30.98C125.618 31.7267 125.432 32.4067 125.058 33.02C124.698 33.6333 124.205 34.12 123.578 34.48C122.952 34.8267 122.272 35 121.538 35H116.778V31.98H121.778ZM131.988 23.26H134.548V25.82H131.988V23.26ZM128.807 38.26C129.754 37.7133 130.428 37.2733 130.828 36.94C131.228 36.6067 131.494 36.2467 131.628 35.86C131.761 35.4733 131.828 34.9133 131.828 34.18V27.54H134.708V34.18C134.708 35.3 134.568 36.22 134.288 36.94C134.008 37.66 133.528 38.3 132.848 38.86C132.168 39.4333 131.181 40.04 129.888 40.68L128.807 38.26ZM136.389 21.52H139.269V35H136.389V21.52ZM154.956 18.8H157.516V21.36H154.956V18.8ZM149.496 35C148.576 35 147.729 34.7733 146.956 34.32C146.182 33.8667 145.569 33.2533 145.116 32.48C144.662 31.7067 144.436 30.86 144.436 29.94V27.54H147.316V29.78C147.316 30.38 147.529 30.9 147.956 31.34C148.382 31.7667 148.896 31.98 149.496 31.98H156.276C156.542 31.98 156.756 31.8933 156.916 31.72C157.089 31.5467 157.176 31.3267 157.176 31.06V30.86H156.236C155.502 30.86 154.822 30.6933 154.196 30.36C153.582 30.0133 153.089 29.5467 152.716 28.96C152.356 28.3733 152.176 27.7267 152.176 27.02C152.176 26.2733 152.362 25.5867 152.736 24.96C153.109 24.3333 153.602 23.84 154.216 23.48C154.842 23.12 155.516 22.94 156.236 22.94C156.956 22.94 157.602 23.12 158.176 23.48C158.762 23.84 159.222 24.3333 159.556 24.96C159.889 25.5867 160.056 26.2733 160.056 27.02V31.22C160.056 31.9 159.889 32.5333 159.556 33.12C159.222 33.6933 158.769 34.1533 158.196 34.5C157.622 34.8333 156.989 35 156.296 35H149.496ZM157.356 26.92C157.356 26.5733 157.236 26.28 156.996 26.04C156.756 25.8 156.469 25.68 156.136 25.68C155.776 25.68 155.476 25.8 155.236 26.04C154.996 26.28 154.876 26.5733 154.876 26.92C154.876 27.28 154.996 27.5867 155.236 27.84C155.476 28.08 155.776 28.2 156.136 28.2H157.356V26.92ZM161.604 21.52H164.484V35H161.604V21.52ZM170.999 31.98C171.132 31.98 171.199 32.0467 171.199 32.18V34.8C171.199 34.9333 171.132 35 170.999 35H170.159C169.812 35 169.499 34.96 169.219 34.88C169.165 35.8133 168.985 36.6 168.679 37.24C168.372 37.8933 167.885 38.48 167.219 39C166.552 39.5333 165.619 40.0933 164.419 40.68L163.339 38.26C164.285 37.7133 164.959 37.2733 165.359 36.94C165.759 36.6067 166.025 36.2467 166.159 35.86C166.292 35.4733 166.359 34.9133 166.359 34.18V27.54H169.239V31.04C169.239 31.3067 169.325 31.5333 169.499 31.72C169.672 31.8933 169.892 31.98 170.159 31.98H170.999ZM188.736 31.98C188.869 31.98 188.936 32.0467 188.936 32.18V34.8C188.936 34.9333 188.869 35 188.736 35H187.896C186.869 35 186.063 34.6267 185.476 33.88C185.063 34.24 184.603 34.52 184.096 34.72C183.603 34.9067 183.083 35 182.536 35H177.776C176.416 35 175.329 34.5 174.516 33.5C174.249 33.98 173.889 34.3533 173.436 34.62C172.983 34.8733 172.449 35 171.836 35H170.996C170.863 35 170.796 34.9333 170.796 34.8V32.18C170.796 32.0467 170.863 31.98 170.996 31.98H171.836C172.103 31.98 172.323 31.8933 172.496 31.72C172.683 31.5333 172.776 31.3067 172.776 31.04V27.54H175.636V29.52L179.796 27.04C180.343 26.7067 180.809 26.4667 181.196 26.32C181.583 26.1733 182.029 26.1 182.536 26.1C183.336 26.1 184.076 26.3 184.756 26.7C185.436 27.1 185.976 27.6467 186.376 28.34C186.776 29.02 186.976 29.76 186.976 30.56V30.58V31.04C186.976 31.3067 187.063 31.5333 187.236 31.72C187.409 31.8933 187.629 31.98 187.896 31.98H188.736ZM182.536 31.98C182.949 31.98 183.296 31.8333 183.576 31.54C183.869 31.2467 184.016 30.9 184.016 30.5C184.016 30.0733 183.869 29.7067 183.576 29.4C183.283 29.0933 182.916 28.94 182.476 28.94C182.289 28.94 182.083 28.9867 181.856 29.08C181.643 29.16 181.349 29.32 180.976 29.56L176.996 31.94C177.156 31.9667 177.269 31.98 177.336 31.98H182.536ZM190.79 22.66H193.35V25.24H190.79V22.66ZM188.73 35C188.597 35 188.53 34.9333 188.53 34.8V32.18C188.53 32.0467 188.597 31.98 188.73 31.98H189.81C190.064 31.98 190.277 31.8867 190.45 31.7C190.637 31.5133 190.73 31.2933 190.73 31.04V26.94H193.59V31.22C193.59 31.9 193.424 32.5333 193.09 33.12C192.757 33.6933 192.304 34.1533 191.73 34.5C191.157 34.8333 190.524 35 189.83 35H188.73ZM195.158 21.52H198.038V35H195.158V21.52Z" fill="#E6E8EA"/>
</g>
<defs>
<filter id="filter0_d_830_6507" x="37.6685" y="77.758" width="226.833" height="42.288" filterUnits="userSpaceOnUse" color-interpolation-filters="sRGB">
<feFlood flood-opacity="0" result="BackgroundImageFix"/>
<feColorMatrix in="SourceAlpha" type="matrix" values="0 0 0 0 0 0 0 0 0 0 0 0 0 0 0 0 0 0 127 0" result="hardAlpha"/>
<feOffset dx="2" dy="2"/>
<feComposite in2="hardAlpha" operator="out"/>
<feColorMatrix type="matrix" values="0 0 0 0 0 0 0 0 0 0 0 0 0 0 0 0 0 0 0.25 0"/>
<feBlend mode="normal" in2="BackgroundImageFix" result="effect1_dropShadow_830_6507"/>
<feBlend mode="normal" in="SourceGraphic" in2="effect1_dropShadow_830_6507" result="shape"/>
</filter>
<filter id="filter1_i_830_6507" x="83" y="0" width="134.5" height="57.5" filterUnits="userSpaceOnUse" color-interpolation-filters="sRGB">
<feFlood flood-opacity="0" result="BackgroundImageFix"/>
<feBlend mode="normal" in="SourceGraphic" in2="BackgroundImageFix" result="shape"/>
<feColorMatrix in="SourceAlpha" type="matrix" values="0 0 0 0 0 0 0 0 0 0 0 0 0 0 0 0 0 0 127 0" result="hardAlpha"/>
<feOffset dx="2" dy="2"/>
<feGaussianBlur stdDeviation="0.25"/>
<feComposite in2="hardAlpha" operator="arithmetic" k2="-1" k3="1"/>
<feColorMatrix type="matrix" values="0 0 0 0 0 0 0 0 0 0 0 0 0 0 0 0 0 0 0.25 0"/>
<feBlend mode="normal" in2="shape" result="effect1_innerShadow_830_6507"/>
</filter>
<filter id="filter2_d_830_6507" x="99.12" y="18.8" width="100.918" height="23.88" filterUnits="userSpaceOnUse" color-interpolation-filters="sRGB">
<feFlood flood-opacity="0" result="BackgroundImageFix"/>
<feColorMatrix in="SourceAlpha" type="matrix" values="0 0 0 0 0 0 0 0 0 0 0 0 0 0 0 0 0 0 127 0" result="hardAlpha"/>
<feOffset dx="2" dy="2"/>
<feComposite in2="hardAlpha" operator="out"/>
<feColorMatrix type="matrix" values="0 0 0 0 0 0 0 0 0 0 0 0 0 0 0 0 0 0 0.25 0"/>
<feBlend mode="normal" in2="BackgroundImageFix" result="effect1_dropShadow_830_6507"/>
<feBlend mode="normal" in="SourceGraphic" in2="effect1_dropShadow_830_6507" result="shape"/>
</filter>
</defs>
</svg>
