<svg width="44" height="44" viewBox="0 0 44 44" fill="none" xmlns="http://www.w3.org/2000/svg">
<g filter="url(#filter0_b_229_4947)">
<g clip-path="url(#clip0_229_4947)">
<rect x="1" y="1" width="42" height="42" rx="16" fill="#354859"/>
<mask id="mask0_229_4947" style="mask-type:alpha" maskUnits="userSpaceOnUse" x="1" y="1" width="42" height="42">
<rect x="1" y="1" width="42" height="42" rx="16" fill="#354859"/>
</mask>
<g mask="url(#mask0_229_4947)">
<path d="M4.0791 39C49.8659 30.0811 36.5793 6.66667 40.0793 -9C41.0794 0.5 55.9326 28.8 56.3326 30C56.7326 31.2 43.3318 45.1667 39.3316 49.5C10.4984 44 -41.7077 47.9189 4.0791 39Z" fill="#283643"/>
<path d="M7.3858 9.09979C7.94915 9.70718 7.24518 10.5941 6.23286 11.533C5.22054 12.472 4.28322 13.1073 3.71987 12.4999C3.15651 11.8925 3.52047 10.639 4.53279 9.70008C5.54511 8.76115 6.82245 8.4924 7.3858 9.09979Z" fill="#546B81"/>
</g>
<g filter="url(#filter1_i_229_4947)">
<path d="M10.1467 27.92V34.5866V27.92Z" fill="#D9D9D9"/>
</g>
<path d="M35.3334 22C35.3334 29.36 29.3601 35.3333 22.0001 35.3333C14.6401 35.3333 10.1467 27.92 10.1467 27.92M10.1467 27.92H16.1734M10.1467 27.92V34.5866M8.66675 22C8.66675 14.64 14.5867 8.66663 22.0001 8.66663C30.8934 8.66663 35.3334 16.08 35.3334 16.08M35.3334 16.08V9.41329M35.3334 16.08H29.4134" stroke="#E6E8EA" stroke-width="3.5" stroke-linecap="round" stroke-linejoin="round"/>
<path d="M15.8325 3.67497C16.6764 5.1523 14.6283 5.88333 12.3351 7.19331C10.0419 8.50329 8.37197 9.89617 7.52805 8.41884C6.68413 6.94151 7.85901 4.68195 10.1522 3.37196C12.4454 2.06198 14.9885 2.19764 15.8325 3.67497Z" fill="#546B81"/>
</g>
<rect x="0.5" y="0.5" width="43" height="43" rx="16.5" stroke="#B1B8BF"/>
</g>
<defs>
<filter id="filter0_b_229_4947" x="-4" y="-4" width="52" height="52" filterUnits="userSpaceOnUse" color-interpolation-filters="sRGB">
<feFlood flood-opacity="0" result="BackgroundImageFix"/>
<feGaussianBlur in="BackgroundImageFix" stdDeviation="2"/>
<feComposite in2="SourceAlpha" operator="in" result="effect1_backgroundBlur_229_4947"/>
<feBlend mode="normal" in="SourceGraphic" in2="effect1_backgroundBlur_229_4947" result="shape"/>
</filter>
<filter id="filter1_i_229_4947" x="6.91675" y="6.91663" width="31.1667" height="31.1666" filterUnits="userSpaceOnUse" color-interpolation-filters="sRGB">
<feFlood flood-opacity="0" result="BackgroundImageFix"/>
<feBlend mode="normal" in="SourceGraphic" in2="BackgroundImageFix" result="shape"/>
<feColorMatrix in="SourceAlpha" type="matrix" values="0 0 0 0 0 0 0 0 0 0 0 0 0 0 0 0 0 0 127 0" result="hardAlpha"/>
<feOffset dx="1" dy="1"/>
<feGaussianBlur stdDeviation="0.5"/>
<feComposite in2="hardAlpha" operator="arithmetic" k2="-1" k3="1"/>
<feColorMatrix type="matrix" values="0 0 0 0 0 0 0 0 0 0 0 0 0 0 0 0 0 0 0.25 0"/>
<feBlend mode="normal" in2="shape" result="effect1_innerShadow_229_4947"/>
</filter>
<clipPath id="clip0_229_4947">
<rect x="1" y="1" width="42" height="42" rx="16" fill="white"/>
</clipPath>
</defs>
</svg>
