<svg width="133" height="44" viewBox="0 0 133 44" fill="none" xmlns="http://www.w3.org/2000/svg">
<g filter="url(#filter0_d_1224_2888)">
<rect width="132" height="40" rx="19" fill="#0B233A" shape-rendering="crispEdges"/>
<g filter="url(#filter1_d_1224_2888)">
<path d="M10.368 21.532C10.368 21.0653 10.4847 20.636 10.718 20.244C10.9513 19.8427 11.264 19.53 11.656 19.306C12.0573 19.0727 12.4913 18.956 12.958 18.956H16.15C16.6633 18.956 17.1393 19.0773 17.578 19.32C18.0167 19.5533 18.362 19.88 18.614 20.3C18.866 20.72 18.992 21.182 18.992 21.686C18.992 22.1993 18.8613 22.6753 18.6 23.114C18.348 23.5433 18.0027 23.8887 17.564 24.15C17.1347 24.402 16.6633 24.528 16.15 24.528C15.6367 24.528 15.17 24.402 14.75 24.15C14.3393 23.898 14.0127 23.5527 13.77 23.114C13.5367 22.6753 13.42 22.1993 13.42 21.686V20.398H12.958C12.6407 20.398 12.37 20.51 12.146 20.734C11.922 20.958 11.81 21.224 11.81 21.532V28H10.368V21.532ZM16.15 23.002C16.5233 23.002 16.836 22.876 17.088 22.624C17.34 22.372 17.466 22.0593 17.466 21.686C17.466 21.322 17.34 21.014 17.088 20.762C16.836 20.51 16.5233 20.384 16.15 20.384H14.848V21.686C14.848 22.0593 14.974 22.372 15.226 22.624C15.478 22.876 15.786 23.002 16.15 23.002ZM23.6918 22.974C23.9718 22.974 24.2052 22.8807 24.3918 22.694C24.5878 22.5073 24.6858 22.2787 24.6858 22.008C24.6858 21.8213 24.6392 21.658 24.5458 21.518C24.4525 21.3687 24.2985 21.2193 24.0838 21.07L21.3538 19.194L22.1658 18.018L25.1198 20.048C25.4465 20.2907 25.6985 20.5707 25.8758 20.888C26.0532 21.196 26.1418 21.5553 26.1418 21.966C26.1418 22.4327 26.0252 22.862 25.7918 23.254C25.5585 23.6367 25.2458 23.94 24.8538 24.164C24.4618 24.388 24.0325 24.5 23.5658 24.5H20.3878V22.974H23.6918ZM30.6552 22.974C30.7485 22.974 30.7952 23.0207 30.7952 23.114V24.36C30.7952 24.4533 30.7485 24.5 30.6552 24.5H30.0252C29.6425 24.5 29.3112 24.416 29.0312 24.248C29.0219 24.9387 28.9099 25.508 28.6952 25.956C28.4899 26.4133 28.1632 26.8147 27.7152 27.16C27.2765 27.5053 26.6465 27.874 25.8252 28.266L25.2792 27.062C25.9605 26.6793 26.4459 26.376 26.7352 26.152C27.0339 25.9373 27.2485 25.676 27.3792 25.368C27.5192 25.0693 27.5892 24.6587 27.5892 24.136V19.726H29.0312V21.98C29.0312 22.26 29.1245 22.498 29.3112 22.694C29.5072 22.8807 29.7452 22.974 30.0252 22.974H30.6552ZM31.1404 16.324L33.6044 13.72L34.3184 14.448L31.8544 17.052L31.1404 16.324ZM30.6504 24.5C30.5571 24.5 30.5104 24.4533 30.5104 24.36V23.114C30.5104 23.0207 30.5571 22.974 30.6504 22.974H35.1164C35.4524 22.974 35.7417 22.8573 35.9844 22.624C36.2271 22.3907 36.3484 22.0967 36.3484 21.742C36.3484 21.294 36.1291 20.9393 35.6904 20.678L32.4004 18.522V17.36L35.1304 14.476L36.1244 15.414L33.8704 17.766L36.6144 19.558C36.9877 19.8007 37.2771 20.1133 37.4824 20.496C37.6877 20.8787 37.7904 21.308 37.7904 21.784C37.7904 22.2787 37.6691 22.736 37.4264 23.156C37.1931 23.5667 36.8711 23.8933 36.4604 24.136C36.0497 24.3787 35.5971 24.5 35.1024 24.5H30.6504ZM48.8327 22.974C48.926 22.974 48.9727 23.0207 48.9727 23.114V24.36C48.9727 24.4533 48.926 24.5 48.8327 24.5H47.9227C48.0813 24.7987 48.1607 25.1347 48.1607 25.508C48.1607 25.9653 48.044 26.3853 47.8107 26.768C47.5867 27.1507 47.2787 27.454 46.8867 27.678C46.504 27.9113 46.084 28.028 45.6267 28.028H42.5187C41.9307 28.028 41.3847 27.8833 40.8807 27.594C40.386 27.3047 39.9893 26.908 39.6907 26.404C39.4013 25.9093 39.2567 25.368 39.2567 24.78V21.686H40.6987V24.696C40.6987 25.0227 40.778 25.326 40.9367 25.606C41.1047 25.886 41.3287 26.1053 41.6087 26.264C41.8887 26.432 42.192 26.516 42.5187 26.516H45.6547C45.9253 26.516 46.1587 26.4133 46.3547 26.208C46.5507 26.012 46.6487 25.7787 46.6487 25.508C46.6487 25.228 46.5507 24.99 46.3547 24.794C46.1587 24.598 45.9253 24.5 45.6547 24.5H42.9247V22.974H48.8327ZM53.384 18.956C53.9067 18.956 54.3827 19.0773 54.812 19.32C55.2507 19.5533 55.596 19.88 55.848 20.3C56.1093 20.72 56.24 21.182 56.24 21.686C56.24 22.1993 56.1093 22.6753 55.848 23.114C55.596 23.5433 55.2507 23.8887 54.812 24.15C54.3827 24.402 53.9067 24.528 53.384 24.528C52.9827 24.528 52.6093 24.4487 52.264 24.29C51.9187 24.1313 51.62 23.912 51.368 23.632C51.1813 23.9027 50.9433 24.1173 50.654 24.276C50.3647 24.4253 50.0333 24.5 49.66 24.5H48.834C48.7407 24.5 48.694 24.4533 48.694 24.36V23.114C48.694 23.0207 48.7407 22.974 48.834 22.974H49.66C49.9307 22.974 50.164 22.8807 50.36 22.694C50.556 22.498 50.654 22.26 50.654 21.98V20.398H49.814V18.956H53.384ZM53.384 23.002C53.7573 23.002 54.07 22.876 54.322 22.624C54.5833 22.372 54.714 22.0593 54.714 21.686C54.714 21.322 54.5833 21.0187 54.322 20.776C54.07 20.524 53.7573 20.398 53.384 20.398H52.082V21.686C52.082 22.0593 52.208 22.372 52.46 22.624C52.712 22.876 53.02 23.002 53.384 23.002ZM64.4384 22.974C64.5317 22.974 64.5784 23.0207 64.5784 23.114V24.36C64.5784 24.4533 64.5317 24.5 64.4384 24.5H63.8084C63.4257 24.5 63.0944 24.416 62.8144 24.248C62.8051 24.9387 62.6931 25.508 62.4784 25.956C62.2731 26.4133 61.9464 26.8147 61.4984 27.16C61.0597 27.5053 60.4297 27.874 59.6084 28.266L59.0624 27.062C59.7437 26.6793 60.2291 26.376 60.5184 26.152C60.8171 25.9373 61.0317 25.676 61.1624 25.368C61.3024 25.0693 61.3724 24.6587 61.3724 24.136V19.726H62.8144V21.98C62.8144 22.26 62.9077 22.498 63.0944 22.694C63.2904 22.8807 63.5284 22.974 63.8084 22.974H64.4384ZM64.4336 24.5C64.3403 24.5 64.2936 24.4533 64.2936 24.36V23.114C64.2936 23.0207 64.3403 22.974 64.4336 22.974H65.1196C65.3903 22.974 65.6236 22.876 65.8196 22.68C66.0156 22.484 66.1136 22.246 66.1136 21.966V19.306H67.5556V22.05C67.5556 22.498 67.4483 22.9087 67.2336 23.282C67.0189 23.6553 66.7249 23.954 66.3516 24.178C65.9783 24.3927 65.5676 24.5 65.1196 24.5H64.4336ZM64.4336 25.76H65.8616V27.188H64.4336V25.76ZM81.3307 22.974C81.4241 22.974 81.4707 23.0207 81.4707 23.114V24.36C81.4707 24.4533 81.4241 24.5 81.3307 24.5H80.4207C80.5794 24.7987 80.6587 25.1347 80.6587 25.508C80.6587 25.9653 80.5421 26.3853 80.3087 26.768C80.0847 27.1507 79.7767 27.454 79.3847 27.678C79.0021 27.9113 78.5821 28.028 78.1247 28.028H75.0167C74.4287 28.028 73.8827 27.8833 73.3787 27.594C72.8841 27.3047 72.4874 26.908 72.1887 26.404C71.8994 25.9093 71.7547 25.368 71.7547 24.78V21.686H73.1967V24.696C73.1967 25.0227 73.2761 25.326 73.4347 25.606C73.6027 25.886 73.8267 26.1053 74.1067 26.264C74.3867 26.432 74.6901 26.516 75.0167 26.516H78.1527C78.4234 26.516 78.6567 26.4133 78.8527 26.208C79.0487 26.012 79.1467 25.7787 79.1467 25.508C79.1467 25.228 79.0487 24.99 78.8527 24.794C78.6567 24.598 78.4234 24.5 78.1527 24.5H75.4227V22.974H81.3307ZM81.332 24.5C81.2387 24.5 81.192 24.4533 81.192 24.36V23.114C81.192 23.0207 81.2387 22.974 81.332 22.974H81.864C82.144 22.974 82.382 22.876 82.578 22.68C82.774 22.484 82.872 22.246 82.872 21.966V15.204H84.314V22.05C84.314 22.498 84.2067 22.9087 83.992 23.282C83.7774 23.6553 83.4834 23.954 83.11 24.178C82.7367 24.3927 82.326 24.5 81.878 24.5H81.332ZM86.8858 26.992C87.7538 26.6187 88.3931 26.3153 88.8038 26.082C89.2238 25.858 89.5178 25.6247 89.6858 25.382C89.8631 25.1487 89.9518 24.8547 89.9518 24.5H88.6638C88.1411 24.5 87.6604 24.3833 87.2218 24.15C86.7924 23.9073 86.4471 23.576 86.1858 23.156C85.9338 22.736 85.8078 22.2693 85.8078 21.756C85.8078 21.2427 85.9338 20.7713 86.1858 20.342C86.4471 19.9127 86.7924 19.572 87.2218 19.32C87.6604 19.0587 88.1411 18.928 88.6638 18.928C89.1678 18.928 89.6298 19.054 90.0498 19.306C90.4698 19.558 90.7964 19.9033 91.0298 20.342C91.2724 20.7713 91.3938 21.2427 91.3938 21.756V23.926C91.3938 24.7007 91.2538 25.3307 90.9738 25.816C90.7031 26.3013 90.2924 26.712 89.7418 27.048C89.2004 27.3933 88.3978 27.7993 87.3338 28.266L86.8858 26.992ZM89.9518 21.756C89.9518 21.392 89.8258 21.084 89.5738 20.832C89.3218 20.5707 89.0184 20.44 88.6638 20.44C88.2904 20.44 87.9731 20.5707 87.7118 20.832C87.4598 21.084 87.3338 21.392 87.3338 21.756C87.3338 22.1293 87.4598 22.442 87.7118 22.694C87.9731 22.9367 88.2904 23.058 88.6638 23.058H89.9518V21.756ZM95.6942 21.532C95.6942 21.0653 95.8108 20.636 96.0442 20.244C96.2775 19.8427 96.5902 19.53 96.9822 19.306C97.3835 19.0727 97.8175 18.956 98.2842 18.956H101.476C101.99 18.956 102.466 19.0773 102.904 19.32C103.343 19.5533 103.688 19.88 103.94 20.3C104.192 20.72 104.318 21.182 104.318 21.686C104.318 22.1993 104.188 22.6753 103.926 23.114C103.674 23.5433 103.329 23.8887 102.89 24.15C102.461 24.402 101.99 24.528 101.476 24.528C100.963 24.528 100.496 24.402 100.076 24.15C99.6655 23.898 99.3388 23.5527 99.0962 23.114C98.8628 22.6753 98.7462 22.1993 98.7462 21.686V20.398H98.2842C97.9668 20.398 97.6962 20.51 97.4722 20.734C97.2482 20.958 97.1362 21.224 97.1362 21.532V28H95.6942V21.532ZM101.476 23.002C101.85 23.002 102.162 22.876 102.414 22.624C102.666 22.372 102.792 22.0593 102.792 21.686C102.792 21.322 102.666 21.014 102.414 20.762C102.162 20.51 101.85 20.384 101.476 20.384H100.174V21.686C100.174 22.0593 100.3 22.372 100.552 22.624C100.804 22.876 101.112 23.002 101.476 23.002ZM108.845 22.974C108.938 22.974 108.985 23.0207 108.985 23.114V24.36C108.985 24.4533 108.938 24.5 108.845 24.5H108.215C107.832 24.5 107.501 24.416 107.221 24.248C107.211 24.9387 107.099 25.508 106.885 25.956C106.679 26.4133 106.353 26.8147 105.905 27.16C105.466 27.5053 104.836 27.874 104.015 28.266L103.469 27.062C104.15 26.6793 104.635 26.376 104.925 26.152C105.223 25.9373 105.438 25.676 105.569 25.368C105.709 25.0693 105.779 24.6587 105.779 24.136V19.726H107.221V21.98C107.221 22.26 107.314 22.498 107.501 22.694C107.697 22.8807 107.935 22.974 108.215 22.974H108.845ZM108.7 23.114C108.7 23.0207 108.747 22.974 108.84 22.974H109.68C109.951 22.974 110.184 22.8807 110.38 22.694C110.576 22.498 110.674 22.26 110.674 21.98V19.726H112.116V21.98C112.116 22.26 112.214 22.498 112.41 22.694C112.606 22.8807 112.839 22.974 113.11 22.974H113.964C114.057 22.974 114.104 23.0207 114.104 23.114V24.36C114.104 24.4533 114.057 24.5 113.964 24.5H113.11C112.746 24.5 112.415 24.4207 112.116 24.262C111.827 24.1033 111.589 23.884 111.402 23.604C111.215 23.884 110.973 24.1033 110.674 24.262C110.385 24.4207 110.053 24.5 109.68 24.5H108.84C108.747 24.5 108.7 24.4533 108.7 24.36V23.114ZM109.596 25.788H111.024V27.216H109.596V25.788ZM111.752 25.788H113.166V27.216H111.752V25.788ZM118.517 18.956C119.039 18.956 119.515 19.0773 119.945 19.32C120.383 19.5533 120.729 19.88 120.981 20.3C121.242 20.72 121.373 21.182 121.373 21.686C121.373 22.1993 121.242 22.6753 120.981 23.114C120.729 23.5433 120.383 23.8887 119.945 24.15C119.515 24.402 119.039 24.528 118.517 24.528C118.115 24.528 117.742 24.4487 117.397 24.29C117.051 24.1313 116.753 23.912 116.501 23.632C116.314 23.9027 116.076 24.1173 115.787 24.276C115.497 24.4253 115.166 24.5 114.793 24.5H113.967C113.873 24.5 113.827 24.4533 113.827 24.36V23.114C113.827 23.0207 113.873 22.974 113.967 22.974H114.793C115.063 22.974 115.297 22.8807 115.493 22.694C115.689 22.498 115.787 22.26 115.787 21.98V20.398H114.947V18.956H118.517ZM118.517 23.002C118.89 23.002 119.203 22.876 119.455 22.624C119.716 22.372 119.847 22.0593 119.847 21.686C119.847 21.322 119.716 21.0187 119.455 20.776C119.203 20.524 118.89 20.398 118.517 20.398H117.215V21.686C117.215 22.0593 117.341 22.372 117.593 22.624C117.845 22.876 118.153 23.002 118.517 23.002Z" fill="#E6E8EA"/>
</g>
<circle cx="4.5" cy="13.5" r="1.5" fill="#092B4B"/>
<circle cx="4.5" cy="13.5" r="1.5" fill="#1D3E5E"/>
<path d="M21.5925 2.9819C22.3905 4.37895 16.971 4.81279 13.0072 7.07711C9.04337 9.34142 7.24307 12.4325 6.44501 11.0354C5.64695 9.63839 8.21331 6.67027 12.1771 4.40595C16.1409 2.14163 20.7944 1.58486 21.5925 2.9819Z" fill="#092B4B"/>
<path d="M21.5925 2.9819C22.3905 4.37895 16.971 4.81279 13.0072 7.07711C9.04337 9.34142 7.24307 12.4325 6.44501 11.0354C5.64695 9.63839 8.21331 6.67027 12.1771 4.40595C16.1409 2.14163 20.7944 1.58486 21.5925 2.9819Z" fill="#1D3E5E"/>
</g>
<defs>
<filter id="filter0_d_1224_2888" x="0" y="0" width="133" height="44" filterUnits="userSpaceOnUse" color-interpolation-filters="sRGB">
<feFlood flood-opacity="0" result="BackgroundImageFix"/>
<feColorMatrix in="SourceAlpha" type="matrix" values="0 0 0 0 0 0 0 0 0 0 0 0 0 0 0 0 0 0 127 0" result="hardAlpha"/>
<feOffset dx="1" dy="4"/>
<feComposite in2="hardAlpha" operator="out"/>
<feColorMatrix type="matrix" values="0 0 0 0 0.02 0 0 0 0 0.086383 0 0 0 0 0.15 0 0 0 1 0"/>
<feBlend mode="normal" in2="BackgroundImageFix" result="effect1_dropShadow_1224_2888"/>
<feBlend mode="normal" in="SourceGraphic" in2="effect1_dropShadow_1224_2888" result="shape"/>
</filter>
<filter id="filter1_d_1224_2888" x="10.3679" y="13.72" width="113.005" height="16.5461" filterUnits="userSpaceOnUse" color-interpolation-filters="sRGB">
<feFlood flood-opacity="0" result="BackgroundImageFix"/>
<feColorMatrix in="SourceAlpha" type="matrix" values="0 0 0 0 0 0 0 0 0 0 0 0 0 0 0 0 0 0 127 0" result="hardAlpha"/>
<feOffset dx="2" dy="2"/>
<feComposite in2="hardAlpha" operator="out"/>
<feColorMatrix type="matrix" values="0 0 0 0 0 0 0 0 0 0 0 0 0 0 0 0 0 0 0.34 0"/>
<feBlend mode="normal" in2="BackgroundImageFix" result="effect1_dropShadow_1224_2888"/>
<feBlend mode="normal" in="SourceGraphic" in2="effect1_dropShadow_1224_2888" result="shape"/>
</filter>
</defs>
</svg>
