<svg width="123" height="41" viewBox="0 0 123 41" fill="none" xmlns="http://www.w3.org/2000/svg">
<g clip-path="url(#clip0_991_10777)">
<rect width="123" height="41" rx="16" fill="#031A30"/>
<path d="M37.7678 39.2051C132.152 31.7346 104.763 12.1225 111.978 -1C114.039 6.95726 144.657 30.6615 145.482 31.6667C146.306 32.6718 118.682 44.3704 110.437 48C51.0004 43.3932 -56.616 46.6757 37.7678 39.2051Z" fill="#001121"/>
<g filter="url(#filter0_i_991_10777)">
<path d="M13.5386 20.0381L17.8412 24.192L26.4617 15.8843" stroke="#E6E8EA" stroke-width="3" stroke-linecap="round" stroke-linejoin="round"/>
</g>
<g filter="url(#filter1_d_991_10777)">
<path d="M41.8663 24.14C40.2703 24.14 39.0196 23.902 38.1143 23.426C37.2183 22.95 36.7283 22.2733 36.6443 21.396C36.635 21.3213 36.6303 21.214 36.6303 21.074C36.6303 20.6913 36.6816 20.2853 36.7843 19.856C36.887 19.4173 37.013 19.0207 37.1623 18.666L38.2543 19.198C37.993 19.9353 37.8623 20.5093 37.8623 20.92C37.8623 21.0227 37.867 21.102 37.8763 21.158C37.951 21.606 38.329 21.9607 39.0103 22.222C39.6916 22.474 40.667 22.6047 41.9363 22.614C42.7856 22.614 43.5136 22.558 44.1203 22.446C44.727 22.3247 45.189 22.1847 45.5063 22.026C45.833 21.8673 46.0103 21.7227 46.0383 21.592C45.9916 21.1907 45.8703 20.696 45.6743 20.108C45.4876 19.52 45.3336 19.086 45.2123 18.806L46.3743 18.176C46.5703 18.6427 46.757 19.2073 46.9343 19.87C47.121 20.5233 47.2143 21.0693 47.2143 21.508C47.2143 22.0587 46.981 22.5347 46.5143 22.936C46.057 23.328 45.4223 23.6267 44.6103 23.832C43.8076 24.0373 42.893 24.14 41.8663 24.14ZM40.6483 17.364L41.7123 18.414C41.2456 18.8807 41.0123 19.114 41.0123 19.114L40.6483 19.478L39.5983 18.414L40.6483 17.364ZM43.1403 17.364L44.2043 18.414C43.7376 18.8807 43.5043 19.114 43.5043 19.114L43.1403 19.478L42.0903 18.414L43.1403 17.364ZM48.8234 23.916C48.8981 23.356 48.9354 22.376 48.9354 20.976C48.9354 19.6973 48.9028 18.386 48.8374 17.042C48.7814 15.6887 48.7161 14.788 48.6414 14.34L49.9714 14.046C50.0368 14.5127 50.1021 15.432 50.1674 16.804C50.2328 18.176 50.2654 19.5013 50.2654 20.78C50.2654 22.236 50.2188 23.3327 50.1254 24.07L48.8234 23.916ZM55.4457 24C55.119 24 54.8203 23.9253 54.5497 23.776V23.846C54.5497 24.7047 54.1903 25.512 53.4717 26.268C52.7623 27.0333 51.8383 27.626 50.6997 28.046L50.0977 26.73C50.7043 26.506 51.2503 26.226 51.7357 25.89C52.2303 25.554 52.6177 25.204 52.8977 24.84C53.187 24.4853 53.3317 24.154 53.3317 23.846C53.3317 23.454 53.0843 22.2967 52.5897 20.374L53.8217 19.898C53.9523 20.318 54.0783 20.7847 54.1997 21.298C54.3303 21.7273 54.489 22.0307 54.6757 22.208C54.8623 22.376 55.119 22.46 55.4457 22.46H55.5437L55.6277 23.23L55.5437 24H55.4457ZM55.4007 22.46H55.5127C56.2407 22.46 56.8054 22.4273 57.2067 22.362C57.608 22.2967 57.8974 22.2033 58.0747 22.082C58.2614 21.9513 58.3874 21.7693 58.4527 21.536C58.49 21.4147 58.5087 21.242 58.5087 21.018C58.5087 20.766 58.4854 20.4813 58.4387 20.164C58.392 19.8373 58.364 19.6367 58.3547 19.562L59.5167 19.324C59.6474 19.9493 59.7127 20.7053 59.7127 21.592C59.7594 21.8627 59.8807 22.0773 60.0767 22.236C60.282 22.3853 60.5574 22.46 60.9027 22.46H61.0007L61.0847 23.23L61.0007 24H60.9027C60.5107 24 60.156 23.9067 59.8387 23.72C59.5307 23.524 59.2787 23.2627 59.0827 22.936C58.8494 23.328 58.4574 23.6033 57.9067 23.762C57.3654 23.9207 56.5674 24 55.5127 24H55.4007V22.46ZM56.5207 25.274L57.5847 26.324C57.118 26.7907 56.8847 27.024 56.8847 27.024L56.5207 27.388L55.4707 26.324L56.5207 25.274ZM59.0127 25.274L60.0767 26.324C59.61 26.7907 59.3767 27.024 59.3767 27.024L59.0127 27.388L57.9627 26.324L59.0127 25.274ZM60.8558 22.46H60.9678C61.6958 22.46 62.2604 22.4273 62.6618 22.362C63.0631 22.2967 63.3524 22.2033 63.5298 22.082C63.7164 21.9513 63.8424 21.7693 63.9078 21.536C63.9451 21.4147 63.9638 21.242 63.9638 21.018C63.9638 20.766 63.9404 20.4813 63.8938 20.164C63.8471 19.8373 63.8191 19.6367 63.8098 19.562L64.9718 19.324C65.1024 19.9493 65.1678 20.7053 65.1678 21.592C65.2144 21.8627 65.3358 22.0773 65.5318 22.236C65.7371 22.3853 66.0124 22.46 66.3578 22.46H66.4558L66.5398 23.23L66.4558 24H66.3578C65.9658 24 65.6111 23.9067 65.2938 23.72C64.9858 23.524 64.7338 23.2627 64.5378 22.936C64.3044 23.328 63.9124 23.6033 63.3618 23.762C62.8204 23.9207 62.0224 24 60.9678 24H60.8558V22.46ZM61.9758 25.274L63.0398 26.324C62.5731 26.7907 62.3398 27.024 62.3398 27.024L61.9758 27.388L60.9258 26.324L61.9758 25.274ZM64.4678 25.274L65.5318 26.324C65.0651 26.7907 64.8318 27.024 64.8318 27.024L64.4678 27.388L63.4178 26.324L64.4678 25.274ZM66.3109 22.46H66.6329C67.4729 22.46 68.2662 22.3667 69.0129 22.18C68.4809 21.6853 67.8555 20.9807 67.1369 20.066L67.1929 19.058C67.5849 18.666 68.0749 18.372 68.6629 18.176C69.2602 17.9707 69.8762 17.868 70.5109 17.868C71.2389 17.868 71.8782 17.9987 72.4289 18.26C72.9889 18.512 73.3342 18.8667 73.4649 19.324C73.4835 19.38 73.4929 19.4733 73.4929 19.604C73.4929 19.9773 73.3435 20.3973 73.0449 20.864C72.7462 21.3307 72.3355 21.774 71.8129 22.194C72.3822 22.3713 73.0542 22.46 73.8289 22.46H74.2069L74.2909 23.23L74.2069 24H73.8289C73.0915 24 72.4382 23.9347 71.8689 23.804C71.3089 23.664 70.7815 23.4447 70.2869 23.146C69.1295 23.7153 67.9115 24 66.6329 24H66.3109V22.46ZM68.5509 19.786C69.2415 20.5887 69.8949 21.1907 70.5109 21.592C71.0149 21.312 71.4115 21.0087 71.7009 20.682C71.9902 20.346 72.1862 20.052 72.2889 19.8C72.1955 19.6133 71.9902 19.464 71.6729 19.352C71.3649 19.24 71.0055 19.184 70.5949 19.184C70.2122 19.184 69.8389 19.2353 69.4749 19.338C69.1202 19.4313 68.8122 19.5807 68.5509 19.786ZM69.3069 15.908C69.6802 15.5533 70.0442 15.1893 70.3989 14.816L71.4909 15.908L70.3989 17.014L69.3069 15.908ZM74.0628 22.46H74.6508C75.6308 22.46 76.3215 22.3713 76.7228 22.194C77.1241 22.0073 77.3248 21.718 77.3248 21.326C77.3155 21.0647 77.2175 20.64 77.0308 20.052C76.8441 19.464 76.6901 19.0487 76.5688 18.806L77.7308 18.176C77.9175 18.5493 78.0995 19.0487 78.2768 19.674C78.4635 20.2993 78.5568 20.8453 78.5568 21.312C78.5568 22.1987 78.2488 22.8707 77.6328 23.328C77.0168 23.776 76.0928 24 74.8608 24H74.0628V22.46ZM75.3788 15.362L76.4428 16.412C75.9761 16.8787 75.7428 17.112 75.7428 17.112L75.3788 17.476L74.3288 16.412L75.3788 15.362ZM77.8708 15.362L78.9348 16.412C78.4681 16.8787 78.2348 17.112 78.2348 17.112L77.8708 17.476L76.8208 16.412L77.8708 15.362ZM87.3908 27.556C86.6628 27.556 86.0001 27.4067 85.4028 27.108C84.8055 26.8187 84.3295 26.3987 83.9748 25.848C83.6295 25.3067 83.4568 24.6813 83.4568 23.972C83.4568 23.4587 83.5455 22.8847 83.7228 22.25C83.9095 21.606 84.1335 21.032 84.3948 20.528L85.4728 21.032C85.2301 21.5453 85.0435 22.026 84.9128 22.474C84.7821 22.9127 84.7168 23.3467 84.7168 23.776C84.7168 24.448 84.9595 24.9893 85.4448 25.4C85.9301 25.82 86.5788 26.03 87.3908 26.03C89.4441 26.03 90.4288 24.9427 90.3448 22.768C90.2701 20.864 90.1861 19.1747 90.0928 17.7C90.0088 16.216 89.9248 15.096 89.8408 14.34L91.1568 14.046C91.2781 15.1753 91.4181 18.0593 91.5768 22.698C91.6235 24.2287 91.2781 25.4187 90.5408 26.268C89.8128 27.1267 88.7628 27.556 87.3908 27.556ZM96.002 24C95.0127 24 94.3173 23.7433 93.916 23.23C93.524 22.7073 93.328 21.8813 93.328 20.752C93.328 19.7253 93.3 18.5587 93.244 17.252C93.1973 15.936 93.1273 14.9653 93.034 14.34L94.364 14.046C94.4387 14.578 94.4993 15.4273 94.546 16.594C94.5927 17.7513 94.616 18.8293 94.616 19.828V20.444C94.6067 21.004 94.63 21.4193 94.686 21.69C94.742 21.9607 94.868 22.1567 95.064 22.278C95.26 22.3993 95.5727 22.46 96.002 22.46H96.072L96.156 23.23L96.072 24H96.002ZM95.9378 22.46H96.2178C96.9831 22.46 97.5991 22.026 98.0658 21.158C98.5325 20.3087 98.9758 19.6553 99.3958 19.198C99.8251 18.7407 100.296 18.512 100.81 18.512C101.37 18.512 101.818 18.708 102.154 19.1C102.499 19.492 102.77 20.0333 102.966 20.724C103.143 21.3587 103.306 21.8067 103.456 22.068C103.614 22.3293 103.829 22.46 104.1 22.46H104.24L104.324 23.23L104.24 24H104.1C103.456 24 102.998 23.6453 102.728 22.936C102.7 23.1413 102.611 23.3327 102.462 23.51C102.312 23.678 102.144 23.8133 101.958 23.916C101.771 24.0187 101.556 24.07 101.314 24.07C100.623 24.07 99.6758 23.6827 98.4718 22.908C98.1918 23.272 97.8558 23.5473 97.4638 23.734C97.0718 23.9113 96.6471 24 96.1898 24H95.9378V22.46ZM99.1298 21.676C99.6338 22.0307 100.105 22.2967 100.544 22.474C100.992 22.642 101.346 22.726 101.608 22.726C101.673 22.726 101.743 22.7167 101.818 22.698C101.948 22.5113 102.014 22.2547 102.014 21.928C102.014 21.62 101.962 21.312 101.86 21.004C101.757 20.6867 101.612 20.4253 101.426 20.22C101.239 20.0147 101.024 19.912 100.782 19.912C100.306 19.912 99.7551 20.5 99.1298 21.676ZM104.1 22.46H104.268C104.688 22.46 105.225 22.4507 105.878 22.432C105.449 21.9467 105.234 21.3633 105.234 20.682C105.234 20.1687 105.369 19.688 105.64 19.24C105.911 18.792 106.275 18.4373 106.732 18.176C107.189 17.9053 107.679 17.77 108.202 17.77C108.622 17.77 109.033 17.8633 109.434 18.05C109.845 18.2273 110.223 18.4653 110.568 18.764L110.036 19.8C109.411 19.464 108.832 19.296 108.3 19.296C107.945 19.296 107.623 19.366 107.334 19.506C107.054 19.6367 106.835 19.8093 106.676 20.024C106.517 20.2387 106.438 20.4673 106.438 20.71C106.438 20.9807 106.536 21.2327 106.732 21.466C106.928 21.6993 107.189 21.886 107.516 22.026C107.852 22.166 108.221 22.2313 108.622 22.222C109.443 22.11 110.167 21.9373 110.792 21.704L111.1 23.062C110.335 23.3793 109.415 23.6173 108.342 23.776C107.278 23.9253 105.92 24 104.268 24H104.1V22.46ZM112.589 23.916C112.664 23.356 112.701 22.376 112.701 20.976C112.701 19.6973 112.668 18.386 112.603 17.042C112.547 15.6887 112.482 14.788 112.407 14.34L113.737 14.046C113.802 14.5127 113.868 15.432 113.933 16.804C113.998 18.176 114.031 19.5013 114.031 20.78C114.031 22.236 113.984 23.3327 113.891 24.07L112.589 23.916Z" fill="#E6E8EA"/>
</g>
<path d="M19.4598 4.85887C20.225 6.1983 15.3011 6.45878 11.7533 8.48549C8.20537 10.5122 6.65056 13.378 5.88542 12.0385C5.12027 10.6991 7.37613 7.9703 10.924 5.94359C14.4719 3.91688 18.6947 3.51944 19.4598 4.85887Z" fill="#0C3053"/>
<circle cx="5" cy="14.5" r="1.5" fill="#0C3053"/>
</g>
<rect x="0.25" y="0.25" width="122.5" height="40.5" rx="15.75" stroke="#E6E8EA" stroke-width="0.5"/>
<defs>
<filter id="filter0_i_991_10777" x="12.0386" y="14.3843" width="16.685" height="12.0696" filterUnits="userSpaceOnUse" color-interpolation-filters="sRGB">
<feFlood flood-opacity="0" result="BackgroundImageFix"/>
<feBlend mode="normal" in="SourceGraphic" in2="BackgroundImageFix" result="shape"/>
<feColorMatrix in="SourceAlpha" type="matrix" values="0 0 0 0 0 0 0 0 0 0 0 0 0 0 0 0 0 0 127 0" result="hardAlpha"/>
<feOffset dx="0.761905" dy="0.761905"/>
<feGaussianBlur stdDeviation="0.380952"/>
<feComposite in2="hardAlpha" operator="arithmetic" k2="-1" k3="1"/>
<feColorMatrix type="matrix" values="0 0 0 0 0 0 0 0 0 0 0 0 0 0 0 0 0 0 0.25 0"/>
<feBlend mode="normal" in2="shape" result="effect1_innerShadow_991_10777"/>
</filter>
<filter id="filter1_d_991_10777" x="36.6304" y="14.046" width="79.4006" height="16" filterUnits="userSpaceOnUse" color-interpolation-filters="sRGB">
<feFlood flood-opacity="0" result="BackgroundImageFix"/>
<feColorMatrix in="SourceAlpha" type="matrix" values="0 0 0 0 0 0 0 0 0 0 0 0 0 0 0 0 0 0 127 0" result="hardAlpha"/>
<feOffset dx="2" dy="2"/>
<feComposite in2="hardAlpha" operator="out"/>
<feColorMatrix type="matrix" values="0 0 0 0 0 0 0 0 0 0 0 0 0 0 0 0 0 0 0.25 0"/>
<feBlend mode="normal" in2="BackgroundImageFix" result="effect1_dropShadow_991_10777"/>
<feBlend mode="normal" in="SourceGraphic" in2="effect1_dropShadow_991_10777" result="shape"/>
</filter>
<clipPath id="clip0_991_10777">
<rect width="123" height="41" rx="16" fill="white"/>
</clipPath>
</defs>
</svg>
