<svg width="190" height="66" viewBox="0 0 190 66" fill="none" xmlns="http://www.w3.org/2000/svg">
<g filter="url(#filter0_d_823_5856)">
<path d="M123.523 9.92953C124.029 6.65474 127.095 4.41048 130.369 4.91682L178.044 12.2883C182.886 13.0369 184.838 18.9588 181.391 22.4398L172.231 31.689C170.459 33.4787 169.993 36.1849 171.065 38.4642L177.426 51.9915C179.471 56.3403 175.829 61.2087 171.08 60.4743L122.93 53.0295C119.655 52.5232 117.411 49.4579 117.917 46.1831L123.523 9.92953Z" fill="#354859"/>
<path d="M130.293 5.41095L177.968 12.7824C182.406 13.4687 184.196 18.897 181.036 22.088L171.876 31.3371C169.956 33.276 169.451 36.2077 170.612 38.677L176.974 52.2043C178.848 56.1907 175.51 60.6533 171.156 59.9802L123.007 52.5354C120.005 52.0712 117.947 49.2614 118.412 46.2595L124.017 10.0059C124.481 7.00404 127.291 4.9468 130.293 5.41095Z" stroke="#E6E8EA"/>
</g>
<g filter="url(#filter1_d_823_5856)">
<path d="M66.1418 10.9295C65.6354 7.65474 62.5702 5.41048 59.2954 5.91682L11.6204 13.2883C6.77875 14.0369 4.82662 19.9588 8.27395 23.4398L17.4336 32.689C19.206 34.4787 19.6719 37.1849 18.6 39.4642L12.2387 52.9915C10.1937 57.3403 13.8359 62.2087 18.5851 61.4743L66.7346 54.0295C70.0094 53.5232 72.2537 50.4579 71.7473 47.1831L66.1418 10.9295Z" fill="#354859"/>
<path d="M59.3718 6.41095L11.6968 13.7824C7.25862 14.4687 5.46917 19.897 8.62922 23.088L17.7889 32.3371C19.7089 34.276 20.2136 37.2077 19.0524 39.677L12.6912 53.2043C10.8165 57.1907 14.1553 61.6533 18.5087 60.9802L66.6582 53.5354C69.6601 53.0712 71.7173 50.2614 71.2532 47.2595L65.6477 11.0059C65.1835 8.00404 62.3737 5.9468 59.3718 6.41095Z" stroke="#E6E8EA"/>
</g>
<g filter="url(#filter2_i_823_5856)">
<path d="M29.0033 14.263C29.0033 8.48342 33.4632 3.69355 39.2315 3.33369C53.3992 2.44982 78.99 1 94.4192 1C109.935 1 136.298 2.46615 150.759 3.34853C156.536 3.701 161.003 8.49444 161.003 14.2817V42.7884C161.003 48.5468 156.563 53.3258 150.817 53.6982C137.139 54.5846 112.473 56 94.4192 56C76.4741 56 52.5391 54.6015 39.1588 53.7142C33.4224 53.3338 29.0033 48.56 29.0033 42.811V14.263Z" fill="#354859"/>
</g>
<path d="M161.503 42.7884V14.2817C161.503 8.23274 156.832 3.21818 150.79 2.84946C136.331 1.96726 109.953 0.5 94.4192 0.5C78.9718 0.5 53.3654 1.95095 39.2004 2.83466C33.166 3.21112 28.5033 8.22188 28.5033 14.263V42.811C28.5033 48.8203 33.1235 53.8151 39.1257 54.2131C52.5063 55.1004 76.456 56.5 94.4192 56.5C112.49 56.5 137.172 55.0835 150.849 54.1972C156.861 53.8076 161.503 48.8079 161.503 42.7884Z" stroke="white"/>
<g filter="url(#filter3_d_823_5856)">
<path d="M63.8164 20.952H66.8884V24.048H63.8164V20.952ZM68.1364 20.952H71.2084V24.048H68.1364V20.952ZM64.1764 33C63.0724 33 62.0564 32.728 61.1284 32.184C60.2004 31.64 59.4644 30.904 58.9204 29.976C58.3764 29.048 58.1044 28.032 58.1044 26.928V24.048H61.5604V26.736C61.5604 27.456 61.8164 28.08 62.3284 28.608C62.8404 29.12 63.4564 29.376 64.1764 29.376H71.8084C72.2724 29.376 72.6484 29.224 72.9364 28.92C73.2404 28.6 73.3924 28.208 73.3924 27.744V24.048H76.8484V27.744C76.8484 28.704 76.6244 29.584 76.1764 30.384C75.7444 31.184 75.1444 31.824 74.3764 32.304C73.6084 32.768 72.7524 33 71.8084 33H64.1764ZM78.7059 16.824H82.1619V33H78.7059V16.824ZM84.6041 18.912H87.6761V21.984H84.6041V18.912ZM80.7881 36.912C81.9241 36.256 82.7321 35.728 83.2121 35.328C83.6921 34.928 84.0121 34.496 84.1721 34.032C84.3321 33.568 84.4121 32.896 84.4121 32.016V24.048H87.8681V32.016C87.8681 33.36 87.7001 34.464 87.3641 35.328C87.0281 36.192 86.4521 36.96 85.6361 37.632C84.8201 38.32 83.6361 39.048 82.0841 39.816L80.7881 36.912ZM94.3976 33C93.5656 33 92.8056 32.8 92.1176 32.4C91.4296 31.984 90.8856 31.432 90.4856 30.744C90.0856 30.04 89.8856 29.28 89.8856 28.464V16.824H93.3416V28.248C93.3416 28.568 93.4456 28.84 93.6536 29.064C93.8616 29.272 94.1176 29.376 94.4216 29.376H95.7416C95.9016 29.376 95.9816 29.456 95.9816 29.616V32.76C95.9816 32.92 95.9016 33 95.7416 33H94.3976ZM95.5026 29.616C95.5026 29.456 95.5826 29.376 95.7426 29.376H97.3026C97.6226 29.376 97.8866 29.272 98.0946 29.064C98.3026 28.84 98.4066 28.568 98.4066 28.248V24.048H101.863V28.248C101.863 28.568 101.967 28.84 102.175 29.064C102.383 29.272 102.647 29.376 102.967 29.376H104.527C104.687 29.376 104.767 29.456 104.767 29.616V32.76C104.767 32.92 104.687 33 104.527 33H102.967C101.783 33 100.839 32.608 100.135 31.824C99.3986 32.608 98.4546 33 97.3026 33H95.7426C95.5826 33 95.5026 32.92 95.5026 32.76V29.616ZM96.4146 35.064H99.4866V38.136H96.4146V35.064ZM100.735 35.064H103.831V38.136H100.735V35.064ZM105.228 18.888H108.3V21.96H105.228V18.888ZM109.548 18.888H112.644V21.96H109.548V18.888ZM104.292 29.616C104.292 29.456 104.372 29.376 104.532 29.376H106.092C106.412 29.376 106.676 29.272 106.884 29.064C107.092 28.84 107.196 28.568 107.196 28.248V24.048H110.652V28.248C110.652 28.568 110.756 28.84 110.964 29.064C111.172 29.272 111.436 29.376 111.756 29.376H113.316C113.476 29.376 113.556 29.456 113.556 29.616V32.76C113.556 32.92 113.476 33 113.316 33H111.756C110.572 33 109.628 32.608 108.924 31.824C108.188 32.608 107.244 33 106.092 33H104.532C104.372 33 104.292 32.92 104.292 32.76V29.616ZM121.001 22.8C121.961 22.8 122.841 23.016 123.641 23.448C124.441 23.88 125.073 24.48 125.537 25.248C126.017 26 126.257 26.848 126.257 27.792C126.257 28.736 126.017 29.616 125.537 30.432C125.073 31.232 124.433 31.872 123.617 32.352C122.817 32.816 121.945 33.048 121.001 33.048C120.361 33.048 119.761 32.936 119.201 32.712C118.641 32.488 118.137 32.176 117.689 31.776C117.001 32.592 116.073 33 114.905 33H113.321C113.161 33 113.081 32.92 113.081 32.76V29.616C113.081 29.456 113.161 29.376 113.321 29.376H114.905C115.209 29.376 115.465 29.272 115.673 29.064C115.897 28.84 116.009 28.568 116.009 28.248V26.232H114.521V22.8H121.001ZM121.001 29.424C121.465 29.424 121.849 29.272 122.153 28.968C122.457 28.648 122.609 28.256 122.609 27.792C122.609 27.344 122.457 26.976 122.153 26.688C121.849 26.384 121.465 26.232 121.001 26.232H119.417V27.792C119.417 28.256 119.561 28.648 119.849 28.968C120.153 29.272 120.537 29.424 121.001 29.424ZM128.112 16.824H131.568V33H128.112V16.824Z" fill="#E6E8EA"/>
</g>
<path fill-rule="evenodd" clip-rule="evenodd" d="M34.4266 51.4505C36.0821 52.7443 38.127 53.5693 40.3748 53.7196C53.6474 54.6072 77.2981 55.9998 95.0395 55.9998C112.889 55.9998 137.264 54.5902 150.831 53.7035C156.574 53.3281 161.007 48.5507 161.007 42.7953V14.275C161.007 11.7048 160.126 9.33057 158.64 7.45435C157.809 32.6084 136.073 61.9332 34.4266 51.4505Z" fill="#283643"/>
<path d="M49.5033 7.15283C50.3472 8.63016 44.9164 8.91746 41.0033 11.1528C37.0901 13.3882 35.3753 16.549 34.5313 15.0717C33.6874 13.5943 36.1755 10.5846 40.0887 8.34923C44.0018 6.11386 48.6594 5.6755 49.5033 7.15283Z" fill="#536B80"/>
<defs>
<filter id="filter0_d_823_5856" x="117.846" y="4.84546" width="67.2877" height="59.7029" filterUnits="userSpaceOnUse" color-interpolation-filters="sRGB">
<feFlood flood-opacity="0" result="BackgroundImageFix"/>
<feColorMatrix in="SourceAlpha" type="matrix" values="0 0 0 0 0 0 0 0 0 0 0 0 0 0 0 0 0 0 127 0" result="hardAlpha"/>
<feOffset dx="2" dy="4"/>
<feComposite in2="hardAlpha" operator="out"/>
<feColorMatrix type="matrix" values="0 0 0 0 0 0 0 0 0 0 0 0 0 0 0 0 0 0 0.25 0"/>
<feBlend mode="normal" in2="BackgroundImageFix" result="effect1_dropShadow_823_5856"/>
<feBlend mode="normal" in="SourceGraphic" in2="effect1_dropShadow_823_5856" result="shape"/>
</filter>
<filter id="filter1_d_823_5856" x="6.53088" y="5.84546" width="67.2877" height="59.7029" filterUnits="userSpaceOnUse" color-interpolation-filters="sRGB">
<feFlood flood-opacity="0" result="BackgroundImageFix"/>
<feColorMatrix in="SourceAlpha" type="matrix" values="0 0 0 0 0 0 0 0 0 0 0 0 0 0 0 0 0 0 127 0" result="hardAlpha"/>
<feOffset dx="2" dy="4"/>
<feComposite in2="hardAlpha" operator="out"/>
<feColorMatrix type="matrix" values="0 0 0 0 0 0 0 0 0 0 0 0 0 0 0 0 0 0 0.25 0"/>
<feBlend mode="normal" in2="BackgroundImageFix" result="effect1_dropShadow_823_5856"/>
<feBlend mode="normal" in="SourceGraphic" in2="effect1_dropShadow_823_5856" result="shape"/>
</filter>
<filter id="filter2_i_823_5856" x="28.0033" y="0" width="134.5" height="57.5" filterUnits="userSpaceOnUse" color-interpolation-filters="sRGB">
<feFlood flood-opacity="0" result="BackgroundImageFix"/>
<feBlend mode="normal" in="SourceGraphic" in2="BackgroundImageFix" result="shape"/>
<feColorMatrix in="SourceAlpha" type="matrix" values="0 0 0 0 0 0 0 0 0 0 0 0 0 0 0 0 0 0 127 0" result="hardAlpha"/>
<feOffset dx="2" dy="2"/>
<feGaussianBlur stdDeviation="0.25"/>
<feComposite in2="hardAlpha" operator="arithmetic" k2="-1" k3="1"/>
<feColorMatrix type="matrix" values="0 0 0 0 0 0 0 0 0 0 0 0 0 0 0 0 0 0 0.25 0"/>
<feBlend mode="normal" in2="shape" result="effect1_innerShadow_823_5856"/>
</filter>
<filter id="filter3_d_823_5856" x="58.1044" y="16.824" width="75.4637" height="24.9921" filterUnits="userSpaceOnUse" color-interpolation-filters="sRGB">
<feFlood flood-opacity="0" result="BackgroundImageFix"/>
<feColorMatrix in="SourceAlpha" type="matrix" values="0 0 0 0 0 0 0 0 0 0 0 0 0 0 0 0 0 0 127 0" result="hardAlpha"/>
<feOffset dx="2" dy="2"/>
<feComposite in2="hardAlpha" operator="out"/>
<feColorMatrix type="matrix" values="0 0 0 0 0 0 0 0 0 0 0 0 0 0 0 0 0 0 0.25 0"/>
<feBlend mode="normal" in2="BackgroundImageFix" result="effect1_dropShadow_823_5856"/>
<feBlend mode="normal" in="SourceGraphic" in2="effect1_dropShadow_823_5856" result="shape"/>
</filter>
</defs>
</svg>
