<svg width="30" height="30" viewBox="0 0 30 30" fill="none" xmlns="http://www.w3.org/2000/svg">
<circle cx="15" cy="15" r="14.5" fill="#354859" stroke="#B1B8BF"/>
<path fill-rule="evenodd" clip-rule="evenodd" d="M9.19922 2.25451C10.9666 1.44886 12.9308 1 14.9999 1C22.1992 1 28.1294 6.43415 28.9122 13.4244C27.5136 13.7989 26.0325 14 24.4993 14C16.7886 14 10.3929 8.91458 9.19922 2.25451Z" fill="#455B6E"/>
<path d="M15 18C16.6569 18 18 16.6569 18 15C18 13.3431 16.6569 12 15 12C13.3431 12 12 13.3431 12 15C12 16.6569 13.3431 18 15 18Z" stroke="#E6E8EA" stroke-width="1.5" stroke-miterlimit="10" stroke-linecap="round" stroke-linejoin="round"/>
<path d="M5 15.8801V14.1201C5 13.0801 5.85 12.2201 6.9 12.2201C8.71 12.2201 9.45 10.9401 8.54 9.37006C8.02 8.47006 8.33 7.30006 9.24 6.78006L10.97 5.79006C11.76 5.32006 12.78 5.60006 13.25 6.39006L13.36 6.58006C14.26 8.15006 15.74 8.15006 16.65 6.58006L16.76 6.39006C17.23 5.60006 18.25 5.32006 19.04 5.79006L20.77 6.78006C21.68 7.30006 21.99 8.47006 21.47 9.37006C20.56 10.9401 21.3 12.2201 23.11 12.2201C24.15 12.2201 25.01 13.0701 25.01 14.1201V15.8801C25.01 16.9201 24.16 17.7801 23.11 17.7801C21.3 17.7801 20.56 19.0601 21.47 20.6301C21.99 21.5401 21.68 22.7001 20.77 23.2201L19.04 24.2101C18.25 24.6801 17.23 24.4001 16.76 23.6101L16.65 23.4201C15.75 21.8501 14.27 21.8501 13.36 23.4201L13.25 23.6101C12.78 24.4001 11.76 24.6801 10.97 24.2101L9.24 23.2201C8.33 22.7001 8.02 21.5301 8.54 20.6301C9.45 19.0601 8.71 17.7801 6.9 17.7801C5.85 17.7801 5 16.9201 5 15.8801Z" stroke="#E6E8EA" stroke-width="1.5" stroke-miterlimit="10" stroke-linecap="round" stroke-linejoin="round"/>
</svg>
