<svg width="81" height="44" viewBox="0 0 81 44" fill="none" xmlns="http://www.w3.org/2000/svg">
<g filter="url(#filter0_d_1215_13908)">
<rect width="80" height="40" rx="19" fill="#132D46" shape-rendering="crispEdges"/>
<g filter="url(#filter1_d_1215_13908)">
<path d="M26.616 22.974C26.7093 22.974 26.756 23.0207 26.756 23.114V24.36C26.756 24.4533 26.7093 24.5 26.616 24.5H25.986C25.6127 24.5 25.2767 24.4207 24.978 24.262C24.6887 24.1033 24.446 23.8793 24.25 23.59C23.9887 23.8793 23.676 24.108 23.312 24.276C22.948 24.444 22.5607 24.528 22.15 24.528C21.6367 24.528 21.17 24.402 20.75 24.15C20.3393 23.898 20.0127 23.5527 19.77 23.114C19.5367 22.6753 19.42 22.1993 19.42 21.686V20.398H18.958C18.6407 20.398 18.37 20.51 18.146 20.734C17.922 20.958 17.81 21.224 17.81 21.532V28H16.368V21.532C16.368 21.0653 16.4847 20.636 16.718 20.244C16.9513 19.8427 17.264 19.53 17.656 19.306C18.0573 19.0727 18.4913 18.956 18.958 18.956H22.15C22.6633 18.956 23.1393 19.0773 23.578 19.32C24.0167 19.5533 24.362 19.88 24.614 20.3C24.866 20.72 24.992 21.182 24.992 21.686V21.98C24.992 22.26 25.09 22.498 25.286 22.694C25.482 22.8807 25.7153 22.974 25.986 22.974H26.616ZM22.15 23.002C22.5233 23.002 22.836 22.876 23.088 22.624C23.34 22.372 23.466 22.0593 23.466 21.686C23.466 21.322 23.34 21.014 23.088 20.762C22.836 20.51 22.5233 20.384 22.15 20.384H20.848V21.686C20.848 22.0593 20.974 22.372 21.226 22.624C21.478 22.876 21.786 23.002 22.15 23.002ZM28.2112 16.604H29.6392V18.018H28.2112V16.604ZM26.6152 24.5C26.5219 24.5 26.4752 24.4533 26.4752 24.36V23.114C26.4752 23.0207 26.5219 22.974 26.6152 22.974H27.3012C27.5719 22.974 27.8052 22.876 28.0012 22.68C28.1972 22.484 28.2952 22.246 28.2952 21.966V19.306H29.7372V22.05C29.7372 22.498 29.6299 22.9087 29.4152 23.282C29.2006 23.6553 28.9066 23.954 28.5332 24.178C28.1599 24.3927 27.7492 24.5 27.3012 24.5H26.6152ZM37.446 22.974C37.5393 22.974 37.586 23.0207 37.586 23.114V24.36C37.586 24.4533 37.5393 24.5 37.446 24.5H36.69C36.6247 25.1253 36.4427 25.6433 36.144 26.054C35.8453 26.474 35.4347 26.838 34.912 27.146C34.3893 27.4633 33.638 27.8367 32.658 28.266L32.21 26.992C33.078 26.6187 33.7173 26.3153 34.128 26.082C34.548 25.858 34.842 25.6247 35.01 25.382C35.1873 25.1487 35.276 24.8547 35.276 24.5H33.988C33.4653 24.5 32.9847 24.3833 32.546 24.15C32.1167 23.9073 31.7713 23.576 31.51 23.156C31.258 22.736 31.132 22.2693 31.132 21.756C31.132 21.2427 31.258 20.7713 31.51 20.342C31.7713 19.9127 32.1167 19.572 32.546 19.32C32.9847 19.0587 33.4653 18.928 33.988 18.928C34.492 18.928 34.954 19.054 35.374 19.306C35.794 19.558 36.1207 19.9033 36.354 20.342C36.5967 20.7713 36.718 21.2427 36.718 21.756V22.974H37.446ZM35.276 21.756C35.276 21.392 35.15 21.084 34.898 20.832C34.646 20.5707 34.3427 20.44 33.988 20.44C33.6147 20.44 33.2973 20.5707 33.036 20.832C32.784 21.084 32.658 21.392 32.658 21.756C32.658 22.1293 32.784 22.442 33.036 22.694C33.2973 22.9367 33.6147 23.058 33.988 23.058H35.276V21.756ZM41.9934 18.956C42.516 18.956 42.992 19.0773 43.4214 19.32C43.86 19.5533 44.2054 19.88 44.4574 20.3C44.7187 20.72 44.8494 21.182 44.8494 21.686C44.8494 22.1993 44.7187 22.6753 44.4574 23.114C44.2054 23.5433 43.86 23.8887 43.4214 24.15C42.992 24.402 42.516 24.528 41.9934 24.528C41.592 24.528 41.2187 24.4487 40.8734 24.29C40.528 24.1313 40.2294 23.912 39.9774 23.632C39.7907 23.9027 39.5527 24.1173 39.2634 24.276C38.974 24.4253 38.6427 24.5 38.2694 24.5H37.4434C37.35 24.5 37.3034 24.4533 37.3034 24.36V23.114C37.3034 23.0207 37.35 22.974 37.4434 22.974H38.2694C38.54 22.974 38.7734 22.8807 38.9694 22.694C39.1654 22.498 39.2634 22.26 39.2634 21.98V20.398H38.4234V18.956H41.9934ZM41.9934 23.002C42.3667 23.002 42.6794 22.876 42.9314 22.624C43.1927 22.372 43.3234 22.0593 43.3234 21.686C43.3234 21.322 43.1927 21.0187 42.9314 20.776C42.6794 20.524 42.3667 20.398 41.9934 20.398H40.6914V21.686C40.6914 22.0593 40.8174 22.372 41.0694 22.624C41.3214 22.876 41.6294 23.002 41.9934 23.002ZM55.8854 22.974C55.9787 22.974 56.0254 23.0207 56.0254 23.114V24.36C56.0254 24.4533 55.9787 24.5 55.8854 24.5H54.9754C55.1341 24.7987 55.2134 25.1347 55.2134 25.508C55.2134 25.9653 55.0967 26.3853 54.8634 26.768C54.6394 27.1507 54.3314 27.454 53.9394 27.678C53.5567 27.9113 53.1367 28.028 52.6794 28.028H49.5714C48.9834 28.028 48.4374 27.8833 47.9334 27.594C47.4387 27.3047 47.0421 26.908 46.7434 26.404C46.4541 25.9093 46.3094 25.368 46.3094 24.78V21.686H47.7514V24.696C47.7514 25.0227 47.8307 25.326 47.9894 25.606C48.1574 25.886 48.3814 26.1053 48.6614 26.264C48.9414 26.432 49.2447 26.516 49.5714 26.516H52.7074C52.9781 26.516 53.2114 26.4133 53.4074 26.208C53.6034 26.012 53.7014 25.7787 53.7014 25.508C53.7014 25.228 53.6034 24.99 53.4074 24.794C53.2114 24.598 52.9781 24.5 52.7074 24.5H49.9774V22.974H55.8854ZM60.4367 18.956C60.9594 18.956 61.4354 19.0773 61.8647 19.32C62.3034 19.5533 62.6487 19.88 62.9007 20.3C63.1621 20.72 63.2927 21.182 63.2927 21.686C63.2927 22.1993 63.1621 22.6753 62.9007 23.114C62.6487 23.5433 62.3034 23.8887 61.8647 24.15C61.4354 24.402 60.9594 24.528 60.4367 24.528C60.0354 24.528 59.6621 24.4487 59.3167 24.29C58.9714 24.1313 58.6727 23.912 58.4207 23.632C58.2341 23.9027 57.9961 24.1173 57.7067 24.276C57.4174 24.4253 57.0861 24.5 56.7127 24.5H55.8867C55.7934 24.5 55.7467 24.4533 55.7467 24.36V23.114C55.7467 23.0207 55.7934 22.974 55.8867 22.974H56.7127C56.9834 22.974 57.2167 22.8807 57.4127 22.694C57.6087 22.498 57.7067 22.26 57.7067 21.98V20.398H56.8667V18.956H60.4367ZM60.4367 23.002C60.8101 23.002 61.1227 22.876 61.3747 22.624C61.6361 22.372 61.7667 22.0593 61.7667 21.686C61.7667 21.322 61.6361 21.0187 61.3747 20.776C61.1227 20.524 60.8101 20.398 60.4367 20.398H59.1347V21.686C59.1347 22.0593 59.2607 22.372 59.5127 22.624C59.7647 22.876 60.0727 23.002 60.4367 23.002Z" fill="#E6E8EA"/>
</g>
<circle cx="4.5" cy="14.5" r="1.5" fill="#092B4B"/>
<circle cx="4.5" cy="14.5" r="1.5" fill="#1D3E5E"/>
<path d="M21.5925 3.9819C22.3905 5.37895 16.971 5.81279 13.0072 8.07711C9.04337 10.3414 7.24307 13.4325 6.44501 12.0354C5.64695 10.6384 8.21331 7.67027 12.1771 5.40595C16.1409 3.14163 20.7944 2.58486 21.5925 3.9819Z" fill="#092B4B"/>
<path d="M21.5925 3.9819C22.3905 5.37895 16.971 5.81279 13.0072 8.07711C9.04337 10.3414 7.24307 13.4325 6.44501 12.0354C5.64695 10.6384 8.21331 7.67027 12.1771 5.40595C16.1409 3.14163 20.7944 2.58486 21.5925 3.9819Z" fill="#1D3E5E"/>
</g>
<defs>
<filter id="filter0_d_1215_13908" x="0" y="0" width="81" height="44" filterUnits="userSpaceOnUse" color-interpolation-filters="sRGB">
<feFlood flood-opacity="0" result="BackgroundImageFix"/>
<feColorMatrix in="SourceAlpha" type="matrix" values="0 0 0 0 0 0 0 0 0 0 0 0 0 0 0 0 0 0 127 0" result="hardAlpha"/>
<feOffset dx="1" dy="4"/>
<feComposite in2="hardAlpha" operator="out"/>
<feColorMatrix type="matrix" values="0 0 0 0 0.02 0 0 0 0 0.086383 0 0 0 0 0.15 0 0 0 1 0"/>
<feBlend mode="normal" in2="BackgroundImageFix" result="effect1_dropShadow_1215_13908"/>
<feBlend mode="normal" in="SourceGraphic" in2="effect1_dropShadow_1215_13908" result="shape"/>
</filter>
<filter id="filter1_d_1215_13908" x="16.3679" y="16.604" width="48.9246" height="13.6621" filterUnits="userSpaceOnUse" color-interpolation-filters="sRGB">
<feFlood flood-opacity="0" result="BackgroundImageFix"/>
<feColorMatrix in="SourceAlpha" type="matrix" values="0 0 0 0 0 0 0 0 0 0 0 0 0 0 0 0 0 0 127 0" result="hardAlpha"/>
<feOffset dx="2" dy="2"/>
<feComposite in2="hardAlpha" operator="out"/>
<feColorMatrix type="matrix" values="0 0 0 0 0 0 0 0 0 0 0 0 0 0 0 0 0 0 0.34 0"/>
<feBlend mode="normal" in2="BackgroundImageFix" result="effect1_dropShadow_1215_13908"/>
<feBlend mode="normal" in="SourceGraphic" in2="effect1_dropShadow_1215_13908" result="shape"/>
</filter>
</defs>
</svg>
