<svg width="32" height="32" viewBox="0 0 32 32" fill="none" xmlns="http://www.w3.org/2000/svg">
<g filter="url(#filter0_i_867_7639)">
<path d="M20 11.16V9.88C20 5.90667 17.24 4.38667 13.88 6.49334L9.98663 8.93334C9.55996 9.18667 9.06663 9.33334 8.57329 9.33334H6.66663C3.99996 9.33334 2.66663 10.6667 2.66663 13.3333V18.6667C2.66663 21.3333 3.99996 22.6667 6.66663 22.6667H9.33329" stroke="#E6E8EA" stroke-width="2" stroke-linecap="round" stroke-linejoin="round"/>
<path d="M13.88 25.5067C17.24 27.6133 20 26.08 20 22.12V17.2667" stroke="#E6E8EA" stroke-width="2" stroke-linecap="round" stroke-linejoin="round"/>
<path d="M25.08 12.56C26.28 15.4267 25.92 18.7733 24 21.3333" stroke="#E6E8EA" stroke-width="2" stroke-linecap="round" stroke-linejoin="round"/>
<path d="M28.1999 10.4C30.1599 15.0533 29.5733 20.4933 26.4399 24.6667" stroke="#E6E8EA" stroke-width="2" stroke-linecap="round" stroke-linejoin="round"/>
<path d="M29.3333 2.66666L2.66663 29.3333" stroke="#E6E8EA" stroke-width="2" stroke-linecap="round" stroke-linejoin="round"/>
</g>
<defs>
<filter id="filter0_i_867_7639" x="1.66663" y="1.66666" width="29.6666" height="29.6667" filterUnits="userSpaceOnUse" color-interpolation-filters="sRGB">
<feFlood flood-opacity="0" result="BackgroundImageFix"/>
<feBlend mode="normal" in="SourceGraphic" in2="BackgroundImageFix" result="shape"/>
<feColorMatrix in="SourceAlpha" type="matrix" values="0 0 0 0 0 0 0 0 0 0 0 0 0 0 0 0 0 0 127 0" result="hardAlpha"/>
<feOffset dx="1" dy="1"/>
<feGaussianBlur stdDeviation="0.5"/>
<feComposite in2="hardAlpha" operator="arithmetic" k2="-1" k3="1"/>
<feColorMatrix type="matrix" values="0 0 0 0 0 0 0 0 0 0 0 0 0 0 0 0 0 0 0.25 0"/>
<feBlend mode="normal" in2="shape" result="effect1_innerShadow_867_7639"/>
</filter>
</defs>
</svg>
