<svg width="71" height="34" viewBox="0 0 71 34" fill="none" xmlns="http://www.w3.org/2000/svg">
<g filter="url(#filter0_d_827_9403)">
<rect width="70" height="30" rx="15" fill="#0B233A" shape-rendering="crispEdges"/>
<g filter="url(#filter1_d_827_9403)">
<path d="M34.55 17.974C34.6433 17.974 34.69 18.0207 34.69 18.114V19.36C34.69 19.4533 34.6433 19.5 34.55 19.5H33.92C33.5 19.5 33.1267 19.402 32.8 19.206C32.4733 19.01 32.212 18.7393 32.016 18.394C31.5027 18.8607 30.896 19.094 30.196 19.094C29.6827 19.094 29.2067 18.968 28.768 18.716C28.3293 18.4547 27.9793 18.1093 27.718 17.68C27.466 17.2413 27.34 16.7653 27.34 16.252C27.34 15.748 27.466 15.286 27.718 14.866C27.9793 14.446 28.3293 14.1193 28.768 13.886C29.2067 13.6433 29.6827 13.522 30.196 13.522H31.498V12.682H32.926V16.98C32.926 17.26 33.0193 17.498 33.206 17.694C33.402 17.8807 33.64 17.974 33.92 17.974H34.55ZM31.498 14.964H30.196C29.8227 14.964 29.51 15.09 29.258 15.342C29.006 15.5847 28.88 15.888 28.88 16.252C28.88 16.6253 29.006 16.938 29.258 17.19C29.51 17.442 29.8227 17.568 30.196 17.568C30.5693 17.568 30.8773 17.442 31.12 17.19C31.372 16.938 31.498 16.6253 31.498 16.252V14.964ZM34.5527 19.5C34.4594 19.5 34.4127 19.4533 34.4127 19.36V18.114C34.4127 18.0207 34.4594 17.974 34.5527 17.974H35.1827C35.4534 17.974 35.6867 17.8807 35.8827 17.694C36.0787 17.498 36.1767 17.26 36.1767 16.98V10.204H37.6187V16.98C37.6187 17.26 37.7167 17.498 37.9127 17.694C38.1087 17.8807 38.3421 17.974 38.6127 17.974H39.2427C39.3361 17.974 39.3827 18.0207 39.3827 18.114V19.36C39.3827 19.4533 39.3361 19.5 39.2427 19.5H38.6127C38.2394 19.5 37.8987 19.416 37.5907 19.248C37.2921 19.0707 37.0587 18.8373 36.8907 18.548C36.7227 18.8373 36.4894 19.0707 36.1907 19.248C35.8921 19.416 35.5561 19.5 35.1827 19.5H34.5527ZM39.2422 19.5C39.1489 19.5 39.1022 19.4533 39.1022 19.36V18.114C39.1022 18.0207 39.1489 17.974 39.2422 17.974H39.9282C40.1989 17.974 40.4322 17.876 40.6282 17.68C40.8242 17.484 40.9222 17.246 40.9222 16.966V14.306H42.3642V17.05C42.3642 17.498 42.2569 17.9087 42.0422 18.282C41.8275 18.6553 41.5335 18.954 41.1602 19.178C40.7869 19.3927 40.3762 19.5 39.9282 19.5H39.2422ZM39.2422 20.76H40.6702V22.188H39.2422V20.76Z" fill="#E6E8EA"/>
</g>
<circle cx="4" cy="10" r="1" fill="#092B4B"/>
<circle cx="4" cy="10" r="1" fill="#1D3E5E"/>
<path d="M15.6171 2.90773C16.1278 3.80167 12.66 4.07927 10.1236 5.52816C7.58726 6.97704 6.43529 8.95494 5.92463 8.061C5.41397 7.16706 7.05612 5.26783 9.59248 3.81894C12.1288 2.37006 15.1065 2.01379 15.6171 2.90773Z" fill="#092B4B"/>
<path d="M15.6171 2.90773C16.1278 3.80167 12.66 4.07927 10.1236 5.52816C7.58726 6.97704 6.43529 8.95494 5.92463 8.061C5.41397 7.16706 7.05612 5.26783 9.59248 3.81894C12.1288 2.37006 15.1065 2.01379 15.6171 2.90773Z" fill="#1D3E5E"/>
</g>
<defs>
<filter id="filter0_d_827_9403" x="0" y="0" width="71" height="34" filterUnits="userSpaceOnUse" color-interpolation-filters="sRGB">
<feFlood flood-opacity="0" result="BackgroundImageFix"/>
<feColorMatrix in="SourceAlpha" type="matrix" values="0 0 0 0 0 0 0 0 0 0 0 0 0 0 0 0 0 0 127 0" result="hardAlpha"/>
<feOffset dx="1" dy="4"/>
<feComposite in2="hardAlpha" operator="out"/>
<feColorMatrix type="matrix" values="0 0 0 0 0.02 0 0 0 0 0.086383 0 0 0 0 0.15 0 0 0 1 0"/>
<feBlend mode="normal" in2="BackgroundImageFix" result="effect1_dropShadow_827_9403"/>
<feBlend mode="normal" in="SourceGraphic" in2="effect1_dropShadow_827_9403" result="shape"/>
</filter>
<filter id="filter1_d_827_9403" x="27.34" y="10.204" width="17.0242" height="13.984" filterUnits="userSpaceOnUse" color-interpolation-filters="sRGB">
<feFlood flood-opacity="0" result="BackgroundImageFix"/>
<feColorMatrix in="SourceAlpha" type="matrix" values="0 0 0 0 0 0 0 0 0 0 0 0 0 0 0 0 0 0 127 0" result="hardAlpha"/>
<feOffset dx="2" dy="2"/>
<feComposite in2="hardAlpha" operator="out"/>
<feColorMatrix type="matrix" values="0 0 0 0 0 0 0 0 0 0 0 0 0 0 0 0 0 0 0.34 0"/>
<feBlend mode="normal" in2="BackgroundImageFix" result="effect1_dropShadow_827_9403"/>
<feBlend mode="normal" in="SourceGraphic" in2="effect1_dropShadow_827_9403" result="shape"/>
</filter>
</defs>
</svg>
